<?xml version="1.0" standalone="no"?>
<!DOCTYPE svg PUBLIC "-//W3C//DTD SVG 20010904//EN"
 "http://www.w3.org/TR/2001/REC-SVG-20010904/DTD/svg10.dtd">
<svg version="1.0" xmlns="http://www.w3.org/2000/svg"
 width="300.000000pt" height="300.000000pt" viewBox="0 0 300.000000 300.000000"
 preserveAspectRatio="xMidYMid meet">
<metadata>
Created by potrace 1.10, written by Peter Selinger 2001-2011
</metadata>
<g transform="translate(0.000000,300.000000) scale(0.100000,-0.100000)"
fill="#000000" stroke="none">
<path d="M1515 2408 c-11 -6 -91 -63 -178 -127 -87 -64 -180 -132 -207 -151
-127 -92 -378 -276 -405 -297 -37 -29 -35 -27 -125 -93 -190 -138 -306 -225
-312 -234 -16 -22 -6 -36 55 -78 34 -24 148 -104 252 -178 105 -73 213 -149
240 -169 28 -19 111 -77 185 -130 480 -338 515 -361 546 -361 38 0 46 16 33
62 -5 18 -29 130 -54 248 -25 118 -48 223 -51 233 -5 17 -1 18 58 12 34 -3 70
-8 78 -10 8 -2 56 -6 105 -10 50 -3 101 -8 115 -10 14 -2 50 -7 80 -10 30 -2
120 -12 200 -20 80 -8 190 -20 245 -25 55 -6 116 -12 135 -15 143 -16 180 -17
195 -5 13 11 15 68 15 424 0 226 -3 421 -6 434 -4 12 -17 25 -31 28 -13 4
-102 -1 -196 -11 -95 -9 -190 -19 -212 -21 -22 -2 -58 -6 -80 -8 -22 -3 -74
-8 -115 -12 -41 -3 -187 -19 -325 -34 -137 -15 -252 -26 -254 -24 -4 3 54 305
85 444 19 86 18 123 -4 143 -22 20 -39 21 -67 5z m41 -52 c3 -7 -1 -36 -10
-62 -10 -35 -15 -42 -16 -24 -2 53 -19 -9 -64 -235 -25 -126 -49 -241 -51
-254 l-6 -23 78 7 c96 8 1051 102 1113 110 l45 5 -3 -382 c-3 -353 -2 -383 14
-395 10 -7 14 -16 10 -20 -4 -4 -11 -2 -15 6 -4 7 -39 17 -77 22 -54 8 -684
74 -1091 115 -54 5 -64 4 -69 -11 -4 -9 12 -108 35 -218 56 -265 61 -284 71
-267 7 11 11 8 19 -13 12 -30 15 -77 5 -77 -10 0 -48 23 -68 41 -11 11 -23 19
-28 19 -4 0 -8 5 -8 12 0 9 3 9 12 0 7 -7 23 -12 37 -12 31 0 4 20 -542 403
-213 150 -419 294 -457 321 -76 54 -98 57 -51 7 31 -34 31 -37 -2 -20 -23 13
-27 16 -72 54 l-30 25 32 27 c17 16 80 63 140 106 59 42 144 104 188 137 44
33 125 92 180 132 55 40 105 77 112 83 6 5 36 27 65 48 29 21 118 86 197 145
79 59 151 112 159 117 9 6 38 27 65 48 52 39 74 46 83 23z m-880 -1103 c-5 -5
-164 105 -172 119 -4 6 34 -18 84 -53 51 -34 90 -64 88 -66z m87 -53 c7 -5 26
-21 42 -36 25 -21 22 -20 -17 6 -44 29 -56 40 -43 40 3 0 11 -4 18 -10z m730
-7 c2 -5 -6 -18 -19 -30 -22 -22 -23 -22 -29 -3 -3 11 -3 24 0 30 7 12 42 14
48 3z m-598 -89 c32 -27 18 -23 -27 8 -16 11 -28 24 -28 29 0 10 4 8 55 -37z"/>
<path d="M1448 2281 c-33 -21 -87 -62 -104 -78 -7 -7 -15 -13 -18 -13 -4 0
-44 -29 -91 -65 -46 -36 -87 -65 -92 -65 -4 0 -21 -13 -38 -28 -16 -15 -46
-39 -65 -52 -19 -13 -38 -28 -41 -33 -3 -5 -9 -8 -13 -8 -3 1 -12 -3 -19 -9
-30 -24 -106 -79 -124 -89 -11 -5 -40 -26 -64 -46 -63 -52 -70 -57 -119 -90
-25 -16 -47 -32 -50 -35 -11 -12 -163 -120 -169 -120 -3 0 -12 -9 -19 -21 -12
-19 -12 -19 11 -7 13 7 87 59 163 116 77 56 180 132 229 168 50 36 101 74 115
84 47 36 186 137 355 260 94 68 177 129 185 137 20 18 0 15 -32 -6z"/>
<path d="M1445 2211 c-3 -6 -26 -24 -50 -40 -25 -17 -51 -35 -58 -41 -20 -17
-123 -92 -183 -135 -31 -22 -116 -84 -188 -137 -72 -53 -151 -111 -176 -129
-56 -41 -152 -111 -165 -122 -5 -4 -45 -33 -88 -64 -43 -30 -76 -57 -73 -60 3
-3 32 15 64 38 33 24 165 121 294 215 128 94 321 235 428 314 210 154 231 170
213 170 -7 0 -14 -4 -18 -9z"/>
<path d="M2471 1809 c-116 -11 -117 -22 -1 -13 97 7 178 23 115 22 -16 0 -68
-4 -114 -9z"/>
<path d="M2250 1788 c-129 -15 -257 -27 -335 -33 -44 -4 -132 -12 -195 -20
-236 -28 -269 -29 -290 -10 -19 17 -20 17 -20 -2 0 -12 6 -23 13 -25 11 -5
165 9 377 32 191 22 495 50 532 50 21 0 38 4 38 10 0 10 -15 9 -120 -2z"/>
</g>
</svg>
