<svg version="1.2" xmlns="http://www.w3.org/2000/svg" viewBox="0 0 180 175" width="180" height="175">
	<title>Ui8s1e01-svg</title>
	<style>
		.s0 { fill: #000000 } 
	</style>
	<g id="Layer">
		<path id="Layer" fill-rule="evenodd" class="s0" d="m147.2 19.2c8.1 7.4 23.9 31.7 28.5 43.6 12.6 31.8-3.4 72.6-37.1 95.1-15.9 10.7-30.7 15.9-48.4 17.1-16.4 1.2-28.2-1-41.7-7.6-13-6.4-22.7-16.5-34-35.4-14.1-23.8-17.4-40.1-12.1-60.6 8.6-32.6 36.7-59.6 71.4-68.7 26.2-6.9 54.9-0.3 73.4 16.5zm-67.3-12.4c-23.4 4.3-46.7 19.1-59.2 37.9-7.6 11.4-10.2 16.9-13.3 28.9-4.3 16.5-2.1 31 8.1 50.3 2.8 5.1 5 10.3 5 11.5 0 3.1 13.4 12.2 24.1 16.3 12.7 5 39.4 5.4 53.3 0.7 18.5-6.2 29.8-13.2 43.2-26.6 19.5-19.5 29.3-43.4 26.5-64.8-0.8-7.4-2.9-11.5-11.1-22.7-12.1-16.5-20.2-23.6-32.6-28.2-10.6-4-31.5-5.5-44-3.3zm88.6 78c-11.9 46.6-62 80.9-108.1 74-6-1-11.2-1.2-11.5-0.5-0.7 1.2 10 7 17.2 9.5 1.7 0.5 9.6 1 17.6 1 30.2 0 59.5-15.2 75.5-39.1 9.6-14.3 13.3-24.4 14.1-38.7 0.9-15.7-1.5-18.8-4.8-6.2z"/>
		<path id="Layer" fill-rule="evenodd" class="s0" d="m127.7 24.7c17.4 11.6 24.6 25.8 24.3 47.7-0.4 16.4-8.8 33.6-23.1 46.8-11.2 10.5-19.8 15.7-32.9 19.5-39 11.7-76.2-10.2-80-47.2-3.3-31.8 22.7-65.6 57.8-74.7 20.7-5.3 38.1-2.9 53.9 7.9zm-31.3-5.1c-44.6-2.8-84.9 41.6-73.3 81 3.8 13.5 18 28.3 31.6 32.7 14.3 4.7 35.7 3.1 50.1-3.6 30-14.1 47.4-45.1 40.5-71.8-4.5-17-14-27.8-30.8-34.7-3.7-1.6-11.7-3.1-18.1-3.6z"/>
		<path id="Layer" fill-rule="evenodd" class="s0" d="m118.8 51.4c2.7 3.1 10.5 14.3 9.9 14.5-0.3 0.3-16.8 11.2-36.6 24.2-26.9 17.8-36.3 23.3-37.4 21.5-0.7-1.3-5.5-8.9-10.6-16.8l-9.5-14.6 9.3-5.9c5.2-3.3 9.6-5.7 10-5.3 0.3 0.3 2.6 4.3 5.1 8.7 2.8 4.7 5.4 8.3 5.9 8.3 0.7-0.2 12.9-8.1 27-17.9 14.3-9.8 26.2-17.2 26.9-16.7zm-0.7 9c-1.6-1.2-7.4 1.9-20.9 10.6-10.1 6.9-21.6 14.3-25.6 16.6l-6.9 3.9-6.7-7c-7.4-7.8-8.3-8.1-11.4-5-3.2 3.2-2.5 6.2 3.7 14.8 2.9 4.3 6 8.6 6.5 9.4 1.4 2.1 8.1-1.5 26.7-14.3 8.4-5.8 19.8-13.4 25.1-16.8 5.3-3.5 10.2-7.3 10.7-8.5 0.5-1-0.2-2.7-1.2-3.7z"/>
	</g>
</svg>