<svg xmlns="http://www.w3.org/2000/svg" width="512" height="512" viewBox="0 0 512 512" version="1.1">
	<path d="M 321.825 64.521 C 319.189 65.964, 317.710 69.039, 313.605 81.601 C 310.907 89.859, 310.652 90.027, 298.107 91.837 L 286.841 93.461 282.671 91.079 C 270.653 84.215, 265.679 81.854, 257.347 79.063 C 252.319 77.378, 247.275 76, 246.137 76 C 245 76, 242.439 77.432, 240.446 79.182 C 236.833 82.354, 236.805 82.360, 231.101 81.182 C 218.205 78.518, 210.439 80.428, 203.680 87.924 C 198.027 94.194, 196.362 98.970, 195.808 110.510 C 195.523 116.438, 194.751 121.535, 193.914 123.010 C 193.025 124.576, 192.296 129.950, 191.947 137.500 L 191.394 149.500 187.127 156.346 C 184.781 160.112, 181.635 166.412, 180.136 170.346 C 178.055 175.806, 176.905 177.573, 175.278 177.810 C 172.311 178.241, 171.285 179.759, 168.642 187.635 C 166.890 192.851, 165.698 194.812, 163.677 195.800 C 160.856 197.180, 160.014 198.190, 154.186 207.192 C 152.159 210.323, 148.625 214.236, 146.334 215.888 C 143.651 217.822, 140.980 221.136, 138.834 225.196 C 135.673 231.172, 135.292 231.517, 131.500 231.820 C 126.721 232.203, 123.692 234.751, 120.452 241.116 C 118.477 244.995, 116.266 246.945, 106.602 253.326 C 100.277 257.503, 87.316 265.288, 77.801 270.625 C 43.279 289.989, 36.828 294.743, 26.903 308.131 C 21.069 316, 19.855 319.421, 21.035 324.655 C 21.783 327.970, 21.518 329.012, 18.945 332.896 C 13.502 341.114, 15.259 346.652, 26.883 357.908 C 46.467 376.872, 61.138 383.667, 84.788 384.724 C 99.867 385.398, 100.498 385.949, 95.991 394.518 C 91.837 402.414, 91.992 406.842, 96.703 414.805 C 101.210 422.424, 115.617 437.242, 126.010 444.947 C 136.119 452.443, 148.530 458.466, 159 460.958 C 178.519 465.603, 213.841 466.081, 235.573 461.993 C 269.535 455.606, 289.302 450.532, 318 440.835 C 349.289 430.262, 409.914 410.069, 434.500 402.032 C 466.280 391.642, 481.029 384.201, 490.751 373.654 C 496.464 367.456, 496.653 362.980, 491.412 357.946 C 486.442 353.172, 484.185 348.326, 482.897 339.663 C 481.864 332.722, 481.960 331.766, 484.397 324.706 C 487.492 315.740, 487.609 313.134, 485.140 308.210 C 483.777 305.493, 483.121 301.287, 482.690 292.500 C 482.006 278.568, 480.560 271.094, 474.781 251.639 C 471.057 239.100, 470.565 236.255, 470.429 226.500 C 470.306 217.649, 469.838 214.425, 468.034 210 C 464.920 202.362, 465.571 190.027, 469.982 173.070 C 473.676 158.870, 473.595 154.275, 469.580 150.084 C 468.161 148.602, 467 146.244, 467 144.843 C 467 141.147, 471.088 135.555, 474.034 135.220 C 479.431 134.607, 480.794 133.912, 481.919 131.197 C 483.370 127.692, 482.065 123.714, 478.795 121.673 C 477.533 120.885, 470.132 118.088, 462.350 115.458 C 442.980 108.910, 442.478 109.150, 435.562 128.234 C 432.733 136.041, 431.690 136.750, 420.500 138.476 C 415 139.324, 409.375 140.249, 408 140.532 C 406.138 140.915, 404.096 139.990, 400 136.910 C 392.512 131.279, 383.418 126.854, 371.508 123.047 C 358.490 118.885, 356.405 118.863, 352.849 122.843 C 350.011 126.019, 347.635 126.836, 346.513 125.020 C 346.180 124.481, 346.828 121.059, 347.954 117.415 C 351.079 107.296, 350.745 103.347, 346.386 98.883 L 342.772 95.183 344.216 90.841 C 345.600 86.683, 346.254 86.097, 353 82.985 C 353.825 82.604, 354.925 81.101, 355.444 79.644 C 357.197 74.724, 353.871 72.002, 340.944 67.780 C 326.240 62.979, 325.020 62.771, 321.825 64.521 M 325.954 76.086 C 325.340 77.233, 324.587 80.598, 324.281 83.564 C 323.677 89.415, 324.037 89.880, 329.492 90.287 C 332.013 90.475, 332.745 89.807, 335.676 84.643 C 337.504 81.422, 339 78.250, 339 77.594 C 339 76.164, 333.409 74, 329.714 74 C 328.058 74, 326.654 74.779, 325.954 76.086 M 241.860 87.648 C 237.294 92.820, 228.871 115.378, 224.434 134.318 C 221.982 144.782, 221.126 144.353, 240.587 142.406 L 245.674 141.897 248.325 133.042 C 249.956 127.592, 252.246 122.522, 254.281 119.854 C 258.601 114.190, 266.718 110.017, 274.849 109.280 C 281.800 108.650, 282.347 107.721, 278.998 102.229 C 276.472 98.086, 269.805 93.848, 259.543 89.862 C 249.099 85.805, 244.045 85.172, 241.860 87.648 M 205.507 98.330 C 203.721 102.604, 200.998 125.335, 202.445 123.888 C 202.690 123.643, 203.369 120.305, 203.953 116.471 C 204.537 112.637, 205.740 106.441, 206.627 102.703 C 208.428 95.107, 207.829 92.771, 205.507 98.330 M 328 112.655 C 323.875 114.007, 315.775 115.570, 310 116.129 C 304.225 116.689, 297.716 117.451, 295.536 117.823 L 291.573 118.500 281.681 148.923 L 271.788 179.347 273.541 185.134 C 274.806 189.315, 275.120 192.577, 274.670 196.883 L 274.047 202.843 280.774 205.375 C 284.473 206.768, 288.681 208.188, 290.125 208.531 L 292.751 209.154 293.444 200.824 C 293.879 195.608, 293.739 191.443, 293.069 189.682 C 291.596 185.808, 291.727 183.379, 293.620 179.388 C 295.042 176.392, 295.087 174.990, 293.990 167.934 C 293.165 162.634, 291.904 158.664, 290.289 156.284 C 286.033 150.012, 289.242 143.004, 297.001 141.625 C 299.861 141.117, 300.935 140.187, 302.865 136.548 C 308.278 126.345, 318.067 119.116, 328.671 117.490 C 332.491 116.905, 332.869 117.046, 333.171 119.165 C 333.715 122.991, 336.474 122.518, 338.272 118.291 C 341.450 110.818, 341.455 109.989, 338.317 110.099 C 336.768 110.153, 332.125 111.303, 328 112.655 M 268.384 119.913 C 262.137 122.750, 258.174 128.611, 256.569 137.389 L 255.857 141.279 258.938 140.662 C 260.632 140.324, 263.383 139.037, 265.051 137.804 C 268.509 135.248, 270.469 135.875, 273 140.349 C 275.402 144.595, 272.968 147.786, 264 152.148 C 259.875 154.155, 256.500 156.405, 256.500 157.148 C 256.500 157.892, 258.659 159.531, 261.297 160.791 C 267.115 163.570, 267.815 165.047, 265.113 168.841 C 262.845 172.026, 257.085 174, 250.057 174 C 247.826 174, 246.004 174.338, 246.009 174.750 C 246.014 175.162, 248.332 178.200, 251.160 181.500 C 255.496 186.559, 259 192.355, 259 194.468 C 259 194.761, 255.512 195.008, 251.250 195.017 C 246.988 195.027, 240.350 195.699, 236.500 196.511 C 228.328 198.234, 217.452 203.286, 215.976 206.045 C 215.094 207.693, 215.661 208.478, 219.974 211.577 C 225.313 215.413, 226.134 217.664, 223.171 220.345 C 220.805 222.486, 219.167 222.431, 213 220 C 206.109 217.284, 203.878 217.474, 200.437 221.069 L 197.500 224.138 200.621 226.819 C 204.416 230.079, 205.264 232.257, 203.616 234.511 C 202.590 235.913, 200.784 236.196, 193.435 236.105 C 185.512 236.007, 184.175 236.255, 181.632 238.297 L 178.764 240.600 181.382 245.767 C 184.024 250.980, 184.504 253.523, 183.393 256.418 C 182.490 258.772, 181.045 258.405, 173.650 253.944 C 166.596 249.691, 165.249 249.596, 161.096 253.063 L 158.692 255.070 161.321 257.813 C 162.767 259.322, 164.481 262.081, 165.130 263.943 C 166.200 267.012, 166.098 267.502, 164.045 269.165 C 162.798 270.174, 161.427 271, 160.998 271 C 160.569 271, 158.031 269.183, 155.359 266.963 C 151.741 263.957, 149.989 263.107, 148.500 263.637 C 141.350 266.182, 129.713 262.732, 118.895 254.861 C 117.577 253.902, 116.083 254.553, 110.555 258.498 C 106.851 261.141, 103.566 263.968, 103.254 264.780 C 102.462 266.845, 105.662 269.079, 118.966 275.750 L 130.432 281.500 141.501 281.500 L 152.570 281.500 163.335 276.266 C 174.060 271.052, 187.883 262.711, 189.184 260.669 C 189.560 260.079, 190.164 257.442, 190.526 254.809 C 191.578 247.163, 194.402 243.971, 203.030 240.673 C 211.581 237.405, 214.257 235.538, 225.947 224.691 C 236.364 215.025, 239.398 213.255, 254.500 208.027 C 271.413 202.172, 272.586 200.462, 269.889 185.615 C 268.860 179.953, 268.979 178.944, 271.485 172 C 274.088 164.789, 289 119.128, 289 118.370 C 289 118.166, 285.288 118.010, 280.750 118.022 C 274.865 118.038, 271.320 118.580, 268.384 119.913 M 448.954 125.086 C 448.340 126.233, 447.597 129.500, 447.304 132.346 C 446.772 137.498, 446.785 137.527, 450.419 139.260 C 455.448 141.658, 456.564 141.467, 458.017 137.959 C 458.710 136.287, 460.597 133.095, 462.212 130.866 C 463.826 128.637, 465.002 126.680, 464.824 126.517 C 463.882 125.652, 454.589 123, 452.500 123 C 451.061 123, 449.615 123.850, 448.954 125.086 M 353.287 132.250 C 347.526 138.539, 341.651 152.644, 335.520 174.912 C 331.393 189.899, 331.537 191.675, 337.107 194.556 C 340.378 196.247, 342.470 196.165, 352.849 193.939 L 357.651 192.909 358.912 186.564 C 360.613 178.006, 363.981 171.064, 369.178 165.404 C 375.226 158.817, 381.627 156.022, 390.691 156.010 C 394.646 156.004, 398.114 155.625, 398.398 155.166 C 399.284 153.732, 394.941 146.129, 391.646 143.344 C 387.782 140.078, 381.096 137.061, 368.852 133.058 C 357.675 129.403, 355.976 129.315, 353.287 132.250 M 308.168 144.947 C 307.518 146.813, 306.768 152.201, 306.502 156.920 L 306.019 165.500 307.981 154.500 C 310.056 142.863, 310.125 139.333, 308.168 144.947 M 301.272 157 C 301.272 159.475, 301.467 160.488, 301.706 159.250 C 301.944 158.012, 301.944 155.988, 301.706 154.750 C 301.467 153.512, 301.272 154.525, 301.272 157 M 225 158.859 C 225 160.259, 236.175 168.010, 237.243 167.350 C 237.731 167.048, 237.416 166.012, 236.543 165.048 C 234.387 162.665, 225 157.632, 225 158.859 M 452 160.105 C 443.634 163.084, 430.876 165, 419.411 165 L 409.085 165 406.973 172.250 C 405.812 176.238, 401.028 191.390, 396.343 205.923 C 390.881 222.863, 388.010 233.270, 388.341 234.923 C 388.626 236.340, 390.058 241.325, 391.524 246 C 394.161 254.415, 394.214 256.997, 391.906 264.889 C 391.620 265.869, 395.058 267.594, 403.556 270.735 L 415.613 275.192 425.034 269.479 C 437.022 262.210, 444.025 256.791, 451.250 249.195 C 456.283 243.902, 456.988 242.672, 456.900 239.324 C 456.845 237.221, 456.508 234.466, 456.150 233.203 C 455.530 231.012, 455.327 231.112, 451.792 235.343 C 446.786 241.334, 440.320 244.425, 434.591 243.566 C 425.911 242.264, 416.915 233.872, 410.527 221.116 C 409.044 218.155, 406.448 214.469, 404.757 212.925 L 401.683 210.118 403.360 205.728 C 405.570 199.940, 408.430 197, 411.850 197 C 415.635 197, 418.399 199.856, 422.505 208.009 C 424.418 211.808, 427.577 216.510, 429.525 218.458 C 432.505 221.438, 433.763 222, 437.457 222 C 440.701 222, 442.636 221.336, 444.872 219.454 C 450.357 214.839, 452.712 208.105, 456.244 186.939 L 459.508 167.379 454.964 169.106 C 450.426 170.830, 436.513 174, 433.483 174 C 430.541 174, 432.894 172.290, 437.679 170.950 C 440.280 170.222, 446.704 167.939, 451.954 165.878 C 459.294 162.997, 461.574 161.654, 461.820 160.065 C 462.230 157.413, 459.529 157.424, 452 160.105 M 382.491 166.865 C 376.704 169.494, 372.417 174.910, 370.045 182.588 C 368.920 186.231, 368 189.634, 368 190.151 C 368 191.782, 375.324 189.902, 379.234 187.266 C 382.850 184.830, 383.053 184.804, 385.602 186.475 C 388.009 188.052, 388.193 188.637, 387.746 193.291 C 387.116 199.846, 383.758 202.996, 374.076 206.115 C 369.967 207.438, 367 208.955, 367 209.732 C 367 210.469, 369.137 211.987, 371.750 213.107 C 378.172 215.860, 380 217.719, 380 221.500 C 380 226.275, 377.108 228.309, 369.713 228.738 C 361.648 229.205, 359 229.792, 359 231.112 C 359 231.702, 361.517 234.956, 364.593 238.343 C 369.697 243.962, 374 250.578, 374 252.807 C 374 253.295, 368.938 253.967, 362.750 254.300 C 355.874 254.670, 348.945 255.695, 344.928 256.938 C 337.440 259.254, 326 266.215, 326 268.455 C 326 269.279, 327.238 270.721, 328.750 271.659 C 330.262 272.597, 332.718 274.473, 334.207 275.828 C 337.271 278.616, 336.791 280.780, 332.485 283.602 C 330.176 285.114, 329.622 285.029, 322.514 282.070 C 314.494 278.732, 313.286 278.816, 309.516 282.982 L 307.554 285.150 311.777 288.658 C 316.791 292.823, 317.426 296.393, 313.472 298.195 C 311.587 299.054, 309.127 299.065, 303.794 298.240 C 295.865 297.013, 293.493 297.676, 289.136 302.341 L 286.772 304.871 288.923 307.891 C 291.905 312.080, 293.322 316.579, 292.585 319.518 C 291.765 322.784, 290.258 322.655, 282.225 318.631 C 272.230 313.624, 271.949 313.593, 267.757 317.048 L 264.068 320.090 267.532 324.912 C 272.331 331.592, 272.933 335.159, 269.625 337.326 C 266.099 339.637, 265.353 339.502, 258.611 335.341 C 253.096 331.937, 252.467 331.770, 249.591 332.955 C 247.891 333.656, 245.342 334.442, 243.926 334.702 C 239.229 335.566, 223.679 328.362, 213.470 320.593 C 212.224 319.644, 197 328.400, 197 330.065 C 197 332.624, 212.289 343.071, 225.530 349.560 C 243.835 358.529, 254.783 356.501, 285.531 338.444 C 290.499 335.527, 295.284 332.322, 296.165 331.320 C 297.047 330.319, 299.053 325.516, 300.624 320.647 C 302.311 315.415, 304.507 310.762, 305.990 309.274 C 307.370 307.889, 312.100 305.042, 316.500 302.949 C 322.387 300.148, 327.010 296.843, 334 290.437 C 349.633 276.110, 356.106 272.721, 377.765 267.521 C 389.620 264.675, 391.161 260.452, 386.892 242.500 L 384.753 233.500 392.307 210.500 C 402.644 179.026, 406 168.238, 406 166.488 C 406 164.146, 387.836 164.437, 382.491 166.865 M 204 173.035 C 212.198 180.508, 212.669 180.715, 223 181.385 L 232.500 182.001 230.010 179.896 C 224.840 175.525, 206.324 167.985, 200.824 168.011 C 198.810 168.021, 199.234 168.692, 204 173.035 M 267.838 207.031 C 266.925 207.564, 261.750 209.177, 256.338 210.615 C 243.003 214.159, 238.712 216.539, 228.359 226.134 C 216.624 237.010, 213.506 239.168, 203.980 243.008 C 199.556 244.791, 195.544 246.984, 195.064 247.880 C 194.584 248.776, 193.700 252.171, 193.099 255.423 C 192.498 258.675, 191.284 262.133, 190.402 263.108 C 187.985 265.779, 165.450 279.051, 158.706 281.775 C 141.887 288.568, 126.545 286.321, 104.552 273.843 C 96.608 269.335, 95.374 268.912, 93.552 270.072 C 92.423 270.791, 84.975 275.182, 77 279.831 C 49.181 296.049, 35.999 306.170, 34.401 312.540 C 33.894 314.557, 34.386 315.794, 36.625 318.133 C 40.168 321.833, 51.479 327.456, 59.460 329.485 C 67.281 331.473, 86.601 331.452, 110.190 329.431 C 120.260 328.568, 135.700 327.758, 144.500 327.631 C 159.536 327.415, 160.801 327.245, 165.500 324.808 C 174.804 319.981, 193.482 304.705, 196.130 299.757 C 197.408 297.369, 195.577 295.202, 185.500 287.180 C 178.504 281.610, 177.044 280.160, 177.015 278.750 C 176.946 275.352, 195.325 287.387, 206.311 297.934 C 210.932 302.370, 214.954 306, 215.248 306 C 215.542 306, 216.048 304.945, 216.371 303.657 C 217.407 299.531, 221.849 296, 226.003 296 C 229.247 296, 230.079 295.479, 232.377 292.006 C 233.831 289.810, 236.710 286.946, 238.775 285.642 C 242.039 283.582, 245.951 279.971, 244.872 280.015 C 244.668 280.023, 242.700 280.679, 240.500 281.471 C 230.464 285.087, 223.519 282.273, 221.987 273.971 C 220.384 265.288, 223.328 256.388, 232.324 242.718 C 239.980 231.082, 244.206 226.481, 246.447 227.341 C 248.345 228.070, 248.347 227.657, 246.373 243.001 C 245.886 246.786, 246.139 247.816, 247.962 249.465 C 250.119 251.418, 250.151 251.417, 254.315 249.199 C 256.617 247.973, 262.075 243.939, 266.444 240.235 C 270.813 236.531, 276.213 232.600, 278.444 231.500 C 281.939 229.777, 282.796 228.670, 284.637 223.500 C 285.813 220.200, 286.580 217.171, 286.341 216.770 C 285.725 215.735, 271.113 205.994, 270.231 206.030 C 269.829 206.047, 268.752 206.497, 267.838 207.031 M 338.453 216.925 C 338.840 217.551, 342.139 220.064, 345.784 222.509 C 350.375 225.589, 352.634 226.592, 353.139 225.775 C 354.175 224.099, 353.642 223.553, 347.750 220.236 C 341.463 216.697, 337.423 215.258, 338.453 216.925 M 172 218.028 C 172 219.486, 176.273 221.911, 180.052 222.596 C 183.285 223.183, 183.375 223.129, 181.498 221.728 C 178.518 219.504, 172 216.965, 172 218.028 M 305.215 226.032 C 305.372 226.438, 309.731 230.198, 314.901 234.386 C 323.280 241.172, 324.760 242, 328.505 242 C 330.816 242, 335.585 242.297, 339.103 242.660 L 345.500 243.320 342.500 240.821 C 336.245 235.611, 328.330 230.941, 322.522 229.034 C 315.736 226.806, 304.782 224.906, 305.215 226.032 M 157.439 241.902 C 158.231 243.183, 164 245.069, 164 244.046 C 164 243.578, 162.583 242.702, 160.851 242.098 C 157.034 240.767, 156.727 240.750, 157.439 241.902 M 123.648 250.845 C 121.523 253.064, 121.206 253.906, 122.211 254.670 C 125.374 257.073, 136.991 261.231, 142 261.752 C 147.021 262.274, 147.382 262.181, 146.142 260.680 C 145.396 259.776, 141.213 256.926, 136.847 254.348 C 132.481 251.770, 128.677 249.287, 128.395 248.830 C 127.533 247.436, 126.491 247.878, 123.648 250.845 M 286 255.460 C 286 256.176, 299.243 260.091, 299.795 259.538 C 300.310 259.024, 300.154 258.953, 293.124 256.517 C 288.751 255.001, 286 254.593, 286 255.460 M 453.347 262.832 C 449.964 265.988, 443.571 271.247, 439.141 274.520 C 432.839 279.176, 431.423 280.657, 432.630 281.333 C 433.765 281.968, 436.815 280.167, 444.164 274.521 C 449.910 270.108, 454.758 267.077, 455.572 267.389 C 457.528 268.140, 460.992 274.043, 460.996 276.633 C 461.001 279.071, 453.119 287.023, 439.497 298.322 L 430.494 305.790 425.739 321.645 C 423.124 330.365, 420.988 338.078, 420.992 338.785 C 421.002 340.443, 423.364 339.212, 430.339 333.915 C 433.178 331.759, 442.878 326.327, 451.897 321.844 L 468.293 313.692 467.677 299.596 C 466.761 278.641, 463.240 258.149, 460.419 257.354 C 459.913 257.211, 456.731 259.677, 453.347 262.832 M 385.874 269.460 C 385.621 269.712, 379.808 271.081, 372.957 272.502 C 356.087 276, 350.807 278.756, 337.567 290.979 C 329.466 298.457, 324.674 302.021, 319.067 304.736 C 306.471 310.837, 306.394 310.920, 302.942 322.031 C 300.292 330.560, 299.350 332.343, 296.182 334.830 C 290.313 339.435, 266.112 353.034, 259.022 355.710 C 241.582 362.292, 227.593 358.940, 200.275 341.634 L 188.317 334.058 169.909 342.564 C 128.086 361.889, 113.777 370.175, 113.171 375.417 C 112.743 379.121, 118.752 385.416, 128.596 391.575 C 138.022 397.473, 145.758 400.511, 156.566 402.561 C 164.465 404.058, 169.614 404.162, 201 403.457 C 240.949 402.558, 265.521 402.374, 274.736 402.903 C 280.767 403.249, 281.163 403.118, 286.736 398.930 C 289.906 396.548, 295.995 391.074, 300.267 386.765 C 307.001 379.971, 307.893 378.668, 306.976 376.955 C 306.395 375.869, 300.312 369.952, 293.460 363.806 C 282.325 353.819, 279.707 351, 281.570 351 C 283.419 351, 305.768 368.174, 313 375.151 C 314.925 377.009, 318.888 381.110, 321.807 384.264 C 324.725 387.419, 327.609 390, 328.216 390 C 329.667 390, 340 382.182, 340 381.084 C 340 380.615, 342.587 379.210, 345.750 377.960 C 357.976 373.128, 389.742 359.652, 394.500 357.279 C 402.854 353.112, 404.707 350.693, 408.082 339.543 C 409.754 334.019, 412.094 326.712, 413.282 323.305 C 414.471 319.897, 415.130 316.797, 414.748 316.415 C 413.950 315.617, 406.447 321.121, 393.500 332.001 C 362.070 358.414, 356.180 362.262, 347 362.377 C 339.723 362.468, 335.689 360.023, 332.474 353.573 C 328.098 344.791, 329.508 332.038, 336.493 317.228 C 340.386 308.973, 345.794 300.502, 350.146 295.844 C 352.856 292.943, 353.239 292.811, 354.702 294.273 C 356.165 295.736, 356.104 296.822, 353.977 307.190 C 351.898 317.328, 351.805 318.822, 353.087 321.505 C 355.491 326.535, 357.879 325.946, 372.311 316.764 C 379.565 312.149, 392.147 304.576, 400.270 299.936 C 417.668 289.999, 420.955 287.614, 419.417 286.042 C 418.206 284.803, 388.202 269, 387.061 269 C 386.661 269, 386.126 269.207, 385.874 269.460 M 273 274.839 C 273 276.014, 276.889 277.657, 284.080 279.521 C 294.352 282.182, 292.456 279.769, 281.246 275.913 C 275.187 273.828, 273 273.543, 273 274.839 M 257.160 294.436 C 258.026 295.377, 272.293 299.040, 272.865 298.468 C 273.108 298.225, 271.654 297.335, 269.633 296.491 C 265.674 294.837, 256.074 293.255, 257.160 294.436 M 219.766 316.006 C 216.549 318.966, 216.530 319.036, 218.500 320.611 C 221.735 323.197, 237.982 330.906, 241.648 331.594 C 244.987 332.220, 248.516 330.644, 247.491 328.985 C 247.222 328.551, 242.578 325.477, 237.170 322.153 C 231.762 318.830, 226.756 315.411, 226.046 314.555 C 224.254 312.396, 223.498 312.571, 219.766 316.006 M 444 349.362 C 432.725 353.354, 415.175 360.132, 405 364.424 C 394.825 368.717, 379.525 375.168, 371 378.760 C 344.925 389.748, 333.205 396.022, 307.968 412.504 C 300.560 417.341, 292.648 422.126, 290.384 423.137 C 286.306 424.958, 252.109 429.498, 224 431.949 C 207.189 433.416, 169.514 433.464, 159 432.033 C 154.325 431.396, 146.522 429.519, 141.659 427.862 C 136.797 426.204, 132.629 425.037, 132.397 425.269 C 131.512 426.155, 140.206 434.931, 144.411 437.395 C 151.171 441.357, 165.350 445.702, 177.219 447.449 C 195.348 450.118, 218.103 451.256, 228.391 450.010 C 251.287 447.235, 308.299 431.577, 336.239 420.388 C 348.462 415.494, 374.043 407.032, 404 397.973 C 440.565 386.916, 469.661 375.647, 477.439 369.529 C 479.339 368.034, 479.326 367.948, 476.818 365.252 C 472.334 360.431, 471.023 357.520, 470.366 350.931 C 469.678 344.023, 468.697 341.970, 466.128 342.052 C 465.232 342.081, 455.275 345.371, 444 349.362 M 449.500 355.903 C 441.202 358.339, 416.507 367.725, 410.768 370.625 C 404.587 373.747, 402.563 376.828, 403.462 381.746 C 404.326 386.472, 406.558 390, 408.685 390 C 410.167 390, 444.252 379.101, 454.838 375.242 C 460.106 373.322, 461.878 370.823, 462.661 364.210 C 463.195 359.705, 462.984 358.893, 460.675 356.584 C 457.678 353.587, 457.441 353.573, 449.500 355.903 M 51 355.988 C 51 357.110, 56.398 361.721, 59.500 363.250 C 68.752 367.808, 84.925 371, 98.767 371 C 104.829 371, 105.277 370.824, 109.793 366.666 C 112.382 364.282, 116.669 360.864, 119.320 359.070 C 121.971 357.275, 123.955 355.622, 123.728 355.395 C 123.501 355.168, 119.068 355.423, 113.877 355.961 C 95.413 357.876, 72.088 358.224, 61.250 356.747 C 55.612 355.979, 51 355.638, 51 355.988 M 434.500 368.363 C 414.327 375.423, 410 377.439, 410 379.777 C 410 380.816, 410.241 381.907, 410.535 382.202 C 410.829 382.496, 416.567 380.815, 423.285 378.466 C 449.083 369.448, 453 367.586, 453 364.345 C 453 362.222, 450.489 362.767, 434.500 368.363 M 365 389.400 C 347.939 397.018, 327.188 408.522, 328.372 409.705 C 328.619 409.952, 333.924 407.516, 340.161 404.290 C 346.397 401.065, 357.012 395.820, 363.750 392.634 C 370.488 389.448, 376 386.427, 376 385.921 C 376 384.567, 375.391 384.760, 365 389.400 M 420.207 398.967 C 406.913 403.418, 400.552 406.146, 407.502 404.416 C 413.807 402.847, 438.403 394.154, 436.500 394.168 C 435.400 394.176, 428.068 396.336, 420.207 398.967 M 334.750 428.662 C 335.438 428.940, 336.563 428.940, 337.250 428.662 C 337.938 428.385, 337.375 428.158, 336 428.158 C 334.625 428.158, 334.063 428.385, 334.750 428.662 M 301.500 442 C 301.840 442.550, 302.316 443, 302.559 443 C 302.802 443, 303 442.550, 303 442 C 303 441.450, 302.523 441, 301.941 441 C 301.359 441, 301.160 441.450, 301.500 442 M 262 449.644 C 258.425 450.451, 251.322 452.045, 246.215 453.187 C 231.173 456.550, 236.243 456.224, 254.331 452.665 C 263.523 450.856, 270.733 449.067, 270.355 448.688 C 269.542 447.875, 270.136 447.807, 262 449.644 M 213.250 457.716 C 214.762 457.945, 217.238 457.945, 218.750 457.716 C 220.262 457.487, 219.025 457.300, 216 457.300 C 212.975 457.300, 211.738 457.487, 213.250 457.716" stroke="none" fill="black" fill-rule="evenodd"/>
</svg>