<?xml version="1.0" standalone="no"?>
<svg version="1.0" xmlns="http://www.w3.org/2000/svg"
 width="300.000000pt" height="300.000000pt" viewBox="0 0 300.000000 300.000000">
<g transform="translate(0.000000,300.000000) scale(0.100000,-0.100000)"
fill="rgb(128 128 128 / 10%)" stroke="none"> 
<path d="M1432 2812 l-43 -37 16 -38 c19 -46 14 -57 -30 -57 -33 0 -33 0 -22
30 13 35 6 53 -37 84 -25 19 -29 19 -54 6 -14 -9 -33 -28 -42 -42 -13 -25 -13
-29 9 -58 12 -17 21 -34 18 -36 -2 -3 -21 -8 -41 -11 -36 -6 -36 -6 -30 26 7
35 -5 55 -47 76 -24 13 -30 12 -53 -6 -45 -35 -49 -52 -20 -94 14 -21 24 -38
22 -40 -10 -8 -48 -25 -57 -25 -6 0 -11 13 -11 28 0 36 -26 61 -70 64 -28 3
-37 -2 -57 -31 -13 -19 -23 -37 -23 -41 0 -3 14 -22 30 -41 29 -32 30 -34 13
-47 -47 -35 -53 -35 -53 1 0 44 -27 69 -71 65 -26 -2 -37 -10 -48 -32 -17 -37
0 -71 44 -87 l32 -12 -64 -59 c-38 -35 -68 -56 -75 -52 -8 5 -6 11 7 18 57 33
71 80 35 116 -11 11 -33 20 -50 20 -25 0 -33 -6 -47 -35 -9 -19 -22 -35 -29
-35 -20 0 -91 88 -124 153 -21 43 -30 75 -30 111 0 54 -16 96 -38 104 -15 5
-96 -78 -118 -120 -8 -15 -16 -53 -20 -85 -3 -32 -12 -65 -21 -75 -20 -22 -27
-83 -15 -136 8 -36 7 -46 -9 -66 -24 -31 -24 -77 0 -124 11 -22 17 -49 14 -63
-3 -16 4 -43 16 -66 11 -22 18 -43 14 -46 -3 -3 -1 -20 5 -37 11 -29 9 -31
-29 -50 -51 -27 -81 -74 -67 -105 9 -21 51 -40 102 -47 11 -2 21 -8 23 -14 3
-9 -113 -116 -171 -157 -51 -35 -43 -92 25 -177 l30 -37 -30 -31 c-35 -34 -39
-64 -16 -119 9 -20 14 -42 11 -48 -3 -8 11 -8 53 -1 36 7 47 12 31 14 -37 4
-80 23 -80 34 0 6 7 7 17 2 10 -4 41 -10 68 -14 28 -4 44 -8 38 -9 -7 0 -13
-7 -13 -15 0 -16 -50 -39 -90 -40 -17 -1 -25 -5 -20 -10 5 -5 26 -4 49 2 l41
10 -24 -29 c-14 -16 -28 -38 -31 -50 -4 -12 -18 -37 -31 -56 -33 -49 -30 -76
11 -122 l35 -39 -25 -30 c-14 -16 -25 -36 -25 -44 0 -24 36 -51 58 -44 28 9
66 -38 52 -65 -8 -14 -6 -23 10 -39 11 -11 26 -20 32 -21 7 0 22 -3 33 -5 11
-2 40 -7 65 -10 35 -4 51 -13 73 -40 29 -34 63 -44 84 -23 7 7 12 0 17 -25 12
-62 96 -136 156 -136 19 0 20 -4 14 -35 -12 -66 49 -100 94 -52 27 28 27 35 3
67 l-19 24 35 24 c40 27 39 38 -3 21 -50 -19 -135 -16 -174 7 -63 36 -100 120
-69 151 16 16 55 -10 67 -46 11 -32 76 -86 92 -76 13 8 13 35 0 35 -5 0 -10
-8 -10 -17 -1 -17 -1 -17 -11 -1 -13 22 5 58 28 58 22 0 83 -42 83 -57 0 -21
-43 -43 -83 -43 -45 0 -92 22 -108 51 -6 11 -13 18 -16 15 -9 -9 27 -46 61
-63 36 -19 125 -12 161 11 14 9 28 16 32 16 5 0 79 -42 166 -94 87 -52 163
-96 170 -99 6 -2 9 -7 6 -11 -4 -4 -42 14 -84 39 -60 35 -80 43 -86 33 -20
-32 -4 -55 41 -60 27 -3 31 -6 17 -12 -26 -12 -65 1 -73 27 -9 26 -6 50 8 58
5 3 -24 25 -64 49 -98 58 -95 56 -79 37 11 -15 11 -17 -1 -17 -24 0 -58 -44
-58 -76 0 -62 88 -143 157 -144 17 0 53 -9 79 -20 34 -15 64 -20 107 -18 57 3
61 5 78 38 l19 34 -26 14 c-49 26 -15 24 63 -4 114 -41 203 -39 342 10 96 33
157 66 411 225 23 15 24 14 12 -1 -12 -15 -8 -18 39 -32 29 -9 69 -16 88 -16
42 0 95 29 111 62 11 21 9 20 -12 -4 -31 -35 -59 -48 -106 -48 -50 0 -92 30
-77 55 18 30 63 51 83 39 22 -14 28 -43 11 -58 -9 -8 -11 -7 -6 6 4 10 2 18
-3 18 -17 0 -20 -18 -5 -30 13 -11 22 -8 53 17 20 17 38 41 40 54 7 49 65 67
76 24 8 -33 -15 -86 -49 -113 -53 -42 -127 -47 -220 -17 -18 6 -18 5 3 -13 12
-11 28 -22 35 -25 9 -3 8 -13 -5 -40 -16 -34 -16 -37 3 -61 26 -33 53 -33 85
-1 20 20 23 29 14 44 -16 30 -12 41 13 41 13 0 45 14 71 30 35 23 53 43 69 79
20 45 24 48 53 44 25 -4 34 0 57 30 23 31 33 35 89 41 34 4 77 14 96 22 32 13
34 16 28 48 -5 28 -2 39 16 55 12 12 29 19 38 16 9 -3 26 5 40 20 25 26 26 22
-25 91 -7 10 -1 22 24 44 29 27 33 36 28 68 -4 33 -53 126 -89 169 -12 15 -9
16 34 10 37 -5 47 -3 52 9 3 9 3 20 0 26 -3 5 -1 21 4 36 6 15 13 44 16 64 4
32 0 42 -26 69 -22 22 -29 35 -22 44 90 124 97 145 56 183 -76 72 -130 119
-161 143 -39 29 -35 49 8 49 35 0 87 25 95 46 10 26 -16 66 -61 96 -40 27 -41
30 -36 71 3 23 14 57 25 74 14 24 18 42 13 63 -5 21 -2 39 8 54 27 40 31 91
11 121 -14 22 -18 44 -15 109 2 68 -1 85 -17 106 -13 16 -21 46 -24 85 -3 53
-10 68 -48 118 -54 72 -75 85 -101 61 -14 -13 -19 -31 -19 -74 0 -71 -47 -171
-115 -244 -44 -49 -54 -53 -59 -22 -4 26 -38 56 -65 56 -36 -1 -60 -21 -67
-57 -5 -26 -1 -34 24 -52 17 -11 38 -21 47 -21 15 0 15 -1 0 -16 -14 -15 -20
-12 -68 32 -84 78 -80 74 -64 74 24 0 67 40 67 64 0 38 -28 66 -65 66 -38 0
-65 -28 -65 -67 0 -28 -17 -29 -48 -3 l-24 20 31 26 c35 29 37 43 16 83 -18
36 -40 44 -82 30 -23 -7 -35 -18 -39 -37 -14 -63 -13 -62 -42 -50 -44 19 -46
25 -18 58 32 38 32 40 4 76 -31 40 -38 44 -67 32 -47 -17 -59 -36 -54 -78 l6
-39 -32 9 c-32 9 -37 10 -47 10 -3 0 4 15 15 34 28 45 27 60 -10 90 -22 19
-38 25 -53 20 -31 -9 -67 -45 -62 -63 2 -9 7 -26 11 -38 6 -21 3 -23 -29 -23
-33 0 -36 3 -36 28 0 15 5 33 11 39 6 6 8 19 5 29 -7 21 -77 74 -98 74 -7 0
-32 -17 -56 -38z m111 -32 l32 -1 -27 -20 c-23 -17 -26 -24 -17 -41 14 -27 3
-35 -19 -15 -16 15 -21 15 -38 2 -28 -21 -35 -18 -24 9 8 21 5 28 -18 45 l-27
20 33 1 c26 0 35 5 43 28 l11 27 10 -27 c8 -23 16 -28 41 -28z m-250 -9 c4
-15 11 -18 28 -14 23 6 23 5 7 -13 -12 -14 -14 -24 -6 -37 9 -17 8 -18 -12 -7
-16 9 -25 9 -36 -1 -11 -9 -14 -8 -14 6 0 10 -8 24 -17 31 -17 12 -16 13 5 14
15 0 22 6 22 20 0 26 16 26 23 1z m438 -21 c10 0 19 -4 19 -10 0 -5 -7 -10
-16 -10 -11 0 -15 -6 -11 -20 6 -22 -3 -26 -21 -8 -8 8 -15 8 -28 -3 -16 -13
-17 -12 -11 10 4 17 1 29 -11 37 -15 12 -14 13 9 14 16 0 30 7 35 18 7 15 8
14 11 -5 3 -15 12 -23 24 -23z m-1336 -47 c0 -65 5 -87 28 -135 37 -75 87
-135 167 -198 85 -68 91 -74 61 -65 -20 6 -23 4 -18 -9 4 -9 2 -16 -3 -16 -5
0 -7 -7 -4 -15 12 -29 -16 -14 -67 38 -115 115 -217 314 -206 400 4 29 30 77
41 77 1 0 1 -35 1 -77z m2231 31 c36 -86 -54 -281 -200 -431 -27 -29 -54 -53
-57 -53 -4 0 -9 10 -11 23 -2 16 -9 22 -28 21 -23 -1 -22 1 15 30 104 81 176
161 213 235 33 66 37 84 36 148 0 76 9 83 32 27z m-1512 -10 c4 -11 13 -13 28
-8 22 6 23 6 5 -14 -12 -13 -15 -22 -8 -27 20 -12 12 -26 -9 -15 -16 9 -22 8
-26 -5 -3 -8 -10 -15 -15 -15 -4 0 -6 7 -2 15 3 9 -2 22 -12 29 -16 12 -16 13
-1 19 9 4 16 13 16 22 0 20 16 19 24 -1z m776 1 c0 -9 10 -20 23 -25 l22 -9
-23 -7 c-17 -5 -21 -11 -16 -28 6 -18 5 -19 -9 -8 -10 8 -25 11 -38 7 -18 -6
-20 -5 -11 11 8 14 6 24 -6 38 -16 18 -16 19 11 12 20 -5 27 -3 27 9 0 8 5 15
10 15 6 0 10 -7 10 -15z m-1555 -75 c10 -59 84 -205 143 -282 28 -37 53 -73
54 -80 2 -7 15 -24 30 -38 l28 -25 -66 -82 c-36 -46 -70 -83 -75 -83 -6 0 -7
-4 -4 -10 3 -6 -1 -7 -9 -4 -12 5 -13 11 -5 25 8 15 6 19 -7 19 -10 0 -14 -5
-10 -15 8 -21 -1 -19 -55 16 -64 41 -115 99 -128 146 -20 73 -14 79 30 29 16
-19 63 -60 104 -91 41 -32 72 -61 70 -65 -3 -5 4 -6 15 -3 11 3 20 9 20 13 0
3 -25 24 -56 45 -81 56 -128 115 -148 183 -17 62 -22 157 -8 166 5 3 19 -16
31 -42 55 -112 209 -308 227 -289 4 4 -18 33 -49 65 -108 114 -170 236 -171
337 -1 96 26 141 39 65z m2355 -54 c-1 -112 -60 -232 -168 -341 -34 -35 -58
-66 -53 -69 9 -6 113 99 149 151 13 18 43 67 66 108 38 66 44 73 50 53 9 -36
7 -69 -9 -132 -21 -79 -62 -135 -145 -197 -38 -28 -67 -55 -64 -60 3 -5 11 -6
17 -2 30 17 107 82 164 137 34 33 65 58 67 55 10 -10 -13 -82 -37 -119 -14
-21 -60 -61 -102 -89 l-77 -51 -74 92 c-67 84 -72 94 -60 113 7 11 19 21 25
21 6 1 17 2 24 3 9 1 8 4 -2 10 -11 7 -4 21 32 67 74 96 144 232 162 319 6 29
7 29 21 11 8 -12 14 -43 14 -80z m-1726 50 c18 7 22 -11 5 -21 -7 -5 -4 -14 8
-27 17 -19 17 -19 -9 -13 -19 5 -29 2 -37 -12 -10 -17 -10 -16 -11 5 0 16 -6
22 -22 22 -23 1 -23 1 -3 16 12 9 19 24 16 37 -3 21 -2 21 17 4 11 -10 26 -15
36 -11z m1124 -33 c15 -11 15 -12 -5 -13 -17 0 -23 -6 -23 -22 -1 -21 -2 -21
-11 -5 -7 12 -17 16 -30 12 -21 -7 -25 5 -7 23 8 8 8 15 -2 27 -12 14 -11 16
12 10 19 -5 27 -2 33 12 8 16 9 15 13 -7 2 -13 11 -30 20 -37z m-363 8 c165
-34 336 -117 461 -224 74 -63 164 -166 268 -306 67 -91 77 -108 74 -140 -3
-34 -9 -40 -103 -99 -55 -34 -119 -72 -142 -83 l-43 -21 -34 22 c-22 13 -33
26 -29 36 7 19 8 18 38 -13 20 -23 25 -25 25 -10 0 21 -43 67 -62 67 -24 0
-40 -17 -38 -41 3 -37 1 -45 -10 -29 -23 36 -9 81 29 87 44 6 112 26 117 34 3
5 19 9 37 9 24 0 28 3 19 12 -14 14 -68 16 -97 3 -11 -4 -17 -5 -14 -1 13 14
-138 175 -216 231 -83 59 -210 121 -302 147 -64 18 -103 22 -213 22 -154 0
-217 -13 -346 -74 -145 -67 -233 -137 -339 -268 -44 -54 -50 -58 -74 -50 -18
7 -35 6 -56 -3 -26 -10 -27 -13 -10 -17 11 -2 53 -15 93 -28 40 -14 77 -22 82
-19 15 9 33 -40 26 -69 -9 -38 -23 -32 -18 8 3 28 0 35 -17 41 -25 8 -57 -8
-72 -36 -13 -26 -6 -35 13 -16 19 19 58 31 58 18 0 -6 -18 -23 -41 -38 l-40
-26 -47 22 c-95 46 -232 132 -243 152 -6 12 -8 33 -4 47 7 29 107 167 213 295
180 217 416 343 712 381 67 8 256 -4 345 -23z m-920 -64 c14 5 17 3 12 -10 -3
-9 -2 -19 3 -22 6 -4 10 -11 10 -16 0 -6 -5 -7 -12 -3 -6 4 -17 -1 -25 -11
-12 -17 -13 -17 -13 -2 0 11 -8 17 -22 17 -17 0 -19 3 -10 12 7 7 12 21 12 31
0 15 3 17 14 8 7 -6 22 -8 31 -4z m1419 -2 c-4 -8 -1 -22 6 -30 10 -12 10 -15
0 -15 -7 0 -19 -8 -26 -17 -13 -17 -13 -17 -14 0 0 14 -5 17 -20 12 -11 -4
-20 -2 -20 4 0 6 5 11 11 11 6 0 9 9 6 20 -4 17 -2 20 13 15 10 -3 21 -1 25 5
10 16 25 12 19 -5z m-1545 -90 c16 5 20 3 15 -9 -4 -9 0 -24 7 -33 12 -15 12
-16 -3 -10 -11 4 -21 0 -27 -11 -10 -16 -10 -16 -11 1 0 11 -8 17 -21 17 -18
0 -19 3 -9 15 7 8 9 22 6 31 -5 14 -4 15 8 5 8 -7 24 -10 35 -6z m1666 -4 c-4
-13 0 -23 12 -30 16 -9 16 -10 -4 -11 -14 0 -23 -6 -23 -15 0 -8 -4 -15 -10
-15 -5 0 -10 7 -10 16 0 11 -6 14 -22 8 -20 -6 -21 -5 -9 9 7 9 11 24 7 32 -4
12 0 14 18 9 13 -3 27 -1 30 5 11 18 18 13 11 -8z m-685 -166 c183 -39 405
-175 495 -305 45 -65 24 -55 -44 20 -72 80 -206 174 -316 219 -316 132 -666
49 -914 -215 -85 -91 -109 -100 -43 -17 114 143 280 248 460 293 96 23 263 26
362 5z m-5 -72 c67 -16 105 -34 124 -57 9 -11 -5 -8 -43 10 -146 67 -352 66
-488 -2 -34 -17 -46 -20 -42 -10 11 28 111 64 212 75 79 10 155 4 237 -16z
m-20 -38 c86 -23 149 -61 211 -128 100 -108 151 -185 208 -318 l36 -82 -61
-116 c-74 -141 -110 -191 -194 -270 -74 -69 -121 -95 -213 -122 -63 -18 -64
-18 -48 0 9 10 35 22 58 25 120 19 255 146 364 343 l53 95 -27 54 c-14 29 -32
56 -40 59 -12 4 -13 3 -2 -10 10 -12 9 -15 -6 -16 -17 -1 -17 -2 -1 -6 23 -6
11 -23 -17 -23 -28 0 -46 18 -46 45 0 27 18 45 47 45 17 0 21 4 16 18 -5 15
-4 15 10 2 8 -8 29 -46 45 -85 22 -50 33 -65 37 -53 9 24 -92 228 -153 308
-79 103 -159 174 -225 198 -131 49 -263 49 -394 0 -115 -42 -274 -238 -348
-429 -27 -67 -29 -79 -17 -79 6 0 40 74 56 123 3 9 10 17 16 17 6 0 8 -4 5
-10 -3 -6 4 -10 18 -10 13 0 32 -9 42 -20 15 -17 16 -24 7 -46 -10 -20 -18
-25 -40 -22 -16 2 -27 9 -28 18 0 20 16 41 27 34 10 -6 12 9 3 19 -10 10 -40
-25 -68 -80 l-26 -53 26 -52 c102 -202 244 -349 369 -379 58 -14 85 -26 85
-38 0 -13 -94 15 -160 47 -110 53 -231 201 -331 404 -28 56 -31 71 -22 90 7
13 30 63 53 112 63 140 189 295 281 349 24 15 69 33 99 41 73 20 221 20 295 1z
m-467 -51 c-32 -45 -48 -61 -48 -49 0 12 23 50 43 73 36 39 39 24 5 -24z m654
29 c9 -10 23 -34 33 -53 l18 -35 -24 22 c-29 26 -64 83 -51 83 5 0 16 -8 24
-17z m-290 -23 c10 0 18 -7 18 -16 0 -11 -6 -15 -20 -11 -12 3 -24 -1 -29 -11
-9 -16 -10 -16 -16 -1 -4 11 -14 15 -26 12 -13 -4 -19 0 -19 11 0 9 8 16 19
16 11 0 23 5 27 11 4 8 9 8 17 0 6 -6 19 -11 29 -11z m-1159 -76 c54 -29 57
-32 42 -48 -15 -15 -15 -17 -1 -32 39 -39 -1 -21 -77 34 -44 31 -97 95 -97
115 0 5 17 -2 38 -15 20 -12 63 -37 95 -54z m717 -3 c-37 -64 -49 -76 -72 -72
-5 0 -8 -6 -8 -15 0 -8 5 -12 11 -8 8 4 8 0 0 -15 -15 -27 -16 -27 -18 11 -2
19 7 49 22 74 25 42 93 109 102 100 3 -2 -14 -36 -37 -75z m822 34 c50 -49 83
-108 74 -131 -10 -25 -28 -4 -22 25 5 19 4 22 -3 11 -9 -13 -13 -12 -30 5 -26
27 -85 135 -74 135 6 0 30 -20 55 -45z m-494 13 c4 -20 -57 -43 -72 -28 -7 7
-5 10 7 10 9 0 22 9 29 20 14 22 31 21 36 -2z m180 2 c7 -11 19 -20 27 -20 12
0 13 -4 6 -19 -6 -10 -8 -20 -6 -23 3 -3 -4 -13 -14 -22 -18 -17 -21 -17 -46
0 -26 17 -50 52 -42 60 3 3 17 2 32 -2 19 -5 23 -9 14 -15 -7 -4 -10 -11 -6
-16 5 -4 12 -2 16 5 4 8 15 10 26 6 13 -5 16 -4 11 4 -4 7 -13 12 -19 12 -23
0 -38 17 -31 33 8 22 16 21 32 -3z m114 -6 c7 -4 20 -13 29 -21 16 -13 15 -16
-7 -38 -15 -15 -24 -36 -24 -55 0 -35 -22 -38 -25 -3 -1 12 -8 28 -17 36 -9 9
-13 26 -11 40 3 14 0 34 -6 45 -10 19 -9 20 19 12 16 -5 35 -12 42 -16z m1028
19 c0 -29 -62 -89 -138 -137 -43 -27 -67 -31 -37 -6 14 12 14 15 0 30 -15 17
-11 21 72 68 90 52 103 58 103 45z m-1414 -48 c-1 -25 -8 -51 -14 -57 -7 -7
-12 -20 -12 -30 0 -20 -19 -25 -21 -5 -3 27 -4 32 -11 35 -20 6 -24 0 -20 -26
3 -26 -1 -31 -46 -50 -28 -12 -58 -22 -67 -22 -9 0 -28 -8 -43 -17 -15 -9 3
13 39 49 42 41 79 69 98 73 35 7 38 13 16 29 -18 14 -9 28 30 49 48 26 54 22
51 -28z m133 -8 c-5 -12 -24 -30 -41 -40 -29 -17 -32 -17 -50 -1 -22 21 -15
30 38 49 57 21 66 19 53 -8z m-469 -94 c-7 -32 -17 -64 -24 -72 -8 -12 -8 -13
2 -7 10 6 10 2 0 -19 -14 -31 -28 -16 -28 31 0 30 48 140 57 130 3 -2 -1 -31
-7 -63z m872 -25 c45 -47 64 -74 35 -49 -8 6 -40 19 -73 30 -40 13 -51 19 -34
20 24 2 23 3 -17 40 -24 21 -43 42 -43 45 0 16 89 -42 132 -86z m164 28 c25
-53 31 -110 14 -121 -6 -4 -7 1 -3 11 5 13 3 15 -7 9 -9 -5 -11 -4 -6 4 4 6 2
18 -4 27 -7 8 -16 33 -21 57 -4 23 -11 51 -15 61 -16 42 19 2 42 -48z m-446 4
c105 -62 214 -105 306 -121 38 -6 71 -13 73 -15 2 -2 -14 -32 -36 -66 -35 -55
-154 -255 -362 -607 -34 -57 -60 -106 -58 -108 2 -2 21 4 42 12 20 9 39 14 42
11 7 -7 -73 -46 -96 -46 -25 0 -91 31 -91 42 0 11 11 9 40 -7 48 -27 50 -15 7
53 -24 37 -115 189 -202 337 -87 149 -173 295 -191 325 l-33 55 52 8 c89 15
207 59 312 119 55 31 102 57 105 57 3 0 43 -22 90 -49z m-1245 13 c31 -15 55
-34 55 -43 0 -13 1 -13 10 0 8 12 10 9 10 -12 0 -15 8 -32 18 -38 14 -9 13
-10 -8 -4 -37 10 -106 60 -130 94 -12 17 -19 30 -16 30 3 0 30 -12 61 -27z
m2375 18 c0 -5 -20 -27 -44 -49 -67 -62 -151 -100 -101 -46 14 15 22 30 19 35
-2 5 21 22 53 38 63 33 73 36 73 22z m-1794 -39 c-6 -21 -20 -50 -31 -65 -19
-25 -22 -26 -40 -13 -19 14 -18 16 30 65 28 28 51 51 51 51 1 0 -3 -17 -10
-38z m874 -8 c0 -2 -13 -4 -29 -4 -24 0 -28 3 -24 20 5 18 7 18 29 3 13 -8 24
-17 24 -19z m368 -55 c2 -4 -6 -12 -16 -18 -15 -8 -23 -7 -30 2 -12 15 -52 94
-52 103 0 7 93 -76 98 -87z m-1875 4 c-10 -4 -9 -8 2 -20 8 -8 16 -23 16 -34
2 -34 4 -37 28 -70 l24 -32 21 24 c20 23 26 24 86 18 120 -12 149 -32 60 -42
-19 -2 -4 -5 34 -5 52 -2 77 -7 105 -24 l36 -23 -33 -3 c-42 -4 -163 32 -220
65 l-42 25 -19 -23 c-15 -19 -17 -28 -9 -44 10 -19 10 -19 -8 -3 -18 15 -22
13 -89 -49 l-70 -65 95 5 c104 6 216 39 204 60 -4 7 -4 9 0 5 4 -3 7 -10 6
-13 -1 -4 9 -13 21 -19 12 -6 25 -18 27 -26 5 -13 3 -13 -12 -1 -15 12 -16 12
-9 -5 6 -17 5 -17 -10 -5 -10 8 -31 11 -54 8 -21 -2 -77 -10 -125 -16 -97 -14
-160 -12 -165 5 -2 6 32 42 76 78 l79 68 -21 32 c-18 27 -28 33 -57 32 -36 -2
-60 9 -60 26 0 5 5 6 12 2 7 -4 8 -3 4 5 -9 14 -26 5 -26 -15 0 -8 -5 -12 -10
-9 -17 11 8 44 57 76 26 16 49 26 52 23 3 -4 0 -9 -6 -11z m2440 1 c18 -9 44
-28 60 -42 29 -28 37 -58 12 -49 -8 4 -16 3 -19 -2 -3 -4 -23 -6 -45 -5 -36 2
-43 -2 -60 -30 -11 -17 -32 -43 -47 -56 -25 -23 -26 -23 -13 -3 11 18 11 25 1
35 -19 19 -14 33 6 15 17 -16 20 -15 42 16 13 17 25 39 25 47 1 8 2 25 3 38 1
13 7 20 12 17 17 -11 11 7 -7 21 -25 18 -8 17 30 -2z m-1797 -137 c-3 -19 -13
-42 -22 -53 -14 -17 -15 -13 -10 56 3 41 9 91 13 110 7 34 7 34 16 -22 5 -32
6 -73 3 -91z m1172 -32 l-3 -40 -17 32 c-19 34 -22 82 -11 148 l7 40 13 -70
c8 -38 12 -88 11 -110z m-1697 136 c50 -11 112 -40 89 -42 -8 -1 3 -7 25 -15
l40 -14 -49 5 c-74 8 -122 25 -158 57 -24 21 -28 28 -13 24 11 -3 41 -10 66
-15z m2250 -5 c-19 -22 -102 -53 -161 -60 -47 -5 -51 -4 -30 6 14 6 29 10 33
9 5 -1 6 3 3 8 -4 5 -1 13 6 17 16 10 152 43 157 38 2 -2 -1 -10 -8 -18z m-61
-75 c0 -5 -15 -18 -34 -29 -39 -23 -121 -20 -130 5 -3 8 -2 11 3 8 5 -3 12 -1
16 5 4 6 9 8 13 6 6 -3 120 8 130 13 1 0 2 -3 2 -8z m-1745 -66 c14 -13 25
-34 25 -47 0 -13 51 -122 113 -242 l113 -219 64 -39 c36 -22 75 -49 87 -60 21
-20 24 -20 41 -5 23 21 56 22 76 1 20 -19 20 -34 0 -62 -25 -37 -94 -20 -94
23 0 9 -6 12 -16 8 -8 -3 -25 3 -37 15 -12 11 -45 31 -73 45 -65 33 -83 60
-204 309 -87 180 -97 196 -118 191 -51 -12 -83 61 -40 91 30 21 35 20 63 -9z
m1363 9 c43 -30 11 -104 -40 -91 -22 6 -32 -11 -141 -229 l-118 -235 -50 -27
c-28 -15 -67 -37 -86 -50 -43 -28 -64 -16 -29 17 13 12 52 41 87 64 l64 42
112 225 c62 124 115 238 118 253 3 16 15 32 28 37 30 12 30 12 55 -6z m292 1
c0 -2 -30 -13 -66 -25 -72 -22 -131 -26 -154 -9 -12 8 -10 9 8 4 12 -3 22 -2
22 3 0 15 61 30 128 31 34 1 62 -1 62 -4z m258 -85 c23 -21 42 -45 42 -55 0
-16 -8 -17 -99 -11 -54 4 -114 11 -132 16 -44 13 -106 13 -114 0 -7 -11 -25
-4 -25 9 0 5 12 16 26 26 23 15 28 15 58 1 52 -25 127 -37 201 -34 l67 3 -70
60 c-39 33 -68 63 -65 68 4 7 25 -8 111 -83z m-2290 42 c3 -16 -2 -22 -17 -22
-24 0 -35 15 -27 36 9 23 40 13 44 -14z m2097 3 c0 -14 -7 -20 -24 -20 -13 0
-26 6 -29 13 -2 7 2 11 10 10 7 -2 12 3 10 10 -1 8 5 12 15 10 10 -2 18 -12
18 -23z m-2190 -35 c0 -19 -5 -25 -23 -26 -26 -1 -38 17 -28 42 3 9 15 14 28
12 17 -2 23 -10 23 -28z m2292 15 c3 -9 -2 -24 -12 -35 -13 -15 -22 -17 -36
-9 -11 5 -19 15 -19 22 0 33 55 51 67 22z m-1996 -7 c59 -20 66 -48 12 -48
-39 0 -115 30 -127 49 -10 15 71 15 115 -1z m1759 -8 c-31 -24 -83 -40 -133
-40 -34 0 -36 2 -25 19 7 11 16 17 20 15 4 -3 8 -1 8 5 0 12 30 18 100 19 l55
2 -25 -20z m-2122 -32 c-3 -7 -20 -14 -38 -16 -30 -3 -32 -2 -21 12 16 19 65
22 59 4z m2432 -3 c10 -12 9 -15 -8 -15 -27 0 -52 10 -52 21 0 15 47 10 60 -6z
m-1660 -20 c7 -8 9 -26 6 -42 -6 -24 1 -39 40 -88 51 -67 70 -77 77 -43 3 13
4 4 4 -19 -1 -45 31 -93 61 -93 19 0 82 -64 82 -84 0 -34 -84 -2 -96 36 -4 13
-20 40 -36 61 -26 32 -33 36 -46 25 -13 -11 -14 -10 -8 9 6 18 -4 37 -46 91
-29 37 -66 75 -82 82 -20 10 -31 24 -33 42 -3 21 0 26 12 22 8 -3 12 -10 9
-15 -9 -15 15 -39 32 -32 22 8 16 33 -11 43 -14 5 -25 12 -25 15 0 12 48 4 60
-10z m880 5 c0 -5 6 -7 14 -4 30 12 2 -50 -30 -66 -36 -17 -110 -112 -106
-134 2 -9 -4 -16 -14 -16 -11 0 -14 -5 -10 -16 4 -11 1 -14 -12 -10 -19 6 -72
-56 -72 -84 0 -10 -6 -23 -14 -29 -17 -14 -86 -27 -86 -16 0 22 45 76 68 81
15 4 39 18 53 31 23 21 26 31 23 66 -4 35 -3 38 6 19 5 -13 14 -22 19 -20 5 1
30 29 56 61 39 48 46 63 41 87 -3 19 0 34 10 45 17 17 54 21 54 5z m-1197 -15
c33 -5 61 -30 52 -46 -15 -24 -189 18 -210 50 -6 11 74 9 158 -4z m1621 4
c-19 -32 -182 -70 -212 -51 -9 7 -8 13 8 27 15 14 43 21 98 26 42 3 85 7 95 7
11 1 15 -2 11 -9z m-1206 -85 c19 -38 20 -54 2 -54 -17 0 -60 78 -60 109 l0
34 19 -24 c10 -13 28 -43 39 -65z m673 2 c-26 -42 -47 -60 -61 -51 -12 7 9 52
49 105 l26 35 3 -28 c2 -15 -6 -42 -17 -61z m-1339 56 c-1 -9 6 -11 25 -6 l28
6 -27 -28 -27 -28 -24 22 c-13 12 -28 22 -35 22 -6 0 -14 5 -18 12 -5 8 0 9
14 6 13 -4 20 -2 16 4 -4 6 6 8 22 6 17 -2 28 -8 26 -16z m2022 3 c3 -9 0 -15
-10 -15 -17 0 -34 -38 -26 -60 3 -8 -5 -3 -17 12 -12 15 -32 35 -44 44 l-22
15 25 -3 c14 -2 28 -7 31 -12 4 -4 10 -3 13 3 4 6 2 11 -3 11 -6 0 -11 5 -11
10 0 16 57 12 64 -5z m-2330 -35 c61 0 69 -3 100 -32 47 -45 52 -69 22 -101
-55 -59 -147 -13 -206 104 -25 48 -25 52 -1 39 11 -5 49 -10 85 -10z m2660
-30 c-37 -68 -105 -130 -142 -130 -39 0 -82 35 -82 66 0 13 13 38 29 56 27 31
34 33 107 36 44 2 83 8 89 13 24 23 24 4 -1 -41z m-2466 28 c13 -13 16 -50 5
-61 -3 -4 -18 3 -32 15 -14 13 -19 15 -12 6 22 -29 7 -20 -29 17 l-34 35 45 0
c25 0 50 -5 57 -12z m60 0 c14 -14 16 -78 3 -78 -14 0 -31 25 -37 58 -7 34 10
44 34 20z m140 -15 c4 -24 -23 -33 -30 -11 -8 22 -28 -3 -28 -35 0 -45 34 -96
76 -113 38 -16 76 -16 73 1 -1 6 -10 9 -20 7 -19 -3 -80 24 -90 41 -10 14 1
44 21 62 33 30 47 3 25 -48 -4 -10 -5 -20 -2 -23 3 -3 8 4 12 16 10 33 38 20
62 -30 l21 -45 -36 -8 c-47 -10 -119 25 -145 71 -18 31 -42 110 -30 98 3 -3
15 6 25 20 25 31 62 29 66 -3z m1854 10 c30 -27 24 -95 -12 -137 -39 -44 -100
-69 -135 -56 -36 14 -31 17 19 16 38 -1 50 4 80 33 39 37 55 88 37 118 -6 10
-11 12 -11 6 0 -16 -36 -17 -45 -3 -9 14 13 40 33 40 8 0 24 -7 34 -17z m112
-10 c-4 -16 -14 -39 -23 -53 l-16 -25 -3 39 c-4 50 3 66 28 66 17 0 19 -4 14
-27z m96 -4 c-12 -16 -28 -28 -35 -25 -8 3 -15 0 -17 -6 -7 -19 -38 0 -38 21
0 26 26 40 73 41 l38 0 -21 -31z m-1863 5 c19 -3 37 -13 43 -24 10 -19 7 -20
-51 -20 -61 0 -117 18 -140 46 -10 12 -2 13 52 8 35 -3 79 -7 96 -10z m1542 0
c-25 -30 -68 -44 -138 -44 -42 0 -73 5 -77 12 -5 7 0 9 14 6 14 -4 22 0 25 12
3 14 18 17 78 19 40 1 76 4 78 7 2 2 11 4 19 4 12 0 12 -3 1 -16z m-414 -70
c-8 -17 -25 -40 -38 -53 l-24 -22 4 24 c5 25 60 93 69 85 2 -3 -3 -18 -11 -34z
m480 4 c14 -34 6 -58 -20 -58 -16 0 -25 22 -25 61 0 40 27 38 45 -3z m-155 2
l65 0 -35 -23 c-26 -17 -50 -22 -97 -22 -34 0 -64 3 -67 6 -9 9 5 40 15 33 5
-3 9 0 9 7 0 7 9 9 23 5 12 -3 51 -6 87 -6z m-1370 -15 c33 -39 -113 -44 -173
-6 l-32 21 96 0 c73 0 100 -4 109 -15z m223 -24 c9 -16 17 -32 17 -36 0 -14
-31 18 -46 47 -20 38 6 28 29 -11z m-634 3 c17 -14 31 -31 31 -37 0 -7 -7 -3
-15 7 -8 11 -15 15 -15 8 0 -6 -7 -9 -16 -5 -10 4 -20 -1 -27 -13 -10 -18 -11
-18 -18 6 -7 24 -7 24 -8 3 -1 -13 -5 -23 -11 -23 -5 0 -7 8 -4 18 5 13 4 14
-4 3 -5 -7 -14 -11 -20 -7 -6 3 -13 0 -16 -6 -3 -7 -5 -4 -3 6 1 11 10 20 20
22 11 1 22 6 25 10 4 4 -1 4 -10 1 -10 -4 -18 -2 -18 3 0 13 31 29 57 30 12 0
35 -12 52 -26z m2145 5 c14 -11 26 -30 25 -42 l0 -22 -9 21 c-5 12 -15 25 -22
29 -10 6 -11 5 0 -6 14 -16 16 -33 2 -24 -5 3 -11 0 -11 -7 -1 -7 -5 1 -9 17
l-8 30 -1 -27 c-1 -16 -7 -28 -15 -28 -9 0 -12 8 -8 27 l5 27 -23 -22 c-13
-12 -26 -19 -29 -16 -3 3 3 12 13 20 11 8 15 14 8 14 -6 0 -18 -10 -26 -22 -9
-12 -16 -18 -16 -12 0 25 49 63 81 64 9 0 28 -9 43 -21z m-260 -5 c3 -9 6 -21
6 -29 0 -17 -42 -27 -52 -12 -11 18 -10 29 4 21 7 -4 8 -3 4 4 -4 7 -4 17 -1
22 9 15 32 12 39 -6z m-1434 -29 c0 -35 -100 -54 -156 -29 l-39 18 80 12 c110
16 115 16 115 -1z m1278 -1 c34 -4 62 -10 62 -15 0 -16 -71 -31 -113 -24 -66
12 -87 22 -80 41 4 11 14 14 37 10 17 -3 59 -8 94 -12z m-1667 -44 c10 -6 19
-15 19 -21 0 -6 -7 -6 -19 1 -11 6 -89 10 -180 10 -101 0 -161 4 -161 10 0 14
315 13 341 0z m2264 0 c-4 -6 -68 -10 -160 -10 -85 0 -166 -5 -182 -10 l-28
-10 24 20 c21 18 38 20 188 20 107 0 162 -3 158 -10z m-1847 -39 c4 -41 -43
-91 -85 -90 -25 0 -26 1 -8 9 18 8 18 9 -5 10 l-25 1 25 10 c39 16 60 40 60
70 0 41 34 33 38 -10z m867 9 c-29 -30 -45 -38 -45 -21 0 8 55 47 69 50 3 1
-8 -12 -24 -29z m255 15 c0 -34 30 -75 55 -75 14 0 25 -4 25 -10 0 -5 -5 -10
-11 -10 -5 0 -7 -4 -4 -10 9 -15 -22 -12 -56 5 -34 18 -53 58 -44 92 6 26 35
32 35 8z m-1634 -16 c5 -8 8 -8 13 0 5 7 20 9 39 5 30 -6 31 -7 15 -31 -9 -13
-12 -23 -7 -22 19 3 34 -1 34 -11 0 -17 -45 -11 -62 9 -12 14 -13 22 -5 31 9
9 6 10 -15 5 -15 -4 -35 -2 -44 3 -13 7 -21 6 -29 -4 -8 -12 -14 -12 -39 1
-36 19 -42 19 -26 0 7 -8 10 -16 6 -16 -24 -5 -35 -4 -64 7 -18 7 -30 9 -27 4
7 -11 -31 -24 -45 -15 -5 3 -10 3 -10 0 0 -3 24 -17 53 -30 51 -23 51 -24 19
-24 -18 -1 -48 5 -66 13 -30 12 -33 18 -31 48 2 18 3 34 4 36 1 1 64 2 140 2
92 0 142 -4 147 -11z m182 -13 c3 -14 0 -17 -12 -13 -10 4 -19 1 -22 -8 -8
-21 -24 -19 -24 3 0 40 51 56 58 18z m1796 8 c17 -17 21 -44 7 -44 -5 0 -11 6
-14 14 -4 9 -14 12 -26 9 -23 -6 -31 21 -8 30 20 9 25 8 41 -9z m113 1 c-4 -8
-2 -17 4 -21 15 -9 -30 -44 -58 -44 -29 0 -30 14 0 28 21 11 20 11 -5 6 -31
-7 -37 6 -13 26 12 10 15 10 15 -1 0 -9 3 -10 8 -3 7 11 28 22 46 23 4 1 6 -6
3 -14z m59 0 c-11 -8 -29 -15 -39 -15 -16 0 -17 3 -7 15 7 8 24 15 39 15 25
-1 25 -1 7 -15z m252 -10 c-3 -14 -1 -25 3 -25 22 0 6 -22 -26 -36 -39 -16
-99 -19 -90 -4 3 6 15 10 26 10 11 0 29 9 41 20 26 24 22 25 -25 5 -20 -8 -47
-15 -59 -14 -17 1 -12 5 17 14 22 8 33 14 25 15 -19 3 -20 3 -55 -6 -27 -6
-28 -5 -17 8 15 19 2 31 -18 17 -8 -5 -24 -8 -35 -8 -13 0 -15 3 -6 6 11 5 11
7 0 14 -8 5 34 9 105 9 l118 0 -4 -25z m-1977 5 c25 -14 24 -30 -1 -30 -10 0
-24 9 -30 20 -12 23 -1 27 31 10z m1280 -22 c-13 -10 -28 -15 -34 -11 -6 4 -1
13 12 25 13 10 28 15 34 11 6 -4 1 -13 -12 -25z m-1329 4 c5 -5 8 -18 5 -28
-4 -18 -4 -18 -13 1 -7 17 -19 20 -69 22 -84 2 -95 4 -55 14 44 9 118 5 132
-9z m1526 -3 c2 -5 24 -18 48 -28 25 -11 65 -37 89 -57 54 -44 114 -55 163
-30 17 9 41 16 54 16 43 -1 -53 -33 -112 -37 -53 -4 -58 -2 -122 45 -37 27
-82 52 -100 56 -48 8 -146 -8 -166 -28 -16 -16 -15 -16 13 -2 37 17 135 28
135 15 0 -6 8 -8 19 -4 12 3 35 -7 67 -30 27 -19 63 -44 79 -55 33 -22 88 -26
130 -10 15 6 33 7 41 2 10 -6 -4 -26 -59 -80 -67 -67 -73 -75 -69 -107 2 -19
9 -35 16 -35 6 0 60 25 121 55 60 30 113 51 117 47 4 -4 14 -23 22 -44 14 -33
14 -37 -1 -50 -14 -11 -16 -11 -9 1 10 16 15 18 -99 -40 -195 -100 -365 -155
-365 -118 0 5 -7 9 -15 9 -34 0 -10 17 63 44 126 47 345 145 372 167 14 11
-11 2 -55 -20 -101 -49 -331 -146 -379 -159 -75 -21 -31 5 87 50 l123 48 -4
35 c-2 19 -9 33 -14 32 -6 -1 -13 4 -15 11 -3 7 -1 11 4 10 10 -4 13 5 13 39
0 14 -3 23 -7 19 -7 -7 -12 -33 -16 -80 -2 -23 -12 -35 -48 -57 -53 -33 -160
-63 -190 -54 -17 6 -14 -2 17 -47 20 -29 47 -65 61 -79 l24 -26 -46 -41 c-25
-22 -54 -40 -63 -40 -9 1 -46 -19 -82 -44 -95 -67 -255 -165 -330 -203 -66
-33 -218 -90 -258 -97 -46 -7 -14 18 48 38 66 21 209 90 245 118 35 27 9 17
-52 -19 -74 -44 -220 -105 -252 -105 -36 0 -15 14 49 34 66 21 181 78 231 114
21 15 56 41 79 57 22 17 107 77 188 133 81 57 151 108 156 112 9 9 -41 104
-87 163 -16 21 -27 40 -24 43 2 3 22 -6 42 -21 65 -43 174 -33 256 26 l30 21
-27 29 c-15 16 -47 38 -71 50 -44 21 -45 21 -181 3 l-53 -7 22 -23 c18 -19 20
-27 11 -36 -13 -13 -45 -20 -37 -8 6 9 -29 42 -37 35 -3 -3 -20 13 -38 35 -38
47 -36 47 -190 14 -62 -13 -78 -20 -61 -24 13 -3 55 5 94 17 78 26 102 29 91
11 -4 -7 -3 -8 4 -4 12 7 52 -27 52 -44 0 -15 -22 -12 -66 7 -49 21 -91 20
-133 -1 -18 -10 -30 -13 -27 -7 4 6 3 11 -3 11 -5 0 -13 -9 -16 -20 -9 -28
-25 -25 -25 5 0 14 -3 25 -6 25 -13 0 -34 -30 -29 -42 4 -9 -9 -20 -35 -32
-38 -17 -53 -36 -28 -36 9 0 9 -3 0 -12 -17 -17 -25 -4 -17 32 5 21 20 39 46
57 21 14 39 29 39 34 0 10 94 39 126 39 13 0 44 7 68 15 59 20 89 12 122 -36
15 -22 29 -37 32 -34 3 2 -12 25 -32 49 l-37 45 50 21 c51 22 67 47 62 97 -3
33 26 44 99 37 36 -3 66 -10 68 -15z m-1202 -39 c20 -22 64 -57 97 -77 32 -21
55 -39 49 -41 -26 -8 -192 122 -192 151 0 14 10 7 46 -33z m744 11 c-22 -32
-73 -74 -133 -110 -59 -36 -55 -17 5 21 29 19 71 53 93 76 45 48 66 56 35 13z
m-1595 9 c16 -7 14 -9 -15 -9 -19 0 -42 4 -50 9 -11 7 -8 10 15 9 17 0 39 -4
50 -9z m166 -16 c12 -13 30 -24 38 -25 22 -1 -39 -28 -66 -29 -15 0 -24 9 -32
30 -6 19 -17 30 -28 30 -17 -1 -17 -1 0 -11 22 -13 24 -64 1 -55 -9 3 -29 6
-45 6 -36 0 -36 10 -1 48 37 40 99 43 133 6z m281 12 c59 -3 88 -27 88 -72 0
-40 -9 -66 -21 -58 -5 3 -8 0 -7 -8 3 -15 -31 -19 -49 -5 -8 6 -13 6 -13 -1 0
-5 -10 -8 -22 -6 -13 2 -7 -2 12 -10 19 -8 49 -15 67 -15 29 -1 33 2 39 35 5
25 11 34 21 30 8 -3 20 -6 26 -6 7 0 6 -4 -3 -10 -8 -5 -11 -10 -6 -10 5 0 3
-7 -4 -15 -7 -8 -16 -12 -21 -9 -5 3 -6 -2 -3 -11 4 -10 -4 -27 -21 -45 -20
-21 -24 -30 -13 -36 7 -4 10 -4 6 0 -3 4 16 35 43 69 l49 61 -36 19 c-51 26
-36 31 20 7 26 -12 44 -26 40 -32 -4 -6 1 -8 15 -3 12 3 40 0 64 -9 23 -8 66
-17 96 -21 49 -6 118 -31 109 -40 -2 -2 -22 2 -43 10 -22 8 -53 14 -70 14
l-30 0 34 -17 c19 -9 37 -23 39 -31 3 -10 -5 -7 -24 8 -19 15 -36 20 -52 16
-14 -3 -21 -2 -18 4 4 6 -4 7 -23 1 -16 -4 -32 -6 -35 -2 -3 3 -6 0 -6 -7 0
-7 -4 -10 -9 -6 -5 3 -12 1 -16 -5 -7 -11 -55 -14 -55 -2 0 4 11 20 24 37 l24
29 51 -13 c29 -7 54 -11 56 -9 9 9 -97 30 -120 24 -16 -4 -25 -2 -25 5 0 7 -9
0 -20 -14 -11 -14 -20 -29 -20 -34 0 -4 9 3 20 17 11 14 20 20 20 14 0 -6 -11
-21 -25 -34 -14 -13 -25 -20 -25 -15 0 4 -9 0 -20 -10 -12 -10 -19 -24 -16
-30 2 -6 -5 -12 -16 -12 -31 -3 -33 25 -5 55 l26 27 -47 1 c-26 1 -70 5 -98 9
-64 9 -141 -22 -184 -74 -17 -19 -30 -30 -30 -22 0 14 51 67 85 89 17 11 17
11 -5 1 -14 -6 -42 -27 -62 -47 -23 -22 -38 -30 -38 -22 0 20 12 36 30 43 11
4 10 6 -5 6 -17 1 -17 3 -5 11 12 8 9 10 -11 10 -38 0 -46 -52 -13 -83 13 -12
24 -26 24 -31 0 -5 -42 32 -94 82 -51 51 -97 92 -102 92 -9 0 140 -157 164
-173 6 -4 11 -20 11 -35 -2 -26 -2 -26 -6 -3 -3 17 -7 20 -13 12 -6 -11 -12
-11 -31 -1 -13 7 -27 17 -30 22 -3 5 -12 10 -20 12 -8 1 -40 14 -71 29 -60 28
-83 34 -73 17 13 -21 341 -173 433 -201 23 -7 42 -13 42 -15 0 -16 -16 -34
-30 -34 -28 0 -51 -11 -44 -21 3 -5 0 -9 -6 -9 -17 0 -174 63 -274 109 -89 41
-114 50 -86 30 13 -9 13 -10 0 -6 -8 2 -15 9 -15 15 0 7 -16 22 -35 33 -24 15
-31 17 -21 5 9 -11 10 -16 2 -16 -38 0 0 103 79 212 l26 37 55 -55 c30 -31 63
-60 74 -66 11 -6 3 7 -18 29 -20 22 -34 42 -31 46 4 4 0 7 -8 7 -9 0 -21 7
-28 15 -11 13 -8 13 23 0 72 -30 96 -23 211 60 27 20 55 34 62 31 8 -3 16 -1
19 4 4 6 -5 10 -18 10 -14 0 -50 -20 -83 -45 -32 -25 -69 -48 -81 -51 -31 -8
-89 0 -138 19 -33 13 -35 16 -15 16 14 0 36 -6 50 -14 30 -17 84 -19 113 -4
12 7 37 25 56 42 48 41 111 69 141 62 14 -4 46 -7 72 -9z m1941 -27 l31 -34
-34 -5 c-47 -8 -60 -2 -60 26 0 16 6 24 17 24 9 0 13 3 10 7 -4 3 -18 1 -31
-6 -16 -9 -22 -19 -19 -32 4 -15 0 -19 -18 -18 -33 1 -101 27 -73 28 11 1 31
12 43 25 35 37 94 31 134 -15z m-1638 -30 c4 -16 19 -41 33 -55 l27 -24 -35 6
c-46 9 -70 31 -70 64 0 27 18 53 31 44 4 -2 10 -18 14 -35z m959 18 c20 -31
-4 -70 -53 -84 l-44 -13 26 28 c15 16 27 35 27 44 0 46 23 59 44 25z m837 -7
c-25 -21 -95 -28 -106 -10 -4 6 11 10 37 10 24 0 50 5 58 10 27 17 36 10 11
-10z m-1880 -26 c5 -15 7 -29 5 -32 -7 -7 -35 17 -47 40 -8 15 -6 18 11 18 13
0 24 -10 31 -26z m1129 14 c0 -14 -30 -48 -42 -48 -12 0 -10 34 4 48 15 15 38
16 38 0z m739 -24 c18 -4 30 -12 28 -18 -5 -13 -51 -9 -92 9 l-30 13 31 1 c17
1 46 -2 63 -5z m-63 -86 l35 -51 -43 -22 c-47 -24 -65 -24 -30 1 24 16 29 48
11 60 -7 4 -10 1 -7 -7 5 -15 -18 -43 -44 -52 -10 -4 -18 -11 -18 -16 0 -6 8
-8 18 -5 9 3 6 -1 -8 -9 -14 -9 -28 -13 -32 -11 -3 2 -9 0 -13 -6 -3 -6 -19
-17 -36 -25 -28 -15 -29 -15 -29 11 0 14 12 38 28 54 86 88 125 132 112 125
-13 -8 -13 -7 0 9 9 12 16 14 18 7 2 -7 19 -35 38 -63z m-1047 0 c14 -24 14
-28 -3 -47 -35 -39 -96 -17 -96 33 0 52 72 63 99 14z m-278 2 c27 -22 22 -25
-15 -10 -14 5 -26 14 -26 20 0 16 15 12 41 -10z m-751 -25 c0 -2 -12 -11 -27
-19 -37 -20 -12 -20 34 -1 23 10 48 13 68 9 l30 -7 -45 -19 c-52 -23 -182 -50
-174 -37 3 5 -3 9 -13 10 -16 0 -16 1 2 9 14 6 15 9 5 10 -8 0 14 11 50 24 36
13 66 24 68 25 1 1 2 -1 2 -4z m492 -30 c-2 -11 -8 -21 -13 -23 -5 -2 -9 -26
-9 -53 0 -31 -4 -48 -10 -44 -5 3 -7 0 -5 -7 4 -11 -20 -17 -103 -26 -114 -14
-142 -10 -142 17 0 9 -12 27 -25 40 -57 53 -23 77 126 86 98 6 118 5 131 -9
15 -14 17 -14 22 1 4 8 1 22 -6 30 -10 13 -8 14 12 11 19 -2 24 -8 22 -23z
m1131 10 c46 -19 57 -19 32 2 -20 16 -20 16 0 8 11 -4 40 -13 65 -20 25 -8 36
-14 25 -15 -17 -2 -16 -3 5 -10 24 -7 24 -7 -10 -14 -37 -8 -99 3 -165 29 -45
17 -15 14 57 -6 33 -9 51 -10 58 -3 7 7 2 10 -17 7 -15 -2 -46 5 -68 16 -47
23 -33 28 18 6z m-1073 -20 c5 3 20 -5 34 -17 19 -17 23 -27 17 -38 -8 -12
-12 -12 -29 3 -10 9 -23 17 -29 17 -20 0 -34 25 -20 39 8 8 13 8 15 1 2 -5 7
-8 12 -5z m902 -26 c19 -23 10 -56 -18 -65 -42 -13 -49 -17 -36 -21 21 -8 13
-32 -13 -39 -14 -3 -53 -1 -88 5 -35 6 -78 11 -95 11 -17 0 -33 4 -36 8 -3 5
-2 32 3 60 4 29 4 52 0 52 -5 0 -10 -17 -10 -37 -1 -26 -3 -30 -6 -14 -3 12
-2 34 1 46 6 23 6 24 144 19 124 -3 139 -6 154 -25z m-1377 12 c-6 -5 -30 -16
-55 -25 -42 -16 -42 -16 -10 -12 19 3 46 8 60 11 18 5 21 4 10 -3 -22 -15
-120 -31 -126 -21 -3 5 -17 9 -32 10 -15 0 3 7 40 14 37 8 75 18 85 24 23 13
41 14 28 2z m680 -18 c44 -16 100 -11 146 13 29 14 49 12 49 -6 0 -17 -87 -50
-132 -50 -51 0 -105 16 -130 38 -21 17 -13 36 11 26 9 -4 34 -13 56 -21z m826
16 c12 -6 51 -16 87 -23 l67 -13 -56 -7 c-52 -7 -149 8 -136 21 4 3 20 0 38
-6 18 -6 41 -11 53 -10 12 0 4 6 -19 13 -23 7 -50 18 -60 24 -25 15 -1 16 26
1z m-1087 -21 c-5 -8 -2 -9 10 -5 9 4 14 3 11 -2 -3 -5 4 -12 15 -16 11 -3 34
-18 50 -32 25 -21 28 -28 19 -45 -8 -14 -8 -18 0 -14 7 5 7 -2 0 -24 -6 -16
-13 -30 -16 -30 -2 0 -3 5 -1 12 5 13 -27 46 -68 70 -20 11 -30 25 -31 45 -2
31 3 53 12 53 4 0 3 -5 -1 -12z m631 -6 c6 -4 12 -22 13 -41 2 -27 -1 -32 -13
-27 -9 3 -14 2 -11 -3 3 -5 -10 -16 -29 -25 -19 -9 -35 -21 -35 -27 0 -6 -4
-7 -10 -4 -6 3 -8 -2 -5 -12 3 -10 -1 -4 -9 12 -21 42 -20 53 12 81 15 14 21
23 15 19 -26 -13 -12 5 15 19 31 17 43 19 57 8z m-1254 -31 c77 -42 166 -45
221 -8 36 25 44 23 68 -24 7 -13 26 -40 41 -60 28 -36 30 -37 71 -27 24 5 47
13 52 19 15 14 27 11 25 -8 -3 -36 2 -44 36 -60 35 -17 54 -51 40 -72 -3 -6 0
-21 7 -33 15 -27 19 -60 7 -52 -13 7 -51 -15 -44 -26 4 -6 -1 -7 -11 -3 -13 5
-15 3 -9 -7 5 -9 4 -11 -3 -6 -6 4 -20 2 -31 -3 -14 -8 -22 -7 -31 4 -7 8 -18
15 -26 15 -17 0 -66 45 -57 53 3 4 1 7 -6 7 -21 0 -51 43 -38 53 7 5 2 6 -10
2 -21 -6 -22 -4 -17 23 4 21 -2 49 -21 91 -16 34 -25 64 -21 68 8 8 1 16 74
-93 34 -51 59 -94 56 -97 -3 -3 0 -8 7 -13 8 -5 10 -3 4 7 -6 11 -5 11 4 3 7
-6 14 -19 15 -28 3 -21 24 -36 49 -36 33 0 74 100 50 123 -8 9 -44 -23 -38
-33 2 -4 -8 -5 -23 -3 -24 3 -25 2 -7 -7 20 -10 20 -10 0 -7 -11 1 -20 7 -20
13 0 5 -22 33 -49 62 -53 56 -92 109 -104 143 -7 19 -11 17 -37 -23 -16 -23
-42 -65 -56 -93 l-27 -50 86 -63 c48 -35 132 -93 187 -130 55 -36 112 -78 128
-93 72 -71 349 -178 425 -164 19 4 32 2 32 -5 0 -5 -8 -11 -17 -11 -17 -1 -17
-2 0 -6 19 -5 19 -8 11 -40 -5 -19 -13 -23 -43 -23 -51 0 -111 11 -111 20 0 4
15 5 33 1 17 -4 38 -6 45 -5 6 1 24 3 40 4 15 1 2 6 -33 11 -78 11 -212 53
-300 93 -87 40 -253 140 -363 218 -46 33 -81 54 -77 48 5 -9 0 -8 -16 1 -36
19 -99 71 -99 82 0 5 15 24 33 42 17 18 41 51 53 73 19 35 19 39 4 35 -27 -7
-139 25 -187 53 -32 19 -43 31 -43 49 0 32 5 31 71 -4z m784 19 c-4 -6 5 -10
19 -10 14 0 26 -4 26 -10 0 -5 -4 -10 -10 -10 -6 0 -10 -30 -10 -69 0 -38 -6
-83 -14 -101 l-13 -32 -11 30 c-7 22 -7 49 1 97 9 52 9 68 -1 74 -14 8 -6 41
10 41 5 0 6 -4 3 -10z m331 -7 c10 -16 7 -18 -28 -19 l-39 0 23 18 c29 22 31
22 44 1z m497 -55 c-35 -59 -135 -168 -161 -175 -24 -6 -25 -7 -7 -14 13 -5
15 -8 5 -8 -17 -1 -42 13 -40 23 0 3 -4 14 -9 24 -13 24 -25 8 -24 -34 1 -36
34 -84 58 -84 17 0 65 39 62 50 -4 16 138 219 146 211 5 -5 1 -23 -8 -40 -9
-17 -13 -37 -9 -43 4 -6 3 -8 -3 -5 -14 9 -33 -45 -26 -71 5 -22 -12 -62 -27
-62 -5 0 -28 -20 -52 -45 -24 -25 -53 -47 -65 -48 -13 -1 -23 -5 -23 -9 0 -5
-9 -4 -20 2 -11 6 -26 8 -32 4 -7 -4 -8 -3 -4 4 8 13 -67 55 -80 44 -4 -4 1 7
11 23 11 17 22 48 25 70 4 32 11 43 35 54 38 18 46 30 42 59 -5 25 -3 26 26
10 12 -6 36 -14 54 -18 36 -8 49 2 98 77 31 48 55 49 28 1z m-499 -40 c4 -40
2 -86 -3 -103 l-8 -30 -13 30 c-12 28 -21 151 -13 168 2 4 10 7 17 7 10 0 16
-22 20 -72z m-201 7 c18 -13 19 -17 8 -24 -11 -7 -12 -26 -8 -87 6 -67 4 -84
-13 -114 -11 -20 -19 -28 -20 -19 0 11 -12 19 -36 24 -40 7 -39 -6 -10 130 7
33 10 65 5 70 -4 6 3 21 17 34 13 13 25 28 25 35 1 6 4 1 6 -11 2 -13 14 -30
26 -38z m134 -22 c-8 -11 5 -88 29 -169 5 -18 0 -22 -31 -28 -20 -4 -39 -14
-42 -23 -13 -35 -35 52 -33 135 0 51 -3 82 -9 82 -19 0 -12 15 12 25 14 6 22
18 21 33 -1 21 1 21 30 -10 21 -22 29 -37 23 -45z m-386 15 c22 -12 39 -27 39
-34 0 -6 7 -17 15 -24 27 -22 16 -32 -12 -12 -18 12 -51 21 -90 24 -35 2 -66
7 -70 11 -4 4 3 17 15 30 l22 21 0 -21 c0 -23 44 -38 70 -22 12 7 11 8 -6 9
-11 0 -29 9 -39 20 -17 19 -17 20 0 20 9 0 35 -10 56 -22z m623 7 c-4 -8 -20
-19 -38 -24 -30 -9 -29 -9 16 -10 41 -1 46 1 41 19 -7 26 13 26 27 0 17 -32 4
-40 -64 -40 -54 0 -66 -3 -86 -25 -23 -24 -16 -37 7 -14 6 6 46 15 88 19 72 7
102 21 89 42 -3 4 0 8 5 8 25 0 9 -39 -23 -58 -27 -16 -36 -30 -47 -71 -10
-42 -16 -50 -31 -45 -17 5 -17 4 0 -25 9 -17 20 -31 24 -31 3 0 20 -11 37 -25
33 -28 32 -44 -2 -82 -21 -24 -44 -32 -31 -11 4 6 3 8 -4 5 -13 -9 -44 2 -37
13 3 5 -5 6 -17 2 -13 -3 -19 -1 -15 5 5 7 -1 9 -15 5 -15 -3 -19 -2 -14 7 6
9 0 10 -20 5 -21 -5 -25 -4 -19 6 6 10 4 12 -8 7 -9 -3 -19 -2 -22 3 -3 5 9
13 26 18 44 11 47 29 7 38 l-33 7 40 18 c25 11 44 14 51 8 11 -9 24 -2 24 13
0 5 -11 6 -25 4 -27 -5 -32 3 -13 22 9 9 9 12 -1 12 -17 0 -64 -37 -52 -42 5
-1 -11 -15 -35 -30 -29 -18 -44 -23 -44 -14 0 7 11 19 25 26 13 7 22 16 20 21
-5 8 49 43 85 54 15 5 20 4 16 -3 -9 -15 27 -33 43 -22 21 12 5 40 -22 40 -13
0 -32 6 -43 14 -12 9 -23 11 -30 5 -8 -6 -11 0 -12 20 0 17 6 35 14 42 8 6 14
17 14 23 0 14 68 55 92 56 11 0 15 -5 12 -15z m-1607 -69 c-2 -5 27 -37 63
-71 81 -76 143 -101 231 -91 54 5 59 4 59 -14 0 -27 -47 -57 -63 -41 -9 10 -8
16 7 27 17 12 18 14 3 14 -9 0 -17 -4 -17 -8 0 -7 -49 -4 -192 14 -64 7 -74
19 -28 31 l29 8 -53 58 c-51 54 -85 74 -72 42 3 -9 0 -15 -9 -15 -8 0 -15 9
-15 20 0 15 7 20 27 20 21 0 24 3 15 12 -7 7 -12 19 -12 28 1 12 4 11 15 -5 9
-10 14 -23 12 -29z m890 -1 c21 -5 49 -7 63 -7 36 2 95 -30 94 -51 -1 -9 7
-19 18 -23 10 -3 18 -13 17 -22 -3 -34 1 -43 31 -69 36 -31 20 -37 -20 -8 -19
14 -41 25 -49 26 -9 1 -5 4 8 8 21 6 18 9 -30 34 -29 15 -44 27 -34 27 11 -1
31 -7 45 -15 40 -23 48 -17 15 10 -16 13 -24 24 -17 25 7 0 10 5 7 10 -4 6
-12 4 -21 -5 -9 -8 -25 -15 -38 -15 -29 0 -49 -20 -35 -36 7 -8 7 -14 -1 -19
-17 -10 -27 2 -38 48 -7 28 -23 53 -47 75 -22 19 -34 36 -29 43 5 9 10 6 15
-8 5 -13 21 -23 46 -28z m1673 36 c0 -5 -7 -15 -17 -22 -14 -13 -13 -15 13
-19 32 -6 40 -33 12 -38 -13 -2 -16 1 -12 12 12 32 -16 14 -65 -41 l-50 -58
24 -8 c55 -19 25 -28 -143 -45 -41 -4 -76 -4 -78 0 -3 4 -11 8 -17 7 -9 0 -9
-2 1 -6 13 -5 17 -43 4 -43 -17 0 -52 32 -52 48 0 15 11 17 83 17 100 0 139
18 211 96 28 30 50 56 51 59 5 24 18 50 26 50 5 0 9 -4 9 -9z m-1992 -34 c-1
-7 4 -23 11 -36 16 -28 2 -46 -28 -36 -26 8 -44 40 -36 65 9 28 59 35 53 7z
m1452 -27 c0 -4 -9 -15 -20 -25 -11 -10 -20 -14 -20 -9 0 5 -4 4 -8 -3 -15
-24 -36 -19 -37 9 -1 15 3 24 7 22 4 -3 8 0 8 7 0 7 8 21 17 32 17 18 18 18
35 -3 10 -12 18 -26 18 -30z m-1920 -24 c0 -43 60 -75 160 -85 64 -7 65 -7 26
-15 -51 -11 -135 15 -181 56 -36 31 -47 68 -20 68 9 0 15 -9 15 -24z m48 -4
c3 -22 58 -59 70 -48 3 3 0 6 -6 6 -7 0 -12 3 -12 8 0 4 16 8 35 9 40 2 44 -4
13 -17 -18 -8 -11 -9 27 -5 48 5 49 5 25 -9 -14 -9 -37 -15 -52 -16 -57 0
-128 45 -128 83 0 26 24 16 28 -11z m2262 9 c0 -46 -94 -91 -159 -76 -51 11
-45 25 8 18 64 -7 106 9 120 48 11 33 31 39 31 10z m48 0 c2 -7 -14 -29 -36
-50 -47 -45 -115 -66 -176 -54 -39 7 -38 7 31 13 87 8 153 44 153 86 0 26 20
30 28 5z m-978 -50 c-13 -11 -28 -17 -33 -14 -13 8 14 33 37 33 20 0 20 -1 -4
-19z m843 7 c-6 -11 -61 -10 -68 2 -4 6 10 9 34 7 21 -1 37 -5 34 -9z m-1313
-38 c8 -15 8 -20 -2 -20 -7 0 5 -9 27 -19 l40 -18 -27 -8 c-38 -10 -36 -35 2
-35 17 0 30 -5 30 -11 0 -5 -5 -7 -12 -3 -6 4 -8 3 -5 -3 3 -5 -19 -18 -51
-27 -31 -10 -70 -25 -86 -33 -29 -15 -31 -14 -53 11 -13 15 -23 32 -23 39 0
16 123 147 138 147 6 0 16 -9 22 -20z m-582 -59 c30 -22 42 -38 42 -56 0 -31
-16 -33 -24 -2 -3 12 -18 30 -33 39 -16 9 -37 26 -47 37 -16 18 -17 23 -5 37
13 15 14 15 19 -4 3 -11 24 -35 48 -51z m1742 38 c0 -10 -19 -31 -45 -49 -27
-19 -45 -39 -45 -50 0 -11 -4 -20 -10 -20 -5 0 -10 11 -10 25 0 16 13 34 40
56 22 18 40 40 40 50 0 12 5 16 15 13 8 -4 15 -14 15 -25z m-875 -59 l25 -49
-27 -46 c-16 -25 -31 -45 -34 -45 -3 0 -17 21 -32 48 l-26 47 26 48 c15 26 30
47 35 47 4 0 19 -22 33 -50z m-111 14 c20 -19 11 -40 -10 -23 -13 10 -20 39
-10 39 3 0 12 -7 20 -16z m-891 -59 l21 -15 -21 0 c-26 0 -48 34 -37 58 6 14
8 14 11 -5 3 -13 14 -30 26 -38z m829 33 c26 -12 48 -28 48 -36 0 -13 -2 -13
-17 0 -10 9 -37 22 -60 28 -23 7 -40 17 -37 21 7 13 12 12 66 -13z m343 12 c3
-5 -2 -10 -12 -10 -10 0 -37 -9 -60 -20 -53 -24 -57 -7 -5 19 43 22 68 25 77
11z m807 -35 c-7 -16 -20 -25 -34 -25 l-22 0 22 16 c12 8 22 25 22 37 0 16 3
18 12 9 9 -9 9 -18 0 -37z m-1099 -62 c34 -32 73 -68 87 -81 l25 -24 -38 5
c-21 3 -81 27 -133 52 -66 33 -101 44 -116 39 -19 -6 -20 -7 -4 -16 10 -6 26
-8 37 -5 12 3 17 1 12 -6 -4 -6 0 -8 10 -4 10 3 17 2 17 -3 0 -13 72 -48 88
-43 6 3 12 0 12 -6 0 -6 7 -7 17 -4 10 4 14 2 10 -4 -4 -6 12 -10 40 -12 54
-2 63 -6 63 -32 0 -24 -12 -24 -113 1 -98 25 -275 110 -228 110 7 0 10 4 6 9
-9 16 22 38 63 45 22 3 45 13 52 21 7 8 16 15 21 15 5 0 37 -26 72 -57z m266
43 c7 -8 27 -18 44 -21 60 -12 67 -16 67 -38 0 -18 2 -19 10 -7 8 12 10 11 10
-5 0 -13 -13 -27 -37 -40 -20 -11 -39 -20 -42 -20 -3 -1 -15 -6 -26 -12 -23
-13 -126 -53 -136 -53 -3 0 -11 12 -18 26 -10 23 -10 26 4 20 9 -3 13 -2 10 4
-5 9 15 15 38 11 4 0 7 4 7 11 0 6 3 9 6 5 4 -3 13 1 21 9 8 8 19 12 24 9 5
-4 9 -2 9 3 0 5 6 9 13 10 22 2 88 20 94 26 6 6 -19 10 -47 7 -8 -1 -54 -20
-102 -43 -73 -35 -89 -39 -102 -28 -12 9 -14 16 -5 26 6 8 15 11 20 8 5 -3 8
-1 7 4 -4 13 88 102 106 102 7 0 19 -6 25 -14z m-719 -145 c0 -5 -6 -11 -14
-14 -37 -14 -19 -82 36 -133 30 -28 30 -27 -5 20 -42 55 -44 64 -21 73 20 8
44 -21 44 -53 0 -12 11 -36 25 -52 25 -30 35 -56 13 -34 -7 7 -20 12 -29 12
-26 0 -99 72 -109 108 -8 29 -6 37 15 58 24 24 45 31 45 15z m-140 -87 c0 -19
-5 -24 -25 -24 -20 0 -25 5 -25 24 0 13 6 26 13 29 22 7 37 -4 37 -29z m224
11 c-14 -54 52 -105 109 -85 39 13 48 4 11 -12 -28 -11 -28 -12 -6 -16 13 -2
30 2 39 9 12 11 17 10 24 -4 10 -17 32 -25 26 -9 -1 4 3 8 8 10 6 1 10 -6 10
-15 0 -30 -94 -30 -159 0 -63 29 -96 82 -77 123 14 31 23 31 15 -1z m1195 7
c12 -23 -1 -45 -25 -40 -23 4 -31 37 -12 49 19 13 26 11 37 -9z m-459 -20 c0
-4 -17 -14 -37 -21 -65 -23 -70 -22 -18 3 59 29 55 28 55 18z"/>
<path d="M1380 2619 c-269 -32 -522 -164 -688 -358 -95 -111 -222 -287 -222
-308 0 -11 10 -29 22 -40 19 -17 232 -143 243 -143 1 0 5 9 8 20 4 16 0 20
-20 20 -14 0 -50 15 -80 33 -31 17 -69 40 -87 51 -39 23 -66 51 -66 69 0 25
192 270 276 352 138 135 318 232 504 272 61 13 126 18 230 17 124 0 160 -4
249 -27 254 -67 425 -186 620 -432 108 -136 123 -160 119 -188 -3 -25 -105
-99 -126 -92 -7 3 -11 1 -8 -4 8 -12 -70 -52 -88 -45 -12 5 -16 0 -16 -21 0
-14 3 -24 8 -22 68 36 232 141 246 156 11 13 15 27 11 40 -10 33 -206 280
-277 349 -224 220 -559 337 -858 301z"/>
<path d="M1490 2561 c-17 -32 -12 -55 20 -91 29 -35 38 -60 20 -60 -5 0 -13 7
-18 17 -10 17 -42 12 -42 -7 0 -17 39 -50 58 -50 59 0 71 61 23 115 -17 20
-31 40 -31 45 0 13 23 13 37 -1 12 -12 33 -4 33 11 0 37 -82 54 -100 21z"/>
<path d="M1630 2554 c0 -17 6 -24 19 -24 19 0 19 -1 0 -72 -23 -91 -23 -98 0
-98 17 0 23 14 38 80 16 74 19 79 40 74 18 -5 23 -2 23 15 0 15 -9 23 -37 30
-86 21 -83 21 -83 -5z"/>
<path d="M1280 2563 c-8 -2 -20 -6 -26 -8 -8 -2 -4 -33 12 -101 13 -53 25 -98
26 -100 6 -6 80 14 90 24 16 16 13 60 -5 80 -9 10 -13 27 -10 44 9 45 -38 78
-87 61z m47 -49 c8 -22 -15 -43 -27 -24 -5 8 -10 21 -10 28 0 17 30 15 37 -4z
m21 -92 c4 -26 -22 -31 -32 -6 -10 26 -7 36 12 32 9 -2 18 -13 20 -26z"/>
<path d="M1162 2532 c-10 -7 -7 -24 13 -79 29 -82 31 -96 9 -91 -10 2 -26 31
-42 73 -30 84 -25 77 -46 69 -21 -8 -17 -31 24 -120 25 -55 32 -64 55 -64 38
0 65 18 65 43 0 28 -49 177 -58 177 -4 0 -13 -4 -20 -8z"/>
<path d="M1772 2440 c-34 -49 -62 -91 -62 -93 0 -3 7 -8 16 -11 11 -4 22 1 30
13 20 27 56 17 48 -14 -4 -15 0 -24 12 -29 9 -4 18 -5 20 -4 3 4 34 179 34
195 0 7 -8 17 -18 22 -16 9 -27 -3 -80 -79z m51 -22 c-5 -28 -17 -36 -27 -20
-5 9 23 56 29 50 2 -2 1 -15 -2 -30z"/>
<path d="M1915 2374 c-46 -68 -55 -88 -44 -95 21 -13 22 -12 48 33 27 48 39
37 21 -17 -9 -28 -9 -39 0 -50 20 -24 27 -18 34 30 5 29 12 45 22 45 22 0 54
38 54 64 0 17 -12 34 -33 50 -19 15 -36 26 -39 26 -2 0 -31 -39 -63 -86z m85
-9 c-19 -23 -44 -1 -27 26 10 16 13 17 26 4 12 -11 12 -17 1 -30z"/>
<path d="M959 2437 c-15 -11 -11 -21 31 -95 26 -45 50 -85 52 -88 11 -10 79
39 74 53 -3 8 -6 17 -6 20 0 3 -11 -2 -25 -11 l-24 -16 -42 75 c-22 41 -42 75
-42 75 -1 0 -9 -6 -18 -13z"/>
<path d="M845 2350 c-22 -25 -15 -55 28 -112 24 -31 41 -44 63 -46 40 -4 69
27 60 63 -6 22 -9 24 -26 15 -11 -6 -17 -16 -14 -25 4 -10 0 -15 -13 -15 -11
0 -28 16 -43 40 -25 40 -26 55 -3 55 7 0 18 6 25 13 10 10 10 15 -2 22 -24 16
-56 11 -75 -10z"/>
<path d="M2101 2356 c-9 -10 -8 -16 4 -26 13 -11 8 -20 -37 -72 -44 -51 -49
-61 -37 -73 12 -12 21 -6 63 45 48 58 66 71 66 50 0 -14 26 -12 38 3 9 10 1
22 -33 50 -50 42 -49 42 -64 23z"/>
<path d="M680 2137 c0 -10 -10 -21 -22 -26 l-23 -8 23 -7 c16 -6 22 -15 22
-39 0 -28 1 -29 13 -12 11 14 21 16 43 11 l28 -7 -19 21 c-16 18 -17 24 -6 42
12 19 11 20 -13 14 -18 -4 -28 -1 -35 11 -10 17 -10 17 -11 0z"/>
<path d="M2294 2136 c-9 -15 -15 -16 -33 -7 -23 13 -26 9 -11 -19 7 -13 6 -21
-5 -30 -23 -19 -18 -31 9 -20 20 7 27 5 40 -13 15 -22 15 -22 15 9 1 22 8 34
24 42 l22 11 -22 0 c-14 1 -23 8 -25 24 -3 21 -4 21 -14 3z"/>
<path d="M1196 1975 c-37 -31 -38 -33 -13 -28 14 3 25 9 24 13 -1 5 7 15 18
23 11 9 18 18 15 20 -3 3 -23 -10 -44 -28z"/>
<path d="M1455 1989 c-54 -36 -201 -107 -263 -128 -34 -12 -80 -21 -103 -21
-22 0 -39 -4 -37 -8 8 -22 434 -741 438 -741 3 -1 16 18 29 42 13 23 109 185
213 359 103 175 191 324 194 333 5 11 -1 15 -26 15 -74 0 -221 56 -349 135
-32 19 -60 35 -62 34 -2 0 -17 -9 -34 -20z m123 -54 c87 -51 209 -101 271
-111 23 -4 40 -10 39 -14 -8 -21 -394 -659 -398 -659 -3 0 -94 149 -202 331
l-197 332 72 18 c71 18 193 72 272 121 22 14 46 26 53 26 7 1 48 -19 90 -44z"/>
<path d="M1463 1922 c-11 -9 -23 -26 -25 -37 -3 -17 -14 -21 -66 -27 -87 -10
-98 -14 -122 -53 -33 -53 -14 -112 72 -220 22 -27 42 -62 45 -77 4 -20 12 -28
27 -28 11 0 32 -3 46 -7 l25 -7 -28 30 c-66 70 -148 182 -163 221 -33 85 0
113 132 113 67 0 74 2 74 20 0 11 -4 20 -10 20 -14 0 -12 13 4 35 12 16 16 17
30 6 9 -7 16 -20 16 -28 0 -12 -3 -13 -13 -4 -11 8 -13 5 -9 -18 l4 -29 95 -4
c86 -3 97 -5 115 -27 24 -31 17 -67 -21 -102 -15 -14 -38 -47 -50 -72 -13 -26
-33 -55 -45 -65 -13 -9 -21 -22 -19 -29 2 -6 -8 -20 -22 -31 -14 -11 -25 -22
-25 -24 0 -2 19 -2 41 0 32 3 40 1 37 -9 -3 -9 -24 -15 -56 -17 l-52 -3 0 -70
c0 -39 -4 -69 -10 -69 -6 0 -10 30 -10 70 l0 70 -50 0 c-30 0 -52 5 -57 13 -4
8 -16 18 -26 23 -14 8 -82 112 -205 314 -6 8 -12 13 -15 10 -4 -3 75 -141 173
-305 99 -165 182 -304 185 -310 3 -6 7 -6 10 1 3 6 87 145 186 309 99 163 178
299 176 301 -3 3 -33 -41 -67 -98 -34 -57 -83 -134 -108 -172 -42 -62 -47 -67
-59 -50 -18 25 -17 36 12 75 67 90 115 175 115 204 0 61 -54 92 -163 94 -31 1
-40 6 -50 29 -11 25 -35 51 -47 51 -3 1 -15 -7 -27 -17z m104 -564 c-25 -36
-48 -74 -51 -86 -10 -29 -30 -28 -51 4 l-17 26 30 -6 c43 -10 56 10 61 95 1
13 58 41 69 34 2 -2 -17 -32 -41 -67z m-128 46 c2 -2 6 -25 8 -51 l4 -48 -21
30 c-11 17 -28 43 -36 59 l-16 29 29 -7 c15 -4 30 -9 32 -12z"/>
<path d="M1357 1785 c-32 -7 -60 -15 -64 -18 -8 -8 46 -117 58 -117 5 0 9 9 9
19 0 27 45 77 80 90 41 14 42 -12 1 -33 -29 -16 -61 -69 -61 -104 0 -21 39
-54 78 -66 l22 -7 0 125 0 126 -32 -1 c-18 -1 -59 -7 -91 -14z"/>
<path d="M1500 1674 c0 -125 0 -125 23 -119 39 12 66 34 73 59 8 34 -23 94
-57 112 -16 8 -29 19 -29 24 0 27 58 -2 89 -43 l23 -32 -7 30 c-3 17 -14 38
-23 49 -18 20 -65 46 -82 46 -6 0 -10 -45 -10 -126z"/>
<path d="M1618 1777 c12 -13 27 -38 33 -56 l12 -34 18 24 c38 50 19 89 -45 89
l-39 0 21 -23z"/>
<path d="M1447 1508 c15 -16 29 -24 31 -18 7 20 -6 37 -33 42 l-26 5 28 -29z"/>
<path d="M1532 1533 c-24 -5 -37 -24 -30 -43 2 -6 16 3 33 20 16 16 27 29 24
29 -2 -1 -14 -4 -27 -6z"/>
<path d="M232 1883 c-10 -4 -10 -8 -1 -19 16 -20 29 -17 29 6 0 20 -5 23 -28
13z"/>
<path d="M793 1699 c-1 -14 3 -19 15 -17 24 5 28 38 5 38 -12 0 -19 -8 -20
-21z"/>
<path d="M1313 1090 c-1 -11 4 -20 12 -20 14 0 27 24 18 34 -13 13 -29 5 -30
-14z"/>
<path d="M2160 1700 c0 -13 7 -20 20 -20 13 0 20 7 20 20 0 13 -7 20 -20 20
-13 0 -20 -7 -20 -20z"/>
<path d="M1260 1302 c0 -14 40 -52 55 -52 21 0 18 13 -8 38 -23 22 -47 29 -47
14z"/>
<path d="M1920 1598 c0 -7 5 -20 10 -28 12 -19 35 2 27 24 -7 19 -37 21 -37 4z"/>
<path d="M204 1502 c3 -6 1 -12 -6 -14 -18 -6 0 -28 24 -28 13 0 18 -5 15 -14
-4 -10 -1 -13 9 -9 12 5 19 -7 15 -29 -2 -15 30 -8 36 8 10 26 -10 69 -31 66
-10 -2 -29 4 -43 13 -14 10 -23 12 -19 7z"/>
<path d="M2765 1494 c-11 -8 -31 -13 -45 -12 -23 3 -25 0 -25 -36 0 -25 5 -41
14 -44 10 -3 12 0 8 11 -3 9 1 18 9 21 9 3 12 11 8 18 -5 7 -2 9 8 6 8 -4 28
2 44 13 22 14 25 19 11 19 -10 0 -15 5 -12 10 8 13 4 12 -20 -6z"/>
<path d="M2209 1290 c-12 -3 -25 -12 -27 -19 -3 -10 2 -11 19 -5 13 4 43 8 66
8 23 1 47 6 53 12 11 11 -66 14 -111 4z"/>
<path d="M2331 1201 c-21 -16 -21 -19 -6 -24 9 -4 27 -7 40 -7 13 0 27 -4 30
-10 4 -6 -5 -10 -21 -10 -36 0 -28 -6 19 -14 l37 -7 -26 38 c-33 50 -45 55
-73 34z"/>
<path d="M2120 1171 l-36 -16 53 -69 c29 -37 53 -64 53 -58 0 5 -9 21 -20 35
-11 14 -20 28 -20 32 0 5 -8 13 -17 20 -14 10 -15 16 -5 27 6 8 9 18 5 21 -3
4 -1 7 6 7 14 0 32 -45 25 -64 -4 -11 4 -12 43 -5 26 4 57 11 67 15 19 7 19 8
0 15 -10 3 -25 1 -33 -5 -11 -8 -13 -8 -8 1 4 6 3 15 -3 18 -6 4 -9 1 -8 -7 2
-7 -7 -14 -20 -16 -18 -3 -23 2 -28 27 -8 40 -12 41 -54 22z"/>
<path d="M2647 1141 c-10 -4 -17 -10 -15 -13 2 -4 -16 -24 -39 -46 l-43 -39 0
29 c0 24 -4 28 -27 27 -17 -1 -21 -3 -11 -6 10 -2 21 -17 24 -31 3 -15 7 -30
7 -35 1 -4 31 22 67 58 35 36 62 65 60 64 -3 0 -13 -4 -23 -8z"/>
<path d="M2465 1068 c41 -36 59 -43 34 -11 -8 9 -9 14 -2 10 6 -4 14 -3 18 3
3 5 0 10 -9 10 -8 0 -16 3 -19 8 -2 4 -2 1 -1 -5 4 -17 -1 -16 -34 4 -17 10
-12 3 13 -19z"/>
<path d="M2255 739 c-47 -36 -71 -59 -35 -36 27 19 55 23 45 7 -3 -5 -1 -10 6
-10 10 0 10 -3 1 -12 -13 -13 -16 -28 -4 -28 4 1 20 11 36 24 27 23 28 26 16
55 -7 17 -15 31 -19 30 -3 0 -24 -14 -46 -30z"/>
<path d="M2060 599 c-106 -74 -159 -115 -120 -94 28 16 165 108 209 142 82 62
26 32 -89 -48z"/>
<path d="M735 1243 c17 -3 38 -12 48 -20 10 -10 17 -11 17 -5 0 17 -35 32 -67
31 l-28 -2 30 -4z"/>
<path d="M576 1173 c-13 -21 -22 -39 -21 -41 2 -2 18 1 36 7 29 8 30 9 10 10
-31 1 -17 16 23 25 27 7 28 6 15 -11 -13 -16 -12 -17 4 -4 21 17 22 37 1 45
-31 12 -44 6 -68 -31z"/>
<path d="M243 1083 c-7 -18 38 -63 63 -63 22 0 17 9 -11 20 -22 8 -30 26 -26
53 2 14 -20 7 -26 -10z"/>
<path d="M205 1010 c15 -24 360 -180 430 -195 17 -3 -4 7 -45 23 -102 39 -295
127 -349 159 -24 14 -40 20 -36 13z"/>
<path d="M1645 1100 c-8 -13 3 -30 20 -30 8 0 13 9 12 20 -1 21 -21 27 -32 10z"/>
<path d="M675 1049 c-36 -15 -41 -19 -19 -15 37 6 106 34 84 34 -8 0 -37 -9
-65 -19z"/>
<path d="M974 1001 c-37 -9 -77 -35 -67 -44 3 -4 11 -3 17 2 25 19 42 19 43
-1 2 -15 -3 -19 -18 -15 -10 3 -17 1 -13 -4 9 -16 29 -10 64 19 20 17 30 33
26 40 -8 13 -8 13 -52 3z"/>
<path d="M1955 1001 c-3 -6 6 -22 22 -36 33 -29 39 -30 47 -9 5 12 14 14 34
10 l27 -7 -25 21 c-14 11 -35 20 -47 20 -12 0 -28 3 -36 6 -8 3 -18 1 -22 -5z"/>
<path d="M666 745 c-19 -29 -17 -36 25 -66 30 -21 31 -21 25 -2 -9 30 18 50
42 32 10 -8 0 3 -23 23 -22 21 -43 38 -46 38 -4 0 -14 -11 -23 -25z"/>
<path d="M790 685 c0 -3 33 -29 73 -58 84 -63 208 -141 161 -103 -42 35 -234
167 -234 161z"/>
<path d="M1110 449 c34 -29 143 -83 221 -109 75 -26 159 -41 159 -29 0 5 -13
9 -29 9 -59 0 -205 54 -321 120 -38 22 -47 25 -30 9z"/>
<path d="M1417 823 c-11 -39 -17 -98 -8 -78 7 16 10 11 13 -25 3 -30 5 -17 6
38 2 80 -2 100 -11 65z"/>
<path d="M1544 847 c3 -13 9 -56 12 -96 4 -39 9 -69 12 -67 9 9 -10 186 -20
186 -6 0 -8 -11 -4 -23z"/>
<path d="M1810 803 c-14 -2 -36 -6 -50 -10 l-25 -6 25 -7 c14 -3 28 -2 31 3 4
5 14 5 26 -2 11 -5 23 -7 27 -4 9 9 8 33 -1 32 -5 -1 -19 -3 -33 -6z"/>
<path d="M1130 796 c0 -22 17 -28 40 -16 16 9 20 8 20 -4 0 -13 4 -14 25 -4
22 10 24 13 10 21 -9 5 -28 7 -41 4 -14 -2 -27 0 -30 4 -8 14 -24 10 -24 -5z"/>
<path d="M1476 529 l16 -31 14 27 c18 36 19 35 -16 35 l-31 0 17 -31z"/>
<path d="M2065 461 c-25 -24 -307 -191 -323 -191 -43 0 -56 -54 -21 -86 25
-23 96 -22 160 1 24 9 66 21 93 25 121 22 197 147 126 208 -21 18 -28 48 -8
36 7 -4 8 -3 4 4 -9 14 -19 15 -31 3z m23 -53 c7 -7 12 -27 12 -45 0 -26 -10
-43 -45 -78 -24 -25 -53 -45 -64 -45 -11 0 -23 -5 -26 -10 -3 -5 -11 -10 -17
-10 -6 0 -2 10 10 23 12 13 29 45 38 71 17 48 37 67 55 49 6 -6 -3 -28 -27
-63 -41 -60 -28 -58 17 2 30 43 37 86 17 106 -9 9 -9 12 3 12 8 0 20 -5 27
-12z m-118 -80 c0 -43 -28 -84 -69 -103 -41 -18 -139 -35 -158 -28 -15 6 -17
39 -3 48 6 3 10 -1 10 -10 0 -12 5 -15 16 -11 9 3 18 6 20 6 3 0 2 5 -2 11 -5
8 -1 8 14 0 26 -14 62 -14 62 -1 0 6 -9 10 -19 10 -11 0 -23 5 -27 11 -4 8 1
9 17 3 70 -24 137 18 123 78 -4 21 -3 28 5 24 6 -4 11 -21 11 -38z m-32 3 c5
-29 -24 -61 -54 -61 -36 0 -38 18 -2 22 30 3 33 6 33 36 0 36 18 38 23 3z"/>
<path d="M1620 224 c-93 -33 -184 -30 -295 11 -16 5 -15 3 5 -14 67 -56 205
-63 303 -15 31 15 57 32 57 36 0 4 -1 7 -2 7 -2 -1 -32 -12 -68 -25z"/>
</g>
</svg>
