<?xml version="1.0" standalone="no"?>
<svg version="1.0" xmlns="http://www.w3.org/2000/svg"
 width="900.000000pt" height="900.000000pt" viewBox="0 0 900.000000 900.000000"
 preserveAspectRatio="xMidYMid meet">
<g transform="translate(0.000000,900.000000) scale(0.100000,-0.100000)"
fill="#000000" stroke="none">
<path d="M5967 6980 c3 -11 9 -20 14 -20 11 0 11 3 3 24 -9 23 -23 20 -17 -4z"/>
<path d="M4380 6975 c0 -9 9 -15 25 -15 28 0 34 15 9 24 -25 10 -34 7 -34 -9z"/>
<path d="M5880 6970 c0 -5 4 -10 9 -10 11 0 81 -140 81 -162 0 -9 5 -20 10
-23 6 -3 10 -17 10 -30 0 -30 10 -55 21 -55 14 0 10 62 -6 94 -8 15 -15 33
-15 40 0 15 -38 85 -56 103 -8 8 -14 20 -14 28 0 7 -7 16 -16 19 -21 8 -24 8
-24 -4z"/>
<path d="M5818 6943 c36 -51 82 -146 82 -168 0 -12 7 -28 15 -35 8 -7 15 -22
15 -34 1 -11 9 -39 20 -61 13 -26 19 -62 20 -104 0 -84 10 -72 16 19 3 54 1
78 -11 96 -8 13 -15 37 -15 53 0 16 -7 36 -15 45 -8 8 -15 17 -15 21 0 13 -43
99 -56 112 -8 8 -14 20 -14 26 0 13 -43 57 -55 57 -3 0 2 -12 13 -27z"/>
<path d="M6000 6928 c0 -16 4 -28 10 -28 5 0 12 -17 16 -37 4 -21 11 -41 16
-44 5 -3 11 -29 15 -57 3 -29 10 -52 14 -52 14 0 10 63 -6 94 -8 15 -15 33
-15 40 0 6 -12 34 -25 61 -22 44 -25 46 -25 23z"/>
<path d="M3990 6930 c20 -5 39 -5 45 1 5 5 -8 9 -35 8 l-45 -1 35 -8z"/>
<path d="M4441 6893 c0 -37 0 -38 16 -15 18 25 53 30 53 6 0 -9 9 -18 20 -21
22 -6 28 -51 9 -70 -6 -6 -9 -19 -6 -29 4 -18 4 -18 12 1 5 11 14 24 22 28 14
9 18 67 5 67 -5 0 -16 16 -25 35 -15 31 -20 34 -37 25 -14 -7 -26 -8 -39 0
-29 15 -31 13 -30 -27z"/>
<path d="M5640 6925 c0 -14 123 -155 135 -155 13 0 -36 77 -67 106 -46 42 -68
58 -68 49z"/>
<path d="M4610 6891 c0 -17 5 -31 10 -31 6 0 10 11 10 24 0 14 -4 28 -10 31
-6 4 -10 -7 -10 -24z"/>
<path d="M4695 6874 c4 -16 9 -59 12 -96 3 -38 9 -68 14 -68 5 0 9 -13 9 -29
0 -16 6 -31 15 -35 18 -6 20 -37 3 -54 -20 -20 -1 -25 21 -5 24 20 28 58 6 67
-8 3 -15 17 -15 31 0 14 -5 25 -11 25 -7 0 -8 11 -4 30 4 19 2 36 -5 45 -6 8
-15 35 -18 61 -4 27 -13 49 -21 52 -11 4 -12 -2 -6 -24z"/>
<path d="M4040 6880 c0 -5 12 -10 26 -10 14 0 23 4 19 10 -3 6 -15 10 -26 10
-10 0 -19 -4 -19 -10z"/>
<path d="M5573 6870 c7 -10 30 -32 50 -48 20 -16 55 -53 79 -83 35 -44 43 -50
46 -34 3 12 -4 25 -17 33 -11 8 -21 21 -21 28 0 18 -22 40 -88 87 -59 42 -69
46 -49 17z"/>
<path d="M5780 6867 c0 -8 9 -22 20 -32 11 -10 20 -26 20 -37 0 -10 5 -18 11
-18 15 0 3 45 -19 76 -19 26 -32 31 -32 11z"/>
<path d="M3920 6850 c0 -5 21 -10 46 -10 27 0 43 4 39 10 -3 6 -24 10 -46 10
-21 0 -39 -4 -39 -10z"/>
<path d="M4110 6851 c0 -5 8 -12 18 -16 9 -3 29 -22 44 -41 22 -29 25 -42 21
-72 -4 -20 -13 -42 -20 -47 -8 -6 -11 -18 -7 -28 8 -21 24 -13 24 13 0 10 7
20 15 24 8 3 15 14 15 25 0 11 5 23 10 26 18 11 11 25 -39 75 -45 46 -81 64
-81 41z"/>
<path d="M4220 6850 c0 -5 8 -19 18 -29 36 -41 42 -51 42 -75 0 -13 -7 -26
-15 -30 -8 -3 -15 -14 -15 -24 0 -11 -7 -25 -15 -32 -8 -7 -15 -16 -15 -21 0
-12 -38 -49 -50 -49 -5 0 -10 7 -10 15 0 8 -7 15 -15 15 -10 0 -15 10 -15 31
0 20 -4 29 -12 27 -19 -7 -22 -47 -4 -54 9 -3 16 -12 16 -20 0 -8 7 -14 15
-14 8 0 15 -7 15 -15 0 -8 7 -15 15 -15 8 0 15 5 15 10 0 13 37 50 50 50 6 0
10 6 10 13 0 8 11 24 25 37 50 47 42 107 -22 168 -27 24 -33 27 -33 12z"/>
<path d="M5500 6839 c-9 -15 -7 -21 7 -26 10 -3 25 -13 35 -22 9 -9 37 -36 63
-61 25 -24 58 -70 73 -102 14 -32 30 -58 34 -58 4 0 8 -9 8 -19 0 -28 11 -52
21 -45 15 9 10 61 -6 68 -9 3 -15 18 -15 36 0 17 -6 33 -14 36 -8 3 -17 16
-20 30 -4 13 -11 24 -16 24 -6 0 -10 6 -10 14 0 7 -10 20 -22 29 -13 8 -47 37
-75 65 -49 47 -54 49 -63 31z"/>
<path d="M4794 6783 c1 -75 8 -93 37 -93 24 0 24 17 -1 55 -11 17 -20 47 -20
68 0 20 -4 37 -8 37 -5 0 -8 -30 -8 -67z"/>
<path d="M4615 6821 c-6 -21 3 -51 16 -51 5 0 9 -11 9 -25 0 -14 7 -28 15 -31
17 -7 20 -45 4 -61 -6 -6 -9 -19 -6 -29 4 -18 4 -18 12 1 5 11 15 26 22 33 17
18 17 52 -1 52 -13 0 -26 41 -26 84 0 12 -9 27 -19 33 -17 11 -21 10 -26 -6z"/>
<path d="M4030 6820 c0 -5 6 -10 14 -10 19 0 74 -64 82 -95 7 -30 20 -32 29
-6 8 26 -3 49 -44 87 -34 32 -81 46 -81 24z"/>
<path d="M4310 6820 c0 -5 6 -13 14 -17 28 -17 38 -51 25 -88 -7 -19 -19 -35
-26 -35 -7 0 -13 -7 -13 -15 0 -24 19 -18 56 17 36 34 44 62 19 72 -8 3 -15
15 -15 26 0 11 -7 20 -15 20 -8 0 -15 7 -15 15 0 8 -7 15 -15 15 -8 0 -15 -4
-15 -10z"/>
<path d="M5452 6800 c-9 -16 -26 -31 -37 -32 -15 -2 -21 -12 -23 -40 -3 -34
-1 -38 20 -38 33 0 99 -67 130 -132 58 -121 63 -144 60 -285 -3 -140 -11 -183
-37 -183 -22 0 -30 27 -15 55 14 27 5 78 -13 72 -17 -5 -25 -43 -26 -129 -1
-82 9 -104 28 -62 6 14 26 31 45 39 18 8 36 22 40 31 3 9 6 94 5 189 0 131 -4
178 -15 192 -7 10 -14 27 -14 37 -1 49 -106 179 -157 192 -35 9 -30 44 5 44
20 0 42 -14 77 -48 71 -69 66 -61 125 -197 5 -11 11 -33 15 -48 3 -15 10 -25
15 -22 15 9 12 69 -4 102 -8 15 -25 49 -38 76 -13 26 -26 47 -30 47 -5 0 -8 5
-8 11 0 13 -47 59 -60 59 -5 0 -23 12 -40 26 -24 21 -30 32 -26 50 9 33 -1 30
-22 -6z"/>
<path d="M6120 6790 c0 -18 4 -29 10 -25 6 3 10 15 10 25 0 10 -4 22 -10 25
-6 4 -10 -7 -10 -25z"/>
<path d="M3890 6791 c0 -4 19 -11 42 -14 24 -3 44 -11 46 -16 2 -6 9 -11 15
-11 6 0 22 -12 34 -27 18 -20 22 -34 17 -58 -4 -23 1 -41 18 -68 13 -20 29
-36 36 -37 18 0 15 14 -8 35 -21 19 -28 79 -11 89 20 13 -25 72 -71 94 -47 22
-118 30 -118 13z"/>
<path d="M5846 6763 c-12 -12 -6 -44 9 -49 10 -4 15 -20 15 -44 0 -21 6 -43
14 -49 8 -7 18 -35 22 -64 l8 -52 9 42 c8 34 6 47 -7 67 -9 14 -16 36 -16 50
0 13 -7 31 -15 40 -8 8 -15 24 -15 35 0 21 -13 35 -24 24z"/>
<path d="M5011 6730 c0 -29 1 -32 10 -17 7 11 7 23 0 35 -9 14 -10 11 -10 -18z"/>
<path d="M4881 6726 c-10 -24 -9 -32 3 -45 14 -13 16 -13 22 2 3 9 1 29 -4 44
l-10 28 -11 -29z"/>
<path d="M4943 6708 c-12 -46 -10 -58 13 -58 15 0 19 50 5 83 -5 14 -9 8 -18
-25z"/>
<path d="M5066 6735 c-11 -29 -7 -74 8 -82 8 -4 16 -19 18 -32 1 -14 9 -26 16
-29 18 -6 16 64 -3 72 -8 3 -15 18 -15 33 0 38 -15 61 -24 38z"/>
<path d="M3892 6731 c-10 -6 -3 -13 24 -28 21 -11 47 -31 58 -46 16 -22 18
-30 8 -52 -13 -29 -32 -25 -32 5 0 33 -43 53 -95 46 -56 -9 -59 -26 -5 -26 39
0 80 -26 80 -50 0 -5 11 -10 24 -10 14 0 31 -8 38 -18 20 -27 65 -52 82 -46
21 8 10 24 -15 24 -10 0 -19 6 -19 14 0 8 -7 16 -15 20 -11 4 -15 21 -15 61 0
48 -4 60 -26 80 -15 14 -33 25 -40 25 -7 0 -18 2 -26 5 -7 3 -19 1 -26 -4z"/>
<path d="M4437 6733 c-4 -3 -7 -15 -7 -25 0 -10 -7 -21 -15 -24 -8 -4 -15 -12
-15 -19 0 -7 -9 -15 -20 -18 -24 -6 -26 -23 -4 -31 11 -4 18 1 21 14 3 13 14
20 28 20 17 0 24 7 29 31 11 54 4 74 -17 52z"/>
<path d="M4490 6716 c0 -14 7 -31 15 -40 8 -8 15 -28 15 -45 0 -16 6 -36 14
-43 7 -8 16 -25 20 -38 4 -14 19 -49 33 -79 26 -52 26 -54 8 -67 -26 -20 -31
-18 -56 19 -36 52 -69 73 -69 43 0 -8 7 -16 15 -20 28 -10 17 -43 -16 -50 -61
-12 -99 -7 -99 12 -1 20 -33 62 -49 62 -20 0 -11 -26 19 -56 16 -16 30 -34 30
-41 0 -6 14 -20 30 -30 18 -10 30 -26 30 -38 0 -11 4 -26 9 -34 13 -21 24 4
16 39 -8 35 2 73 18 67 6 -2 14 -14 17 -27 7 -29 30 -39 30 -12 0 11 7 25 15
32 19 16 47 6 39 -15 -6 -16 11 -45 27 -45 5 0 9 18 9 41 0 50 12 47 42 -10
25 -46 41 -54 46 -22 5 28 -24 78 -49 86 -16 5 -19 12 -15 30 4 14 1 27 -6 32
-22 14 -78 137 -78 171 0 22 -5 32 -15 32 -10 0 -15 11 -15 35 0 24 -5 35 -15
35 -9 0 -15 -9 -15 -24z"/>
<path d="M4562 6728 c-17 -17 -15 -58 3 -58 10 0 15 -10 15 -29 0 -16 6 -34
14 -41 8 -6 16 -23 18 -37 2 -15 9 -28 16 -31 19 -6 16 74 -3 82 -8 3 -15 14
-15 24 0 11 -7 25 -16 33 -11 9 -14 22 -10 41 6 30 -2 36 -22 16z"/>
<path d="M5337 6733 c-2 -4 -7 -20 -11 -35 -5 -21 0 -31 25 -52 17 -14 36 -26
43 -26 46 0 130 -177 143 -300 6 -65 12 -78 23 -60 15 24 12 110 -6 165 -24
71 -57 145 -66 145 -5 0 -8 5 -8 11 0 17 -42 53 -75 64 -22 8 -32 20 -40 47
-11 40 -20 54 -28 41z"/>
<path d="M5190 6714 c0 -18 29 -64 41 -64 18 0 8 33 -16 56 -18 17 -25 19 -25
8z"/>
<path d="M5276 6708 c-11 -36 -14 -78 -6 -78 6 0 10 -6 10 -12 0 -7 23 -26 51
-41 51 -29 53 -32 109 -162 30 -70 28 -188 -3 -223 -17 -19 -17 -22 -2 -52 9
-18 14 -42 11 -55 -7 -27 12 -44 25 -24 5 8 9 49 9 91 0 42 4 79 9 83 24 14
-6 189 -44 262 -26 48 -69 92 -92 93 -7 0 -16 6 -20 14 -4 8 -17 16 -28 18
-12 2 -18 10 -16 19 11 40 12 67 2 73 -6 4 -13 1 -15 -6z"/>
<path d="M5127 6689 c-5 -18 30 -69 47 -69 14 0 4 34 -18 61 -22 26 -24 27
-29 8z"/>
<path d="M5780 6695 c-10 -12 -10 -15 3 -15 19 0 31 16 18 24 -5 3 -14 -1 -21
-9z"/>
<path d="M6298 6652 c-6 -61 5 -128 16 -100 4 9 4 47 -1 85 l-9 68 -6 -53z"/>
<path d="M6091 6625 c0 -48 3 -64 9 -50 12 27 12 87 0 105 -7 10 -10 -6 -9
-55z"/>
<path d="M6026 6664 c-4 -10 -4 -48 1 -84 l7 -65 7 65 c3 36 3 74 -1 84 -6 19
-7 19 -14 0z"/>
<path d="M4460 6636 c0 -9 7 -16 16 -16 17 0 14 22 -4 28 -7 2 -12 -3 -12 -12z"/>
<path d="M4820 6632 c0 -11 7 -25 15 -32 8 -7 15 -19 15 -26 0 -17 16 -18 26
-2 4 6 0 16 -8 22 -9 6 -17 20 -19 30 -5 26 -29 33 -29 8z"/>
<path d="M4890 6639 c0 -22 29 -79 41 -79 14 0 11 38 -4 47 -8 4 -19 17 -25
28 -9 15 -11 16 -12 4z"/>
<path d="M5817 6643 c-14 -13 -7 -63 8 -63 10 0 15 -11 16 -32 0 -18 4 -42 9
-53 7 -17 9 -16 10 10 3 44 -1 70 -11 73 -5 2 -9 13 -9 25 0 27 -14 50 -23 40z"/>
<path d="M3762 6609 c2 -7 10 -15 17 -17 8 -3 12 1 9 9 -2 7 -10 15 -17 17 -8
3 -12 -1 -9 -9z"/>
<path d="M4974 6607 c-7 -20 1 -47 16 -47 12 0 13 30 0 50 -8 12 -10 12 -16
-3z"/>
<path d="M5032 6609 c2 -7 10 -15 17 -17 8 -3 12 1 9 9 -2 7 -10 15 -17 17 -8
3 -12 -1 -9 -9z"/>
<path d="M4303 6593 c-13 -9 -23 -22 -23 -31 0 -8 -12 -25 -26 -38 -27 -26
-25 -44 7 -44 12 0 19 7 19 19 0 11 5 23 11 27 11 7 43 74 37 79 -2 2 -13 -4
-25 -12z"/>
<path d="M4388 6588 c-10 -12 -18 -27 -18 -33 0 -14 32 -45 47 -45 12 0 5 48
-8 56 -14 8 -10 24 5 24 8 0 18 5 21 10 12 20 -31 9 -47 -12z"/>
<path d="M4676 6603 c-11 -11 -6 -40 9 -53 8 -7 15 -21 15 -32 0 -10 6 -21 14
-24 8 -3 16 -14 19 -25 3 -10 10 -19 16 -19 16 0 14 16 -4 34 -8 8 -15 23 -15
34 0 11 -7 25 -15 32 -8 7 -15 21 -15 31 0 19 -13 32 -24 22z"/>
<path d="M3480 6595 c0 -4 16 -25 35 -46 42 -47 77 -117 70 -140 -4 -11 1 -22
14 -28 11 -6 21 -21 23 -33 2 -17 10 -23 27 -23 31 0 39 21 11 30 -16 5 -20
13 -16 28 8 32 -28 98 -82 147 -68 63 -82 74 -82 65z"/>
<path d="M3802 6578 c3 -7 15 -15 28 -16 12 -2 37 -19 54 -37 17 -18 46 -36
64 -40 32 -7 33 -6 20 14 -7 12 -16 21 -19 21 -4 0 -24 16 -45 35 -28 25 -49
35 -72 35 -23 0 -32 -4 -30 -12z"/>
<path d="M4460 6583 c0 -14 35 -82 43 -83 15 0 6 58 -11 73 -19 18 -32 22 -32
10z"/>
<path d="M5147 6584 c-11 -11 43 -81 77 -99 24 -13 39 -33 54 -69 39 -97 40
-149 2 -161 -20 -6 -18 -16 20 -110 l13 -30 8 30 c5 17 7 47 3 67 -4 25 -1 44
9 59 11 16 13 28 6 46 -5 13 -9 39 -9 56 0 38 -17 64 -86 132 -72 71 -90 86
-97 79z"/>
<path d="M5220 6581 c0 -12 74 -71 89 -71 21 0 81 -170 81 -230 0 -34 -4 -42
-25 -52 -18 -8 -24 -16 -19 -27 4 -9 11 -37 17 -63 13 -63 27 -61 27 5 1 28 7
63 15 77 19 33 19 137 0 174 -8 15 -15 35 -15 43 0 29 -71 112 -97 113 -7 0
-17 9 -23 20 -11 20 -50 28 -50 11z"/>
<path d="M3601 6576 c-1 -4 12 -27 27 -50 15 -22 34 -57 42 -76 7 -19 17 -40
23 -47 5 -7 6 -16 3 -22 -10 -16 16 -62 33 -59 16 4 18 21 5 71 -6 25 -4 28
12 25 14 -2 19 -12 20 -39 1 -47 11 -64 30 -48 8 6 14 18 14 26 0 17 24 43 39
43 6 0 11 -4 11 -10 0 -5 5 -10 10 -10 6 0 10 7 10 15 0 8 -5 15 -11 15 -7 0
-9 9 -5 23 9 36 -14 87 -41 87 -26 0 -30 -21 -8 -40 17 -14 21 -70 5 -70 -6 0
-16 11 -22 25 -12 26 -23 31 -33 15 -14 -23 -51 -10 -70 26 -22 41 -60 84 -74
84 -5 0 -12 6 -14 13 -3 6 -6 8 -6 3z"/>
<path d="M3175 6549 c-4 -5 1 -9 9 -9 9 0 16 -7 16 -15 0 -8 12 -18 27 -21 15
-4 34 -13 41 -21 18 -18 52 -17 52 2 0 8 -8 15 -19 15 -10 0 -24 7 -31 15 -7
8 -18 15 -24 15 -6 0 -23 7 -38 14 -16 9 -30 11 -33 5z"/>
<path d="M4760 6531 c0 -20 5 -31 14 -31 8 0 16 -9 18 -20 2 -12 8 -21 13 -21
17 0 18 32 2 44 -9 7 -17 21 -19 31 -5 33 -28 31 -28 -3z"/>
<path d="M5090 6546 c0 -8 27 -41 60 -75 33 -34 60 -69 60 -79 0 -9 7 -30 15
-46 8 -15 15 -37 15 -48 0 -16 -5 -19 -24 -14 -32 8 -41 -8 -22 -36 9 -12 16
-35 16 -50 0 -18 5 -28 15 -28 11 0 15 13 15 54 0 33 5 56 12 58 16 6 12 75
-6 112 -14 30 -138 166 -150 166 -3 0 -6 -6 -6 -14z"/>
<path d="M4830 6530 c0 -11 5 -20 10 -20 6 0 10 -7 10 -14 0 -15 42 -66 54
-66 13 0 5 31 -9 36 -8 4 -15 14 -15 23 -1 16 -33 61 -44 61 -3 0 -6 -9 -6
-20z"/>
<path d="M3320 6525 c0 -17 74 -91 113 -111 24 -13 28 -13 33 0 6 17 -12 37
-81 89 -52 40 -65 45 -65 22z"/>
<path d="M4132 6513 c3 -30 23 -41 31 -18 9 21 -2 45 -20 45 -10 0 -13 -9 -11
-27z"/>
<path d="M4647 6523 c-14 -13 -6 -38 18 -62 20 -18 25 -20 25 -7 0 9 -4 16
-10 16 -5 0 -10 8 -10 18 0 22 -14 44 -23 35z"/>
<path d="M5030 6520 c0 -6 7 -13 15 -16 8 -4 15 -12 15 -20 0 -8 4 -14 8 -14
13 0 78 -93 85 -122 4 -15 3 -29 -2 -32 -16 -10 -41 5 -41 25 0 10 -4 19 -10
19 -14 0 -13 -43 2 -58 6 -6 15 -39 19 -72 8 -66 12 -76 29 -65 7 5 9 25 5 60
-5 40 -3 62 10 89 17 36 14 86 -5 86 -6 0 -10 6 -10 13 0 7 -13 24 -30 37 -16
14 -29 31 -30 38 0 6 -7 12 -15 12 -8 0 -15 7 -15 15 0 8 -7 15 -15 15 -8 0
-15 -5 -15 -10z"/>
<path d="M3460 6501 c0 -10 9 -30 20 -44 11 -14 20 -34 20 -45 0 -21 18 -32
51 -32 31 0 23 32 -21 80 -22 24 -40 48 -40 52 0 4 -7 8 -15 8 -8 0 -15 -8
-15 -19z"/>
<path d="M4910 6500 c0 -11 7 -23 15 -26 8 -4 15 -12 15 -20 0 -8 5 -14 11
-14 7 0 17 -7 24 -17 8 -11 14 -13 19 -4 4 6 0 14 -8 17 -9 3 -16 13 -16 20 0
8 -6 17 -14 20 -8 3 -16 14 -19 25 -7 25 -27 25 -27 -1z"/>
<path d="M4989 6484 c20 -36 58 -71 67 -61 12 12 -56 96 -79 97 -4 0 2 -16 12
-36z"/>
<path d="M5780 6486 c0 -14 5 -28 10 -31 6 -4 10 7 10 24 0 17 -4 31 -10 31
-5 0 -10 -11 -10 -24z"/>
<path d="M3740 6486 c0 -9 7 -16 16 -16 17 0 14 22 -4 28 -7 2 -12 -3 -12 -12z"/>
<path d="M4340 6485 c0 -8 7 -15 15 -15 8 0 15 7 15 15 0 8 -7 15 -15 15 -8 0
-15 -7 -15 -15z"/>
<path d="M2850 6460 c0 -5 4 -10 10 -10 9 0 29 -39 60 -119 8 -19 14 -62 14
-97 1 -38 5 -63 11 -61 6 2 10 40 10 88 -1 63 -5 91 -18 109 -9 13 -17 30 -17
38 0 14 -47 62 -61 62 -5 0 -9 -4 -9 -10z"/>
<path d="M4171 6453 c-6 -12 -20 -17 -40 -15 -17 1 -31 -2 -31 -8 0 -5 14 -10
30 -10 23 0 33 -6 40 -25 6 -15 17 -25 30 -25 26 0 25 14 -1 39 -22 20 -19 41
7 41 8 0 14 5 14 10 0 17 -38 11 -49 -7z"/>
<path d="M4404 6448 c3 -13 6 -26 6 -30 0 -5 9 -8 21 -8 13 0 19 5 15 13 -3 6
-9 20 -12 30 -10 27 -38 22 -30 -5z"/>
<path d="M5727 6451 c-2 -10 -1 -25 4 -32 6 -10 9 -4 9 19 0 36 -5 42 -13 13z"/>
<path d="M3902 6443 c4 -22 38 -30 38 -10 0 8 -7 18 -16 21 -23 9 -26 8 -22
-11z"/>
<path d="M5931 6297 c6 -161 14 -199 44 -211 12 -4 15 -25 16 -98 1 -51 5
-106 8 -123 12 -47 25 109 16 185 -6 49 -12 64 -31 77 -23 15 -24 19 -24 155
0 127 -8 178 -28 178 -4 0 -4 -73 -1 -163z"/>
<path d="M2711 6393 c48 -53 59 -61 59 -42 0 15 -76 89 -92 89 -6 0 9 -21 33
-47z"/>
<path d="M2970 6432 c0 -5 7 -24 16 -42 13 -25 15 -48 10 -106 -6 -62 -4 -75
9 -80 9 -4 15 -18 15 -36 0 -37 24 -33 28 5 2 18 -1 27 -11 27 -23 0 -33 87
-13 109 22 25 20 43 -11 90 -25 38 -43 52 -43 33z"/>
<path d="M3050 6427 c0 -7 7 -22 15 -33 19 -25 19 -80 0 -88 -9 -3 -15 -18
-15 -36 0 -18 6 -33 15 -36 8 -4 15 -14 15 -24 0 -10 7 -23 15 -30 21 -17 19
-37 -4 -45 -30 -9 -35 -35 -6 -35 16 0 28 9 37 28 14 29 13 62 -3 62 -5 0 -9
7 -9 15 0 9 -7 18 -15 21 -8 4 -15 14 -15 24 0 10 7 34 15 53 21 50 19 79 -8
110 -25 30 -37 34 -37 14z"/>
<path d="M3145 6365 c0 -71 11 -98 22 -55 3 11 9 20 13 20 5 0 12 9 15 20 6
20 -28 90 -44 90 -4 0 -7 -34 -6 -75z"/>
<path d="M4249 6433 c-1 -5 0 -20 1 -35 1 -15 -5 -30 -14 -35 -13 -7 -12 -12
5 -41 12 -17 24 -32 29 -32 9 0 20 103 13 129 -5 20 -32 30 -34 14z"/>
<path d="M4831 6419 c-1 -16 -10 -33 -23 -42 l-23 -16 31 -25 c18 -14 35 -37
38 -51 9 -35 26 -31 26 5 0 25 4 30 25 30 20 0 26 -7 35 -40 13 -49 26 -58 35
-22 9 37 34 74 45 67 6 -4 10 -21 10 -40 0 -19 5 -46 11 -62 8 -22 12 -24 19
-13 11 17 13 90 4 114 -3 9 -12 16 -19 16 -7 0 -15 14 -18 30 -8 36 -27 40
-27 6 0 -14 -3 -27 -7 -29 -16 -9 -53 13 -53 31 0 29 -12 34 -27 12 -22 -32
-49 -25 -66 18 -15 34 -16 35 -16 11z"/>
<path d="M2794 6418 c-4 -6 -1 -16 7 -22 23 -18 39 -54 39 -86 0 -32 36 -110
51 -110 20 0 7 69 -26 135 -19 39 -35 76 -35 83 0 15 -26 16 -36 0z"/>
<path d="M4767 6415 c-4 -8 -18 -15 -32 -15 -14 0 -25 -3 -25 -6 0 -14 62
-114 71 -114 15 0 10 42 -8 62 -14 16 -15 24 -5 50 6 18 10 33 8 35 -2 2 -6
-3 -9 -12z"/>
<path d="M5857 6418 c5 -7 11 -74 12 -148 2 -142 6 -174 22 -165 11 7 12 285
1 301 -4 6 -16 14 -26 17 -14 6 -16 4 -9 -5z"/>
<path d="M2628 6356 c34 -37 63 -78 67 -95 4 -17 11 -33 16 -36 5 -4 9 -17 9
-30 0 -34 10 -55 26 -55 17 0 9 50 -17 103 -10 21 -19 42 -19 48 0 28 -107
129 -136 129 -3 0 21 -29 54 -64z"/>
<path d="M3234 6370 c1 -44 6 -48 35 -23 18 15 18 18 4 40 -24 36 -41 29 -39
-17z"/>
<path d="M4065 6400 c-3 -5 3 -10 14 -10 14 0 21 -8 23 -27 4 -32 28 -44 28
-13 0 12 -10 30 -22 41 -26 21 -34 23 -43 9z"/>
<path d="M5066 6402 c-3 -6 -1 -14 5 -17 15 -10 25 3 12 16 -7 7 -13 7 -17 1z"/>
<path d="M5667 6333 c-2 -43 -6 -143 -7 -223 -1 -80 -6 -153 -11 -163 -12 -21
-3 -38 15 -31 23 9 37 51 26 80 -7 17 -6 49 1 97 7 41 9 106 5 152 -4 44 -8
97 -10 118 -5 64 -13 51 -19 -30z"/>
<path d="M5994 6399 c-9 -16 6 -180 17 -173 12 7 12 184 0 184 -6 0 -13 -5
-17 -11z"/>
<path d="M6050 6388 c0 -12 6 -35 14 -49 7 -14 16 -38 20 -54 6 -23 9 -26 17
-14 14 22 11 49 -7 49 -11 0 -14 8 -12 32 2 17 8 33 13 35 11 3 45 -51 45 -73
0 -15 39 -35 53 -27 4 2 7 13 7 24 0 23 13 25 30 4 12 -14 15 -14 30 0 21 19
30 10 30 -27 0 -35 13 -36 34 -3 19 29 14 42 -20 55 -13 5 -24 16 -24 25 0 8
-6 15 -14 15 -8 0 -17 6 -20 13 -3 6 -3 2 -1 -9 7 -28 -22 -40 -45 -19 -15 14
-18 14 -30 0 -18 -21 -33 -19 -27 5 6 24 -4 32 -54 37 -35 4 -39 3 -39 -19z"/>
<path d="M3330 6370 c0 -11 5 -20 10 -20 6 0 10 9 10 20 0 11 -4 20 -10 20 -5
0 -10 -9 -10 -20z"/>
<path d="M5784 6363 c-4 -15 -11 -33 -16 -40 -11 -13 -18 -110 -11 -130 11
-30 21 1 16 50 -4 41 -2 56 10 66 25 20 31 -25 18 -127 -7 -48 -14 -116 -17
-152 -7 -90 -10 -97 -34 -75 -22 20 -25 16 -34 -47 -6 -48 17 -52 42 -9 9 17
25 32 34 35 15 3 18 16 18 83 0 50 5 84 13 91 13 14 19 272 6 272 -4 0 -14 3
-23 6 -11 4 -17 -2 -22 -23z"/>
<path d="M3389 6378 c-7 -25 -1 -82 10 -86 10 -3 12 3 7 26 -6 23 -3 31 11 36
15 6 15 8 3 16 -14 9 -29 13 -31 8z"/>
<path d="M3482 6350 c0 -19 2 -27 5 -17 2 9 2 25 0 35 -3 9 -5 1 -5 -18z"/>
<path d="M4305 6370 c-8 -14 3 -30 21 -30 8 0 14 -9 14 -19 0 -28 11 -52 21
-45 15 9 9 58 -10 82 -21 24 -36 28 -46 12z"/>
<path d="M4010 6334 c0 -23 -3 -26 -26 -21 -16 3 -28 0 -31 -9 -3 -8 -19 -14
-37 -14 -19 0 -38 -8 -49 -20 -9 -11 -28 -20 -42 -20 -20 0 -25 -5 -25 -25 0
-29 -7 -31 -31 -9 -12 11 -23 13 -34 6 -15 -8 -14 -11 10 -30 15 -12 33 -22
40 -22 7 0 15 -13 19 -30 3 -16 10 -30 16 -30 13 0 13 36 0 59 -7 14 -5 23 9
35 17 15 18 14 29 -9 14 -30 32 -24 32 10 0 13 5 27 10 30 20 12 49 -6 52 -32
2 -15 9 -29 17 -31 11 -4 12 3 7 34 -4 22 -12 43 -17 49 -13 13 -11 35 4 35 6
-1 23 -14 37 -30 32 -39 40 -38 40 8 0 21 5 43 12 50 8 8 8 15 -2 27 -20 24
-40 18 -40 -11z"/>
<path d="M2546 6335 c3 -8 13 -17 23 -20 9 -2 24 -23 34 -45 9 -22 21 -40 27
-40 5 0 10 -13 10 -30 0 -16 5 -30 10 -30 6 0 10 -11 10 -25 0 -13 9 -33 20
-43 17 -15 20 -29 18 -73 -2 -30 2 -56 7 -59 17 -8 19 113 2 125 -7 5 -16 27
-20 49 -3 21 -13 46 -22 56 -8 9 -15 24 -15 32 0 9 -7 21 -15 28 -8 7 -15 21
-15 31 0 11 -4 19 -10 19 -5 0 -19 9 -30 20 -23 23 -42 26 -34 5z"/>
<path d="M4157 6343 c-13 -12 -7 -41 9 -47 27 -10 31 -7 26 24 -4 28 -20 39
-35 23z"/>
<path d="M6450 6325 c0 -8 7 -15 15 -15 8 0 15 7 15 15 0 8 -7 15 -15 15 -8 0
-15 -7 -15 -15z"/>
<path d="M2430 6323 c0 -10 42 -43 55 -43 3 0 5 7 5 15 0 8 -8 15 -18 15 -10
0 -23 5 -30 12 -8 8 -12 8 -12 1z"/>
<path d="M2755 6319 c-4 -5 0 -18 8 -27 8 -9 17 -35 20 -57 4 -22 11 -41 17
-43 5 -2 10 -10 10 -17 0 -8 9 -19 20 -25 11 -6 20 -18 20 -27 0 -13 3 -14 11
-6 9 9 7 19 -7 39 -32 45 -33 47 -51 112 -16 58 -33 76 -48 51z"/>
<path d="M4070 6306 c0 -8 5 -18 11 -21 5 -4 14 -18 20 -32 9 -25 29 -23 29 3
0 22 -30 64 -46 64 -8 0 -14 -6 -14 -14z"/>
<path d="M4526 6312 c-3 -6 -4 -23 0 -38 5 -21 9 -23 15 -11 11 18 -4 66 -15
49z"/>
<path d="M3210 6300 c0 -5 4 -10 9 -10 5 0 11 -9 14 -20 3 -11 10 -20 16 -20
6 0 11 9 11 20 0 11 -7 20 -15 20 -8 0 -15 5 -15 10 0 6 -4 10 -10 10 -5 0
-10 -4 -10 -10z"/>
<path d="M2330 6292 c0 -5 11 -14 25 -20 14 -6 25 -10 25 -8 0 2 -11 11 -25
20 -14 9 -25 13 -25 8z"/>
<path d="M3116 6282 c-3 -6 -1 -14 5 -17 15 -10 25 3 12 16 -7 7 -13 7 -17 1z"/>
<path d="M3300 6275 c0 -8 7 -15 15 -15 8 0 15 7 15 15 0 8 -7 15 -15 15 -8 0
-15 -7 -15 -15z"/>
<path d="M3476 6274 c-3 -9 -6 -26 -6 -39 0 -16 -11 -30 -36 -45 -43 -25 -64
-20 -64 14 0 13 -7 27 -16 30 -20 8 -17 12 -31 -44 -14 -54 -5 -66 38 -51 17
6 43 11 55 11 13 0 24 4 24 9 0 5 23 11 50 15 48 6 71 26 31 26 -26 0 -31 10
-20 38 7 17 16 22 47 22 21 0 42 -4 48 -10 6 -6 18 -4 34 8 l25 17 -45 7 c-81
12 -127 9 -134 -8z"/>
<path d="M4621 6259 c-1 -44 -23 -68 -46 -49 -9 7 -26 9 -45 5 -20 -4 -36 -2
-46 6 -14 11 -18 10 -29 -4 -17 -23 -41 -21 -59 4 -14 21 -14 21 -25 1 -23
-44 -66 -34 -74 16 -3 20 -4 17 -6 -12 l-1 -39 -42 6 c-34 5 -44 2 -58 -16
l-17 -21 -13 21 c-13 19 -14 19 -46 -15 l-33 -35 -11 27 c-5 15 -10 36 -10 47
0 10 -4 19 -8 19 -5 0 -8 -19 -8 -42 1 -41 0 -43 -29 -42 -20 0 -36 -8 -48
-23 -25 -31 -35 -29 -52 10 -15 33 -17 31 -19 -18 -1 -32 -32 -48 -48 -23 -5
8 -6 2 -2 -17 4 -16 18 -43 31 -58 22 -27 32 -85 16 -100 -3 -4 -17 0 -29 8
-21 13 -23 13 -29 -4 -6 -19 -51 -48 -61 -39 -3 4 -6 57 -7 119 -1 80 -6 114
-14 117 -7 2 -13 17 -13 33 0 22 -5 29 -20 29 -26 0 -25 -24 1 -49 38 -35 37
-151 -1 -151 -5 0 -11 14 -15 30 -4 17 -10 30 -15 30 -12 0 -20 -29 -10 -35
18 -11 11 -45 -9 -45 -30 0 -33 -37 -5 -69 13 -16 24 -38 24 -49 0 -12 5 -24
11 -27 18 -12 79 5 102 28 12 12 40 27 62 32 48 12 76 55 56 87 -12 19 -5 94
10 104 4 2 15 -9 24 -26 21 -40 39 -39 31 3 -9 50 5 62 37 33 21 -19 27 -34
27 -66 0 -36 3 -40 25 -41 14 -1 30 -2 37 -3 6 -1 13 5 16 12 2 7 -6 12 -22
12 -13 0 -28 4 -31 10 -10 16 -8 111 3 122 12 12 62 -72 62 -105 0 -14 7 -28
16 -31 25 -9 30 1 11 22 -11 12 -17 36 -17 70 0 75 19 78 54 9 16 -31 18 -42
8 -58 -18 -28 -16 -29 31 -28 37 0 40 2 20 11 -25 12 -43 62 -43 121 0 38 16
50 27 20 3 -10 12 -25 18 -33 7 -8 20 -39 30 -67 15 -48 19 -53 46 -53 38 0
37 17 -1 25 l-30 7 0 74 c0 60 3 74 15 74 9 0 18 -12 21 -30 4 -16 13 -35 20
-41 8 -6 15 -26 15 -43 1 -20 4 -12 10 24 4 30 6 63 3 73 -11 36 24 15 41 -25
l19 -43 5 48 c3 26 11 48 16 49 6 0 22 -23 37 -52 29 -54 35 -52 40 15 3 44
19 49 30 9 4 -15 14 -34 23 -44 10 -11 15 -30 13 -47 -3 -28 -8 -30 -62 -21
-10 2 -21 -2 -23 -9 -5 -15 56 -32 93 -26 56 9 61 14 30 30 -28 15 -28 17 -22
71 7 62 22 87 31 56 4 -10 15 -37 26 -60 10 -23 19 -48 19 -56 0 -20 26 -42
40 -33 16 10 12 22 -9 28 -16 4 -20 16 -23 66 -3 52 -1 61 14 61 11 0 20 -12
26 -32 4 -17 13 -33 19 -35 15 -5 24 23 28 97 3 42 2 52 -3 30 -6 -29 -12 -36
-36 -38 -34 -4 -45 10 -47 58 0 29 -2 31 -9 15 -5 -11 -9 -32 -9 -47 -1 -20
-6 -28 -20 -28 -25 0 -43 23 -52 68 l-7 37 -1 -36z m-890 -329 c23 -13 27 -85
5 -93 -22 -9 -36 14 -36 60 0 47 2 48 31 33z"/>
<path d="M2500 6272 c0 -5 11 -19 25 -32 14 -13 25 -32 25 -42 0 -10 4 -18 8
-18 9 0 42 -70 42 -88 0 -6 8 -18 17 -28 10 -9 20 -38 24 -63 l6 -46 2 58 c0
31 -3 57 -8 57 -5 0 -11 14 -15 30 -3 17 -19 51 -36 75 -16 24 -30 49 -30 55
0 12 -39 49 -52 50 -5 0 -8 -4 -8 -8z"/>
<path d="M3406 6261 c-15 -17 -16 -19 -1 -25 22 -8 35 1 35 25 0 24 -12 24
-34 0z"/>
<path d="M4195 6268 c-4 -9 -2 -25 3 -35 10 -17 11 -17 17 -1 4 9 2 25 -3 35
-10 17 -11 17 -17 1z"/>
<path d="M6230 6246 c-6 -8 -37 -18 -68 -22 -83 -10 -142 -39 -142 -69 0 -14
8 -29 19 -35 28 -14 29 -13 33 18 3 23 8 27 38 30 19 1 49 9 65 16 17 8 42 19
58 25 15 6 27 17 27 25 0 22 -16 28 -30 12z"/>
<path d="M2410 6235 c0 -8 6 -15 13 -15 8 0 23 -10 34 -22 26 -30 119 -187
126 -213 3 -14 5 -11 6 11 1 27 -12 60 -53 132 -20 35 -73 92 -85 92 -6 0 -11
7 -11 15 0 8 -7 15 -15 15 -8 0 -15 -7 -15 -15z"/>
<path d="M3140 6230 c0 -11 7 -23 15 -26 8 -4 15 -11 15 -16 0 -6 8 -17 18
-24 16 -12 16 -14 -2 -27 -12 -9 -15 -16 -8 -21 6 -3 23 5 38 19 33 31 42 31
53 3 5 -14 10 -17 15 -10 4 7 3 19 -2 29 -5 9 -8 35 -5 57 l5 41 -21 -25 c-11
-14 -23 -33 -27 -42 -3 -10 -11 -18 -17 -18 -13 0 -37 45 -37 67 0 7 -9 13
-20 13 -13 0 -20 -7 -20 -20z"/>
<path d="M4883 6191 c-7 -21 -18 -31 -31 -31 -19 0 -20 -2 -6 -30 24 -47 15
-65 -30 -63 -33 2 -37 0 -34 -20 4 -31 51 -46 76 -24 16 15 28 16 84 8 36 -5
75 -14 86 -20 12 -6 33 -11 47 -11 32 0 59 -14 103 -51 18 -16 45 -32 60 -35
15 -4 34 -12 42 -19 8 -7 33 -20 55 -30 22 -9 52 -28 67 -42 15 -14 35 -31 46
-37 62 -36 104 -70 137 -111 21 -25 48 -48 61 -51 13 -3 30 -16 36 -28 35 -60
62 -97 79 -107 11 -5 19 -16 19 -24 0 -8 9 -23 20 -33 23 -21 50 -68 105 -181
20 -41 44 -84 54 -97 10 -13 22 -45 26 -71 4 -25 19 -69 35 -97 22 -40 29 -69
34 -135 3 -46 12 -93 19 -105 32 -48 39 -379 11 -478 -8 -29 -17 -64 -19 -78
-3 -14 -9 -50 -14 -80 -9 -52 -20 -90 -40 -135 -5 -11 -19 -47 -31 -79 -11
-33 -29 -71 -39 -85 -10 -14 -24 -48 -31 -74 -9 -33 -20 -52 -36 -59 -12 -6
-28 -25 -35 -42 -7 -17 -31 -49 -53 -71 -23 -22 -69 -70 -102 -106 -34 -36
-80 -77 -103 -89 -22 -13 -43 -31 -46 -41 -3 -10 -18 -22 -34 -27 -15 -6 -61
-35 -101 -66 -44 -34 -90 -61 -117 -68 -25 -6 -47 -17 -50 -24 -8 -21 -62 -44
-104 -44 -27 0 -45 -7 -61 -24 -16 -17 -42 -28 -88 -36 -36 -6 -85 -16 -110
-22 -25 -5 -90 -10 -145 -11 -55 -1 -105 -5 -112 -10 -6 -4 -33 -3 -59 3 -26
6 -83 13 -128 15 -98 4 -133 10 -149 24 -7 5 -22 8 -33 5 -11 -3 -40 2 -64 10
-24 8 -47 13 -52 10 -4 -3 -34 6 -65 19 -32 14 -79 31 -105 37 -27 7 -48 17
-48 21 0 5 -10 9 -22 9 -13 0 -43 11 -67 25 -23 14 -49 25 -56 25 -8 0 -27 11
-43 25 -17 14 -35 25 -42 25 -25 0 -290 229 -290 251 0 5 -26 35 -59 67 -32
32 -61 68 -65 80 -4 12 -25 43 -47 68 -47 54 -172 304 -193 384 -8 30 -21 93
-30 138 -9 46 -18 87 -21 91 -2 5 -5 82 -6 172 -1 156 18 340 41 394 5 11 11
41 15 67 3 26 15 58 26 71 10 14 19 34 19 45 0 28 30 96 46 105 8 4 14 15 14
23 0 27 38 91 74 122 21 18 36 41 36 54 0 12 14 36 30 52 17 17 63 64 103 105
124 126 142 141 169 141 18 0 33 10 47 29 11 16 39 36 61 45 50 20 52 42 4 50
-35 7 -36 8 -32 48 3 47 -17 64 -31 26 -9 -23 2 -56 22 -69 18 -12 -2 -39 -27
-39 -23 0 -25 4 -28 48 -2 26 -7 47 -13 46 -14 -1 -24 -71 -13 -82 15 -15 5
-56 -15 -60 -16 -3 -18 2 -16 39 2 26 -1 44 -8 46 -16 6 -25 -33 -21 -83 2
-29 -1 -39 -12 -39 -10 0 -15 10 -15 29 -1 16 -6 31 -12 33 -11 4 -23 -41 -23
-89 0 -23 -4 -29 -17 -26 -12 3 -17 12 -16 26 5 46 -17 20 -23 -28 -6 -44 -9
-50 -31 -50 -18 0 -27 -8 -34 -30 -7 -17 -18 -30 -28 -30 -22 0 -41 -19 -41
-40 0 -9 -12 -22 -26 -29 -20 -9 -25 -17 -21 -32 5 -17 -1 -24 -24 -32 -16 -7
-29 -19 -29 -28 0 -10 -11 -30 -24 -46 -18 -22 -22 -33 -14 -46 7 -14 4 -20
-20 -30 -25 -10 -27 -14 -16 -25 19 -18 17 -29 -6 -42 -14 -7 -20 -21 -20 -44
0 -29 -4 -34 -30 -39 -49 -10 -58 -2 -52 49 4 40 3 44 -18 44 -20 0 -22 -4
-16 -30 4 -24 2 -32 -13 -38 -18 -7 -18 -9 -3 -44 19 -43 33 -47 60 -18 12 13
25 18 35 14 26 -10 20 -29 -19 -56 -33 -24 -34 -27 -15 -33 29 -9 26 -31 -4
-39 -23 -6 -36 -26 -17 -26 4 0 14 -4 22 -10 12 -7 12 -12 -4 -29 -11 -12 -28
-21 -38 -21 -11 0 -33 -13 -50 -30 -16 -16 -34 -30 -39 -30 -13 0 -11 -17 3
-26 6 -4 16 0 23 9 7 10 15 17 19 17 3 0 15 9 26 20 21 21 50 17 50 -7 0 -8
-9 -17 -20 -20 -11 -3 -20 -9 -20 -14 0 -5 -9 -9 -20 -9 -10 0 -24 -9 -30 -20
-7 -12 -21 -20 -37 -20 -26 0 -26 0 -8 -20 19 -20 19 -20 51 11 32 31 63 36
72 11 2 -7 -9 -17 -27 -23 -17 -6 -31 -15 -31 -20 0 -5 -7 -9 -15 -9 -8 0 -15
-7 -15 -15 0 -9 -10 -15 -26 -15 -31 0 -28 -23 4 -28 15 -2 22 2 22 12 0 9 7
16 15 16 8 0 15 7 15 15 0 17 25 20 35 5 12 -20 -6 -48 -35 -54 -24 -4 -30
-11 -30 -31 0 -16 -6 -25 -15 -25 -16 0 -20 -12 -8 -24 4 -3 19 7 34 24 15 16
35 30 43 30 28 0 17 -28 -19 -50 -19 -12 -35 -28 -35 -36 0 -8 -8 -14 -17 -14
-13 0 -14 -3 -5 -12 9 -9 17 -6 36 11 15 14 32 21 40 18 23 -9 19 -31 -6 -42
-13 -6 -27 -20 -33 -32 -5 -13 -18 -23 -27 -23 -10 0 -18 -7 -18 -15 0 -23 25
-18 46 10 10 14 24 25 31 25 7 0 13 -11 13 -25 0 -16 -6 -25 -15 -25 -8 0 -15
-7 -15 -15 0 -8 6 -15 14 -15 24 0 29 -19 12 -45 -22 -34 -20 -45 9 -45 29 0
33 -15 8 -29 -15 -8 -16 -13 -5 -28 22 -33 25 -45 14 -64 -10 -15 -8 -20 8
-29 15 -8 18 -15 11 -27 -6 -12 -3 -25 11 -44 13 -17 18 -34 14 -45 -4 -11 1
-22 14 -31 14 -10 19 -21 15 -34 -4 -12 -1 -21 9 -25 9 -3 16 -15 16 -27 0
-11 6 -28 14 -36 7 -9 18 -29 23 -46 5 -16 19 -34 32 -40 18 -8 21 -16 17 -37
-4 -22 -1 -27 17 -30 15 -2 22 -10 22 -26 0 -14 9 -27 25 -35 14 -7 26 -22 28
-34 2 -11 12 -23 23 -26 11 -3 19 -14 19 -25 0 -12 9 -23 21 -27 11 -4 25 -20
31 -35 6 -18 18 -30 31 -32 13 -2 23 -13 27 -28 4 -18 14 -26 32 -28 21 -2 28
-9 30 -30 2 -21 9 -28 29 -30 16 -2 31 -12 37 -28 7 -13 18 -24 27 -24 8 0 20
-9 27 -20 7 -11 23 -20 35 -20 12 0 29 -7 38 -17 9 -9 28 -16 43 -17 19 -1 28
-8 32 -26 5 -18 12 -24 28 -23 13 2 27 -5 34 -17 9 -13 24 -20 44 -20 19 0 34
-6 38 -15 3 -9 18 -15 35 -15 16 0 31 -6 35 -15 3 -8 15 -15 27 -15 12 0 27
-8 34 -17 9 -12 24 -17 48 -15 24 2 36 -1 40 -12 4 -9 18 -16 34 -16 15 0 36
-7 46 -15 11 -7 25 -11 33 -8 8 3 24 -3 34 -12 18 -16 23 -17 45 -5 21 11 27
11 43 -3 13 -12 37 -17 85 -17 57 0 68 -3 78 -21 11 -22 11 -22 36 5 l25 27
24 -22 c21 -19 24 -20 30 -5 7 17 44 23 44 6 0 -16 32 -11 45 7 16 21 35 9 35
-23 0 -21 2 -23 19 -12 11 7 22 20 24 29 4 14 14 16 72 11 63 -5 69 -3 87 19
l19 24 16 -22 c19 -29 40 -29 48 -2 5 16 12 19 35 14 20 -4 29 -2 33 9 4 10
19 16 40 16 24 0 39 6 49 21 13 20 16 20 37 8 21 -13 24 -12 38 9 9 12 26 22
40 22 13 0 26 7 29 15 4 9 19 15 38 15 17 0 40 7 50 15 11 8 28 15 38 15 10 0
21 7 24 15 4 8 12 15 18 15 7 0 30 13 52 30 21 16 42 30 47 30 8 0 93 59 134
93 82 68 293 293 293 313 0 6 7 14 15 18 8 3 15 11 15 17 0 7 11 26 24 43 13
17 33 54 45 81 12 28 26 59 31 70 22 48 42 103 51 140 6 22 17 67 25 100 16
61 25 124 43 301 12 119 -7 370 -39 494 -11 41 -24 95 -31 120 -6 25 -17 59
-25 77 -8 17 -14 38 -14 46 0 8 -7 20 -15 27 -8 7 -15 18 -15 25 0 13 -32 87
-50 115 -5 8 -31 51 -57 95 -90 154 -229 323 -351 427 -51 45 -193 148 -202
148 -5 0 -15 6 -22 13 -26 24 -182 98 -267 126 -101 34 -168 36 -201 6 -18
-16 -23 -17 -30 -5 -14 21 -12 48 3 57 8 5 11 20 7 42 l-5 33 -12 -31z"/>
<path d="M3630 6197 c0 -16 38 -40 50 -32 17 10 11 21 -15 33 -32 15 -35 15
-35 -1z"/>
<path d="M6326 6203 c-12 -12 -6 -33 9 -33 8 0 15 6 15 14 0 17 -14 28 -24 19z"/>
<path d="M6571 6178 c-1 -21 4 -38 9 -38 11 0 11 14 0 50 -7 22 -8 21 -9 -12z"/>
<path d="M2360 6180 c0 -5 25 -35 56 -67 30 -32 67 -79 82 -105 26 -46 49 -56
36 -15 -8 25 -11 29 -94 122 -64 72 -80 85 -80 65z"/>
<path d="M4975 6167 c-4 -10 -5 -21 -1 -24 10 -10 18 4 13 24 -4 17 -4 17 -12
0z"/>
<path d="M6505 6168 c-4 -10 -4 -26 0 -35 8 -17 8 -17 12 0 3 9 3 25 0 35 -4
16 -4 16 -12 0z"/>
<path d="M3550 6160 c0 -6 11 -15 25 -20 14 -5 25 -16 25 -25 0 -17 16 -20 25
-5 12 19 -24 60 -50 60 -14 0 -25 -5 -25 -10z"/>
<path d="M3651 6136 c-14 -17 -2 -77 17 -84 8 -2 12 11 12 42 0 48 -11 64 -29
42z"/>
<path d="M3470 6125 c0 -8 8 -15 18 -15 10 0 31 -13 47 -30 16 -16 34 -30 41
-30 6 0 15 -20 18 -45 5 -30 12 -45 22 -45 10 0 14 6 10 18 -2 9 -10 36 -17
60 -7 23 -18 42 -25 42 -7 0 -28 14 -46 30 -35 32 -68 39 -68 15z"/>
<path d="M6690 6131 c0 -11 26 -22 34 -14 3 3 3 10 0 14 -7 12 -34 11 -34 0z"/>
<path d="M5727 6060 c-6 -78 -5 -86 12 -75 12 7 14 100 2 130 -5 13 -10 -5
-14 -55z"/>
<path d="M2330 6085 c13 -14 28 -25 33 -25 5 0 17 -10 28 -22 13 -17 18 -19
19 -8 0 16 -75 80 -94 80 -5 0 1 -11 14 -25z"/>
<path d="M2910 6095 c0 -9 -11 -20 -23 -24 -30 -12 -57 -38 -57 -57 0 -25 29
-15 45 16 8 16 24 34 35 40 21 11 28 40 10 40 -5 0 -10 -7 -10 -15z"/>
<path d="M3360 6101 c0 -5 10 -11 23 -15 13 -3 36 -17 52 -31 19 -19 31 -23
38 -16 19 19 -41 71 -80 71 -18 0 -33 -4 -33 -9z"/>
<path d="M6110 6095 c-40 -14 -65 -47 -55 -72 6 -16 8 -16 22 5 9 12 25 22 38
22 23 0 55 28 55 48 0 14 -14 14 -60 -3z"/>
<path d="M3110 6063 c0 -20 4 -24 18 -18 9 4 54 7 99 7 63 1 85 -3 98 -15 9
-10 23 -17 30 -17 8 0 19 -9 25 -20 11 -21 40 -28 40 -9 0 22 -22 49 -40 49
-11 0 -24 9 -30 21 -7 12 -17 18 -27 15 -8 -3 -20 -3 -25 0 -6 4 -51 8 -99 10
l-89 2 0 -25z"/>
<path d="M2957 6074 c-8 -8 1 -24 14 -24 5 0 9 7 9 15 0 15 -12 20 -23 9z"/>
<path d="M4452 6042 c-14 -30 -11 -36 16 -28 14 5 18 13 15 27 -8 29 -17 30
-31 1z"/>
<path d="M5845 6039 c4 -16 4 -57 0 -90 l-7 -60 -35 7 c-35 7 -35 6 -28 -24 3
-18 2 -33 -5 -37 -5 -3 -8 -11 -5 -16 12 -19 32 -8 48 26 11 22 24 35 36 35
18 0 20 9 23 95 3 87 1 95 -15 95 -15 0 -17 -5 -12 -31z"/>
<path d="M6506 6054 c-9 -22 3 -32 14 -14 12 19 12 30 1 30 -5 0 -12 -7 -15
-16z"/>
<path d="M6385 6046 c-16 -36 58 -64 85 -31 12 14 6 35 -10 35 -5 0 -12 -9
-15 -20 -9 -28 -29 -25 -42 8 -9 24 -11 25 -18 8z"/>
<path d="M3799 6029 c-8 -16 -8 -28 0 -45 12 -26 31 -32 31 -10 0 7 3 28 6 45
5 24 3 31 -9 31 -9 0 -21 -10 -28 -21z"/>
<path d="M5590 6028 c0 -13 -3 -33 -6 -45 -5 -18 -3 -21 14 -16 34 9 45 83 12
83 -14 0 -20 -7 -20 -22z"/>
<path d="M6642 6041 c-10 -6 -9 -10 7 -14 14 -3 21 0 21 9 0 16 -9 18 -28 5z"/>
<path d="M2296 6028 c5 -7 28 -31 52 -53 63 -57 75 -69 96 -98 19 -27 36 -35
36 -18 0 13 -168 181 -181 181 -5 0 -7 -6 -3 -12z"/>
<path d="M2761 6018 c-1 -16 4 -28 10 -28 6 0 9 -12 7 -27 -2 -20 2 -28 12
-28 20 0 26 36 8 49 -7 6 -19 22 -25 36 l-12 25 0 -27z"/>
<path d="M2983 6025 c-3 -9 -3 -18 0 -21 9 -9 27 6 27 22 0 19 -19 18 -27 -1z"/>
<path d="M3490 6036 c0 -3 4 -16 10 -30 13 -35 30 -33 30 4 0 23 -4 30 -20 30
-11 0 -20 -2 -20 -4z"/>
<path d="M3051 6016 c-9 -10 -8 -16 3 -25 10 -9 16 -8 25 3 9 10 8 16 -3 25
-10 9 -16 8 -25 -3z"/>
<path d="M3110 6013 c0 -10 4 -24 9 -31 6 -10 10 -10 21 3 10 12 10 18 0 30
-17 20 -30 19 -30 -2z"/>
<path d="M2420 6015 c0 -7 39 -63 62 -89 36 -40 28 -6 -9 43 -34 45 -53 61
-53 46z"/>
<path d="M2905 6011 c-6 -11 29 -51 45 -51 16 0 11 14 -14 38 -14 13 -27 18
-31 13z"/>
<path d="M3185 6011 c-8 -14 13 -24 39 -17 15 4 28 0 36 -9 7 -8 18 -15 24
-15 6 0 31 -17 56 -39 41 -35 44 -42 45 -87 0 -48 8 -64 33 -64 18 0 15 57 -4
64 -12 5 -15 14 -11 35 5 24 1 34 -23 53 -17 13 -30 28 -30 35 0 6 -13 16 -30
22 -16 5 -30 15 -30 20 0 14 -97 15 -105 2z"/>
<path d="M6582 6011 c-11 -7 -10 -10 3 -15 23 -9 25 -8 25 9 0 17 -9 19 -28 6z"/>
<path d="M5925 6000 c-6 -10 2 -129 11 -162 12 -41 24 -13 24 55 0 100 -14
141 -35 107z"/>
<path d="M6324 5987 c-11 -12 -29 -27 -39 -34 -19 -11 -19 -12 5 -12 18 -1 31
8 44 30 22 37 18 45 -10 16z"/>
<path d="M3435 5981 c-2 -5 0 -23 6 -41 9 -23 14 -28 20 -18 14 21 10 55 -6
61 -8 4 -17 2 -20 -2z"/>
<path d="M6087 5973 c-32 -17 -42 -35 -33 -59 6 -15 8 -15 26 1 10 9 30 18 44
19 29 1 31 8 16 37 -12 22 -15 22 -53 2z"/>
<path d="M6510 5982 c0 -4 9 -13 20 -20 18 -11 20 -10 20 8 0 13 -7 20 -20 20
-11 0 -20 -3 -20 -8z"/>
<path d="M2865 5964 c-14 -11 -16 -18 -7 -21 6 -3 12 -11 12 -18 0 -8 9 -17
20 -20 11 -3 20 -12 20 -18 0 -7 17 -13 41 -14 49 -1 49 20 -1 25 -38 4 -72
38 -64 65 6 21 5 21 -21 1z"/>
<path d="M2290 5940 c30 -25 60 -43 60 -35 0 11 -39 43 -62 50 l-23 6 25 -21z"/>
<path d="M2540 5945 c0 -9 5 -15 11 -13 6 2 11 8 11 13 0 5 -5 11 -11 13 -6 2
-11 -4 -11 -13z"/>
<path d="M2972 5952 c-9 -6 -7 -11 10 -19 28 -12 48 -7 48 13 0 15 -37 19 -58
6z"/>
<path d="M3130 5950 c0 -5 12 -10 28 -10 34 -1 78 -25 128 -69 37 -33 39 -38
39 -93 -1 -54 1 -59 20 -56 26 4 31 40 11 70 -9 12 -16 33 -16 45 0 13 -4 23
-10 23 -5 0 -10 6 -10 13 0 6 -21 29 -46 50 -40 31 -54 37 -95 37 -27 0 -49
-4 -49 -10z"/>
<path d="M3537 5954 c-10 -10 -9 -42 2 -48 5 -3 14 0 20 7 12 15 -9 54 -22 41z"/>
<path d="M3992 5941 c4 -18 39 -22 45 -5 2 6 -8 14 -22 16 -20 4 -25 2 -23
-11z"/>
<path d="M6455 5949 c-4 -5 1 -12 10 -15 11 -5 15 -14 11 -30 -3 -12 -2 -25 3
-29 15 -9 23 13 16 44 -6 30 -30 48 -40 30z"/>
<path d="M2661 5933 c0 -10 4 -26 8 -36 6 -17 8 -17 20 -3 15 18 6 56 -15 56
-8 0 -14 -8 -13 -17z"/>
<path d="M6680 5943 c0 -5 5 -15 10 -23 8 -12 10 -11 10 8 0 12 -4 22 -10 22
-5 0 -10 -3 -10 -7z"/>
<path d="M2607 5933 c-13 -12 -7 -33 8 -33 8 0 15 9 15 20 0 20 -11 26 -23 13z"/>
<path d="M6536 5925 c-3 -9 0 -15 9 -15 8 0 15 7 15 15 0 8 -4 15 -9 15 -5 0
-11 -7 -15 -15z"/>
<path d="M3950 5914 c0 -9 7 -14 17 -12 25 5 28 28 4 28 -12 0 -21 -6 -21 -16z"/>
<path d="M6400 5910 c19 -13 30 -13 30 0 0 6 -10 10 -22 10 -19 0 -20 -2 -8
-10z"/>
<path d="M2760 5894 c0 -24 19 -54 35 -54 8 0 15 -7 15 -15 0 -8 7 -15 15 -15
8 0 15 7 15 15 0 8 -6 15 -14 15 -8 0 -16 10 -20 23 -7 28 -46 55 -46 31z"/>
<path d="M3076 5902 c-9 -14 10 -24 49 -27 18 -1 39 -7 46 -13 91 -75 94 -79
95 -139 0 -52 3 -58 22 -61 26 -4 26 -1 6 69 -20 69 -37 109 -47 109 -4 0 -21
14 -39 30 -17 17 -39 30 -48 30 -10 0 -31 3 -48 6 -16 3 -32 1 -36 -4z"/>
<path d="M6296 5893 c-10 -10 -7 -51 5 -58 6 -4 13 2 16 14 5 20 23 28 36 15
11 -12 -13 -43 -35 -46 -15 -2 -24 -11 -26 -27 -3 -18 0 -22 12 -17 9 3 22 9
30 12 9 3 17 -2 20 -14 4 -11 13 -23 21 -25 8 -4 11 -14 8 -26 -3 -14 0 -23
11 -27 9 -3 16 -12 16 -20 0 -8 7 -14 15 -14 8 0 15 -7 15 -15 0 -25 -35 -17
-66 15 -31 32 -54 39 -54 16 0 -8 6 -17 13 -20 6 -3 26 -15 42 -26 49 -32 52
-33 76 -9 20 20 21 23 6 34 -20 14 -22 32 -4 38 7 2 8 8 3 13 -5 5 -11 4 -13
-3 -3 -7 -11 -13 -19 -13 -17 0 -19 27 -2 32 14 5 -21 57 -38 58 -7 0 -11 19
-11 50 0 27 -1 51 -4 53 -9 8 -67 16 -73 10z"/>
<path d="M6560 5893 c1 -12 51 -46 57 -39 9 8 -27 46 -44 46 -7 0 -13 -3 -13
-7z"/>
<path d="M3027 5868 c-7 -26 -11 -28 -63 -28 -40 0 -54 -3 -51 -12 2 -9 32
-13 97 -14 63 0 95 -4 98 -12 2 -7 9 -12 16 -12 18 0 76 -63 76 -82 0 -22 19
-33 26 -15 7 19 -26 81 -62 115 -19 17 -44 28 -74 32 -37 4 -45 9 -50 30 l-6
25 -7 -27z"/>
<path d="M3456 5873 c-7 -17 11 -35 29 -30 6 2 11 13 13 25 3 16 -2 22 -16 22
-11 0 -23 -8 -26 -17z"/>
<path d="M2850 5860 c0 -13 7 -20 19 -20 30 0 33 16 6 28 -22 10 -25 9 -25 -8z"/>
<path d="M6415 5870 c-10 -17 12 -37 25 -24 8 8 6 15 -4 23 -10 9 -16 9 -21 1z"/>
<path d="M2294 5855 c11 -8 22 -12 25 -9 6 6 -19 24 -34 24 -5 -1 -1 -7 9 -15z"/>
<path d="M2567 5863 c-13 -12 -7 -33 8 -33 8 0 15 9 15 20 0 20 -11 26 -23 13z"/>
<path d="M6232 5863 c-6 -3 -9 -10 -5 -16 5 -7 8 -25 8 -41 0 -16 5 -31 12
-33 9 -3 11 9 9 41 -2 50 -5 55 -24 49z"/>
<path d="M6100 5845 c-7 -9 -11 -17 -9 -19 7 -7 49 13 49 24 0 15 -26 12 -40
-5z"/>
<path d="M2720 5831 c-5 -11 -19 -22 -30 -26 -16 -5 -18 -9 -7 -26 15 -24 26
-24 34 -1 4 9 15 23 24 30 10 7 16 19 13 27 -8 21 -21 19 -34 -4z"/>
<path d="M2482 5828 c6 -18 28 -21 28 -4 0 9 -7 16 -16 16 -9 0 -14 -5 -12
-12z"/>
<path d="M5826 5799 c-26 -56 -8 -73 33 -31 37 37 41 72 9 72 -17 0 -28 -11
-42 -41z"/>
<path d="M6480 5835 c0 -10 42 -46 48 -41 3 4 -4 15 -16 26 -21 20 -32 25 -32
15z"/>
<path d="M2602 5803 c4 -39 28 -42 28 -4 0 21 -5 31 -16 31 -11 0 -14 -8 -12
-27z"/>
<path d="M6164 5815 c3 -9 6 -21 6 -26 0 -5 7 -9 16 -9 23 0 14 44 -10 48 -14
3 -17 0 -12 -13z"/>
<path d="M2862 5798 c3 -7 13 -15 22 -16 12 -3 17 1 14 10 -3 7 -13 15 -22 16
-12 3 -17 -1 -14 -10z"/>
<path d="M6420 5803 c0 -10 93 -93 103 -93 14 0 5 15 -35 59 -34 36 -68 54
-68 34z"/>
<path d="M2810 5770 c0 -6 7 -13 15 -16 8 -4 15 -12 15 -20 0 -17 -37 -19 -43
-1 -2 6 -8 9 -12 5 -4 -4 -2 -14 4 -22 7 -8 10 -20 6 -25 -7 -13 24 -3 45 14
8 7 23 15 33 18 26 9 21 27 -8 27 -16 0 -25 6 -25 15 0 8 -7 15 -15 15 -8 0
-15 -5 -15 -10z"/>
<path d="M2922 5773 c-28 -11 3 -23 59 -23 51 0 67 -5 105 -30 44 -31 44 -31
44 -8 0 40 -55 68 -131 67 -35 0 -70 -3 -77 -6z"/>
<path d="M5892 5758 c-7 -13 -17 -30 -24 -40 -9 -13 -9 -20 2 -32 12 -15 15
-15 32 1 21 19 48 65 48 83 0 20 -47 10 -58 -12z"/>
<path d="M2546 5753 c-11 -12 -6 -33 9 -33 8 0 17 -11 21 -25 4 -16 13 -25 25
-25 27 0 23 28 -6 42 -14 6 -25 17 -25 24 0 15 -15 26 -24 17z"/>
<path d="M6237 5753 c-12 -11 -8 -23 8 -23 8 0 15 7 15 15 0 16 -12 20 -23 8z"/>
<path d="M2480 5735 c0 -9 5 -15 11 -13 6 2 11 8 11 13 0 5 -5 11 -11 13 -6 2
-11 -4 -11 -13z"/>
<path d="M6300 5735 c0 -8 9 -15 19 -15 26 0 35 16 15 24 -25 10 -34 7 -34 -9z"/>
<path d="M2725 5731 c-6 -11 9 -23 19 -14 9 9 7 23 -3 23 -6 0 -12 -4 -16 -9z"/>
<path d="M6153 5720 c-34 -14 -19 -41 18 -33 25 5 29 2 29 -15 0 -29 19 -38
38 -18 15 15 14 18 -18 46 -39 33 -37 32 -67 20z"/>
<path d="M2390 5705 c0 -9 5 -15 11 -13 6 2 11 8 11 13 0 5 -5 11 -11 13 -6 2
-11 -4 -11 -13z"/>
<path d="M2906 5703 c-3 -7 -17 -13 -31 -13 -14 0 -28 -7 -31 -15 -4 -8 -12
-15 -20 -15 -8 0 -14 -7 -14 -15 0 -8 7 -15 15 -15 9 0 18 7 21 15 4 8 16 15
28 15 12 0 32 7 45 16 18 13 28 14 47 5 14 -6 33 -11 43 -11 10 0 28 -9 41
-20 13 -11 27 -20 32 -20 4 0 8 -7 8 -15 0 -15 21 -21 32 -9 9 8 -91 104 -110
105 -73 6 -102 4 -106 -8z"/>
<path d="M5942 5676 c-15 -28 -21 -52 -17 -65 8 -27 32 -27 40 -1 4 11 10 18
15 15 5 -3 5 -15 -1 -28 -9 -20 -3 -35 46 -107 31 -46 63 -99 70 -117 8 -19
23 -46 33 -61 11 -15 25 -45 32 -67 7 -22 20 -53 30 -70 10 -16 21 -46 25 -65
4 -19 14 -43 23 -53 13 -14 13 -22 3 -44 -11 -24 -10 -29 10 -44 14 -11 18
-18 10 -23 -17 -11 -13 -37 7 -52 15 -11 15 -16 4 -34 -11 -19 -11 -25 2 -39
13 -14 16 -45 16 -159 0 -88 4 -142 10 -142 6 0 11 17 11 38 9 298 8 343 -6
348 -20 8 -19 24 3 40 16 12 16 14 1 26 -26 21 -29 45 -8 69 10 12 19 26 19
31 0 11 -17 10 -25 -2 -8 -13 -35 -13 -35 1 0 6 7 17 15 25 22 23 18 43 -10
50 -26 6 -32 18 -15 29 17 11 11 25 -15 35 -22 8 -24 12 -14 29 17 26 4 54
-20 46 -18 -5 -19 -3 -8 30 8 27 8 38 -2 48 -10 9 -15 8 -25 -5 -7 -10 -16
-18 -20 -18 -12 0 -6 28 9 40 20 16 20 70 0 70 -7 0 -18 -8 -24 -17 -7 -13
-13 -15 -21 -7 -8 8 -7 14 5 24 8 7 15 23 15 36 0 29 -36 33 -56 7 -7 -10 -16
-14 -21 -10 -4 5 0 15 10 22 13 9 17 23 15 46 -4 40 -23 49 -32 14 -4 -14 -11
-25 -16 -25 -16 0 -12 36 6 50 8 8 14 25 12 39 -2 20 -9 26 -28 26 -21 0 -25
5 -25 30 -1 46 -27 42 -53 -9z"/>
<path d="M6267 5713 c-12 -11 -8 -23 8 -23 8 0 15 7 15 15 0 16 -12 20 -23 8z"/>
<path d="M2510 5696 c0 -8 -6 -17 -12 -19 -8 -3 -8 -6 -2 -6 6 -1 19 8 29 19
16 18 16 20 2 20 -10 0 -17 -6 -17 -14z"/>
<path d="M2660 5665 c0 -16 6 -25 15 -25 9 0 15 9 15 25 0 16 -6 25 -15 25 -9
0 -15 -9 -15 -25z"/>
<path d="M2750 5645 c0 -9 5 -15 11 -13 6 2 11 8 11 13 0 5 -5 11 -11 13 -6 2
-11 -4 -11 -13z"/>
<path d="M6260 5635 c0 -30 25 -34 39 -6 8 15 7 20 -5 25 -27 10 -34 7 -34
-19z"/>
<path d="M6505 5649 c-10 -15 3 -25 16 -12 7 7 7 13 1 17 -6 3 -14 1 -17 -5z"/>
<path d="M2530 5646 c0 -2 7 -9 15 -16 12 -10 15 -10 15 4 0 9 -7 16 -15 16
-8 0 -15 -2 -15 -4z"/>
<path d="M6630 5630 c0 -19 3 -21 12 -12 9 9 9 15 0 24 -9 9 -12 7 -12 -12z"/>
<path d="M2864 5615 c-4 -8 -14 -15 -23 -15 -21 0 -64 -46 -56 -60 10 -16 25
-12 25 8 1 17 58 50 95 53 63 6 104 -2 110 -21 6 -20 43 -46 52 -37 9 10 -30
58 -58 73 -38 19 -138 19 -145 -1z"/>
<path d="M2700 5601 c-12 -23 -13 -51 -2 -51 4 1 14 16 23 35 13 28 14 35 3
35 -7 0 -18 -9 -24 -19z"/>
<path d="M6470 5610 c0 -5 -7 -10 -15 -10 -8 0 -15 -6 -15 -12 0 -16 17 -44
23 -38 14 18 37 56 37 62 0 5 -7 8 -15 8 -8 0 -15 -4 -15 -10z"/>
<path d="M6534 5596 c-3 -9 -12 -16 -20 -16 -21 0 -17 -26 9 -53 22 -24 23
-24 45 -7 12 10 22 25 22 33 0 8 7 17 15 21 8 3 15 10 15 16 0 5 -7 10 -15 10
-8 0 -15 -7 -15 -15 0 -8 -5 -15 -11 -15 -7 0 -18 -8 -25 -17 -18 -26 -30 -8
-14 22 7 14 10 28 7 31 -4 4 -9 -1 -13 -10z"/>
<path d="M2750 5585 c0 -8 7 -15 15 -15 8 0 15 7 15 15 0 8 -7 15 -15 15 -8 0
-15 -7 -15 -15z"/>
<path d="M6350 5586 c0 -8 -7 -17 -16 -20 -8 -3 -12 -11 -9 -16 4 -7 16 -2 31
12 27 27 30 38 9 38 -8 0 -15 -6 -15 -14z"/>
<path d="M2630 5566 c0 -31 16 -42 36 -25 13 10 12 14 -2 30 -23 26 -34 24
-34 -5z"/>
<path d="M2880 5558 c0 -5 -8 -12 -17 -15 -23 -9 -83 -68 -83 -82 0 -6 7 -11
15 -11 8 0 15 7 15 16 0 30 30 46 95 52 64 5 83 19 53 39 -18 11 -78 12 -78 1z"/>
<path d="M3117 5563 c-12 -11 -8 -23 8 -23 8 0 15 7 15 15 0 16 -12 20 -23 8z"/>
<path d="M6624 5546 c-3 -9 -12 -16 -20 -16 -22 0 -16 -27 13 -56 23 -23 27
-24 35 -9 9 15 11 15 29 -1 16 -14 19 -15 24 -2 4 9 -10 32 -34 57 -33 34 -42
39 -47 27z"/>
<path d="M2422 5531 c2 -7 7 -12 11 -12 12 1 9 15 -3 20 -7 2 -11 -2 -8 -8z"/>
<path d="M2507 5534 c-7 -7 13 -54 23 -54 15 0 18 13 8 36 -11 24 -20 29 -31
18z"/>
<path d="M2724 5509 c3 -17 6 -37 7 -43 1 -19 18 27 18 52 1 14 -5 22 -15 22
-13 0 -15 -7 -10 -31z"/>
<path d="M2990 5514 c0 -12 9 -31 20 -44 11 -13 20 -29 20 -35 0 -7 9 -15 20
-18 16 -4 20 0 20 23 0 19 6 29 20 33 19 5 27 36 13 50 -9 9 -43 -22 -43 -40
0 -7 -9 -13 -20 -13 -11 0 -20 6 -20 13 0 7 -7 22 -15 33 -14 19 -14 19 -15
-2z"/>
<path d="M6265 5480 c9 -43 6 -40 33 -33 22 5 31 23 12 23 -5 0 -19 10 -31 23
l-21 22 7 -35z"/>
<path d="M6380 5495 c0 -8 7 -15 15 -15 8 0 15 7 15 15 0 8 -7 15 -15 15 -8 0
-15 -7 -15 -15z"/>
<path d="M2270 5491 c0 -6 20 -39 44 -75 25 -35 55 -86 66 -113 12 -26 32 -61
44 -78 13 -16 25 -38 29 -48 4 -10 11 -15 17 -12 17 11 11 33 -11 40 -16 5
-19 12 -15 30 4 14 1 25 -8 28 -7 3 -23 25 -36 49 -12 23 -34 61 -49 83 -15
22 -30 48 -34 58 -3 9 -11 17 -17 17 -5 0 -10 7 -10 15 0 8 -4 15 -10 15 -5 0
-10 -4 -10 -9z"/>
<path d="M2605 5487 c-4 -10 -3 -23 4 -30 16 -16 26 0 14 25 -10 21 -11 22
-18 5z"/>
<path d="M2658 5455 c-10 -21 -9 -28 2 -35 19 -12 30 -3 30 25 0 35 -18 40
-32 10z"/>
<path d="M2840 5455 c-23 -25 -23 -25 -2 -25 11 0 24 5 27 10 3 6 24 10 47 10
35 0 39 2 28 15 -20 24 -73 19 -100 -10z"/>
<path d="M6770 5465 c-7 -8 -19 -15 -26 -15 -8 0 -14 -4 -14 -10 0 -15 23 -11
49 9 14 10 19 21 13 24 -5 4 -15 0 -22 -8z"/>
<path d="M6440 5436 c0 -9 7 -16 16 -16 9 0 14 5 12 12 -6 18 -28 21 -28 4z"/>
<path d="M2962 5415 c6 -14 19 -25 30 -25 21 0 23 -18 4 -42 -15 -21 -33 -23
-38 -6 -2 6 -9 9 -16 7 -8 -3 -7 -11 3 -29 8 -14 18 -33 21 -43 10 -28 26 -15
42 34 8 24 21 48 29 52 11 7 6 16 -24 42 -47 42 -68 46 -51 10z"/>
<path d="M6810 5430 c0 -5 -7 -10 -15 -10 -8 0 -15 -7 -15 -15 0 -20 5 -19 36
10 20 19 23 25 10 25 -9 0 -16 -4 -16 -10z"/>
<path d="M2777 5414 c-13 -13 -7 -24 14 -24 11 0 19 5 17 12 -5 14 -22 21 -31
12z"/>
<path d="M2857 5393 c-31 -16 -28 -33 6 -33 31 0 51 15 44 34 -7 19 -13 19
-50 -1z"/>
<path d="M6370 5386 c0 -18 16 -29 30 -21 13 8 1 35 -16 35 -8 0 -14 -6 -14
-14z"/>
<path d="M2550 5380 c0 -5 4 -10 9 -10 5 0 11 -14 15 -31 7 -35 26 -30 26 6 0
14 -8 29 -19 35 -25 13 -31 13 -31 0z"/>
<path d="M2717 5384 c-13 -13 -7 -24 14 -24 11 0 19 5 17 12 -5 14 -22 21 -31
12z"/>
<path d="M2635 5360 c-7 -12 2 -30 16 -30 12 0 12 27 0 35 -5 3 -12 1 -16 -5z"/>
<path d="M2512 5326 c1 -10 8 -17 13 -17 15 1 12 24 -3 29 -9 3 -13 -2 -10
-12z"/>
<path d="M2681 5327 c-8 -11 -6 -18 9 -32 18 -16 20 -16 26 -1 7 19 -1 46 -14
46 -5 0 -15 -6 -21 -13z"/>
<path d="M2457 5323 c-7 -11 18 -51 26 -43 3 3 0 16 -7 29 -7 13 -16 19 -19
14z"/>
<path d="M2832 5306 c-12 -14 -18 -27 -13 -30 5 -4 12 -2 16 4 3 5 16 10 29
10 28 0 36 8 29 26 -8 21 -35 17 -61 -10z"/>
<path d="M2310 5295 c0 -8 3 -15 8 -15 4 0 18 -20 31 -45 13 -24 28 -42 33
-39 5 3 2 15 -7 27 -8 12 -18 28 -22 36 -4 8 -15 23 -25 33 -15 15 -18 15 -18
3z"/>
<path d="M6270 5278 c0 -18 38 -78 49 -78 23 0 18 20 -14 54 -19 21 -35 31
-35 24z"/>
<path d="M2543 5264 c-4 -10 0 -21 9 -28 8 -6 19 -27 23 -46 8 -34 9 -34 16
-10 11 40 10 50 -6 50 -8 0 -15 9 -15 19 0 26 -18 37 -27 15z"/>
<path d="M2900 5264 c0 -9 55 -74 63 -74 17 0 5 50 -15 64 -22 16 -48 21 -48
10z"/>
<path d="M6466 5262 c-5 -8 76 -82 88 -82 12 0 6 29 -8 37 -7 4 -18 18 -25 31
-11 22 -45 30 -55 14z"/>
<path d="M6606 5235 c9 -14 20 -25 25 -25 6 0 13 -8 16 -17 9 -22 45 -53 55
-46 11 6 10 33 -1 33 -5 0 -28 18 -51 40 -47 45 -69 53 -44 15z"/>
<path d="M2485 5240 c-7 -12 2 -30 16 -30 12 0 12 27 0 35 -5 3 -12 1 -16 -5z"/>
<path d="M2657 5216 c-23 -34 -22 -36 12 -36 39 0 48 17 24 42 -20 19 -20 19
-36 -6z"/>
<path d="M2825 5230 c-8 -12 20 -24 35 -15 6 3 8 11 5 16 -8 12 -32 12 -40 -1z"/>
<path d="M6420 5206 c0 -16 27 -29 41 -20 13 8 -9 34 -27 34 -8 0 -14 -6 -14
-14z"/>
<path d="M2517 5173 c-4 -11 -14 -24 -22 -27 -8 -3 -15 -16 -15 -30 0 -13 -7
-26 -15 -30 -18 -7 -21 -60 -2 -54 6 3 13 14 15 26 2 11 10 26 18 32 8 7 14
23 14 35 0 13 5 25 11 27 6 2 9 13 7 23 -4 19 -5 19 -11 -2z"/>
<path d="M6310 5176 c0 -7 7 -19 15 -26 12 -10 16 -9 21 3 3 9 3 21 -1 27 -9
15 -35 12 -35 -4z"/>
<path d="M2420 5115 c0 -8 7 -15 15 -15 9 0 12 6 9 15 -4 8 -10 15 -15 15 -5
0 -9 -7 -9 -15z"/>
<path d="M6490 5106 c-13 -15 -20 -32 -17 -40 7 -18 23 -21 32 -6 3 6 18 7 33
4 23 -6 42 -18 112 -71 2 -2 -1 -13 -8 -23 -13 -21 -10 -23 26 -14 26 7 29 34
4 41 -10 2 -26 17 -37 34 -11 16 -25 29 -30 29 -6 0 -16 9 -23 20 -7 11 -18
20 -26 20 -8 0 -16 7 -20 15 -8 21 -19 19 -46 -9z"/>
<path d="M2370 5107 c0 -19 39 -88 41 -72 3 26 -4 49 -22 68 -16 18 -19 18
-19 4z"/>
<path d="M2586 5100 c-12 -13 -16 -25 -11 -37 6 -16 8 -16 18 5 5 12 14 22 19
22 4 0 8 7 8 15 0 20 -11 18 -34 -5z"/>
<path d="M6371 5111 c-17 -11 -7 -41 13 -41 13 0 26 20 26 41 0 11 -21 11 -39
0z"/>
<path d="M2300 5103 c0 -5 5 -15 10 -23 8 -12 10 -11 10 8 0 12 -4 22 -10 22
-5 0 -10 -3 -10 -7z"/>
<path d="M2651 5076 c-13 -14 -20 -30 -16 -37 6 -8 10 -7 17 5 5 9 16 16 23
16 8 0 15 9 15 20 0 26 -12 25 -39 -4z"/>
<path d="M6680 5075 c0 -8 5 -15 10 -15 6 0 10 7 10 15 0 8 -4 15 -10 15 -5 0
-10 -7 -10 -15z"/>
<path d="M6750 5075 c0 -8 5 -15 10 -15 6 0 10 7 10 15 0 8 -4 15 -10 15 -5 0
-10 -7 -10 -15z"/>
<path d="M2810 5066 c0 -8 5 -18 10 -21 6 -3 10 3 10 14 0 12 -4 21 -10 21 -5
0 -10 -6 -10 -14z"/>
<path d="M2330 5046 c0 -7 7 -19 15 -26 8 -7 15 -24 15 -37 0 -15 5 -23 13
-21 20 7 19 33 -3 58 -11 12 -20 27 -20 32 0 4 -4 8 -10 8 -5 0 -10 -6 -10
-14z"/>
<path d="M6787 5054 c-4 -4 -4 -10 -1 -15 6 -10 34 0 34 12 0 10 -24 12 -33 3z"/>
<path d="M6711 5031 c-12 -21 -8 -41 9 -41 13 0 21 31 11 47 -7 14 -10 13 -20
-6z"/>
<path d="M2680 5020 c-12 -8 -11 -10 8 -10 12 0 22 5 22 10 0 13 -11 13 -30 0z"/>
<path d="M2850 5015 c0 -8 7 -15 15 -15 17 0 19 -9 6 -28 -5 -9 -17 -11 -34
-6 -33 8 -34 -4 -4 -33 l23 -21 20 21 c30 32 34 52 18 76 -17 24 -44 28 -44 6z"/>
<path d="M6833 5014 c-7 -18 11 -39 25 -30 12 7 4 46 -9 46 -6 0 -12 -7 -16
-16z"/>
<path d="M2776 5004 c-4 -10 -13 -13 -25 -9 -11 3 -22 1 -26 -5 -4 -6 10 -10
39 -10 49 0 49 0 40 24 -8 20 -20 20 -28 0z"/>
<path d="M6338 5008 c9 -9 15 -9 24 0 9 9 7 12 -12 12 -19 0 -21 -3 -12 -12z"/>
<path d="M2478 4993 c-20 -21 -23 -48 -9 -58 13 -8 33 31 29 57 -3 20 -3 20
-20 1z"/>
<path d="M2302 4968 c2 -19 -2 -23 -24 -23 -21 1 -25 -2 -18 -15 5 -9 16 -22
24 -30 9 -7 16 -21 16 -31 0 -9 6 -24 13 -31 7 -7 16 -21 20 -30 3 -10 11 -18
17 -18 14 0 12 26 -3 39 -22 18 -39 88 -27 110 11 21 4 51 -12 51 -5 0 -8 -10
-6 -22z"/>
<path d="M6485 4976 c-17 -14 -18 -17 -5 -26 19 -12 87 -13 94 -1 16 25 -61
48 -89 27z"/>
<path d="M6790 4954 c-22 -24 -23 -27 -7 -39 21 -15 22 -31 2 -39 -8 -3 -15
-12 -15 -21 0 -8 7 -15 15 -15 8 0 15 -9 15 -20 0 -11 7 -20 15 -20 8 0 15 4
15 9 0 5 -7 14 -15 21 -8 7 -15 19 -15 27 0 7 7 16 15 19 8 4 15 12 15 20 0 8
-7 14 -15 14 -8 0 -15 6 -15 14 0 8 7 16 15 20 15 5 21 36 8 36 -5 0 -19 -12
-33 -26z"/>
<path d="M2732 4933 c-16 -6 -5 -23 15 -23 9 0 24 -7 34 -16 25 -23 34 1 9 26
-20 20 -33 23 -58 13z"/>
<path d="M6415 4909 c-9 -29 4 -38 21 -15 18 25 18 36 0 36 -8 0 -18 -9 -21
-21z"/>
<path d="M2570 4905 c0 -17 -35 -55 -50 -55 -5 0 -10 -7 -10 -15 0 -8 7 -15
15 -15 8 0 15 5 15 10 0 6 9 19 20 30 11 11 25 20 30 20 6 0 10 9 10 20 0 11
-7 20 -15 20 -8 0 -15 -7 -15 -15z"/>
<path d="M2665 4910 c-9 -15 -1 -23 21 -18 15 3 16 4 1 16 -11 9 -17 10 -22 2z"/>
<path d="M2214 4895 c-5 -12 -1 -23 11 -31 13 -9 20 -31 23 -69 2 -30 8 -52
13 -49 16 10 1 113 -20 140 -18 23 -21 24 -27 9z"/>
<path d="M2870 4895 c0 -10 7 -15 18 -13 21 4 19 22 -2 26 -10 2 -16 -3 -16
-13z"/>
<path d="M6897 4879 c4 -13 9 -17 15 -11 11 11 3 32 -12 32 -4 0 -6 -9 -3 -21z"/>
<path d="M2815 4870 c-8 -13 20 -24 41 -16 20 8 9 26 -16 26 -10 0 -22 -5 -25
-10z"/>
<path d="M6370 4871 c0 -5 6 -14 14 -20 10 -9 15 -8 19 3 3 8 -1 17 -9 20 -21
8 -24 8 -24 -3z"/>
<path d="M6484 4869 c3 -8 9 -22 12 -31 9 -24 44 -23 44 1 0 10 -8 21 -17 25
-10 3 -24 9 -32 12 -9 4 -11 2 -7 -7z"/>
<path d="M2710 4860 c-8 -5 -23 -11 -33 -14 -33 -10 -7 -28 32 -21 29 5 43 1
64 -15 38 -30 34 -3 -5 32 -34 30 -36 31 -58 18z"/>
<path d="M2160 4847 c0 -14 19 -37 32 -37 16 0 7 30 -12 40 -15 8 -20 8 -20
-3z"/>
<path d="M6614 4828 c13 -34 36 -37 36 -4 0 17 -7 25 -23 28 -23 4 -23 3 -13
-24z"/>
<path d="M2606 4842 c-9 -16 11 -42 32 -42 14 0 14 1 0 13 -9 6 -18 19 -20 27
-3 11 -6 11 -12 2z"/>
<path d="M6430 4831 c-17 -33 -12 -43 15 -25 14 9 25 23 25 30 0 21 -28 17
-40 -5z"/>
<path d="M2100 4822 c0 -10 8 -27 19 -36 17 -16 19 -16 25 1 4 10 2 19 -4 21
-6 2 -17 10 -25 19 -13 13 -15 12 -15 -5z"/>
<path d="M6953 4820 c6 -11 15 -20 19 -20 12 0 -3 28 -18 34 -11 4 -12 2 -1
-14z"/>
<path d="M6682 4816 c1 -10 8 -17 13 -17 15 1 12 24 -3 29 -9 3 -13 -2 -10
-12z"/>
<path d="M2427 4768 c-4 -12 -4 -24 -1 -27 6 -7 24 20 24 37 0 21 -17 13 -23
-10z"/>
<path d="M2570 4780 c0 -5 7 -10 15 -10 8 0 15 5 15 10 0 6 -7 10 -15 10 -8 0
-15 -4 -15 -10z"/>
<path d="M6391 4781 c-10 -6 -10 -10 -1 -16 13 -8 24 -1 19 14 -3 6 -10 7 -18
2z"/>
<path d="M6654 4776 c-9 -24 35 -57 58 -43 14 9 21 7 32 -8 12 -15 15 -16 15
-5 1 8 -8 26 -19 40 -17 22 -19 23 -25 7 -9 -21 -35 -23 -35 -3 0 22 -19 30
-26 12z"/>
<path d="M2062 4763 c2 -10 11 -19 21 -21 23 -5 21 10 -4 26 -18 12 -20 11
-17 -5z"/>
<path d="M2655 4767 c-12 -7 -32 -22 -45 -34 -19 -19 -21 -23 -7 -23 9 0 17 5
17 10 0 6 8 10 18 10 10 0 28 7 41 16 22 16 25 16 51 0 16 -9 33 -16 39 -16
19 0 12 22 -9 27 -11 3 -20 9 -20 14 0 13 -61 9 -85 -4z"/>
<path d="M6507 4758 c-6 -20 15 -59 31 -56 8 2 20 11 26 20 8 14 6 21 -9 32
-25 19 -42 20 -48 4z"/>
<path d="M2540 4745 c0 -8 7 -15 15 -15 8 0 15 7 15 15 0 8 -7 15 -15 15 -8 0
-15 -7 -15 -15z"/>
<path d="M6865 4749 c-4 -6 2 -19 14 -30 12 -11 21 -24 21 -29 0 -6 5 -10 10
-10 16 0 12 30 -5 36 -8 4 -15 12 -15 19 0 19 -17 28 -25 14z"/>
<path d="M2182 4719 c1 -12 9 -24 16 -27 9 -3 13 3 10 19 -1 12 -9 24 -16 27
-9 3 -13 -3 -10 -19z"/>
<path d="M2270 4716 c0 -8 6 -21 13 -28 7 -7 16 -21 20 -30 3 -10 11 -18 17
-18 13 0 13 27 -1 35 -5 4 -14 18 -19 31 -10 26 -30 33 -30 10z"/>
<path d="M6406 4705 c-9 -13 -16 -34 -16 -45 0 -19 4 -17 35 13 19 19 35 39
35 46 0 21 -37 11 -54 -14z"/>
<path d="M2130 4696 c0 -22 3 -27 11 -19 8 8 8 16 0 30 -9 16 -10 14 -11 -11z"/>
<path d="M2442 4687 c-26 -27 -28 -47 -7 -47 8 0 15 -7 15 -15 0 -7 6 -18 14
-22 8 -4 15 -17 17 -27 5 -23 29 -34 29 -13 0 9 -7 22 -15 31 -8 8 -15 22 -15
30 0 9 -7 16 -15 16 -20 0 -19 20 3 36 12 9 14 16 6 23 -7 8 -17 5 -32 -12z"/>
<path d="M6835 4698 c-9 -22 4 -43 17 -30 7 7 7 16 0 29 -10 17 -11 17 -17 1z"/>
<path d="M2666 4693 c-16 -3 -40 -15 -55 -29 -14 -13 -29 -24 -33 -24 -5 0 -8
-7 -8 -16 0 -8 -7 -22 -15 -30 -8 -9 -15 -20 -15 -25 0 -19 16 -7 38 29 13 21
40 45 61 55 41 19 91 23 91 7 0 -5 12 -10 26 -10 37 0 25 20 -21 36 -22 7 -40
13 -40 12 0 0 -13 -3 -29 -5z"/>
<path d="M6776 4692 c-3 -6 -1 -14 5 -17 15 -10 25 3 12 16 -7 7 -13 7 -17 1z"/>
<path d="M2540 4680 c0 -5 7 -10 15 -10 8 0 15 5 15 10 0 6 -7 10 -15 10 -8 0
-15 -4 -15 -10z"/>
<path d="M6470 4683 c0 -4 12 -17 27 -29 24 -19 26 -24 14 -38 -7 -9 -20 -16
-27 -16 -8 0 -14 -7 -14 -15 0 -21 24 -19 44 4 10 11 31 25 47 31 16 7 29 16
29 21 0 14 -24 23 -28 11 -7 -22 -41 -13 -48 13 -4 16 -13 25 -25 25 -10 0
-19 -3 -19 -7z"/>
<path d="M6642 4669 c-12 -18 -11 -20 5 -17 10 2 19 11 21 21 5 23 -10 21 -26
-4z"/>
<path d="M2480 4662 c0 -10 38 -42 50 -42 15 0 12 17 -6 34 -16 17 -44 22 -44
8z"/>
<path d="M2244 4644 c3 -9 6 -18 6 -20 0 -2 5 -4 10 -4 6 0 10 9 10 20 0 12
-7 20 -16 20 -11 0 -14 -5 -10 -16z"/>
<path d="M2097 4644 c-8 -8 3 -34 14 -34 11 0 12 27 0 34 -4 3 -11 3 -14 0z"/>
<path d="M6804 4636 c-4 -10 -2 -22 4 -28 8 -8 13 -7 18 6 4 10 2 22 -4 28 -8
8 -13 7 -18 -6z"/>
<path d="M6870 4631 c0 -12 5 -21 10 -21 6 0 10 6 10 14 0 8 -4 18 -10 21 -5
3 -10 -3 -10 -14z"/>
<path d="M6432 4631 c-11 -7 -10 -10 3 -15 23 -9 25 -8 25 9 0 17 -9 19 -28 6z"/>
<path d="M6743 4623 c-4 -10 -12 -22 -20 -26 -7 -4 -13 -19 -13 -32 0 -14 -3
-25 -8 -25 -7 0 -52 -90 -52 -104 0 -14 21 -5 27 12 4 9 13 23 20 30 7 7 13
24 13 37 0 12 7 25 15 29 8 3 15 14 15 25 0 10 7 21 15 25 17 6 21 46 5 46 -6
0 -14 -8 -17 -17z"/>
<path d="M2655 4610 c-32 -12 -87 -81 -80 -99 5 -14 8 -13 18 4 6 11 20 27 31
36 59 47 68 56 60 61 -5 3 -18 2 -29 -2z"/>
<path d="M2214 4596 c-8 -22 3 -33 18 -18 9 9 9 15 0 24 -9 9 -13 7 -18 -6z"/>
<path d="M2712 4598 c3 -7 16 -15 31 -19 22 -6 27 -4 27 12 0 15 -7 19 -31 19
-19 0 -29 -4 -27 -12z"/>
<path d="M6657 4583 c-4 -11 -14 -24 -22 -27 -18 -7 -21 -59 -2 -54 6 3 14 15
16 29 1 13 8 27 13 30 5 4 8 15 6 25 -4 17 -5 17 -11 -3z"/>
<path d="M6835 4590 c-9 -14 4 -52 16 -45 12 8 12 42 0 50 -5 3 -12 1 -16 -5z"/>
<path d="M6890 4593 c1 -18 18 -35 24 -24 4 6 4 16 1 21 -7 12 -25 13 -25 3z"/>
<path d="M6774 4576 c-4 -10 -2 -22 4 -28 8 -8 13 -7 18 6 4 10 2 22 -4 28 -8
8 -13 7 -18 -6z"/>
<path d="M2310 4570 c0 -5 5 -10 10 -10 6 0 10 -6 10 -14 0 -7 12 -22 26 -32
14 -10 32 -25 40 -32 10 -10 19 -10 34 -2 26 14 26 30 0 37 -11 3 -20 10 -20
15 0 5 -8 7 -18 4 -11 -4 -28 4 -44 19 -29 27 -38 31 -38 15z"/>
<path d="M6384 4569 c-8 -13 21 -39 43 -39 16 0 18 -36 2 -45 -7 -5 -5 -13 5
-24 12 -13 13 -20 4 -29 -9 -9 -9 -18 0 -37 7 -14 12 -39 12 -55 0 -16 11 -55
25 -86 14 -31 25 -65 25 -76 0 -10 6 -21 14 -24 8 -3 17 -16 20 -30 7 -27 31
-32 40 -8 11 28 6 42 -15 47 -15 4 -19 11 -15 25 8 24 -18 88 -41 101 -15 9
-11 11 20 9 30 -2 43 4 65 27 28 30 66 95 57 95 -10 0 -55 -53 -55 -64 0 -15
-48 -37 -56 -25 -3 5 -18 9 -35 9 -43 0 -37 26 7 35 36 6 73 38 74 63 0 17
-15 15 -30 -3 -21 -26 -59 -19 -67 13 -4 15 -6 34 -5 43 4 21 -84 93 -94 78z"/>
<path d="M2510 4525 c0 -25 40 -86 51 -79 13 8 11 20 -5 36 -8 8 -15 23 -17
33 -5 24 -29 32 -29 10z"/>
<path d="M2715 4529 c-4 -6 -14 -8 -23 -4 -21 8 -92 -43 -92 -66 0 -26 7 -24
37 12 19 22 32 29 47 25 11 -3 25 -1 32 5 9 7 19 6 33 -3 16 -10 23 -10 33 0
10 10 8 14 -10 18 -12 4 -22 10 -22 15 0 13 -27 11 -35 -2z"/>
<path d="M6506 4519 c-14 -21 -12 -49 4 -49 13 0 41 50 35 60 -10 16 -23 12
-39 -11z"/>
<path d="M6746 4513 c-3 -3 -6 -16 -6 -29 0 -12 -7 -24 -15 -28 -18 -7 -21
-50 -2 -44 6 3 14 13 16 24 2 10 9 23 17 27 8 4 14 17 14 27 0 20 -13 33 -24
23z"/>
<path d="M2280 4496 c0 -13 28 -36 44 -36 15 0 4 19 -19 34 -21 14 -25 14 -25
2z"/>
<path d="M6590 4475 c0 -8 5 -15 10 -15 6 0 10 7 10 15 0 8 -4 15 -10 15 -5 0
-10 -7 -10 -15z"/>
<path d="M2460 4442 c0 -31 25 -51 43 -33 17 17 3 56 -20 59 -19 3 -23 -1 -23
-26z"/>
<path d="M2679 4442 c-33 -22 -83 -81 -75 -89 3 -4 12 0 19 8 23 28 86 69 105
69 11 0 25 -7 32 -15 7 -8 19 -15 26 -15 8 0 14 7 14 15 0 8 -6 15 -14 15 -7
0 -19 7 -26 15 -16 19 -48 18 -81 -3z"/>
<path d="M6780 4425 c0 -15 4 -24 10 -20 6 3 10 12 10 20 0 8 -4 17 -10 20 -6
4 -10 -5 -10 -20z"/>
<path d="M2360 4426 c0 -15 55 -66 71 -66 20 0 7 26 -25 53 -40 31 -46 33 -46
13z"/>
<path d="M2570 4426 c0 -8 5 -18 10 -21 6 -3 10 3 10 14 0 12 -4 21 -10 21 -5
0 -10 -6 -10 -14z"/>
<path d="M2250 4421 c0 -10 30 -24 37 -17 3 3 2 9 -2 15 -8 13 -35 15 -35 2z"/>
<path d="M2300 4385 c0 -8 7 -15 15 -15 8 0 15 -7 15 -15 0 -8 7 -15 15 -15
21 0 18 11 -9 38 -28 26 -36 28 -36 7z"/>
<path d="M6680 4378 c-20 -47 -62 -98 -80 -98 -5 0 -10 -7 -10 -15 0 -7 -8
-18 -17 -24 -10 -5 -15 -13 -11 -16 7 -8 27 7 61 44 12 13 29 30 37 39 23 24
50 66 50 80 0 20 -20 14 -30 -10z"/>
<path d="M2725 4380 c-3 -5 -14 -10 -24 -10 -24 0 -104 -77 -98 -94 4 -10 17
-4 46 24 22 21 54 41 70 45 17 4 31 13 31 20 0 18 -17 28 -25 15z"/>
<path d="M6746 4374 c-4 -10 -2 -22 3 -27 7 -7 13 -5 17 7 4 10 2 22 -3 27 -7
7 -13 5 -17 -7z"/>
<path d="M2780 4340 c13 -24 35 -27 26 -4 -3 9 -6 18 -6 20 0 2 -7 4 -15 4
-13 0 -14 -4 -5 -20z"/>
<path d="M2570 4326 c0 -9 7 -16 16 -16 9 0 14 5 12 12 -6 18 -28 21 -28 4z"/>
<path d="M2300 4310 c13 -23 20 -26 20 -6 0 8 -7 16 -15 20 -13 4 -14 2 -5
-14z"/>
<path d="M6710 4311 c0 -10 -7 -21 -15 -25 -8 -3 -15 -12 -15 -20 0 -7 -7 -17
-16 -20 -8 -3 -12 -11 -9 -16 7 -11 54 27 55 43 0 5 7 15 15 23 8 9 15 20 15
25 0 5 -7 9 -15 9 -8 0 -15 -9 -15 -19z"/>
<path d="M2710 4295 c-7 -8 -18 -15 -24 -15 -14 0 -56 -44 -56 -59 0 -6 -7
-11 -15 -11 -8 0 -15 -9 -15 -20 0 -11 5 -20 10 -20 6 0 10 4 10 10 0 22 105
100 136 100 22 0 12 24 -13 28 -11 2 -26 -4 -33 -13z"/>
<path d="M2400 4281 c0 -20 18 -31 51 -31 28 0 23 17 -11 35 -37 19 -40 19
-40 -4z"/>
<path d="M2270 4264 c0 -17 22 -14 28 4 2 7 -3 12 -12 12 -9 0 -16 -7 -16 -16z"/>
<path d="M2530 4272 c0 -10 43 -52 53 -52 4 0 7 7 7 15 0 8 -4 15 -10 15 -5 0
-10 7 -10 15 0 8 -9 15 -20 15 -11 0 -20 -4 -20 -8z"/>
<path d="M2780 4266 c0 -10 9 -16 21 -16 24 0 21 23 -4 28 -10 2 -17 -3 -17
-12z"/>
<path d="M6384 4236 c-8 -22 3 -33 18 -18 9 9 9 15 0 24 -9 9 -13 7 -18 -6z"/>
<path d="M2673 4183 c-41 -36 -55 -63 -33 -63 5 0 13 6 17 13 12 21 65 54 95
61 21 5 32 1 45 -14 20 -23 43 -26 43 -5 0 19 -25 32 -80 39 -42 7 -48 4 -87
-31z"/>
<path d="M2397 4193 c-4 -3 -7 -10 -7 -14 0 -11 29 -19 35 -10 6 11 -20 33
-28 24z"/>
<path d="M2271 4181 c-9 -6 -10 -11 -2 -15 13 -8 31 1 31 15 0 11 -11 11 -29
0z"/>
<path d="M6668 4166 c-9 -13 -15 -26 -12 -29 6 -5 54 36 54 47 0 15 -26 3 -42
-18z"/>
<path d="M2540 4172 c0 -5 11 -19 25 -32 l25 -23 0 21 c0 13 -6 22 -15 22 -8
0 -15 5 -15 10 0 6 -4 10 -10 10 -5 0 -10 -4 -10 -8z"/>
<path d="M6323 4163 c-21 -7 -15 -33 7 -33 11 0 20 6 20 14 0 18 -11 25 -27
19z"/>
<path d="M2440 4146 c0 -11 9 -16 26 -16 31 0 28 23 -4 28 -15 2 -22 -2 -22
-12z"/>
<path d="M6717 4143 c-4 -3 -7 -13 -7 -21 0 -12 3 -12 15 -2 8 7 15 16 15 21
0 11 -14 12 -23 2z"/>
<path d="M2720 4133 c-21 -8 -85 -74 -93 -95 -3 -10 -11 -18 -17 -18 -5 0 -10
-9 -10 -20 0 -25 18 -26 27 -2 12 31 81 102 99 102 6 0 19 9 29 20 17 19 17
20 -1 19 -10 0 -26 -3 -34 -6z"/>
<path d="M2782 4118 c5 -15 28 -18 29 -3 0 6 -7 12 -17 13 -10 3 -15 -1 -12
-10z"/>
<path d="M6382 4106 c-9 -20 -7 -25 14 -35 33 -15 34 -15 34 14 0 13 -8 29
-19 34 -15 8 -20 6 -29 -13z"/>
<path d="M6624 4117 c-3 -9 -11 -17 -16 -17 -13 0 -37 -31 -38 -47 0 -7 8 -13
18 -13 23 1 67 69 53 83 -7 7 -12 5 -17 -6z"/>
<path d="M2357 4100 c-9 -11 -14 -20 -11 -20 13 0 44 21 44 30 0 16 -14 11
-33 -10z"/>
<path d="M2600 4095 c0 -8 5 -15 10 -15 6 0 10 7 10 15 0 8 -4 15 -10 15 -5 0
-10 -7 -10 -15z"/>
<path d="M2510 4080 c0 -22 16 -26 40 -10 13 9 13 11 0 20 -24 16 -40 12 -40
-10z"/>
<path d="M2850 4090 c0 -7 24 -20 36 -20 13 0 1 19 -16 23 -11 3 -20 2 -20 -3z"/>
<path d="M2570 4056 c0 -8 5 -18 10 -21 6 -3 10 3 10 14 0 12 -4 21 -10 21 -5
0 -10 -6 -10 -14z"/>
<path d="M2740 4055 c-7 -8 -18 -15 -24 -15 -21 0 -95 -94 -83 -106 3 -3 23
12 45 34 21 21 53 48 71 58 32 19 42 44 17 44 -7 0 -19 -7 -26 -15z"/>
<path d="M6308 4049 c-19 -20 -24 -49 -9 -49 5 0 12 9 16 19 3 11 13 22 21 25
8 3 12 10 9 16 -9 14 -17 11 -37 -11z"/>
<path d="M2810 4040 c0 -21 40 -38 59 -25 18 10 13 25 -8 25 -11 0 -23 5 -26
10 -10 17 -25 11 -25 -10z"/>
<path d="M2462 4028 c5 -15 28 -18 29 -3 0 6 -7 12 -17 13 -10 3 -15 -1 -12
-10z"/>
<path d="M6450 4025 c0 -10 -11 -15 -35 -15 -23 0 -37 -6 -43 -17 -21 -41 22
-59 58 -25 18 17 38 72 26 72 -3 0 -6 -7 -6 -15z"/>
<path d="M6605 4019 c-9 -29 -1 -34 24 -12 26 22 27 33 2 33 -11 0 -23 -9 -26
-21z"/>
<path d="M2900 3995 c0 -8 7 -15 15 -15 8 0 15 7 15 15 0 8 -7 15 -15 15 -8 0
-15 -7 -15 -15z"/>
<path d="M6510 3995 c0 -9 5 -15 11 -13 6 2 11 8 11 13 0 5 -5 11 -11 13 -6 2
-11 -4 -11 -13z"/>
<path d="M2520 3992 c0 -5 18 -25 40 -45 22 -19 40 -40 40 -46 0 -6 7 -11 15
-11 8 0 15 7 15 15 0 8 -7 15 -15 15 -8 0 -15 5 -15 10 0 21 -44 70 -62 70
-10 0 -18 -4 -18 -8z"/>
<path d="M6646 3979 c-17 -17 -17 -19 -2 -25 9 -3 16 -17 16 -30 0 -28 6 -30
26 -10 18 18 18 33 0 43 -8 4 -15 15 -17 24 -4 14 -6 14 -23 -2z"/>
<path d="M6280 3976 c0 -9 7 -16 16 -16 17 0 14 22 -4 28 -7 2 -12 -3 -12 -12z"/>
<path d="M2392 3969 c2 -7 10 -15 17 -17 8 -3 12 1 9 9 -2 7 -10 15 -17 17 -8
3 -12 -1 -9 -9z"/>
<path d="M2687 3921 c-51 -53 -71 -91 -49 -91 4 0 23 18 42 41 18 23 51 52 72
66 44 29 48 43 15 43 -16 0 -43 -20 -80 -59z"/>
<path d="M2835 3969 c-4 -6 2 -13 14 -16 12 -3 21 -12 21 -19 0 -17 16 -19 25
-3 8 12 -23 49 -41 49 -7 0 -16 -5 -19 -11z"/>
<path d="M2335 3939 c-10 -15 3 -25 16 -12 7 7 7 13 1 17 -6 3 -14 1 -17 -5z"/>
<path d="M6424 3891 c-16 -37 -55 -67 -68 -54 -3 4 -6 17 -6 30 0 27 -18 31
-27 6 -4 -10 -13 -24 -20 -31 -23 -24 -16 -45 13 -38 18 5 32 2 44 -9 16 -15
19 -15 34 0 9 9 16 21 16 26 0 10 10 24 43 60 18 20 17 49 -2 49 -5 0 -17 -18
-27 -39z"/>
<path d="M2749 3881 c-50 -39 -87 -98 -91 -145 -2 -16 3 -31 10 -33 6 -3 12 3
12 13 0 33 42 100 86 134 42 33 53 53 37 63 -5 3 -29 -11 -54 -32z"/>
<path d="M6236 3879 c-15 -22 -26 -42 -23 -45 6 -6 77 65 77 77 0 22 -27 5
-54 -32z"/>
<path d="M2298 3889 c-17 -18 -17 -19 2 -19 13 0 20 7 20 20 0 24 0 24 -22 -1z"/>
<path d="M2546 3893 c-10 -11 -7 -33 5 -33 7 0 18 -8 25 -17 13 -17 13 -17 14
0 0 9 -4 17 -10 17 -5 0 -10 6 -10 14 0 17 -14 28 -24 19z"/>
<path d="M2890 3875 c0 -11 7 -15 23 -13 12 2 22 8 22 13 0 6 -10 11 -22 13
-16 2 -23 -2 -23 -13z"/>
<path d="M6685 3880 c-6 -9 33 -70 44 -70 10 0 34 61 27 67 -3 3 -8 -2 -12
-11 -8 -20 -34 -21 -34 -2 0 19 -17 29 -25 16z"/>
<path d="M2353 3863 c-24 -16 -31 -43 -13 -43 6 0 14 8 17 18 4 9 14 22 22 29
23 18 0 15 -26 -4z"/>
<path d="M2965 3845 c-6 -9 -27 -17 -47 -18 -52 -4 -56 -13 -7 -21 33 -5 44
-3 55 11 12 16 19 43 11 43 -1 0 -7 -7 -12 -15z"/>
<path d="M2475 3841 c-3 -5 -19 -12 -35 -16 -17 -4 -30 -11 -30 -17 0 -11 58
-1 76 13 8 6 14 4 18 -6 6 -17 26 -20 26 -4 0 12 -29 38 -42 39 -4 0 -9 -4
-13 -9z"/>
<path d="M2757 3788 c-36 -42 -37 -45 -37 -121 0 -59 3 -78 13 -75 7 3 13 29
15 71 3 63 5 68 47 110 25 24 42 47 38 50 -16 16 -41 4 -76 -35z"/>
<path d="M6461 3821 c-7 -5 -12 -14 -10 -20 3 -6 9 -7 18 -2 7 5 12 14 10 20
-3 6 -9 7 -18 2z"/>
<path d="M2600 3793 c0 -41 16 -61 23 -31 11 38 8 58 -8 58 -10 0 -15 -10 -15
-27z"/>
<path d="M2992 3785 c-5 -9 -24 -17 -47 -18 -57 -4 -56 -25 1 -23 36 1 50 6
61 23 9 13 10 23 4 27 -5 4 -14 -1 -19 -9z"/>
<path d="M6564 3785 c-7 -17 4 -37 17 -30 12 8 12 45 -1 45 -6 0 -13 -7 -16
-15z"/>
<path d="M6746 3791 c-8 -12 32 -56 42 -46 4 4 1 10 -5 12 -7 3 -13 11 -13 18
0 17 -17 28 -24 16z"/>
<path d="M2541 3773 c0 -10 4 -27 9 -38 7 -16 9 -13 9 18 1 20 -3 37 -9 37 -5
0 -10 -8 -9 -17z"/>
<path d="M6500 3771 c0 -12 6 -21 16 -21 9 0 14 7 12 17 -5 25 -28 28 -28 4z"/>
<path d="M6192 3753 c-12 -13 -22 -27 -22 -30 0 -3 -8 -12 -17 -19 -17 -12
-17 -13 1 -20 13 -5 22 -2 28 11 6 9 19 26 29 36 11 11 19 23 19 28 0 21 -16
18 -38 -6z"/>
<path d="M6270 3771 c0 -14 23 -28 59 -35 55 -10 63 -21 55 -86 -5 -45 -3 -60
10 -72 11 -11 16 -34 16 -71 0 -34 5 -59 14 -66 7 -6 16 -30 19 -52 4 -34 34
-76 45 -64 2 2 -8 37 -22 78 -14 42 -26 86 -26 99 0 13 -7 36 -15 52 -17 33
-20 97 -4 113 18 18 7 58 -18 61 -12 2 -25 12 -28 22 -4 12 -12 16 -25 13 -11
-3 -33 0 -50 5 -16 6 -30 7 -30 3z"/>
<path d="M2396 3732 c-3 -6 -1 -14 5 -17 15 -10 25 3 12 16 -7 7 -13 7 -17 1z"/>
<path d="M2475 3714 c16 -25 16 -28 1 -39 -16 -12 -23 -55 -8 -55 20 1 30 20
33 65 4 47 2 50 -20 53 l-25 4 19 -28z"/>
<path d="M2800 3718 c-8 -13 -16 -45 -17 -73 -2 -31 -8 -52 -18 -58 -9 -4 -13
-12 -10 -18 9 -14 25 -11 25 6 0 8 7 15 15 15 8 0 15 -7 15 -15 0 -8 7 -15 15
-15 8 0 15 5 15 10 0 6 -7 13 -15 16 -23 9 -19 80 5 111 11 14 20 30 20 34 0
18 -36 8 -50 -13z"/>
<path d="M3022 3718 c-6 -6 -28 -12 -48 -12 -21 -1 -39 -7 -41 -13 -3 -10 11
-13 51 -13 31 0 56 4 56 9 0 5 3 16 6 25 7 19 -7 21 -24 4z"/>
<path d="M6600 3710 c0 -11 5 -20 10 -20 6 0 10 9 10 20 0 11 -4 20 -10 20 -5
0 -10 -9 -10 -20z"/>
<path d="M6250 3685 c-12 -23 -12 -28 0 -35 8 -6 20 -10 26 -10 7 0 15 -11 18
-25 4 -16 13 -25 26 -25 39 0 35 46 -6 56 -15 4 -24 14 -26 32 -4 35 -21 38
-38 7z"/>
<path d="M6750 3697 c0 -8 9 -22 20 -32 11 -10 20 -13 20 -7 0 7 -4 12 -10 12
-5 0 -10 9 -10 20 0 11 -4 20 -10 20 -5 0 -10 -6 -10 -13z"/>
<path d="M2558 3689 c-11 -6 -18 -22 -18 -39 0 -38 18 -39 26 -2 3 15 7 33 10
40 4 14 4 14 -18 1z"/>
<path d="M2660 3640 c0 -29 4 -40 15 -40 16 0 19 20 9 58 -10 36 -24 25 -24
-18z"/>
<path d="M6500 3645 c0 -25 -4 -35 -15 -35 -13 0 -15 -11 -13 -62 2 -38 8 -63
16 -66 9 -3 12 13 12 56 0 44 4 61 15 66 9 3 15 19 15 41 0 24 -4 35 -15 35
-10 0 -15 -11 -15 -35z"/>
<path d="M2857 3663 c-9 -9 -9 -43 1 -43 4 0 15 12 25 25 17 24 17 25 -1 25
-10 0 -22 -3 -25 -7z"/>
<path d="M6566 3644 c-7 -28 -1 -44 18 -44 8 0 11 10 8 30 -6 40 -18 46 -26
14z"/>
<path d="M2361 3625 c-15 -17 -18 -25 -9 -25 12 0 48 33 48 45 0 12 -17 3 -39
-20z"/>
<path d="M2600 3631 c0 -11 5 -23 10 -26 6 -3 10 1 10 9 0 9 0 19 1 23 0 4 -4
9 -10 11 -6 2 -11 -5 -11 -17z"/>
<path d="M2977 3643 c-14 -13 -6 -23 18 -23 16 0 25 6 25 15 0 15 -31 21 -43
8z"/>
<path d="M3050 3635 c0 -8 7 -15 15 -15 8 0 15 7 15 15 0 8 -7 15 -15 15 -8 0
-15 -7 -15 -15z"/>
<path d="M6640 3642 c0 -5 7 -17 15 -28 14 -18 14 -18 15 9 0 17 -5 27 -15 27
-8 0 -15 -4 -15 -8z"/>
<path d="M6720 3635 c0 -8 4 -15 9 -15 5 0 12 -11 15 -25 4 -14 11 -25 16 -25
15 0 12 9 -11 46 -23 37 -29 41 -29 19z"/>
<path d="M6206 3612 c-6 -10 33 -72 45 -72 14 0 11 28 -7 55 -17 26 -29 31
-38 17z"/>
<path d="M2870 3575 c0 -17 5 -25 13 -22 6 2 12 12 12 22 0 10 -6 20 -12 23
-8 2 -13 -6 -13 -23z"/>
<path d="M3023 3593 c-16 -6 -17 -39 -3 -48 13 -8 40 13 40 30 0 15 -19 24
-37 18z"/>
<path d="M2630 3575 c0 -8 7 -15 15 -15 8 0 15 7 15 15 0 8 -7 15 -15 15 -8 0
-15 -7 -15 -15z"/>
<path d="M3097 3583 c-12 -3 -16 -11 -12 -23 4 -13 -1 -22 -15 -30 -21 -11
-27 -35 -10 -45 5 -3 19 -1 31 5 15 9 20 18 16 37 -3 15 1 27 9 30 8 3 14 11
14 19 0 14 -2 15 -33 7z"/>
<path d="M6534 3568 c3 -13 6 -30 6 -39 0 -9 7 -20 16 -23 22 -8 30 0 17 16
-6 7 -13 25 -17 41 -3 15 -11 27 -17 27 -7 0 -9 -9 -5 -22z"/>
<path d="M6686 3582 c-9 -15 31 -88 64 -118 14 -12 26 -21 28 -19 3 3 -44 88
-69 125 -10 16 -18 20 -23 12z"/>
<path d="M6617 3563 c15 -46 54 -123 62 -123 5 0 11 -10 15 -23 6 -26 42 -67
58 -67 6 0 4 8 -5 18 -10 10 -17 23 -17 29 0 6 -7 17 -16 24 -9 8 -25 32 -35
55 -9 23 -22 45 -28 48 -6 4 -11 18 -11 32 0 14 -6 24 -15 24 -9 0 -12 -6 -8
-17z"/>
<path d="M6147 3563 c-12 -11 -8 -22 14 -34 31 -16 52 7 25 27 -22 16 -30 17
-39 7z"/>
<path d="M6085 3547 c-4 -10 -5 -21 -1 -24 10 -10 18 4 13 24 -4 17 -4 17 -12
0z"/>
<path d="M2900 3511 c0 -12 -6 -21 -15 -21 -8 0 -15 -9 -15 -19 0 -29 17 -34
24 -7 3 13 15 26 27 29 24 6 21 30 -4 35 -12 2 -17 -3 -17 -17z"/>
<path d="M3143 3503 c-4 -10 -12 -22 -20 -26 -14 -8 -19 -67 -5 -67 18 1 49
48 50 78 1 34 -14 43 -25 15z"/>
<path d="M6200 3491 c0 -10 7 -24 15 -31 10 -8 15 -31 15 -66 0 -56 14 -79 24
-41 11 42 7 107 -8 113 -8 3 -16 14 -19 25 -7 24 -27 25 -27 0z"/>
<path d="M6356 3491 c-12 -34 2 -128 20 -135 8 -3 14 -18 14 -35 0 -16 4 -33
10 -36 5 -3 21 -30 34 -60 22 -48 63 -92 74 -80 3 2 -7 20 -22 39 -14 19 -26
41 -26 49 0 8 -7 20 -15 27 -8 7 -15 20 -15 30 0 10 -6 23 -13 29 -8 6 -19 34
-25 63 -6 29 -15 71 -20 93 -8 36 -9 38 -16 16z"/>
<path d="M6042 3487 c-7 -7 -38 -43 -69 -82 -32 -38 -70 -82 -86 -98 -17 -16
-27 -33 -23 -42 9 -24 25 -17 47 19 11 19 26 37 34 40 8 3 15 12 15 21 0 9 14
21 31 27 24 8 29 15 25 31 -3 13 5 29 25 49 28 28 37 49 22 48 -5 -1 -14 -6
-21 -13z"/>
<path d="M6140 3480 c0 -11 7 -23 15 -26 10 -4 15 -20 15 -45 0 -40 13 -52 24
-23 10 26 7 51 -9 64 -8 7 -15 21 -15 31 0 11 -7 19 -15 19 -8 0 -15 -9 -15
-20z"/>
<path d="M6296 3472 c-3 -6 -5 -42 -4 -81 2 -57 5 -71 18 -71 13 0 15 12 12
73 -4 70 -13 99 -26 79z"/>
<path d="M6580 3468 c0 -7 11 -31 25 -53 13 -22 25 -48 25 -58 0 -19 49 -71
58 -62 3 3 0 11 -6 17 -7 7 -12 19 -12 28 0 8 -14 33 -30 54 -17 22 -30 50
-30 63 0 14 -6 23 -15 23 -8 0 -15 -6 -15 -12z"/>
<path d="M3207 3463 c-12 -11 -8 -23 8 -23 8 0 15 7 15 15 0 16 -12 20 -23 8z"/>
<path d="M2933 3431 c-34 -28 -41 -45 -23 -56 6 -3 14 5 20 19 6 16 17 26 29
26 19 0 35 23 24 34 -10 10 -16 7 -50 -23z"/>
<path d="M6510 3421 c0 -21 5 -31 15 -31 8 0 15 8 15 19 0 10 -7 24 -15 31
-13 11 -15 8 -15 -19z"/>
<path d="M6103 3416 c-13 -13 -23 -33 -23 -45 0 -12 -7 -24 -15 -27 -8 -4 -15
-14 -15 -23 0 -9 -5 -22 -11 -28 -7 -7 -9 -27 -6 -50 4 -21 10 -70 16 -108 11
-84 35 -139 76 -176 16 -15 31 -26 33 -25 1 2 -9 24 -23 50 -14 26 -25 54 -25
62 0 8 -9 31 -20 51 -16 29 -20 57 -20 124 0 73 3 89 20 104 11 10 20 25 20
34 0 9 7 27 16 40 23 32 4 45 -23 17z"/>
<path d="M3166 3405 c-6 -17 2 -45 14 -45 15 0 32 30 26 45 -7 19 -32 19 -40
0z"/>
<path d="M2714 3395 c-8 -20 4 -35 27 -35 10 0 19 -7 19 -15 0 -17 16 -20 25
-6 3 6 -3 15 -14 20 -11 6 -23 20 -26 31 -7 23 -23 26 -31 5z"/>
<path d="M3235 3400 c-8 -13 20 -24 41 -16 20 8 9 26 -16 26 -10 0 -22 -5 -25
-10z"/>
<path d="M2610 3391 c0 -12 29 -35 36 -28 4 3 -1 13 -9 22 -17 17 -27 19 -27
6z"/>
<path d="M2545 3369 c-10 -15 3 -25 16 -12 7 7 7 13 1 17 -6 3 -14 1 -17 -5z"/>
<path d="M2963 3363 c-33 -23 -29 -43 8 -43 27 0 31 -3 26 -21 -3 -11 -3 -27
-1 -34 10 -25 84 11 84 42 0 17 -9 17 -30 -2 -15 -14 -19 -13 -35 5 -17 19
-17 21 -2 38 30 33 -9 44 -50 15z"/>
<path d="M6564 3329 c4 -26 17 -51 37 -70 36 -35 47 -37 25 -4 -9 13 -16 31
-16 38 0 8 -7 20 -15 27 -8 7 -15 21 -15 31 0 11 -5 19 -11 19 -8 0 -9 -13 -5
-41z"/>
<path d="M3223 3347 c-23 -10 -31 -41 -14 -52 5 -3 22 5 36 18 22 18 25 25 14
34 -10 7 -21 7 -36 0z"/>
<path d="M3290 3335 c0 -11 7 -15 23 -13 12 2 22 8 22 13 0 6 -10 11 -22 13
-16 2 -23 -2 -23 -13z"/>
<path d="M6113 3304 c-11 -30 4 -181 21 -205 9 -13 16 -30 16 -39 0 -9 14 -31
32 -50 27 -30 33 -32 36 -17 2 10 -3 26 -12 36 -9 10 -16 23 -16 29 0 7 -4 12
-10 12 -5 0 -12 17 -15 38 -3 20 -10 45 -16 54 -5 10 -9 49 -9 88 0 66 -12 91
-27 54z"/>
<path d="M2787 3304 c-14 -14 -7 -44 14 -54 11 -7 22 -10 23 -8 6 8 -31 68
-37 62z"/>
<path d="M6490 3306 c0 -32 51 -116 72 -116 9 0 -10 48 -29 71 -7 8 -13 23
-13 32 0 9 -7 17 -15 17 -8 0 -15 -2 -15 -4z"/>
<path d="M2937 3286 c-3 -8 -2 -27 3 -43 8 -26 8 -25 9 15 1 43 -3 52 -12 28z"/>
<path d="M3357 3294 c-14 -14 -7 -35 11 -32 9 2 17 10 17 17 0 16 -18 25 -28
15z"/>
<path d="M6263 3235 c6 -64 22 -99 65 -142 l22 -22 -7 27 c-3 15 -17 47 -30
71 -12 24 -23 56 -23 72 0 35 -9 59 -23 59 -6 0 -8 -23 -4 -65z"/>
<path d="M3260 3265 c0 -27 16 -32 43 -11 26 20 21 36 -13 36 -25 0 -30 -4
-30 -25z"/>
<path d="M5967 3274 c-10 -10 -9 -56 2 -73 8 -12 11 -9 17 13 7 29 -6 72 -19
60z"/>
<path d="M6181 3240 c0 -71 56 -190 89 -190 14 0 13 1 -15 54 -14 26 -28 64
-31 84 -3 21 -14 49 -25 63 l-19 24 1 -35z"/>
<path d="M5793 3220 c-37 -43 -42 -63 -15 -53 30 11 62 47 62 71 0 31 -10 27
-47 -18z"/>
<path d="M6340 3253 c0 -32 26 -85 60 -123 l41 -45 -20 45 c-10 25 -26 59 -35
75 -9 17 -16 36 -16 43 0 6 -7 12 -15 12 -8 0 -15 -3 -15 -7z"/>
<path d="M3052 3232 c-37 -20 -33 -32 11 -32 25 0 29 -3 24 -22 -4 -12 -3 -34
0 -47 6 -25 6 -25 14 -3 13 35 39 28 39 -10 0 -18 4 -39 9 -46 12 -20 23 12
25 72 1 52 -17 73 -39 43 -9 -12 -14 -14 -23 -5 -16 16 -15 28 5 50 15 17 15
18 -8 18 -13 -1 -39 -9 -57 -18z"/>
<path d="M3417 3232 c-10 -10 -14 -22 -10 -25 13 -14 31 -7 47 18 16 24 15 25
-2 25 -10 0 -26 -8 -35 -18z"/>
<path d="M3320 3210 c0 -23 9 -25 44 -9 32 15 24 29 -15 29 -22 0 -29 -5 -29
-20z"/>
<path d="M5905 3164 c3 -20 13 -43 21 -51 8 -8 14 -24 14 -36 0 -18 2 -19 10
-7 16 25 11 83 -9 108 -29 34 -44 28 -36 -14z"/>
<path d="M2879 3176 c-2 -3 -3 -23 -1 -45 4 -36 6 -39 23 -28 10 6 19 16 19
22 -1 14 -35 57 -41 51z"/>
<path d="M3466 3167 c-6 -4 -27 -5 -47 -1 -24 3 -40 1 -44 -6 -9 -14 14 -32
30 -22 5 4 55 7 109 7 67 0 101 4 103 12 5 13 -132 23 -151 10z"/>
<path d="M3020 3161 c0 -5 3 -17 6 -26 5 -13 8 -14 15 -3 13 20 11 38 -6 38
-8 0 -15 -4 -15 -9z"/>
<path d="M5605 3159 c-4 -6 -5 -13 -2 -16 7 -7 27 6 27 18 0 12 -17 12 -25 -2z"/>
<path d="M5723 3147 c-28 -12 -30 -37 -4 -37 11 0 21 9 24 22 8 27 7 28 -20
15z"/>
<path d="M5840 3125 c-10 -26 -9 -32 9 -44 15 -10 21 -25 22 -55 0 -22 4 -50
9 -61 7 -18 8 -18 15 8 9 35 1 127 -12 136 -5 3 -15 15 -21 26 -10 19 -11 18
-22 -10z"/>
<path d="M3197 3120 c-6 -24 7 -88 22 -103 13 -13 41 -1 41 18 0 8 -8 23 -19
34 -12 12 -17 27 -14 45 6 31 -22 37 -30 6z"/>
<path d="M3272 3100 c0 -19 2 -27 5 -17 2 9 2 25 0 35 -3 9 -5 1 -5 -18z"/>
<path d="M2957 3104 c-9 -9 23 -54 38 -54 7 0 16 -7 19 -16 4 -11 14 -14 35
-9 22 5 32 2 39 -12 13 -22 26 -11 18 15 -5 14 -13 18 -31 14 -17 -3 -27 1
-31 12 -4 10 -18 16 -35 16 -22 0 -29 5 -29 20 0 20 -11 26 -23 14z"/>
<path d="M3445 3099 c-10 -15 1 -23 20 -15 9 3 13 10 10 16 -8 13 -22 13 -30
-1z"/>
<path d="M3510 3100 c-18 -11 -11 -19 20 -22 16 -2 25 3 28 15 4 19 -23 23
-48 7z"/>
<path d="M5655 3080 c-10 -11 -15 -20 -11 -20 11 0 39 30 34 36 -3 2 -13 -5
-23 -16z"/>
<path d="M3598 3084 c-21 -21 -6 -34 37 -34 32 0 45 -4 45 -14 0 -8 -7 -17
-16 -20 -9 -3 -14 -15 -12 -28 4 -30 22 -25 26 7 3 22 8 25 43 25 21 0 39 -4
39 -10 0 -5 5 -10 12 -10 11 0 117 -67 128 -81 3 -4 15 -9 28 -13 23 -8 32
-46 10 -46 -6 0 -9 -2 -7 -5 3 -2 20 1 37 7 28 11 34 10 53 -10 23 -25 42 -25
47 1 2 10 -3 17 -12 17 -9 0 -24 9 -33 20 -10 11 -23 20 -31 20 -7 0 -28 11
-46 25 -18 14 -37 25 -43 25 -6 0 -23 12 -39 28 -16 15 -45 34 -64 43 -19 9
-51 24 -70 33 -41 19 -122 31 -132 20z"/>
<path d="M5766 3077 c-18 -13 -18 -15 5 -35 12 -12 29 -22 36 -22 15 0 18 -26
3 -35 -12 -7 -4 -25 11 -25 5 0 9 18 9 40 0 22 -4 40 -10 40 -5 0 -12 11 -16
25 -7 29 -13 30 -38 12z"/>
<path d="M5302 3017 c-18 -18 -32 -38 -32 -45 0 -7 -7 -12 -15 -12 -8 0 -15
-7 -15 -15 0 -20 12 -19 32 3 8 9 30 30 47 45 29 27 41 57 23 57 -4 0 -22 -15
-40 -33z"/>
<path d="M5690 3025 c0 -13 8 -28 17 -34 13 -7 18 -23 19 -58 4 -161 3 -156
23 -150 23 6 71 -36 71 -61 0 -10 9 -25 20 -35 27 -23 25 -4 -5 58 -14 28 -28
67 -32 89 l-6 39 -14 -28 c-11 -20 -18 -24 -26 -16 -12 12 -14 115 -3 142 4
10 -3 28 -21 47 -33 38 -43 40 -43 7z"/>
<path d="M3362 3029 c2 -6 8 -10 13 -10 5 0 11 4 13 10 2 6 -4 11 -13 11 -9 0
-15 -5 -13 -11z"/>
<path d="M5581 3030 c-2 -8 -4 -28 -5 -45 -1 -16 -5 -39 -9 -50 -5 -15 -1 -23
14 -30 20 -9 22 -19 23 -110 1 -78 5 -106 19 -125 9 -13 17 -32 17 -41 0 -22
31 -81 48 -92 6 -4 12 -15 12 -23 0 -17 38 -53 55 -54 6 0 6 3 0 8 -17 12 -45
60 -45 77 0 8 -4 15 -9 15 -5 0 -19 28 -31 63 -13 34 -27 66 -32 72 -4 5 -8
57 -8 116 0 95 -2 109 -19 121 -14 10 -21 29 -24 64 -2 27 -5 42 -6 34z"/>
<path d="M3292 3013 c-12 -22 -5 -43 14 -43 8 0 14 10 14 24 0 31 -16 42 -28
19z"/>
<path d="M3590 3005 c0 -9 5 -15 11 -13 6 2 11 8 11 13 0 5 -5 11 -11 13 -6 2
-11 -4 -11 -13z"/>
<path d="M5634 2995 c-5 -20 -3 -31 8 -39 11 -8 17 -41 23 -119 4 -59 11 -107
15 -107 5 0 12 -20 16 -45 3 -25 10 -45 14 -45 4 0 13 -13 19 -30 5 -16 15
-30 20 -30 6 0 11 -8 12 -17 0 -10 3 -13 5 -6 3 6 -6 36 -20 66 -14 30 -26 63
-26 73 0 11 -7 30 -16 42 -12 17 -16 50 -18 120 -1 81 -5 103 -23 132 l-22 34
-7 -29z"/>
<path d="M6016 2983 c7 -43 43 -103 62 -103 17 0 15 27 -7 69 -11 20 -22 44
-25 54 -3 9 -12 17 -21 17 -13 0 -15 -7 -9 -37z"/>
<path d="M2700 2973 c0 -43 5 -41 13 5 4 18 2 32 -3 32 -6 0 -10 -16 -10 -37z"/>
<path d="M3232 2974 c4 -21 22 -23 26 -1 2 10 -3 17 -13 17 -10 0 -15 -6 -13
-16z"/>
<path d="M3423 2975 c-3 -9 -3 -19 1 -22 7 -7 36 16 36 28 0 15 -30 10 -37 -6z"/>
<path d="M5148 2955 c-21 -18 -38 -38 -38 -44 0 -19 -41 -23 -61 -5 -18 16
-20 16 -41 -2 -53 -47 -69 -67 -64 -81 5 -11 13 -9 39 11 19 14 43 26 55 26
11 0 24 5 27 10 3 6 22 10 41 10 19 0 34 4 34 9 0 5 9 12 19 16 10 3 21 16 24
28 2 12 8 30 12 40 11 27 -6 20 -47 -18z"/>
<path d="M5512 2964 c2 -15 9 -29 16 -32 10 -3 13 4 10 24 -2 15 -9 29 -16 32
-10 3 -13 -4 -10 -24z"/>
<path d="M2782 2960 c-10 -17 -10 -20 3 -20 8 0 15 9 15 20 0 11 -1 20 -3 20
-1 0 -8 -9 -15 -20z"/>
<path d="M3326 2948 c-3 -13 -6 -54 -6 -92 0 -61 2 -67 16 -55 11 9 14 22 9
45 -7 42 3 84 21 84 19 0 18 26 -2 34 -25 10 -31 7 -38 -16z"/>
<path d="M3730 2960 c-11 -7 -12 -12 -3 -21 14 -14 46 -4 41 13 -6 16 -20 19
-38 8z"/>
<path d="M3024 2947 c-9 -24 6 -44 18 -22 7 11 6 21 -1 28 -7 7 -12 6 -17 -6z"/>
<path d="M5456 2953 c-12 -12 -6 -41 10 -47 10 -4 14 -16 12 -38 -3 -36 -21
-44 -26 -12 -7 43 -12 47 -31 23 -14 -17 -16 -29 -10 -41 7 -13 4 -20 -12 -28
-13 -7 -18 -17 -15 -27 4 -9 -1 -24 -10 -34 -15 -17 -15 -19 0 -25 11 -4 16
-18 16 -44 0 -20 9 -63 20 -95 11 -32 20 -66 20 -75 0 -10 7 -23 15 -30 8 -7
15 -23 15 -35 0 -13 7 -25 15 -29 8 -3 15 -15 15 -26 0 -11 4 -20 9 -20 5 0
18 -16 30 -35 11 -19 25 -35 31 -35 17 0 11 29 -11 48 -11 9 -34 46 -50 82
-17 36 -36 77 -44 91 -8 14 -14 53 -14 86 0 33 -5 70 -12 81 -11 17 -10 26 1
49 7 15 12 34 11 41 -3 15 17 42 30 42 5 0 9 -18 9 -40 0 -22 4 -40 9 -40 9 0
14 27 23 109 2 14 8 26 14 28 8 3 13 -34 16 -114 3 -82 10 -128 21 -150 10
-18 17 -39 17 -47 0 -19 70 -136 81 -136 5 0 9 -6 9 -12 1 -14 48 -53 55 -46
3 2 -9 20 -25 40 -35 42 -92 152 -115 221 -9 27 -16 82 -17 130 0 128 -3 134
-49 141 -30 5 -39 11 -39 26 0 20 -13 33 -24 23z"/>
<path d="M3240 2929 c0 -8 6 -21 12 -27 10 -10 10 -17 0 -33 -15 -24 -10 -34
13 -26 22 9 19 60 -5 82 -16 14 -20 15 -20 4z"/>
<path d="M3802 2928 c-18 -18 -14 -28 8 -28 11 0 20 6 20 14 0 21 -15 27 -28
14z"/>
<path d="M3384 2916 c-10 -25 1 -119 14 -124 8 -2 12 8 12 34 0 20 6 42 14 48
10 8 12 18 5 34 -9 24 -37 30 -45 8z"/>
<path d="M3471 2908 c1 -13 -1 -36 -6 -51 -5 -18 -3 -33 4 -40 6 -6 12 -27 12
-46 1 -21 5 -8 9 31 5 37 11 81 15 98 6 26 4 30 -15 30 -16 0 -21 -5 -19 -22z"/>
<path d="M3090 2900 c0 -11 5 -20 10 -20 6 0 10 9 10 20 0 11 -4 20 -10 20 -5
0 -10 -9 -10 -20z"/>
<path d="M5840 2878 c0 -42 13 -78 24 -67 9 8 -6 109 -15 109 -5 0 -9 -19 -9
-42z"/>
<path d="M4885 2884 c-25 -20 -28 -27 -19 -41 15 -24 44 -29 44 -9 0 9 5 16
10 16 12 0 14 47 2 53 -4 3 -21 -6 -37 -19z"/>
<path d="M5984 2896 c-9 -24 38 -96 63 -96 21 0 15 23 -18 68 -34 46 -37 48
-45 28z"/>
<path d="M3855 2890 c-8 -12 20 -24 35 -15 5 3 10 10 10 16 0 12 -37 12 -45
-1z"/>
<path d="M3534 2866 c-9 -23 0 -109 12 -113 6 -2 18 7 27 21 15 22 15 27 0 65
-16 42 -30 51 -39 27z"/>
<path d="M4113 2853 c-17 -35 -16 -43 2 -43 8 0 15 7 15 15 0 8 7 15 15 15 9
0 18 -7 21 -15 4 -9 19 -15 35 -15 22 0 29 5 29 20 0 15 -7 20 -29 20 -16 0
-31 6 -35 15 -9 24 -40 17 -53 -12z"/>
<path d="M4770 2865 c-7 -8 -19 -15 -26 -15 -8 0 -14 -9 -14 -20 0 -30 -38
-26 -50 6 -12 30 -34 27 -38 -4 -2 -15 2 -22 12 -22 9 0 16 -7 16 -15 0 -9 9
-15 25 -15 14 0 28 7 31 15 7 17 34 21 34 5 0 -5 9 -10 20 -10 11 0 20 5 20
10 0 6 -7 10 -15 10 -8 0 -15 9 -15 21 0 16 4 19 20 14 16 -5 20 -2 20 14 0
24 -22 28 -40 6z"/>
<path d="M3637 2863 c-4 -3 -7 -15 -7 -26 0 -16 3 -17 15 -7 8 7 15 19 15 26
0 15 -12 19 -23 7z"/>
<path d="M2870 2836 c0 -8 5 -18 10 -21 6 -3 10 3 10 14 0 12 -4 21 -10 21 -5
0 -10 -6 -10 -14z"/>
<path d="M3150 2825 c0 -17 5 -25 13 -22 6 2 12 12 12 22 0 10 -6 20 -12 23
-8 2 -13 -6 -13 -23z"/>
<path d="M4550 2837 c1 -16 36 -57 49 -57 6 0 20 -5 31 -12 10 -7 22 -9 26 -6
8 9 -45 58 -62 58 -8 0 -14 4 -14 9 0 5 -7 11 -15 15 -8 3 -15 0 -15 -7z"/>
<path d="M4290 2826 c0 -9 -12 -16 -27 -18 -34 -4 -37 -22 -5 -26 13 -2 25 3
28 12 8 20 43 21 50 1 4 -8 18 -15 34 -15 16 0 30 -7 34 -15 3 -8 15 -15 26
-15 11 0 20 7 20 15 0 8 -9 15 -20 15 -10 0 -23 6 -27 13 -11 17 -71 47 -94
47 -10 0 -19 -6 -19 -14z"/>
<path d="M4430 2829 c0 -15 42 -48 61 -49 9 0 19 -7 23 -15 6 -17 41 -20 51
-6 3 6 -5 15 -17 22 -13 7 -25 15 -28 19 -7 10 -67 40 -80 40 -5 0 -10 -5 -10
-11z"/>
<path d="M4820 2821 c0 -11 9 -21 22 -24 27 -8 28 -7 17 21 -10 27 -39 29 -39
3z"/>
<path d="M3085 2808 c-9 -22 4 -43 17 -30 7 7 7 16 0 29 -10 17 -11 17 -17 1z"/>
<path d="M3690 2808 c0 -7 -4 -19 -9 -27 -8 -12 -12 -12 -25 -2 -8 7 -20 10
-26 6 -17 -11 -11 -32 15 -49 22 -14 25 -15 25 -1 0 8 9 23 20 32 21 18 27 53
10 53 -5 0 -10 -6 -10 -12z"/>
<path d="M5280 2791 c0 -17 5 -31 10 -31 6 0 10 11 10 24 0 14 -4 28 -10 31
-6 4 -10 -7 -10 -24z"/>
<path d="M3776 2801 c-9 -14 4 -41 20 -41 9 0 14 -11 14 -30 0 -16 5 -30 10
-30 6 0 10 -9 10 -20 0 -11 7 -23 15 -26 8 -4 15 -12 15 -20 0 -8 5 -14 10
-14 17 0 12 16 -25 84 -19 36 -35 74 -35 86 0 20 -24 28 -34 11z"/>
<path d="M5960 2788 c0 -14 50 -68 63 -68 4 0 5 10 1 23 -12 39 -64 76 -64 45z"/>
<path d="M5217 2784 c-12 -12 -8 -64 6 -64 6 0 20 -14 29 -30 22 -39 38 -38
38 1 0 22 -6 32 -19 36 -10 2 -24 18 -32 34 -8 17 -18 27 -22 23z"/>
<path d="M3145 2757 c-8 -30 0 -47 14 -31 4 5 5 20 1 34 l-7 25 -8 -28z"/>
<path d="M3410 2751 c0 -21 -5 -31 -15 -31 -8 0 -15 -7 -15 -15 0 -8 7 -15 15
-15 8 0 15 7 15 15 0 8 7 15 15 15 8 0 15 -7 15 -15 0 -8 7 -15 15 -15 9 0 15
-9 15 -25 0 -16 6 -25 15 -25 8 0 15 6 15 14 0 7 -7 19 -15 26 -8 7 -15 18
-15 26 0 7 -6 17 -14 21 -8 4 -15 17 -17 27 -7 33 -29 31 -29 -3z"/>
<path d="M5127 2774 c-4 -4 -7 -17 -7 -29 0 -12 -3 -25 -7 -28 -3 -4 -8 -58
-10 -119 -3 -83 0 -131 13 -183 19 -77 65 -161 93 -170 10 -3 22 -21 27 -42 5
-20 15 -39 23 -41 19 -6 6 59 -14 71 -8 4 -15 13 -15 19 0 6 -10 25 -23 42
-33 43 -55 92 -63 135 -4 20 -10 41 -15 46 -13 17 -7 116 8 122 13 5 14 68 1
89 -4 6 -2 25 4 42 12 31 1 62 -15 46z"/>
<path d="M3204 2735 c-3 -20 -4 -39 0 -42 9 -9 13 -2 19 40 7 47 -10 49 -19 2z"/>
<path d="M5067 2753 c-4 -11 -14 -24 -22 -27 -8 -3 -15 -17 -15 -31 0 -14 -7
-37 -16 -50 -14 -21 -14 -28 -3 -42 9 -11 14 -45 15 -102 0 -47 4 -94 8 -103
18 -41 26 -11 26 96 0 89 -3 116 -15 126 -8 7 -15 18 -15 25 0 7 7 15 15 19 8
3 15 16 15 29 0 13 5 28 11 34 6 6 9 19 7 29 -4 17 -5 17 -11 -3z"/>
<path d="M3283 2742 c-15 -10 -29 -72 -16 -72 5 0 15 15 23 33 7 17 15 35 18
40 5 9 -10 9 -25 -1z"/>
<path d="M3710 2740 c0 -5 6 -13 13 -17 7 -4 23 -29 37 -55 13 -26 28 -44 32
-42 14 9 9 54 -7 60 -8 4 -15 14 -15 25 0 10 -9 23 -19 29 -24 13 -41 13 -41
0z"/>
<path d="M3896 2733 c-11 -12 -6 -50 9 -63 8 -7 15 -22 15 -34 0 -12 13 -36
29 -54 16 -17 31 -39 33 -48 4 -22 28 -31 28 -11 0 9 -7 22 -15 31 -8 8 -15
22 -15 31 0 8 -7 18 -15 21 -9 4 -15 19 -15 40 0 22 -6 37 -15 40 -8 4 -15 14
-15 24 0 20 -13 33 -24 23z"/>
<path d="M4962 2700 c-26 -34 -30 -80 -7 -80 10 0 15 10 15 30 0 18 6 33 15
36 15 6 21 44 7 44 -5 0 -18 -13 -30 -30z"/>
<path d="M5477 2718 c-2 -7 0 -42 5 -78 9 -57 16 -82 42 -150 9 -22 28 -51 59
-88 15 -18 27 -39 27 -47 0 -8 5 -15 10 -15 17 0 11 36 -10 63 -11 14 -20 30
-20 35 0 5 -7 12 -15 16 -8 3 -15 14 -15 24 0 10 -3 22 -7 26 -17 17 -44 106
-50 164 -6 59 -15 77 -26 50z"/>
<path d="M3338 2714 c-5 -4 -8 -16 -8 -28 0 -14 3 -17 11 -9 6 6 9 19 7 28 -1
9 -6 13 -10 9z"/>
<path d="M3590 2708 c0 -18 44 -78 57 -78 23 0 22 18 -2 44 -14 15 -25 31 -25
37 0 5 -7 9 -15 9 -8 0 -15 -5 -15 -12z"/>
<path d="M4050 2702 c0 -24 29 -82 41 -82 18 0 9 43 -16 72 -21 25 -25 26 -25
10z"/>
<path d="M2910 2684 c0 -14 4 -23 10 -19 6 3 10 15 10 26 0 10 -4 19 -10 19
-5 0 -10 -12 -10 -26z"/>
<path d="M3060 2678 c0 -30 1 -31 15 -12 19 25 19 44 0 44 -10 0 -15 -10 -15
-32z"/>
<path d="M3977 2689 c7 -25 53 -77 53 -60 0 6 -4 19 -9 29 -5 9 -12 25 -15 35
-8 25 -35 22 -29 -4z"/>
<path d="M4880 2686 c-5 -13 -14 -27 -19 -31 -16 -9 -13 -51 4 -65 17 -14 20
-50 5 -50 -6 0 -10 -28 -10 -64 0 -36 5 -68 10 -71 6 -3 10 -18 10 -33 0 -15
7 -40 15 -56 8 -15 15 -38 15 -50 0 -24 42 -71 53 -59 11 10 8 39 -7 70 -39
80 -46 105 -52 184 -4 59 -3 93 6 108 10 20 9 23 -9 28 -24 6 -29 44 -7 62 8
6 16 21 19 31 8 29 -21 25 -33 -4z"/>
<path d="M5180 2695 c-6 -8 -9 -19 -5 -24 3 -6 6 -60 6 -121 0 -92 3 -118 19
-148 11 -20 20 -40 20 -45 0 -4 5 -13 10 -20 6 -7 33 -42 61 -79 48 -65 76
-88 62 -50 -4 9 -9 19 -13 22 -13 11 -40 60 -40 73 0 7 -13 24 -30 37 -16 14
-29 30 -30 37 0 6 -7 19 -16 28 -13 13 -16 40 -16 155 0 77 -3 142 -8 145 -4
3 -13 -2 -20 -10z"/>
<path d="M3680 2685 c0 -17 35 -55 50 -55 17 0 11 18 -14 44 -27 30 -36 32
-36 11z"/>
<path d="M3536 2682 c-3 -6 0 -14 7 -19 7 -4 16 -16 20 -25 9 -24 27 -23 27 2
0 11 -5 20 -11 20 -7 0 -17 7 -24 17 -8 10 -14 12 -19 5z"/>
<path d="M4130 2671 c0 -11 7 -27 16 -36 9 -8 16 -31 17 -50 1 -22 6 -35 14
-35 7 0 13 -7 13 -15 0 -9 7 -18 15 -21 17 -7 20 -30 6 -39 -5 -3 -16 2 -25
10 -15 16 -33 4 -21 -15 3 -5 -3 -10 -14 -10 -10 0 -22 6 -25 13 -3 9 -9 7
-19 -5 -18 -23 -33 -23 -41 -1 -5 12 -10 13 -18 5 -8 -8 -8 -15 2 -27 11 -13
8 -14 -20 -9 -30 6 -32 5 -25 -15 3 -11 3 -21 0 -21 -15 0 -85 56 -85 68 0 6
-7 12 -15 12 -8 0 -15 -7 -15 -15 0 -8 7 -15 15 -15 18 0 20 -16 2 -27 -6 -4
-18 -20 -26 -35 -13 -25 -12 -30 4 -48 16 -18 17 -24 7 -41 -19 -30 12 -25 32
6 11 16 26 25 43 25 15 0 35 7 45 16 14 13 21 14 32 5 10 -9 15 -8 19 2 2 7
25 23 51 36 25 13 48 32 51 42 7 22 21 25 28 7 4 -9 11 -6 24 10 14 18 21 20
31 10 6 -6 15 -8 19 -3 5 4 2 10 -4 12 -7 3 -13 11 -13 19 0 8 -7 17 -15 20
-8 4 -15 14 -15 23 0 9 -9 24 -20 34 -11 9 -20 27 -20 40 0 28 -28 87 -41 87
-5 0 -9 -9 -9 -19z"/>
<path d="M4791 2667 c-5 -13 -16 -29 -25 -36 -21 -18 -20 -31 2 -31 17 0 19
-10 19 -112 0 -87 3 -120 16 -145 9 -18 17 -43 17 -58 0 -14 5 -25 11 -25 5 0
15 -13 20 -29 10 -30 33 -46 50 -35 5 3 -5 29 -21 59 -17 30 -30 64 -30 77 -1
13 -7 34 -15 48 -9 17 -14 56 -15 117 0 77 -3 94 -17 102 -17 9 -17 11 0 39 9
17 17 35 17 41 0 20 -20 12 -29 -12z"/>
<path d="M5336 2681 c-10 -16 1 -182 13 -194 6 -6 11 -21 11 -33 0 -12 9 -33
20 -46 11 -14 34 -48 52 -75 40 -60 98 -113 98 -89 0 9 -6 16 -13 16 -11 0
-97 131 -97 148 0 4 -9 25 -21 46 -12 23 -19 52 -17 72 1 18 -3 39 -10 46 -6
6 -12 33 -12 59 0 46 -12 70 -24 50z"/>
<path d="M5950 2681 c0 -3 7 -17 16 -30 17 -24 39 -16 29 11 -6 16 -45 32 -45
19z"/>
<path d="M3180 2655 c1 -26 2 -28 11 -12 8 14 8 22 0 30 -8 8 -11 3 -11 -18z"/>
<path d="M4707 2673 c-4 -3 -7 -15 -7 -25 0 -26 24 -17 28 10 3 21 -8 29 -21
15z"/>
<path d="M5787 2648 c6 -32 35 -68 54 -68 6 0 2 16 -10 36 -12 19 -21 42 -21
50 0 8 -7 14 -15 14 -11 0 -13 -8 -8 -32z"/>
<path d="M3415 2660 c-7 -12 2 -30 16 -30 12 0 12 27 0 35 -5 3 -12 1 -16 -5z"/>
<path d="M3230 2646 c0 -22 17 -28 24 -10 9 22 8 24 -9 24 -8 0 -15 -6 -15
-14z"/>
<path d="M3292 2646 c1 -10 8 -17 13 -17 15 1 12 24 -3 29 -9 3 -13 -2 -10
-12z"/>
<path d="M3355 2650 c-7 -12 2 -30 16 -30 12 0 12 27 0 35 -5 3 -12 1 -16 -5z"/>
<path d="M4220 2638 c0 -12 7 -30 17 -40 9 -10 16 -33 15 -53 -1 -25 3 -35 13
-35 8 0 15 -7 15 -15 0 -8 7 -15 15 -15 21 0 19 24 -5 45 -16 14 -19 26 -15
47 4 18 2 28 -5 28 -6 0 -16 14 -21 30 -13 35 -29 40 -29 8z"/>
<path d="M4284 2638 c-4 -14 -1 -25 10 -33 9 -7 16 -20 16 -29 0 -19 39 -76
52 -76 14 0 8 38 -7 44 -8 3 -15 16 -15 30 0 13 -7 26 -15 30 -8 3 -15 17 -15
31 0 31 -16 33 -26 3z"/>
<path d="M3110 2643 c0 -5 4 -15 10 -23 11 -18 25 -7 17 15 -6 15 -27 21 -27
8z"/>
<path d="M4557 2633 c-3 -5 -7 -42 -8 -84 -3 -66 0 -78 19 -97 12 -12 22 -30
23 -39 1 -10 5 -2 9 17 7 27 5 37 -6 43 -11 7 -15 26 -13 78 2 63 -10 104 -24
82z"/>
<path d="M4644 2615 c-3 -8 -3 -19 1 -25 3 -5 -1 -13 -9 -16 -17 -7 -23 -88
-7 -98 4 -3 12 -25 16 -48 7 -42 7 -42 17 -16 6 17 6 50 0 88 -7 46 -6 67 5
86 13 26 10 44 -8 44 -5 0 -12 -7 -15 -15z"/>
<path d="M3587 2613 c-12 -11 -8 -31 7 -36 9 -4 16 3 19 19 4 23 -11 33 -26
17z"/>
<path d="M4453 2600 c-8 -12 -9 -21 -3 -25 15 -9 30 4 30 26 0 24 -12 24 -27
-1z"/>
<path d="M5276 2599 c-10 -34 -4 -94 9 -94 14 0 18 47 7 86 l-9 34 -7 -26z"/>
<path d="M3870 2601 c0 -24 87 -141 105 -141 15 0 1 30 -24 54 -16 16 -32 38
-35 50 -5 21 -46 54 -46 37z"/>
<path d="M4010 2590 c0 -11 6 -20 14 -20 7 0 16 -9 19 -20 5 -21 27 -28 27
-10 0 14 -42 70 -52 70 -4 0 -8 -9 -8 -20z"/>
<path d="M4377 2603 c-14 -13 -7 -63 8 -63 10 0 15 11 15 35 0 33 -8 43 -23
28z"/>
<path d="M3655 2589 c-4 -6 2 -19 13 -29 11 -10 22 -24 24 -31 2 -7 10 -10 16
-8 9 3 7 11 -8 26 -11 12 -20 27 -20 32 0 15 -18 23 -25 10z"/>
<path d="M3720 2590 c0 -13 28 -25 38 -16 3 4 0 11 -8 16 -20 13 -30 12 -30 0z"/>
<path d="M3800 2585 c0 -8 7 -15 15 -15 8 0 15 7 15 15 0 8 -7 15 -15 15 -8 0
-15 -7 -15 -15z"/>
<path d="M4080 2591 c0 -6 5 -11 10 -11 6 0 10 -6 10 -12 0 -7 12 -24 25 -37
29 -27 32 -11 6 34 -17 30 -51 47 -51 26z"/>
<path d="M4700 2502 c0 -62 4 -94 15 -108 8 -10 15 -30 15 -44 0 -35 15 -54
34 -47 13 5 15 11 6 26 -5 11 -10 33 -10 49 0 16 -7 46 -15 65 -8 20 -15 61
-15 92 0 42 -3 55 -15 55 -12 0 -15 -16 -15 -88z"/>
<path d="M3530 2556 c0 -9 7 -16 16 -16 9 0 14 5 12 12 -6 18 -28 21 -28 4z"/>
<path d="M4947 2564 c-13 -13 -7 -158 7 -186 8 -15 17 -41 21 -58 5 -22 12
-30 23 -28 18 4 19 15 2 93 -5 28 -14 77 -19 109 -10 59 -21 82 -34 70z"/>
<path d="M3462 2548 c6 -18 28 -21 28 -4 0 9 -7 16 -16 16 -9 0 -14 -5 -12
-12z"/>
<path d="M3420 2520 c0 -19 3 -21 12 -12 9 9 9 15 0 24 -9 9 -12 7 -12 -12z"/>
<path d="M4407 2534 c-4 -4 -7 -18 -7 -31 0 -28 23 -27 28 1 4 20 -11 40 -21
30z"/>
<path d="M4486 2518 c-9 -35 -8 -38 14 -38 11 0 20 3 20 8 0 19 -13 52 -20 52
-4 0 -10 -10 -14 -22z"/>
<path d="M3390 2471 c0 -17 37 -54 43 -44 3 5 -5 19 -19 32 -13 13 -24 18 -24
12z"/>
<path d="M4439 2451 l-24 -20 27 -1 c30 0 40 10 29 28 -6 10 -14 8 -32 -7z"/>
<path d="M5295 2446 c-18 -13 -18 -15 -2 -48 9 -20 23 -41 32 -48 8 -7 15 -21
15 -31 0 -12 7 -19 20 -19 25 0 25 2 -5 56 -14 25 -25 56 -25 69 0 31 -12 38
-35 21z"/>
<path d="M4522 2423 c-8 -14 -9 -24 -2 -28 12 -7 24 18 18 37 -3 8 -9 5 -16
-9z"/>
<path d="M4670 2351 c0 -17 4 -33 10 -36 11 -7 25 39 15 54 -12 21 -25 11 -25
-18z"/>
<path d="M3821 2326 c-21 -22 -26 -61 -8 -61 4 0 17 19 27 43 21 47 15 54 -19
18z"/>
<path d="M5070 2314 c0 -23 69 -123 97 -141 51 -34 35 9 -37 96 -11 13 -20 30
-20 36 0 7 -7 16 -16 19 -22 9 -24 8 -24 -10z"/>
<path d="M3365 2296 c-17 -12 -12 -14 45 -14 63 0 64 0 35 13 -39 18 -57 18
-80 1z"/>
<path d="M3740 2290 c0 -11 5 -20 10 -20 6 0 10 9 10 20 0 11 -4 20 -10 20 -5
0 -10 -9 -10 -20z"/>
<path d="M5380 2273 c0 -19 18 -43 31 -43 12 0 -6 53 -19 58 -7 2 -12 -5 -12
-15z"/>
<path d="M4220 2256 c0 -9 7 -16 16 -16 17 0 14 22 -4 28 -7 2 -12 -3 -12 -12z"/>
<path d="M5040 2231 c0 -29 31 -81 62 -105 51 -38 65 -32 31 13 -37 48 -93
104 -93 92z"/>
<path d="M4636 2135 c-18 -27 -21 -45 -8 -45 12 0 42 34 42 48 0 22 -18 21
-34 -3z"/>
<path d="M4996 2145 c-5 -15 85 -115 104 -115 19 0 10 19 -29 59 -21 22 -41
47 -44 56 -8 19 -23 19 -31 0z"/>
<path d="M4700 2120 c0 -13 5 -20 13 -17 6 2 12 10 12 17 0 7 -6 15 -12 18 -8
2 -13 -5 -13 -18z"/>
<path d="M5220 2123 c0 -12 5 -25 11 -28 19 -12 22 3 5 27 l-16 22 0 -21z"/>
<path d="M4930 2104 c0 -3 27 -33 60 -67 42 -43 60 -56 60 -44 0 10 -13 29
-28 42 -15 13 -34 35 -41 49 -12 22 -51 38 -51 20z"/>
<path d="M5330 2105 c0 -18 19 -40 26 -32 4 4 0 15 -9 24 -9 10 -17 13 -17 8z"/>
<path d="M5161 2065 c0 -11 11 -28 24 -38 32 -23 32 -6 0 30 -22 25 -24 26
-24 8z"/>
<path d="M4825 2050 c-8 -13 4 -32 16 -25 12 8 12 35 0 35 -6 0 -13 -4 -16
-10z"/>
<path d="M4890 2050 c0 -5 5 -10 10 -10 6 0 10 -6 10 -14 0 -8 5 -18 10 -21 6
-3 10 2 10 12 0 10 -9 24 -20 31 -12 7 -20 8 -20 2z"/>
</g>
</svg>
