<svg width="222" height="139" viewBox="0 0 222 139" fill="none" xmlns="http://www.w3.org/2000/svg">
<path d="M107.981 0.100016C103.151 0.670206 98.2654 2.60329 94.4208 5.46815C84.8442 12.6303 80.9441 25.0215 84.6776 36.4531C87.7033 45.6874 95.434 52.78 104.789 54.88C107.87 55.5753 107.426 55.5614 136.822 55.5753H164.33V69.4824V83.3895H95.2536C49.8547 83.3895 25.7326 83.4451 24.9137 83.5286C13.9491 84.7663 4.84436 92.0814 1.38844 102.428C0.222585 105.919 -0.263188 110.425 0.139309 114.055C1.62439 127.322 11.9089 137.599 24.9831 138.879C26.149 138.99 48.6333 139.018 108.328 138.99C186.274 138.948 190.146 138.934 191.534 138.698C193.935 138.281 195.92 137.794 197.835 137.154C206.801 134.15 214.254 127.642 218.39 119.2C219.667 116.6 220.278 114.931 220.958 112.261C222.082 107.769 221.999 111.426 221.999 69.6215C221.999 29.6943 222.04 31.8777 221.291 28.1784C219.153 17.6925 211.964 8.38863 202.29 3.63241C199.695 2.35296 198.029 1.74105 195.364 1.0596C190.881 -0.0668693 195.184 0.0304802 149.618 0.00266602C127.245 -0.0112411 108.55 0.0304802 107.981 0.100016ZM189.244 2.31124C196.752 3.00659 203.359 5.88536 208.911 10.8919C213.879 15.3561 217.571 21.6838 219.001 28.1367C219.833 31.8638 219.764 28.8738 219.82 68.2308C219.861 104.82 219.847 106.072 219.348 108.965C217.224 121.286 208.536 131.341 196.711 135.179C194.92 135.75 193.352 136.125 191.117 136.473C189.591 136.709 186.01 136.723 107.564 136.723C40.9581 136.723 25.3856 136.695 24.4279 136.542C18.6681 135.652 14.0046 133.372 9.95192 129.436C4.02549 123.692 1.31904 115.543 2.58205 107.31C3.40093 101.983 5.73263 97.3244 9.5633 93.3609C13.852 88.9245 19.4592 86.2682 25.6354 85.7537C26.6764 85.6702 52.6999 85.6146 96.9191 85.6146H166.551V69.4824V53.3641L137.516 53.3085C105.774 53.2668 107.967 53.3224 104.719 52.5019C96.5027 50.4158 89.6464 44.0881 86.9122 36.0359C84.1919 28.0393 85.6075 19.1388 90.6873 12.3939C92.4639 10.0297 95.2814 7.45686 97.7519 5.94099C101.013 3.93837 104.983 2.6311 108.675 2.32515C110.715 2.15826 187.425 2.14436 189.244 2.31124Z" fill="url(#paint0_linear_12_48)"/>
<defs>
<linearGradient id="paint0_linear_12_48" x1="-6.40385" y1="69.5" x2="222" y2="69.5" gradientUnits="userSpaceOnUse">
<stop stop-color="#FF7A00"/>
<stop offset="0.229005" stop-color="#BC3AB7"/>
<stop offset="0.463146" stop-color="#00FF75"/>
<stop offset="0.788456" stop-color="#3894FF"/>
<stop offset="1" stop-color="#0D6EFD"/>
</linearGradient>
</defs>
</svg>
