<svg xmlns="http://www.w3.org/2000/svg" width="512" height="512" viewBox="0 0 512 512" version="1.1">
	<path d="M 217.885 149 C 214.953 152.082, 213.325 153.001, 210.790 153.004 C 208.981 153.006, 206.059 153.886, 204.299 154.960 C 198.695 158.376, 197.676 161.733, 197 179 C 196.540 190.756, 195.984 195.273, 194.697 197.700 C 193.764 199.461, 193 202.173, 193 203.728 C 193 207.594, 190.594 210.711, 187 211.500 C 183.736 212.217, 181 215.339, 181 218.346 C 181 220.757, 167.530 233.487, 160.663 237.567 C 157.823 239.254, 154.464 242.167, 153.199 244.041 C 151.675 246.297, 149.281 248.051, 146.112 249.233 C 142.628 250.533, 140.449 252.240, 138.101 255.509 C 135.334 259.362, 134.378 260, 131.372 260 C 126.570 260, 124.344 261.405, 122.062 265.878 C 120.437 269.064, 119.124 270.051, 114.059 271.898 C 108.348 273.981, 108 274.293, 108 277.348 L 108 280.589 90.190 287.840 C 80.394 291.828, 69.782 295.769, 66.608 296.598 C 61.739 297.869, 59.930 299.046, 55.039 304.122 C 48.435 310.977, 43.761 318.864, 43.471 323.642 C 43.362 325.437, 42.494 328.546, 41.543 330.550 C 39.188 335.514, 40.213 340.121, 44.807 345.216 C 50.135 351.126, 54.830 352.952, 64.771 352.978 C 72.032 352.997, 73.534 353.325, 77.062 355.660 C 79.272 357.122, 80.725 358.644, 80.290 359.040 C 79.856 359.436, 72.361 360.977, 63.636 362.465 C 43.357 365.922, 37 368.089, 37 371.545 C 37 376.340, 78.281 378.508, 119.585 375.883 L 137.163 374.765 140.331 377.775 C 144.739 381.961, 150.205 384.481, 159.202 386.473 C 163.438 387.412, 167.426 388.809, 168.065 389.578 C 169.409 391.198, 170.299 390.800, 157.021 394.515 C 140.896 399.027, 131 403.972, 131 407.519 C 131 411.235, 142.423 414.808, 161.500 417.060 C 174.106 418.548, 210.170 418.535, 224 417.037 C 251.067 414.107, 283.008 407.669, 345.439 392.560 C 357.572 389.624, 385.950 383.079, 408.500 378.017 C 465.314 365.262, 470 364.051, 470 362.123 C 470 361.613, 468.569 360.697, 466.821 360.087 L 463.641 358.979 468.250 356.057 C 476.129 351.060, 476.840 347.279, 471.466 338.966 C 469.522 335.960, 467.770 332.600, 467.574 331.500 C 467.377 330.400, 466.679 326.800, 466.023 323.500 C 465.367 320.200, 464.700 311.875, 464.542 305 C 464.328 295.757, 463.569 289.633, 461.627 281.500 C 456.994 262.091, 449.830 237.746, 446.180 229 C 442.938 221.232, 442.575 219.365, 441.970 207.310 C 441.376 195.479, 441.009 193.523, 438.404 188.321 C 433.581 178.689, 432.929 178.500, 404.483 178.500 L 380.465 178.500 375.983 174.868 C 367.649 168.116, 359.371 164.883, 340.452 160.990 C 327.897 158.407, 324.417 158.467, 320.054 161.342 C 316.523 163.668, 316.364 163.679, 295.303 163.044 L 274.106 162.405 268.803 158.758 C 265.886 156.752, 260.953 153.946, 257.840 152.523 C 251.161 149.470, 232.369 145.022, 226.095 145.009 C 222.252 145.001, 221.206 145.510, 217.885 149 M 206.510 160.250 C 204.452 162.029, 203.730 163.860, 203.056 169 C 200.275 190.214, 201.160 195.127, 204.896 179.213 C 206.029 174.390, 207.865 167.798, 208.978 164.565 C 210.090 161.332, 211 158.532, 211 158.343 C 211 157.336, 208.798 158.271, 206.510 160.250 M 247.979 164.244 C 242.628 167.015, 238.317 174.529, 237.339 182.789 C 236.441 190.372, 238.488 189.434, 240.961 181.130 C 245.394 166.244, 250.669 164.040, 273.587 167.494 C 279.039 168.316, 284.625 168.943, 286 168.888 C 289.949 168.729, 267.273 163.355, 259.479 162.602 C 253.301 162.005, 251.920 162.203, 247.979 164.244 M 305.656 172.133 C 302.132 174.181, 301 179.231, 301 192.909 C 301 204.682, 301.753 208.581, 303.657 206.676 C 303.946 206.388, 305.222 201.280, 306.495 195.326 C 307.767 189.372, 309.920 181.463, 311.280 177.750 L 313.752 171 310.626 171.030 C 308.907 171.047, 306.670 171.543, 305.656 172.133 M 357.223 182.589 C 350.888 185.851, 347.613 191.887, 345.418 204.348 C 344.819 207.751, 344.957 208.155, 346.608 207.837 C 347.946 207.579, 348.938 205.766, 350.102 201.452 C 354.415 185.472, 358.927 183.068, 380 185.525 C 399.056 187.746, 402.671 187.360, 390.500 184.403 C 377.028 181.130, 361.681 180.293, 357.223 182.589 M 245.922 186.146 C 244.883 188.088, 244.985 188.237, 246.997 187.711 C 248.547 187.306, 249.955 187.864, 251.646 189.555 C 253.615 191.525, 254.178 191.699, 254.645 190.482 C 254.961 189.658, 254.485 187.863, 253.587 186.492 C 251.528 183.349, 247.516 183.168, 245.922 186.146 M 200.250 200.491 C 195.358 202.617, 195.717 206.586, 201.182 210.786 L 205.364 214 199.932 214.006 C 196.944 214.009, 192.826 214.476, 190.779 215.044 C 184.959 216.661, 181.492 223, 186.429 223 C 187.764 223, 189.627 223.770, 190.569 224.711 C 192.184 226.327, 191.906 226.492, 185.630 227.650 C 175.857 229.454, 168.851 235, 176.345 235 C 178.360 235, 180.373 235.755, 181.408 236.898 C 183.081 238.747, 182.894 238.805, 174.237 239.148 C 166.536 239.453, 164.791 239.869, 161.175 242.264 C 156.093 245.629, 155.887 247, 160.461 247 C 162.761 247, 164.628 247.755, 166.025 249.250 L 168.127 251.500 160.646 252.123 C 149.695 253.036, 146.829 253.745, 143.579 256.347 L 140.657 258.685 143.829 259.790 C 149.609 261.805, 147.439 263, 138 263 C 130.057 263, 128.741 263.259, 126.797 265.203 L 124.595 267.405 133.494 268.690 C 143.655 270.157, 147.911 271.370, 153.301 274.335 C 157.343 276.558, 159.297 276.141, 161.433 272.596 C 162.327 271.114, 161.617 270.029, 157.060 265.913 L 151.619 261 155.560 260.911 C 165.964 260.677, 169.586 261.166, 172.387 263.183 C 174.841 264.951, 175.397 265.042, 176.097 263.791 C 176.550 262.982, 177.793 261.242, 178.860 259.924 C 180.771 257.565, 180.771 257.488, 178.892 254.848 C 177.842 253.374, 176.716 250.832, 176.390 249.200 L 175.796 246.231 179.648 246.967 C 181.767 247.372, 185.436 248.298, 187.803 249.026 C 191.950 250.300, 192.203 250.252, 194.771 247.684 L 197.435 245.019 192.968 240.384 L 188.500 235.749 194.252 236.383 C 197.416 236.732, 201.809 237.740, 204.014 238.622 C 207.223 239.906, 208.319 239.980, 209.511 238.991 C 212.895 236.183, 209.843 231.794, 200.446 225.953 C 196.669 223.605, 196.607 223.485, 199 223.141 C 202.227 222.678, 214.520 224.827, 218.872 226.615 C 223.438 228.490, 224.735 228.364, 226.045 225.917 C 227.404 223.376, 226.018 221.602, 218.046 215.685 C 215.047 213.458, 213.092 211.469, 213.702 211.266 C 215.751 210.583, 227.449 214.128, 232.989 217.111 C 238.094 219.860, 238.566 219.946, 239.739 218.342 C 241.445 216.009, 241.367 215.589, 238.604 212.306 C 235.190 208.249, 228.401 205.161, 215.653 201.867 C 202.840 198.556, 204.384 198.694, 200.250 200.491 M 356.161 206.547 C 354.605 209.961, 354.652 210.073, 357.250 209.156 C 360.605 207.972, 362.925 208.851, 363.606 211.566 C 364.354 214.546, 366 213.772, 366 210.441 C 366 204.761, 358.353 201.735, 356.161 206.547 M 298 218.031 C 298 221, 298.461 222.204, 299.750 222.599 C 300.712 222.894, 303.525 224.090, 306 225.257 L 310.500 227.378 304.051 228.150 C 295.350 229.192, 292.103 230.662, 291.404 233.877 C 291.090 235.319, 290.688 236.988, 290.511 237.585 C 290.334 238.182, 292.298 239.211, 294.875 239.871 C 297.453 240.532, 300.898 241.953, 302.531 243.030 L 305.500 244.987 300.500 245.011 C 297.750 245.024, 292.350 245.693, 288.500 246.498 C 283.027 247.642, 280.900 248.623, 278.750 250.996 C 277.238 252.666, 276.003 254.362, 276.006 254.766 C 276.010 255.170, 278.305 255.548, 281.108 255.606 C 284.284 255.672, 286.533 256.237, 287.076 257.106 C 287.715 258.126, 287.352 258.566, 285.724 258.744 C 275.627 259.853, 269.643 261.429, 266.958 263.689 C 263.671 266.455, 263.874 268, 267.524 268 C 269.450 268, 272.019 270.404, 271.996 272.184 C 271.994 272.358, 268.056 272.500, 263.246 272.500 C 255.824 272.500, 253.932 272.853, 250.750 274.832 C 246.441 277.511, 245.955 279, 249.389 279 C 250.703 279, 252.751 279.788, 253.939 280.750 C 256.039 282.450, 255.859 282.502, 247.668 282.558 C 241.462 282.600, 238.544 283.069, 236.618 284.331 C 235.178 285.274, 234 286.404, 234 286.840 C 234 287.277, 239.863 288.600, 247.029 289.779 C 255.572 291.186, 261.818 292.808, 265.168 294.490 C 267.978 295.902, 270.332 296.931, 270.399 296.778 C 270.466 296.625, 271.353 295.510, 272.369 294.301 C 274.191 292.134, 274.168 292.041, 270.764 287.801 C 264.994 280.615, 264.994 280.609, 270.972 281.402 C 273.872 281.787, 278.418 282.927, 281.072 283.935 C 285.530 285.629, 286.005 285.645, 287.297 284.135 C 290.443 280.457, 290.299 279.866, 284.928 274.427 C 282.007 271.469, 279.874 268.793, 280.188 268.478 C 281.230 267.436, 296.686 269.883, 300.476 271.690 C 304.171 273.452, 304.219 273.447, 306.082 271.147 C 307.757 269.078, 307.810 268.537, 306.564 266.163 C 305.796 264.698, 303.105 261.790, 300.584 259.700 C 298.063 257.610, 296 255.557, 296 255.136 C 296 254.137, 306.931 254.757, 314.283 256.173 C 319.737 257.224, 320.206 257.155, 322.533 254.969 C 323.890 253.694, 325 252.105, 325 251.437 C 325 250.769, 321.358 247.472, 316.907 244.111 L 308.813 238 312.657 238.004 C 317.836 238.009, 333.328 240.579, 339.500 242.457 C 342.250 243.294, 344.597 243.983, 344.715 243.989 C 344.833 243.995, 345.427 243.070, 346.036 241.933 C 348.111 238.056, 341.889 232.380, 331.467 228.641 C 329.285 227.859, 324.350 225.085, 320.500 222.479 C 311.917 216.667, 305.913 214, 301.417 214 C 298.093 214, 298 214.109, 298 218.031 M 436.500 253.709 C 431.550 258.402, 425.270 263.517, 422.545 265.074 C 418.691 267.276, 417.969 268.051, 419.297 268.560 C 420.236 268.921, 422.241 268.935, 423.752 268.593 C 426.397 267.993, 426.425 268.027, 424.505 269.524 C 422.912 270.766, 422.783 271.248, 423.866 271.917 C 424.611 272.378, 426.184 272.546, 427.361 272.291 C 428.834 271.971, 429.103 272.110, 428.226 272.737 C 427.239 273.443, 427.411 274.062, 428.994 275.494 C 430.991 277.302, 431.100 277.279, 434.139 274.421 C 435.846 272.814, 439.928 268.405, 443.209 264.623 C 448.758 258.226, 449.128 257.495, 448.501 254.154 C 448.131 252.179, 447.304 249.351, 446.664 247.869 L 445.500 245.176 436.500 253.709 M 232.678 250.484 C 228.944 252.432, 226.570 255.305, 222.964 262.243 C 219.915 268.108, 216.944 277.795, 217.070 281.460 C 217.140 283.484, 217.147 283.484, 218 281.500 C 218.735 279.790, 218.870 279.754, 218.930 281.250 C 219.037 283.921, 222.625 283.389, 226.809 280.083 C 228.839 278.478, 232.409 276.608, 234.743 275.926 C 237.847 275.020, 238.719 274.367, 237.994 273.493 C 237.449 272.836, 236.791 270.094, 236.532 267.399 C 236.111 263.019, 236.148 262.900, 236.878 266.281 C 238.188 272.343, 240.021 275, 242.891 275 L 245.445 275 243.217 273.439 C 239.591 270.899, 237.932 266.418, 237.299 257.448 C 236.971 252.802, 236.432 249.003, 236.101 249.006 C 235.771 249.010, 234.230 249.675, 232.678 250.484 M 439.250 270.129 C 435.262 274.437, 432 278.397, 432 278.931 C 432 279.465, 428.925 283.050, 425.167 286.899 C 415.573 296.724, 412.770 302.523, 409.167 320 C 404.603 342.138, 406.856 339.638, 411.992 316.865 C 413.560 309.915, 415.749 302.452, 416.857 300.280 C 417.965 298.109, 424.083 290.532, 430.453 283.444 C 441.690 270.940, 447.716 263.314, 446.899 262.631 C 446.679 262.448, 443.238 265.822, 439.250 270.129 M 427.872 266.750 C 426.629 268.336, 426.664 268.371, 428.250 267.128 C 429.916 265.821, 430.445 265, 429.622 265 C 429.415 265, 428.627 265.788, 427.872 266.750 M 409.831 276.292 C 404.945 280.564, 384.694 291.944, 370.741 298.259 C 348.904 308.142, 341.741 304.881, 340.296 284.398 C 339.624 274.877, 338.965 274.335, 333.693 278.965 C 326.522 285.260, 321 299.635, 321 312.002 C 321 318.353, 321.464 320.557, 323.750 325.070 C 331.970 341.296, 348.170 339.048, 381.087 317.114 C 396.914 306.568, 407.906 297.802, 417.407 288.151 L 424.313 281.134 420.984 278.317 C 416.313 274.365, 414.578 273.062, 414 273.073 C 413.725 273.079, 411.849 274.527, 409.831 276.292 M 219.079 277.583 C 219.127 278.748, 219.364 278.985, 219.683 278.188 C 219.972 277.466, 219.936 276.603, 219.604 276.271 C 219.272 275.939, 219.036 276.529, 219.079 277.583 M 215.168 286.595 C 213.915 287.473, 213.027 288.837, 213.195 289.628 C 213.375 290.477, 218.651 292.848, 226.073 295.416 C 239.192 299.955, 244.339 302.224, 247.202 304.732 C 248.723 306.064, 249.286 305.987, 252.498 304.001 C 254.475 302.779, 255.932 301.266, 255.735 300.640 C 254.562 296.905, 240.054 290.323, 224.836 286.621 C 216.814 284.670, 217.912 284.673, 215.168 286.595 M 400.872 298.750 C 399.629 300.336, 399.664 300.371, 401.250 299.128 C 402.212 298.373, 403 297.585, 403 297.378 C 403 296.555, 402.179 297.084, 400.872 298.750 M 396.405 302.250 L 394.500 304.500 396.750 302.595 C 398.864 300.805, 399.455 300, 398.655 300 C 398.465 300, 397.453 301.012, 396.405 302.250 M 344.718 304.021 C 346.488 305.878, 348.105 307.196, 348.312 306.949 C 348.519 306.702, 347.071 305.183, 345.094 303.573 L 341.500 300.645 344.718 304.021 M 59 304.025 C 59 307.949, 92.012 314.068, 121 315.517 C 138.070 316.370, 143.452 317.440, 149.192 321.123 C 155.334 325.064, 156.372 324.331, 151.073 319.794 C 145.459 314.989, 141.963 314.117, 121.746 312.480 C 100.001 310.719, 87.255 308.860, 74.154 305.539 C 63.440 302.823, 59 302.380, 59 304.025 M 390 307.122 C 386.515 310.177, 386.514 310.181, 389.720 308.049 C 391.491 306.871, 393.205 305.478, 393.529 304.953 C 394.493 303.393, 393.693 303.884, 390 307.122 M 351.762 307.707 C 353.006 307.946, 354.806 307.937, 355.762 307.687 C 356.718 307.437, 355.700 307.241, 353.500 307.252 C 351.300 307.263, 350.518 307.468, 351.762 307.707 M 382.500 312.588 L 379.500 315.165 382.750 313.015 C 384.538 311.832, 386 310.669, 386 310.432 C 386 309.683, 385.577 309.944, 382.500 312.588 M 370.441 320.555 C 368.577 322.049, 368.589 322.067, 370.750 321.020 C 371.988 320.420, 373 319.720, 373 319.465 C 373 318.700, 372.481 318.921, 370.441 320.555 M 453.500 321.384 C 450.750 322.629, 442.520 325.546, 435.212 327.866 C 427.903 330.187, 418.556 333.620, 414.440 335.496 C 410.325 337.371, 401.005 340.481, 393.729 342.406 C 369.368 348.851, 333.474 361.519, 330.948 364.563 C 329.604 366.182, 330.189 375.736, 331.908 380.259 L 332.878 382.809 346.189 379.415 C 353.510 377.549, 373.225 373.068, 390 369.458 C 440.917 358.500, 464.344 351.661, 467.312 346.890 C 468.043 345.715, 467.687 343.957, 465.995 340.390 C 464.720 337.700, 463.583 335.372, 463.470 335.215 C 463.356 335.058, 460.665 335.902, 457.489 337.090 C 454.313 338.278, 444.106 341.386, 434.808 343.997 C 422.982 347.317, 417.128 349.458, 415.327 351.122 L 412.752 353.500 413.484 351 C 415.430 344.357, 416.227 343.651, 424.500 341.234 C 445.134 335.207, 457.954 330.858, 460.021 329.184 C 462.014 327.570, 462.174 326.897, 461.372 323.503 C 460.871 321.386, 460.020 319.534, 459.481 319.388 C 458.941 319.242, 456.250 320.140, 453.500 321.384 M 153.439 328.192 C 152.518 331.095, 156.191 334.037, 165.693 338.006 C 180.674 344.263, 195.466 346.541, 230.500 347.986 C 245.833 348.618, 253.826 349.364, 256.876 350.446 C 263.047 352.637, 265.156 352.392, 261.149 349.950 C 255.522 346.519, 247.428 345.199, 225 344.056 C 202.060 342.886, 193.317 341.905, 183.084 339.351 C 174.020 337.089, 163.141 332.432, 158.809 328.959 C 154.392 325.419, 154.322 325.409, 153.439 328.192 M 311.133 333.948 C 317.871 338.180, 322.685 343.554, 326.044 350.591 C 327.670 353.998, 329 357.258, 329 357.834 C 329 358.410, 329.498 359.190, 330.107 359.566 C 333.379 361.588, 327.064 345.564, 322.429 340.082 C 318.916 335.927, 311.363 330.993, 308.554 331.019 C 307.059 331.033, 307.760 331.829, 311.133 333.948 M 344.813 332.683 C 345.534 332.972, 346.397 332.936, 346.729 332.604 C 347.061 332.272, 346.471 332.036, 345.417 332.079 C 344.252 332.127, 344.015 332.364, 344.813 332.683 M 74 344.958 C 74 348.494, 94.013 352.510, 117.886 353.765 C 133.300 354.575, 134.773 354.255, 135.231 350 C 135.495 347.547, 135.358 347.496, 128 347.296 C 115.256 346.949, 78.625 344.918, 76.250 344.427 C 75.013 344.171, 74 344.410, 74 344.958 M 389.990 347.946 C 389.160 348.432, 378.976 351.982, 367.360 355.834 C 344.234 363.502, 338 366.219, 338 368.627 C 338 369.758, 338.503 369.998, 339.750 369.463 C 343.197 367.983, 379.644 355.960, 386.750 353.958 C 393.229 352.132, 394 351.654, 394 349.458 C 394 346.923, 392.622 346.403, 389.990 347.946 M 309.716 372.575 C 294.760 376.796, 277.508 379.638, 258.813 380.961 C 231.141 382.919, 193.976 381.852, 176.936 378.612 C 172.846 377.834, 169.315 377.376, 169.089 377.593 C 168.145 378.502, 172.484 381.962, 177.011 383.909 C 184.002 386.917, 202.712 391.552, 215.460 393.435 C 236.171 396.494, 254.642 397.211, 269.154 395.519 C 283.143 393.889, 299.135 390.965, 310.500 387.960 C 314.350 386.942, 319.637 385.808, 322.250 385.441 C 326.644 384.823, 327 384.560, 327 381.936 C 327 380.375, 326.513 376.826, 325.917 374.049 C 325.121 370.338, 324.393 369.033, 323.167 369.124 C 322.250 369.193, 316.197 370.745, 309.716 372.575 M 297.500 394 C 297.840 394.550, 298.316 395, 298.559 395 C 298.802 395, 299 394.550, 299 394 C 299 393.450, 298.523 393, 297.941 393 C 297.359 393, 297.160 393.450, 297.500 394 M 229.404 399.389 C 228.752 401.088, 229.629 403, 231.059 403 C 232.320 403, 232.266 399.282, 230.993 398.496 C 230.439 398.153, 229.724 398.555, 229.404 399.389 M 253 400.941 C 253 401.459, 253.450 402.160, 254 402.500 C 254.550 402.840, 255 402.416, 255 401.559 C 255 400.702, 254.550 400, 254 400 C 253.450 400, 253 400.423, 253 400.941" stroke="none" fill="black" fill-rule="evenodd"/>
</svg>