{
	"asset":{
		"generator":"Khronos glTF Blender I/O v4.0.44",
		"version":"2.0"
	},
	"scene":0,
	"scenes":[
		{
			"name":"Scene",
			"nodes":[
				20,
				21
			]
		}
	],
	"nodes":[
		{
			"mesh":0,
			"name":"BoxBottom_BoxBottom_0"
		},
		{
			"children":[
				0
			],
			"name":"BoxBottom",
			"rotation":[
				0,
				-0.7071066498756409,
				0,
				0.70710688829422
			],
			"scale":[
				0.9558851718902588,
				0.9558852314949036,
				0.9558851718902588
			]
		},
		{
			"mesh":1,
			"name":"BoxTop_BoxTop_0"
		},
		{
			"children":[
				2
			],
			"name":"BoxTop",
			"rotation":[
				0,
				-0.7052900791168213,
				0,
				0.7089188098907471
			],
			"scale":[
				0.9558852314949036,
				0.9558852314949036,
				0.9558853507041931
			]
		},
		{
			"mesh":2,
			"name":"Laces_L_MAT_Laces_L_0"
		},
		{
			"children":[
				4
			],
			"name":"Laces_L"
		},
		{
			"mesh":3,
			"name":"Shoe_L_MAT_Shoe_L_0"
		},
		{
			"children":[
				6
			],
			"name":"Shoe_L"
		},
		{
			"mesh":4,
			"name":"Sole_L_MAT_Sole_L_0"
		},
		{
			"children":[
				8
			],
			"name":"Sole_L"
		},
		{
			"children":[
				5,
				7,
				9
			],
			"name":"Nike_AJ1_L",
			"rotation":[
				0,
				-0.9978365898132324,
				0,
				0.06574349850416183
			],
			"translation":[
				-5.196296215057373,
				11.190139770507812,
				-1.0931977033615112
			]
		},
		{
			"mesh":5,
			"name":"Laces_R_MAT_Laces_R_0"
		},
		{
			"children":[
				11
			],
			"name":"Laces_R",
			"rotation":[
				0,
				0.07257482409477234,
				0,
				0.9973629713058472
			],
			"translation":[
				4.983242034912109,
				11.189094543457031,
				0
			]
		},
		{
			"mesh":6,
			"name":"Shoe_R_MAT_Shoe_R_0"
		},
		{
			"children":[
				13
			],
			"name":"Shoe_R",
			"rotation":[
				0,
				0.07257482409477234,
				0,
				0.9973629713058472
			],
			"translation":[
				4.983242034912109,
				11.189094543457031,
				0
			]
		},
		{
			"mesh":7,
			"name":"Sole_R_MAT_Sole_R_0"
		},
		{
			"children":[
				15
			],
			"name":"Sole_R",
			"rotation":[
				0,
				0.07257482409477234,
				0,
				0.9973629713058472
			],
			"translation":[
				4.983242034912109,
				11.189094543457031,
				0
			]
		},
		{
			"children":[
				12,
				14,
				16
			],
			"name":"Nike_AJ1_R",
			"rotation":[
				0,
				0.05069959536194801,
				0,
				0.9987139701843262
			],
			"translation":[
				0.10931980609893799,
				0,
				0.655918300151825
			]
		},
		{
			"children":[
				1,
				3,
				10,
				17
			],
			"name":"RootNode"
		},
		{
			"children":[
				18
			],
			"name":"fc066c9d184e490a89ee98adaefb8000.fbx",
			"rotation":[
				0.70710688829422,
				0,
				0,
				0.7071066498756409
			],
			"scale":[
				0.009999999776482582,
				0.010000000707805157,
				0.010000000707805157
			]
		},
		{
			"children":[
				19
			],
			"name":"Sketchfab_model",
			"rotation":[
				-0.70710688829422,
				0,
				0,
				0.7071066498756409
			]
		},
		{
			"mesh":8,
			"name":"Text",
			"rotation":[
				0.5,
				0.5,
				-0.5,
				0.5
			],
			"scale":[
				0.032839298248291016,
				0.032839298248291016,
				0.032839298248291016
			],
			"translation":[
				0.11409452557563782,
				0.0434088259935379,
				0.07041811943054199
			]
		}
	],
	"materials":[
		{
			"doubleSided":true,
			"name":"BoxBottom",
			"normalTexture":{
				"index":0
			},
			"pbrMetallicRoughness":{
				"baseColorTexture":{
					"index":1
				}
			}
		},
		{
			"doubleSided":true,
			"name":"BoxTop",
			"normalTexture":{
				"index":2
			},
			"pbrMetallicRoughness":{
				"baseColorTexture":{
					"index":3
				},
				"metallicFactor":0,
				"metallicRoughnessTexture":{
					"index":4
				}
			}
		},
		{
			"doubleSided":true,
			"name":"MAT_Laces_L",
			"normalTexture":{
				"index":5
			},
			"occlusionTexture":{
				"index":6
			},
			"pbrMetallicRoughness":{
				"baseColorTexture":{
					"index":7
				},
				"metallicFactor":0,
				"metallicRoughnessTexture":{
					"index":6
				}
			}
		},
		{
			"doubleSided":true,
			"name":"MAT_Shoe_L",
			"normalTexture":{
				"index":8
			},
			"occlusionTexture":{
				"index":9
			},
			"pbrMetallicRoughness":{
				"baseColorTexture":{
					"index":10
				},
				"metallicFactor":0,
				"metallicRoughnessTexture":{
					"index":9
				}
			}
		},
		{
			"doubleSided":true,
			"name":"MAT_Sole_L",
			"normalTexture":{
				"index":11
			},
			"occlusionTexture":{
				"index":12
			},
			"pbrMetallicRoughness":{
				"baseColorTexture":{
					"index":13
				},
				"metallicFactor":0,
				"metallicRoughnessTexture":{
					"index":12
				}
			}
		},
		{
			"doubleSided":true,
			"name":"MAT_Laces_R",
			"normalTexture":{
				"index":14
			},
			"occlusionTexture":{
				"index":15
			},
			"pbrMetallicRoughness":{
				"baseColorTexture":{
					"index":16
				},
				"metallicFactor":0,
				"metallicRoughnessTexture":{
					"index":15
				}
			}
		},
		{
			"doubleSided":true,
			"name":"MAT_Shoe_R",
			"normalTexture":{
				"index":17
			},
			"occlusionTexture":{
				"index":18
			},
			"pbrMetallicRoughness":{
				"baseColorTexture":{
					"index":19
				},
				"metallicFactor":0,
				"metallicRoughnessTexture":{
					"index":18
				}
			}
		},
		{
			"doubleSided":true,
			"name":"MAT_Sole_R",
			"normalTexture":{
				"index":20
			},
			"occlusionTexture":{
				"index":21
			},
			"pbrMetallicRoughness":{
				"baseColorTexture":{
					"index":22
				},
				"metallicFactor":0,
				"metallicRoughnessTexture":{
					"index":21
				}
			}
		},
		{
			"doubleSided":true,
			"name":"Material.001",
			"pbrMetallicRoughness":{
				"baseColorFactor":[
					1,
					1,
					0.9999275803565979,
					1
				],
				"roughnessFactor":0.5657898187637329
			}
		}
	],
	"meshes":[
		{
			"name":"BoxBottom_BoxBottom_0",
			"primitives":[
				{
					"attributes":{
						"POSITION":0,
						"NORMAL":1,
						"TEXCOORD_0":2,
						"TEXCOORD_1":3,
						"TEXCOORD_2":4
					},
					"indices":5,
					"material":0
				}
			]
		},
		{
			"name":"BoxTop_BoxTop_0",
			"primitives":[
				{
					"attributes":{
						"POSITION":6,
						"NORMAL":7,
						"TEXCOORD_0":8,
						"TEXCOORD_1":9,
						"TEXCOORD_2":10
					},
					"indices":11,
					"material":1
				}
			]
		},
		{
			"name":"Laces_L_MAT_Laces_L_0",
			"primitives":[
				{
					"attributes":{
						"POSITION":12,
						"NORMAL":13,
						"TEXCOORD_0":14,
						"TEXCOORD_1":15,
						"TEXCOORD_2":16
					},
					"indices":17,
					"material":2
				}
			]
		},
		{
			"name":"Shoe_L_MAT_Shoe_L_0",
			"primitives":[
				{
					"attributes":{
						"POSITION":18,
						"NORMAL":19,
						"TEXCOORD_0":20,
						"TEXCOORD_1":21,
						"TEXCOORD_2":22
					},
					"indices":23,
					"material":3
				}
			]
		},
		{
			"name":"Sole_L_MAT_Sole_L_0",
			"primitives":[
				{
					"attributes":{
						"POSITION":24,
						"NORMAL":25,
						"TEXCOORD_0":26,
						"TEXCOORD_1":27,
						"TEXCOORD_2":28
					},
					"indices":29,
					"material":4
				}
			]
		},
		{
			"name":"Laces_R_MAT_Laces_R_0",
			"primitives":[
				{
					"attributes":{
						"POSITION":30,
						"NORMAL":31,
						"TEXCOORD_0":32,
						"TEXCOORD_1":33,
						"TEXCOORD_2":34
					},
					"indices":35,
					"material":5
				}
			]
		},
		{
			"name":"Shoe_R_MAT_Shoe_R_0",
			"primitives":[
				{
					"attributes":{
						"POSITION":36,
						"NORMAL":37,
						"TEXCOORD_0":38,
						"TEXCOORD_1":39,
						"TEXCOORD_2":40
					},
					"indices":23,
					"material":6
				}
			]
		},
		{
			"name":"Sole_R_MAT_Sole_R_0",
			"primitives":[
				{
					"attributes":{
						"POSITION":41,
						"NORMAL":42,
						"TEXCOORD_0":43,
						"TEXCOORD_1":44,
						"TEXCOORD_2":45
					},
					"indices":46,
					"material":7
				}
			]
		},
		{
			"name":"Text",
			"primitives":[
				{
					"attributes":{
						"POSITION":47,
						"NORMAL":48,
						"TEXCOORD_0":49
					},
					"indices":50,
					"material":8
				}
			]
		}
	],
	"textures":[
		{
			"sampler":0,
			"source":0
		},
		{
			"sampler":0,
			"source":1
		},
		{
			"sampler":0,
			"source":2
		},
		{
			"sampler":0,
			"source":3
		},
		{
			"sampler":0,
			"source":4
		},
		{
			"sampler":0,
			"source":5
		},
		{
			"sampler":0,
			"source":6
		},
		{
			"sampler":0,
			"source":7
		},
		{
			"sampler":0,
			"source":8
		},
		{
			"sampler":0,
			"source":9
		},
		{
			"sampler":0,
			"source":10
		},
		{
			"sampler":0,
			"source":11
		},
		{
			"sampler":0,
			"source":12
		},
		{
			"sampler":0,
			"source":13
		},
		{
			"sampler":0,
			"source":14
		},
		{
			"sampler":0,
			"source":15
		},
		{
			"sampler":0,
			"source":16
		},
		{
			"sampler":0,
			"source":17
		},
		{
			"sampler":0,
			"source":18
		},
		{
			"sampler":0,
			"source":19
		},
		{
			"sampler":0,
			"source":20
		},
		{
			"sampler":0,
			"source":21
		},
		{
			"sampler":0,
			"source":22
		}
	],
	"images":[
		{
			"mimeType":"image/png",
			"name":"BoxBottom_normal",
			"uri":"textures/BoxBottom_normal.png"
		},
		{
			"mimeType":"image/png",
			"name":"BoxBottom_baseColor",
			"uri":"textures/BoxBottom_baseColor.png"
		},
		{
			"mimeType":"image/png",
			"name":"BoxTop_normal",
			"uri":"textures/BoxTop_normal.png"
		},
		{
			"mimeType":"image/png",
			"name":"BoxTop_baseColor",
			"uri":"textures/BoxTop_baseColor.png"
		},
		{
			"mimeType":"image/png",
			"name":"BoxTop_metallicRoughness",
			"uri":"textures/BoxTop_metallicRoughness.png"
		},
		{
			"mimeType":"image/png",
			"name":"MAT_Laces_L_normal",
			"uri":"textures/MAT_Laces_L_normal.png"
		},
		{
			"mimeType":"image/png",
			"name":"MAT_Laces_L_metallicRoughness",
			"uri":"textures/MAT_Laces_L_metallicRoughness.png"
		},
		{
			"mimeType":"image/png",
			"name":"MAT_Laces_L_baseColor",
			"uri":"textures/MAT_Laces_L_baseColor.png"
		},
		{
			"mimeType":"image/png",
			"name":"MAT_Shoe_L_normal",
			"uri":"textures/MAT_Shoe_L_normal.png"
		},
		{
			"mimeType":"image/png",
			"name":"MAT_Shoe_L_metallicRoughness",
			"uri":"textures/MAT_Shoe_L_metallicRoughness.png"
		},
		{
			"mimeType":"image/png",
			"name":"MAT_Shoe_L_baseColor",
			"uri":"textures/MAT_Shoe_L_baseColor.png"
		},
		{
			"mimeType":"image/png",
			"name":"MAT_Sole_L_normal",
			"uri":"textures/MAT_Sole_L_normal.png"
		},
		{
			"mimeType":"image/png",
			"name":"MAT_Sole_L_metallicRoughness",
			"uri":"textures/MAT_Sole_L_metallicRoughness.png"
		},
		{
			"mimeType":"image/png",
			"name":"MAT_Sole_L_baseColor",
			"uri":"textures/MAT_Sole_L_baseColor.png"
		},
		{
			"mimeType":"image/png",
			"name":"MAT_Laces_R_normal",
			"uri":"textures/MAT_Laces_R_normal.png"
		},
		{
			"mimeType":"image/png",
			"name":"MAT_Laces_R_metallicRoughness",
			"uri":"textures/MAT_Laces_R_metallicRoughness.png"
		},
		{
			"mimeType":"image/png",
			"name":"MAT_Laces_R_baseColor",
			"uri":"textures/MAT_Laces_R_baseColor.png"
		},
		{
			"mimeType":"image/png",
			"name":"MAT_Shoe_R_normal",
			"uri":"textures/MAT_Shoe_R_normal.png"
		},
		{
			"mimeType":"image/png",
			"name":"MAT_Shoe_R_metallicRoughness",
			"uri":"textures/MAT_Shoe_R_metallicRoughness.png"
		},
		{
			"mimeType":"image/png",
			"name":"MAT_Shoe_R_baseColor",
			"uri":"textures/MAT_Shoe_R_baseColor.png"
		},
		{
			"mimeType":"image/png",
			"name":"MAT_Sole_R_normal",
			"uri":"textures/MAT_Sole_R_normal.png"
		},
		{
			"mimeType":"image/png",
			"name":"MAT_Sole_R_metallicRoughness",
			"uri":"textures/MAT_Sole_R_metallicRoughness.png"
		},
		{
			"mimeType":"image/png",
			"name":"MAT_Sole_R_baseColor",
			"uri":"textures/MAT_Sole_R_baseColor.png"
		}
	],
	"accessors":[
		{
			"bufferView":0,
			"componentType":5126,
			"count":2917,
			"max":[
				16.00124740600586,
				11.610254287719727,
				9.95028305053711
			],
			"min":[
				-15.998954772949219,
				0.00504099577665329,
				-9.932369232177734
			],
			"type":"VEC3"
		},
		{
			"bufferView":1,
			"componentType":5126,
			"count":2917,
			"type":"VEC3"
		},
		{
			"bufferView":2,
			"componentType":5126,
			"count":2917,
			"type":"VEC2"
		},
		{
			"bufferView":3,
			"componentType":5126,
			"count":2917,
			"type":"VEC2"
		},
		{
			"bufferView":4,
			"componentType":5126,
			"count":2917,
			"type":"VEC2"
		},
		{
			"bufferView":5,
			"componentType":5123,
			"count":2958,
			"type":"SCALAR"
		},
		{
			"bufferView":6,
			"componentType":5126,
			"count":1170,
			"max":[
				16.331096649169922,
				11.724781036376953,
				10.472869873046875
			],
			"min":[
				-16.331096649169922,
				9.033926963806152,
				-9.932369232177734
			],
			"type":"VEC3"
		},
		{
			"bufferView":7,
			"componentType":5126,
			"count":1170,
			"type":"VEC3"
		},
		{
			"bufferView":8,
			"componentType":5126,
			"count":1170,
			"type":"VEC2"
		},
		{
			"bufferView":9,
			"componentType":5126,
			"count":1170,
			"type":"VEC2"
		},
		{
			"bufferView":10,
			"componentType":5126,
			"count":1170,
			"type":"VEC2"
		},
		{
			"bufferView":11,
			"componentType":5123,
			"count":1182,
			"type":"SCALAR"
		},
		{
			"bufferView":12,
			"componentType":5126,
			"count":14992,
			"max":[
				3.4803686141967773,
				14.736087799072266,
				5.385980606079102
			],
			"min":[
				-3.997117042541504,
				5.720189094543457,
				-3.4930837154388428
			],
			"type":"VEC3"
		},
		{
			"bufferView":13,
			"componentType":5126,
			"count":14992,
			"type":"VEC3"
		},
		{
			"bufferView":14,
			"componentType":5126,
			"count":14992,
			"type":"VEC2"
		},
		{
			"bufferView":15,
			"componentType":5126,
			"count":14992,
			"type":"VEC2"
		},
		{
			"bufferView":16,
			"componentType":5126,
			"count":14992,
			"type":"VEC2"
		},
		{
			"bufferView":17,
			"componentType":5123,
			"count":22500,
			"type":"SCALAR"
		},
		{
			"bufferView":18,
			"componentType":5126,
			"count":44512,
			"max":[
				5.118091583251953,
				15.849774360656738,
				13.445261001586914
			],
			"min":[
				-5.118090629577637,
				0.017594337463378906,
				-13.445261001586914
			],
			"type":"VEC3"
		},
		{
			"bufferView":19,
			"componentType":5126,
			"count":44512,
			"type":"VEC3"
		},
		{
			"bufferView":20,
			"componentType":5126,
			"count":44512,
			"type":"VEC2"
		},
		{
			"bufferView":21,
			"componentType":5126,
			"count":44512,
			"type":"VEC2"
		},
		{
			"bufferView":22,
			"componentType":5126,
			"count":44512,
			"type":"VEC2"
		},
		{
			"bufferView":23,
			"componentType":5123,
			"count":66768,
			"type":"SCALAR"
		},
		{
			"bufferView":24,
			"componentType":5126,
			"count":1287,
			"max":[
				4.558023452758789,
				3.4834277629852295,
				12.343450546264648
			],
			"min":[
				-4.591676712036133,
				2.0126123428344727,
				-12.856233596801758
			],
			"type":"VEC3"
		},
		{
			"bufferView":25,
			"componentType":5126,
			"count":1287,
			"type":"VEC3"
		},
		{
			"bufferView":26,
			"componentType":5126,
			"count":1287,
			"type":"VEC2"
		},
		{
			"bufferView":27,
			"componentType":5126,
			"count":1287,
			"type":"VEC2"
		},
		{
			"bufferView":28,
			"componentType":5126,
			"count":1287,
			"type":"VEC2"
		},
		{
			"bufferView":29,
			"componentType":5123,
			"count":2640,
			"type":"SCALAR"
		},
		{
			"bufferView":30,
			"componentType":5126,
			"count":14992,
			"max":[
				3.997117519378662,
				14.736087799072266,
				5.385980606079102
			],
			"min":[
				-3.4803667068481445,
				5.720189094543457,
				-3.4930837154388428
			],
			"type":"VEC3"
		},
		{
			"bufferView":31,
			"componentType":5126,
			"count":14992,
			"type":"VEC3"
		},
		{
			"bufferView":32,
			"componentType":5126,
			"count":14992,
			"type":"VEC2"
		},
		{
			"bufferView":33,
			"componentType":5126,
			"count":14992,
			"type":"VEC2"
		},
		{
			"bufferView":34,
			"componentType":5126,
			"count":14992,
			"type":"VEC2"
		},
		{
			"bufferView":35,
			"componentType":5123,
			"count":22500,
			"type":"SCALAR"
		},
		{
			"bufferView":36,
			"componentType":5126,
			"count":44512,
			"max":[
				5.118090629577637,
				15.849774360656738,
				13.445261001586914
			],
			"min":[
				-5.118091583251953,
				0.017594337463378906,
				-13.445261001586914
			],
			"type":"VEC3"
		},
		{
			"bufferView":37,
			"componentType":5126,
			"count":44512,
			"type":"VEC3"
		},
		{
			"bufferView":38,
			"componentType":5126,
			"count":44512,
			"type":"VEC2"
		},
		{
			"bufferView":39,
			"componentType":5126,
			"count":44512,
			"type":"VEC2"
		},
		{
			"bufferView":40,
			"componentType":5126,
			"count":44512,
			"type":"VEC2"
		},
		{
			"bufferView":41,
			"componentType":5126,
			"count":1286,
			"max":[
				4.591676712036133,
				3.4834277629852295,
				12.343450546264648
			],
			"min":[
				-4.558021545410156,
				2.0126123428344727,
				-12.856233596801758
			],
			"type":"VEC3"
		},
		{
			"bufferView":42,
			"componentType":5126,
			"count":1286,
			"type":"VEC3"
		},
		{
			"bufferView":43,
			"componentType":5126,
			"count":1286,
			"type":"VEC2"
		},
		{
			"bufferView":44,
			"componentType":5126,
			"count":1286,
			"type":"VEC2"
		},
		{
			"bufferView":45,
			"componentType":5126,
			"count":1286,
			"type":"VEC2"
		},
		{
			"bufferView":46,
			"componentType":5123,
			"count":2640,
			"type":"SCALAR"
		},
		{
			"bufferView":47,
			"componentType":5126,
			"count":5259,
			"max":[
				4.478410720825195,
				-0.44461679458618164,
				0.010984879918396473
			],
			"min":[
				0.03964301943778992,
				-0.5979411602020264,
				-0.5619778633117676
			],
			"type":"VEC3"
		},
		{
			"bufferView":48,
			"componentType":5126,
			"count":5259,
			"type":"VEC3"
		},
		{
			"bufferView":49,
			"componentType":5126,
			"count":5259,
			"type":"VEC2"
		},
		{
			"bufferView":50,
			"componentType":5123,
			"count":8040,
			"type":"SCALAR"
		}
	],
	"bufferViews":[
		{
			"buffer":0,
			"byteLength":35004,
			"byteOffset":0,
			"target":34962
		},
		{
			"buffer":0,
			"byteLength":35004,
			"byteOffset":35004,
			"target":34962
		},
		{
			"buffer":0,
			"byteLength":23336,
			"byteOffset":70008,
			"target":34962
		},
		{
			"buffer":0,
			"byteLength":23336,
			"byteOffset":93344,
			"target":34962
		},
		{
			"buffer":0,
			"byteLength":23336,
			"byteOffset":116680,
			"target":34962
		},
		{
			"buffer":0,
			"byteLength":5916,
			"byteOffset":140016,
			"target":34963
		},
		{
			"buffer":0,
			"byteLength":14040,
			"byteOffset":145932,
			"target":34962
		},
		{
			"buffer":0,
			"byteLength":14040,
			"byteOffset":159972,
			"target":34962
		},
		{
			"buffer":0,
			"byteLength":9360,
			"byteOffset":174012,
			"target":34962
		},
		{
			"buffer":0,
			"byteLength":9360,
			"byteOffset":183372,
			"target":34962
		},
		{
			"buffer":0,
			"byteLength":9360,
			"byteOffset":192732,
			"target":34962
		},
		{
			"buffer":0,
			"byteLength":2364,
			"byteOffset":202092,
			"target":34963
		},
		{
			"buffer":0,
			"byteLength":179904,
			"byteOffset":204456,
			"target":34962
		},
		{
			"buffer":0,
			"byteLength":179904,
			"byteOffset":384360,
			"target":34962
		},
		{
			"buffer":0,
			"byteLength":119936,
			"byteOffset":564264,
			"target":34962
		},
		{
			"buffer":0,
			"byteLength":119936,
			"byteOffset":684200,
			"target":34962
		},
		{
			"buffer":0,
			"byteLength":119936,
			"byteOffset":804136,
			"target":34962
		},
		{
			"buffer":0,
			"byteLength":45000,
			"byteOffset":924072,
			"target":34963
		},
		{
			"buffer":0,
			"byteLength":534144,
			"byteOffset":969072,
			"target":34962
		},
		{
			"buffer":0,
			"byteLength":534144,
			"byteOffset":1503216,
			"target":34962
		},
		{
			"buffer":0,
			"byteLength":356096,
			"byteOffset":2037360,
			"target":34962
		},
		{
			"buffer":0,
			"byteLength":356096,
			"byteOffset":2393456,
			"target":34962
		},
		{
			"buffer":0,
			"byteLength":356096,
			"byteOffset":2749552,
			"target":34962
		},
		{
			"buffer":0,
			"byteLength":133536,
			"byteOffset":3105648,
			"target":34963
		},
		{
			"buffer":0,
			"byteLength":15444,
			"byteOffset":3239184,
			"target":34962
		},
		{
			"buffer":0,
			"byteLength":15444,
			"byteOffset":3254628,
			"target":34962
		},
		{
			"buffer":0,
			"byteLength":10296,
			"byteOffset":3270072,
			"target":34962
		},
		{
			"buffer":0,
			"byteLength":10296,
			"byteOffset":3280368,
			"target":34962
		},
		{
			"buffer":0,
			"byteLength":10296,
			"byteOffset":3290664,
			"target":34962
		},
		{
			"buffer":0,
			"byteLength":5280,
			"byteOffset":3300960,
			"target":34963
		},
		{
			"buffer":0,
			"byteLength":179904,
			"byteOffset":3306240,
			"target":34962
		},
		{
			"buffer":0,
			"byteLength":179904,
			"byteOffset":3486144,
			"target":34962
		},
		{
			"buffer":0,
			"byteLength":119936,
			"byteOffset":3666048,
			"target":34962
		},
		{
			"buffer":0,
			"byteLength":119936,
			"byteOffset":3785984,
			"target":34962
		},
		{
			"buffer":0,
			"byteLength":119936,
			"byteOffset":3905920,
			"target":34962
		},
		{
			"buffer":0,
			"byteLength":45000,
			"byteOffset":4025856,
			"target":34963
		},
		{
			"buffer":0,
			"byteLength":534144,
			"byteOffset":4070856,
			"target":34962
		},
		{
			"buffer":0,
			"byteLength":534144,
			"byteOffset":4605000,
			"target":34962
		},
		{
			"buffer":0,
			"byteLength":356096,
			"byteOffset":5139144,
			"target":34962
		},
		{
			"buffer":0,
			"byteLength":356096,
			"byteOffset":5495240,
			"target":34962
		},
		{
			"buffer":0,
			"byteLength":356096,
			"byteOffset":5851336,
			"target":34962
		},
		{
			"buffer":0,
			"byteLength":15432,
			"byteOffset":6207432,
			"target":34962
		},
		{
			"buffer":0,
			"byteLength":15432,
			"byteOffset":6222864,
			"target":34962
		},
		{
			"buffer":0,
			"byteLength":10288,
			"byteOffset":6238296,
			"target":34962
		},
		{
			"buffer":0,
			"byteLength":10288,
			"byteOffset":6248584,
			"target":34962
		},
		{
			"buffer":0,
			"byteLength":10288,
			"byteOffset":6258872,
			"target":34962
		},
		{
			"buffer":0,
			"byteLength":5280,
			"byteOffset":6269160,
			"target":34963
		},
		{
			"buffer":0,
			"byteLength":63108,
			"byteOffset":6274440,
			"target":34962
		},
		{
			"buffer":0,
			"byteLength":63108,
			"byteOffset":6337548,
			"target":34962
		},
		{
			"buffer":0,
			"byteLength":42072,
			"byteOffset":6400656,
			"target":34962
		},
		{
			"buffer":0,
			"byteLength":16080,
			"byteOffset":6442728,
			"target":34963
		}
	],
	"samplers":[
		{
			"magFilter":9729,
			"minFilter":9987
		}
	],
	"buffers":[
		{
			"byteLength":6458808,
			"uri":"SneakersOnBox-scene.bin"
		}
	]
}
