{
	"asset":{
		"generator":"Khronos glTF Blender I/O v4.0.44",
		"version":"2.0"
	},
	"scene":0,
	"scenes":[
		{
			"name":"Scene",
			"nodes":[
				2,
				3
			]
		}
	],
	"nodes":[
		{
			"mesh":0,
			"name":"Object_2",
			"translation":[
				0,
				2.384185791015625e-06,
				0
			]
		},
		{
			"children":[
				0
			],
			"name":"airmag_toPoly_01.obj.cleaner.materialmerger.gles",
			"translation":[
				0,
				2.384185791015625e-06,
				0
			]
		},
		{
			"children":[
				1
			],
			"name":"Sketchfab_model",
			"rotation":[
				-0.7913956046104431,
				0,
				0,
				0.6113043427467346
			],
			"scale":[
				0.011169638484716415,
				0.011169638484716415,
				0.011169638484716415
			],
			"translation":[
				0,
				0.23156340420246124,
				0.24479252099990845
			]
		},
		{
			"mesh":1,
			"name":"Text.001",
			"rotation":[
				0.3506046533584595,
				0.35843831300735474,
				-0.6215779185295105,
				0.6018631458282471
			],
			"scale":[
				0.06343501806259155,
				0.06343502551317215,
				0.06343501806259155
			],
			"translation":[
				0.18190647661685944,
				0.12283848971128464,
				0.342132568359375
			]
		}
	],
	"materials":[
		{
			"emissiveFactor":[
				1,
				1,
				1
			],
			"emissiveTexture":{
				"index":0
			},
			"name":"StingrayPBS1SG",
			"normalTexture":{
				"index":1
			},
			"pbrMetallicRoughness":{
				"baseColorTexture":{
					"index":2
				},
				"metallicRoughnessTexture":{
					"index":3
				}
			}
		},
		{
			"doubleSided":true,
			"name":"Material.001",
			"pbrMetallicRoughness":{
				"baseColorFactor":[
					1,
					1,
					0.9999275803565979,
					1
				],
				"metallicFactor":0.5660377740859985,
				"roughnessFactor":0.509433925151825
			}
		}
	],
	"meshes":[
		{
			"name":"Object_0",
			"primitives":[
				{
					"attributes":{
						"POSITION":0,
						"NORMAL":1,
						"TEXCOORD_0":2
					},
					"indices":3,
					"material":0
				}
			]
		},
		{
			"name":"Text.002",
			"primitives":[
				{
					"attributes":{
						"POSITION":4,
						"NORMAL":5,
						"TEXCOORD_0":6
					},
					"indices":7,
					"material":1
				}
			]
		}
	],
	"textures":[
		{
			"sampler":0,
			"source":0
		},
		{
			"sampler":0,
			"source":1
		},
		{
			"sampler":0,
			"source":2
		},
		{
			"sampler":0,
			"source":3
		}
	],
	"images":[
		{
			"mimeType":"image/png",
			"name":"StingrayPBS1SG_emissive",
			"uri":"textures/StingrayPBS1SG_emissive.png"
		},
		{
			"mimeType":"image/png",
			"name":"StingrayPBS1SG_normal",
			"uri":"textures/StingrayPBS1SG_normal.png"
		},
		{
			"mimeType":"image/png",
			"name":"StingrayPBS1SG_baseColor",
			"uri":"textures/StingrayPBS1SG_baseColor.png"
		},
		{
			"mimeType":"image/png",
			"name":"StingrayPBS1SG_metallicRoughness",
			"uri":"textures/StingrayPBS1SG_metallicRoughness.png"
		}
	],
	"accessors":[
		{
			"bufferView":0,
			"componentType":5126,
			"count":6405,
			"max":[
				14.871149063110352,
				37.42230987548828,
				32.29679870605469
			],
			"min":[
				-13.487506866455078,
				-35.8636360168457,
				-30.158489227294922
			],
			"type":"VEC3"
		},
		{
			"bufferView":1,
			"componentType":5126,
			"count":6405,
			"type":"VEC3"
		},
		{
			"bufferView":2,
			"componentType":5126,
			"count":6405,
			"type":"VEC2"
		},
		{
			"bufferView":3,
			"componentType":5123,
			"count":33834,
			"type":"SCALAR"
		},
		{
			"bufferView":4,
			"componentType":5126,
			"count":5412,
			"max":[
				4.400482654571533,
				-0.5885398387908936,
				0.21323418617248535
			],
			"min":[
				0.1344636082649231,
				-0.9151904582977295,
				-0.21616291999816895
			],
			"type":"VEC3"
		},
		{
			"bufferView":5,
			"componentType":5126,
			"count":5412,
			"type":"VEC3"
		},
		{
			"bufferView":6,
			"componentType":5126,
			"count":5412,
			"type":"VEC2"
		},
		{
			"bufferView":7,
			"componentType":5123,
			"count":8472,
			"type":"SCALAR"
		}
	],
	"bufferViews":[
		{
			"buffer":0,
			"byteLength":76860,
			"byteOffset":0,
			"target":34962
		},
		{
			"buffer":0,
			"byteLength":76860,
			"byteOffset":76860,
			"target":34962
		},
		{
			"buffer":0,
			"byteLength":51240,
			"byteOffset":153720,
			"target":34962
		},
		{
			"buffer":0,
			"byteLength":67668,
			"byteOffset":204960,
			"target":34963
		},
		{
			"buffer":0,
			"byteLength":64944,
			"byteOffset":272628,
			"target":34962
		},
		{
			"buffer":0,
			"byteLength":64944,
			"byteOffset":337572,
			"target":34962
		},
		{
			"buffer":0,
			"byteLength":43296,
			"byteOffset":402516,
			"target":34962
		},
		{
			"buffer":0,
			"byteLength":16944,
			"byteOffset":445812,
			"target":34963
		}
	],
	"samplers":[
		{
			"magFilter":9729,
			"minFilter":9987
		}
	],
	"buffers":[
		{
			"byteLength":462756,
			"uri":"NikeAirMag-scene.bin"
		}
	]
}
