<svg width="114" height="200" viewBox="0 0 114 200" fill="none" xmlns="http://www.w3.org/2000/svg">
<g clip-path="url(#clip0_28_11)">
<path d="M113.956 107.956C113.911 107.911 106.6 107.844 97.6667 107.778L81.4444 107.667L81.3778 53.8444L81.3333 0L32.4444 0V107.778H16.5556C2.97778 107.778 0.644441 107.822 0.533329 108.089C0.422218 108.356 2.17778 111.422 4.44444 114.978C4.62222 115.267 5.53333 116.733 6.44444 118.222C7.35555 119.711 8.26666 121.178 8.44444 121.467C8.62222 121.756 9.46666 123.111 10.3111 124.489C11.1556 125.867 12.2667 127.644 12.7778 128.444C13.5333 129.644 15.2667 132.444 17.6667 136.356C18.4 137.556 21.2 142.089 23.7778 146.222C25.0889 148.356 27.2 151.756 28.4444 153.778C29.6889 155.8 31.4889 158.689 32.4444 160.222C33.4222 161.756 34.2889 163.156 34.3778 163.333C34.4667 163.511 34.7778 164.022 35.0667 164.444C35.3556 164.867 35.6889 165.422 35.8 165.667C35.9111 165.911 36.6444 167.111 37.4222 168.333C38.2222 169.556 39.5333 171.667 40.3556 173C41.1778 174.356 43.0889 177.444 44.6 179.889C46.1333 182.333 47.4889 184.533 47.6222 184.778C47.7778 185.022 48.5556 186.267 49.3556 187.556C50.1556 188.844 51.1111 190.378 51.4667 190.956C51.8222 191.556 52.2667 192.267 52.4444 192.578C52.6222 192.867 53.6 194.444 54.6222 196.089C55.6222 197.733 56.5556 199.156 56.6889 199.222C57.0222 199.444 57.4222 199 58.4889 197.289C59.0222 196.422 59.6222 195.467 59.8222 195.133C60.0444 194.822 60.2889 194.4 60.3778 194.222C60.4667 194.044 60.8 193.489 61.1111 193C61.7778 191.933 62.0222 191.533 62.8222 190.222C63.1556 189.667 63.9333 188.422 64.5778 187.444C65.2 186.467 65.9556 185.244 66.2444 184.733C66.5333 184.244 67.5111 182.644 68.4222 181.178C69.3111 179.733 70.6222 177.667 71.2889 176.556C71.9778 175.467 72.8889 173.978 73.3111 173.289C75.2889 170.156 77.9111 165.889 78.2222 165.356C78.5333 164.844 79.1778 163.778 79.9333 162.556C80.6889 161.333 82.3333 158.689 82.7778 158C83.0667 157.578 84.2667 155.622 85.4444 153.667C86.6444 151.733 87.7778 149.867 88 149.556C88.3778 149 91.3333 144.222 92 143.089C92.1778 142.778 93.0444 141.4 93.8889 140.022C95.6667 137.2 95.4444 137.533 98.1111 133.222C99.2222 131.444 100.289 129.711 100.489 129.378C100.689 129.044 101 128.556 101.156 128.289C101.444 127.778 104.467 122.889 105.111 121.889C105.444 121.356 107.889 117.422 111.356 111.778C112.444 110 113.489 108.533 113.667 108.489C113.956 108.422 114.111 108.111 113.956 107.956ZM90.8 123.111C89.9333 124.511 89.1333 125.844 89 126.044C88.7778 126.422 87.2 128.956 83.4222 135.067C82.3333 136.8 81.3333 138.4 81.2222 138.622C81.0222 138.978 78.1111 143.667 76.5778 146.111C76.2 146.733 75.7778 147.422 75.6222 147.667C75.4667 147.911 74.8 149.022 74.1111 150.111C73.4222 151.222 72.7333 152.311 72.6 152.556C72.4444 152.8 71.8222 153.8 71.2 154.778C70.6 155.756 69.8444 156.956 69.5556 157.444C69.2667 157.933 68.6222 158.978 68.1111 159.778C67.6 160.578 67.1111 161.378 67.0444 161.556C66.9556 161.733 66.0889 163.133 65.1333 164.667C64.1556 166.2 62.4889 168.867 61.4 170.622C60.3333 172.356 59.2889 174.022 59.1111 174.311C58.9333 174.6 58.4889 175.356 58.1111 175.978C57.4222 177.156 56.7333 177.6 56.4222 177.089C56.3111 176.911 55.9111 176.244 55.5111 175.622C55.1111 174.978 53.8889 173 52.7778 171.222C51.6889 169.422 50.6222 167.733 50.4444 167.444C50.2667 167.178 49.2222 165.467 48.1111 163.667C47.0222 161.867 45.9556 160.178 45.7778 159.889C45.6 159.6 44.6889 158.156 43.7778 156.667C42.8667 155.178 41.9556 153.733 41.7778 153.444C41.6 153.156 40.5556 151.444 39.4444 149.667C38.3556 147.889 37.2889 146.178 37.1111 145.889C36.9333 145.6 35.7333 143.667 34.4667 141.622C33.2 139.578 31.4 136.644 30.4444 135.111C29.4889 133.578 27.6889 130.689 26.4444 128.667C25.2222 126.644 23.5111 123.867 22.6444 122.489C21.8 121.111 21.1111 119.844 21.1111 119.667C21.1111 119.378 22.7556 119.333 32.5111 119.289L43.8889 119.222L44 65.3778C44.0889 17.8444 44.1556 11.5111 44.4444 11.3333C44.8889 11.0444 68.4444 11.0444 69.2 11.3333L69.7778 11.5556V65.3111C69.7778 114.111 69.8 119.067 70.1333 119.2C70.3333 119.267 75.4667 119.333 81.5333 119.333C87.6222 119.333 92.6667 119.4 92.7333 119.467C92.9111 119.644 92.7111 120.022 90.8 123.111Z" fill="url(#paint0_linear_28_11)"/>
</g>
<defs>
<linearGradient id="paint0_linear_28_11" x1="114.017" y1="99.6376" x2="0.528328" y2="99.6376" gradientUnits="userSpaceOnUse">
<stop stop-color="#0D59FD"/>
<stop offset="1" stop-color="#00FF75"/>
</linearGradient>
<clipPath id="clip0_28_11">
<rect width="200" height="114" fill="white" transform="matrix(0 1 -1 0 114 0)"/>
</clipPath>
</defs>
</svg>
