<svg id="GradientArrow" xmlns="http://www.w3.org/2000/svg" width="200" height="114"
    viewBox="0 0 200 114"
    fill="none">
    <g clip-path="url(#a)">
        <path
            d="M107.956.044c-.045.045-.112 7.356-.178 16.29l-.111 16.222-53.823.066L0 32.667v48.888h107.778v15.89c0 13.577.044 15.911.311 16.022s3.333-1.645 6.889-3.911c.289-.178 1.755-1.089 3.244-2 1.489-.912 2.956-1.823 3.245-2s1.644-1.023 3.022-1.867a318 318 0 0 0 3.955-2.467c1.2-.755 4-2.489 7.912-4.889 1.2-.733 5.733-3.533 9.866-6.11 2.134-1.312 5.534-3.423 7.556-4.668a1448 1448 0 0 0 6.444-4c1.534-.977 2.934-1.844 3.111-1.933s.689-.4 1.111-.689.978-.622 1.223-.733c.244-.111 1.444-.844 2.666-1.622 1.223-.8 3.334-2.111 4.667-2.934 1.356-.822 4.444-2.733 6.889-4.244 2.444-1.533 4.644-2.889 4.889-3.022a507 507 0 0 1 2.778-1.734c1.288-.8 2.822-1.755 3.4-2.11.6-.356 1.311-.8 1.622-.978.289-.178 1.866-1.156 3.511-2.178 1.644-1 3.067-1.934 3.133-2.067.222-.333-.222-.733-1.933-1.8-.867-.533-1.822-1.133-2.156-1.333a8 8 0 0 0-.911-.556A21 21 0 0 1 193 52.89a244 244 0 0 0-2.778-1.711 96 96 0 0 1-2.778-1.756c-.977-.622-2.2-1.378-2.711-1.666a273 273 0 0 1-3.555-2.178c-1.445-.89-3.511-2.2-4.622-2.867-1.089-.689-2.578-1.6-3.267-2.022-3.133-1.978-7.4-4.6-7.933-4.911-.512-.311-1.578-.956-2.8-1.711-1.223-.756-3.867-2.4-4.556-2.845-.422-.289-2.378-1.489-4.333-2.667-1.934-1.2-3.8-2.333-4.111-2.555-.556-.378-5.334-3.333-6.467-4-.311-.178-1.689-1.044-3.067-1.889-2.822-1.778-2.489-1.556-6.8-4.222a427 427 0 0 0-3.844-2.378c-.334-.2-.822-.511-1.089-.667-.511-.288-5.4-3.31-6.4-3.955-.533-.333-4.467-2.778-10.111-6.245C110 1.556 108.533.511 108.489.334c-.067-.29-.378-.445-.533-.29M123.111 23.2c1.4.867 2.733 1.667 2.933 1.8.378.222 2.912 1.8 9.023 5.578 1.733 1.089 3.333 2.089 3.555 2.2.356.2 5.045 3.11 7.489 4.644.622.378 1.311.8 1.556.956.244.155 1.355.822 2.444 1.51 1.111.69 2.2 1.379 2.445 1.512.244.156 1.244.778 2.222 1.4.978.6 2.178 1.356 2.666 1.644.489.29 1.534.934 2.334 1.445s1.6 1 1.778 1.066c.177.09 1.577.956 3.111 1.912a715 715 0 0 0 5.955 3.733c1.734 1.067 3.4 2.111 3.689 2.289s1.045.622 1.667 1c1.178.689 1.622 1.378 1.111 1.689-.178.11-.845.51-1.467.91-.644.4-2.622 1.623-4.4 2.734-1.8 1.09-3.489 2.156-3.778 2.334-.266.177-1.977 1.222-3.777 2.333-1.8 1.089-3.489 2.155-3.778 2.333s-1.733 1.09-3.222 2c-1.489.911-2.934 1.822-3.223 2s-2 1.222-3.777 2.334c-1.778 1.088-3.489 2.155-3.778 2.333l-4.267 2.644c-2.044 1.267-4.978 3.067-6.511 4.022s-4.422 2.756-6.444 4a499 499 0 0 0-6.178 3.8c-1.378.845-2.645 1.534-2.822 1.534-.289 0-.334-1.645-.378-11.4l-.067-11.378L65.378 70c-47.534-.089-53.867-.156-54.045-.445-.289-.444-.289-24 0-24.755l.223-.578H65.31c48.8 0 53.756-.022 53.889-.355.067-.2.133-5.334.133-11.4 0-6.09.067-11.134.134-11.2.177-.178.555.022 3.644 1.933"
            fill="url(#b)" />
    </g>
    <defs>
        <linearGradient id="b" x1="99.638" y1="-.017" x2="99.638"
            y2="113.472" gradientUnits="userSpaceOnUse">
            <stop stop-color="#0D59FD" />
            <stop offset="1" stop-color="#00FF75" />
        </linearGradient>
        <clipPath id="a">
            <path fill="#fff" d="M0 0h200v114H0z" />
        </clipPath>
    </defs>
</svg>