<svg xmlns="http://www.w3.org/2000/svg" width="512" height="512" viewBox="0 0 512 512" version="1.1">
	<path d="M 288.001 81.066 C 284.232 82.655, 281.179 85.820, 276.489 93 C 270.712 101.844, 266.929 105.176, 257.250 109.945 C 252.713 112.181, 249 114.360, 249 114.788 C 249 115.216, 250.621 118.618, 252.601 122.348 C 256.703 130.073, 256.526 132.308, 252.314 125.976 C 242.183 110.749, 227.325 101.758, 217.596 104.968 C 215.581 105.633, 212.724 107.823, 210.952 110.061 C 208.385 113.302, 207.519 113.813, 205.987 112.993 C 203.122 111.460, 199.820 111.813, 196.161 114.043 C 194.172 115.256, 192.030 115.827, 190.862 115.456 C 189.749 115.103, 187.818 115.544, 186.392 116.479 C 184.111 117.973, 183.909 118.665, 184.177 124.061 C 184.463 129.835, 184.357 130.113, 180.366 134.105 C 177.238 137.233, 175.100 138.424, 171.381 139.112 C 165.696 140.163, 164 141.985, 164 147.036 C 164 151.256, 162.679 152.680, 155.375 156.340 C 149.512 159.277, 148.624 160.720, 150.478 164.296 C 151.667 166.587, 151.563 167.062, 149.434 169.062 C 148.133 170.284, 144.691 172.076, 141.784 173.043 C 137.518 174.463, 136.075 175.550, 134.293 178.686 C 133.080 180.823, 127.610 186.712, 122.139 191.773 C 111.585 201.535, 108 206.978, 108 213.239 C 108 221.137, 115.526 225.801, 137.398 231.456 C 152.243 235.294, 157 235.819, 157 233.622 C 157 231.668, 156.069 231.052, 141 223.027 C 121.619 212.706, 119.133 210.592, 120.407 205.516 C 121.143 202.580, 126.685 196, 128.420 196 C 130.061 196, 142.615 204.748, 154.962 214.495 C 166.656 223.725, 167.999 224.389, 170.885 222.368 C 175.343 219.246, 173.812 216.441, 160.942 204.160 C 154.311 197.832, 148.421 191.787, 147.854 190.728 C 146.904 188.953, 147.085 188.859, 150.162 189.533 C 156.437 190.905, 171.493 197.095, 178.175 201.050 C 185.711 205.509, 187.006 205.756, 189.345 203.171 C 192.138 200.085, 191.377 196.364, 186.977 191.591 C 182.902 187.170, 173.753 173.914, 174.358 173.308 C 175.042 172.625, 183.861 176.218, 193.803 181.230 C 205.151 186.951, 207.235 186.949, 207.808 181.217 C 208.314 176.167, 202.705 171.002, 189.406 164.269 C 183.138 161.096, 178.155 158.050, 178.333 157.500 C 178.512 156.950, 181.044 156.362, 183.962 156.193 C 191.483 155.758, 202.102 159.173, 210.205 164.633 C 218.370 170.135, 221.362 170.230, 221.780 165 C 222.022 161.984, 221.089 160.267, 215.030 152.578 C 211.164 147.671, 208 143.556, 208 143.433 C 208 142.434, 216.125 145.513, 223.586 149.340 C 228.583 151.903, 233.396 154, 234.280 154 C 235.165 154, 237.142 152.922, 238.674 151.604 C 241.115 149.504, 241.338 148.856, 240.480 146.354 C 239.817 144.424, 238.121 142.860, 235.242 141.523 C 232.901 140.435, 231.123 139.085, 231.292 138.523 C 231.936 136.384, 240.452 133, 245.192 133 C 252.024 133, 258 135.583, 258 138.536 C 258 140.741, 257.737 140.828, 252.655 140.304 C 248.245 139.849, 247.196 140.046, 246.665 141.432 C 245.922 143.367, 248.299 145.937, 255.222 150.682 C 262.016 155.337, 263.520 158.068, 262.406 163.716 C 261.048 170.596, 259.334 171.080, 252.464 166.520 C 246.739 162.720, 238.342 159, 235.489 159 C 234.670 159, 233.049 159.951, 231.887 161.113 C 229.152 163.848, 229.806 168.434, 233.844 174.836 C 237.972 181.380, 238.476 183.624, 236.498 186.643 C 234.207 190.139, 224.738 194.312, 219.066 194.325 C 216.555 194.330, 211.327 193.977, 207.450 193.539 C 201.452 192.862, 200.146 192.997, 198.700 194.443 C 195.621 197.522, 196.619 200.603, 202.500 206.177 C 205.525 209.044, 208 211.969, 208 212.676 C 208 214.925, 203.476 215.210, 194.493 213.527 C 184.950 211.739, 180.518 212.164, 178.992 215.016 C 177.509 217.786, 177.795 228.780, 179.526 235.540 C 180.366 238.818, 183.112 245.821, 185.628 251.102 C 188.145 256.383, 190.040 261.552, 189.841 262.589 C 189.477 264.475, 178.030 270.915, 175 270.938 C 174.175 270.944, 170.800 268.692, 167.500 265.934 C 164.200 263.175, 158.624 259.493, 155.108 257.752 C 146.651 253.563, 140.520 253.672, 119.179 258.391 C 110.203 260.376, 101.179 262, 99.125 262 C 93.845 262, 85.981 257.756, 80.600 252.003 C 73.388 244.293, 73.693 243.166, 87.500 226.522 C 93.825 218.897, 99 212.312, 99 211.888 C 99 211.465, 98.524 210.824, 97.942 210.464 C 96.364 209.489, 89.799 214.207, 78.552 224.401 C 73.023 229.411, 64.360 236.827, 59.299 240.881 C 46.884 250.825, 43.357 256.259, 41.595 268.155 C 41.176 270.983, 39.943 273.848, 38.453 275.456 C 35.386 278.766, 35.190 284.491, 37.958 289.918 C 41.057 295.992, 51.401 304.617, 61.500 309.549 C 73.314 315.318, 82.745 317.169, 100.036 317.111 C 115.744 317.059, 128.448 315.347, 149.795 310.404 C 158.207 308.457, 165.530 307.010, 166.069 307.190 C 168.060 307.853, 149.575 327.153, 137.729 336.779 C 112.294 357.447, 105.045 368.285, 105.012 385.697 C 105.003 390.436, 104.393 393.024, 102.419 396.697 C 99.188 402.710, 99.411 410.071, 103.047 417.500 C 106.169 423.877, 121.576 439.362, 129.331 443.917 C 138.069 449.050, 151.316 453.665, 164.607 456.207 C 175.182 458.229, 179.549 458.481, 204 458.482 C 234.786 458.483, 246.117 457.090, 269 450.491 C 283.512 446.306, 304.010 437.682, 306.993 434.508 C 309.275 432.079, 309.318 430.967, 307.394 424.200 L 306.741 421.900 311.286 424.108 L 315.832 426.317 321.194 423.694 C 332.849 417.991, 356.188 400.978, 356.814 397.728 C 356.993 396.797, 355.992 394.970, 354.588 393.669 L 352.036 391.304 354.516 390.174 C 357.935 388.617, 365.563 381.443, 368.009 377.485 C 370.470 373.503, 369.748 370.940, 364.537 365.172 L 360.984 361.240 363.428 359.639 C 366.865 357.387, 374.270 346.711, 380.646 334.817 C 387.365 322.284, 390.385 318.437, 399.849 310.362 C 407.073 304.198, 407.390 304.043, 409.265 305.739 C 410.332 306.705, 411.845 308.734, 412.628 310.248 C 413.411 311.761, 414.656 313, 415.395 313 C 416.133 313, 425.909 306.357, 437.119 298.238 C 456.856 283.942, 457.510 283.357, 457.810 279.738 C 458.057 276.770, 458.533 276, 460.120 276 C 462.725 276, 472.753 269.036, 473.562 266.665 C 473.957 265.510, 473.413 264.004, 472.094 262.600 C 469.516 259.855, 469.492 259.366, 471.908 258.734 C 476.188 257.615, 483.696 241.447, 482.489 235.949 C 482.150 234.407, 480.690 231.963, 479.244 230.517 C 476.744 228.017, 476.674 227.669, 477.808 223.430 C 479.480 217.177, 479.291 209.473, 477.372 205.700 C 476.477 203.940, 473.390 200.012, 470.512 196.971 C 467.635 193.930, 464.547 190.024, 463.650 188.291 C 462.754 186.557, 459.055 175.096, 455.430 162.820 C 451.805 150.544, 447.958 139.068, 446.880 137.318 C 440.132 126.359, 410.647 118.674, 399.223 124.897 C 395.659 126.839, 390.973 132.774, 386.510 141 C 380.238 152.562, 374.641 157.248, 360.428 162.836 L 355.357 164.830 351.054 159.835 C 347.198 155.359, 346.868 154.585, 347.876 152.373 C 350.842 145.863, 348.295 138.941, 340.620 132.652 C 338.227 130.691, 335.549 127.569, 334.669 125.714 C 332.961 122.116, 326.690 101.828, 325.484 96 C 324.134 89.482, 322.288 87.267, 315.361 83.857 C 309.553 80.998, 307.542 80.543, 299.602 80.296 C 294.596 80.139, 289.375 80.486, 288.001 81.066 M 313.701 111 C 313.379 112.375, 312.827 115.279, 312.474 117.453 C 310.306 130.825, 299.721 137.826, 280.250 138.767 C 274.613 139.039, 270 139.599, 270 140.010 C 270 141.925, 277.078 143.497, 285.500 143.452 C 296.492 143.394, 302.990 140.904, 308.910 134.482 C 314.666 128.237, 317.258 118.315, 315.044 111 L 314.287 108.500 313.701 111 M 328.080 134.280 C 325.986 140.555, 317.980 153.984, 310.662 163.500 C 308.970 165.700, 308.466 166.791, 309.543 165.924 C 319.365 158.014, 322.629 154.810, 325.981 149.790 C 330.300 143.323, 332.477 135.230, 331.171 130.500 C 330.373 127.608, 330.262 127.744, 328.080 134.280 M 183.500 139 C 181.919 140.650, 181.190 142, 181.879 142 C 183.956 142, 186.889 140.076, 188.012 137.977 C 189.688 134.846, 186.867 135.485, 183.500 139 M 152.133 174.359 L 149.916 176.718 155.031 178.918 C 157.844 180.128, 160.548 180.979, 161.039 180.809 C 162.196 180.409, 156.842 172.017, 155.424 172.007 C 154.833 172.003, 153.351 173.062, 152.133 174.359 M 435.558 180.380 C 433.455 197.216, 420.855 206.734, 398 208.750 C 389.800 209.474, 389.500 209.588, 389.500 212 C 389.500 214.400, 389.781 214.512, 396.500 214.805 C 410.380 215.410, 425.866 210.513, 431.593 203.707 C 436.854 197.454, 438.467 193.006, 438.456 184.773 C 438.443 175.162, 436.566 172.316, 435.558 180.380 M 217.050 178.440 C 215.153 180.726, 216.234 185.104, 219.250 187.346 L 222 189.391 224.750 187.345 C 228.499 184.556, 228.730 181.719, 225.420 179.115 C 222.303 176.664, 218.761 176.378, 217.050 178.440 M 302.500 178.945 C 301.400 179.396, 299.638 180.722, 298.586 181.892 C 296.693 183.996, 296.698 184.050, 299.010 186.510 C 301.813 189.494, 304 189.730, 304 187.048 C 304 185.975, 305.644 183.500, 307.653 181.548 L 311.307 178 307.903 178.063 C 306.032 178.098, 303.600 178.495, 302.500 178.945 M 327.963 182.461 C 324.274 184.467, 313.812 199.621, 315.321 200.773 C 317.342 202.315, 344.978 215.362, 345.288 214.919 C 349.248 209.254, 352.045 206.293, 355.516 204.092 L 359.770 201.394 357.135 198.314 C 353.064 193.554, 343.100 185.956, 337.529 183.361 C 331.711 180.652, 331.349 180.618, 327.963 182.461 M 456.296 197.414 C 455.664 202.051, 453.843 208.935, 452.241 212.748 C 446.576 226.232, 433.744 245.630, 419.471 262.289 L 411.674 271.389 418.039 266.444 C 428.594 258.245, 451.296 235.072, 455.287 228.422 C 459.298 221.741, 462 212.874, 462 206.395 C 462 202.973, 458.531 189, 457.681 189 C 457.550 189, 456.927 192.786, 456.296 197.414 M 282.114 199.801 C 279.301 202.441, 277 205.372, 277 206.314 C 277 207.353, 278.773 208.887, 281.510 210.217 C 285.749 212.277, 286.122 212.306, 287.715 210.714 C 289.184 209.245, 289.242 208.558, 288.152 205.543 C 287.247 203.041, 287.190 201.514, 287.947 200.099 C 289.231 197.700, 289.319 195, 288.114 195 C 287.626 195, 284.926 197.160, 282.114 199.801 M 362.413 207.932 C 358.855 208.795, 357.713 209.419, 353.250 212.938 C 351.463 214.347, 350 216.001, 350 216.614 C 350 217.227, 351.999 218.492, 354.442 219.425 C 360.972 221.919, 364 224.635, 364 228 C 364 231.498, 359.958 235, 355.920 235 C 354.374 235, 347.623 232.300, 340.918 229 C 334.213 225.700, 327.849 223, 326.777 223 C 325.024 223, 325.139 223.424, 327.911 227.194 C 329.607 229.500, 333.921 234.702, 337.497 238.755 C 342.355 244.258, 344 246.866, 344 249.061 C 344 251.943, 341.038 256, 338.935 256 C 338.350 256, 334.147 253.724, 329.595 250.943 C 320.425 245.340, 289.204 231.075, 284.500 230.340 C 281.975 229.945, 281.051 230.444, 278.664 233.490 C 277.104 235.480, 276.054 237.698, 276.330 238.419 C 276.607 239.139, 280.808 241.864, 285.666 244.474 C 303.271 253.932, 321.248 264.570, 324.970 267.731 C 327.062 269.508, 329.050 272.064, 329.388 273.412 C 330.290 277.003, 328.470 280.844, 325.516 281.585 C 322.900 282.242, 318.655 280.072, 295.622 266.306 C 290.739 263.388, 286.606 261, 286.438 261 C 286.269 261, 288.731 265.163, 291.910 270.250 C 299.392 282.228, 304.615 291.856, 305.341 295.014 C 306.073 298.195, 304.151 302.053, 301.320 303.088 C 299.691 303.682, 298.174 303.186, 295.320 301.127 C 293.219 299.610, 282.050 291.944, 270.500 284.090 C 258.950 276.237, 247.553 268.279, 245.172 266.406 C 242.792 264.533, 240.430 263, 239.922 263 C 239.415 263, 239 264.974, 239 267.387 C 239 273.604, 243.146 279.243, 257 291.868 C 285.537 317.874, 285 317.322, 285 320.610 C 285 324.020, 282.395 327.002, 279.421 326.996 C 275.995 326.990, 267.542 320.805, 234.740 294.308 C 227.722 288.638, 221.398 284, 220.686 284 C 219.237 284, 214.437 288.864, 211.159 293.654 C 205.538 301.867, 210.120 307.964, 243.262 336.377 C 255.408 346.790, 259 350.450, 259 352.413 C 259 352.712, 255.738 351.785, 251.750 350.351 C 234.566 344.176, 209.172 329.250, 201.278 320.685 C 198.923 318.131, 196.647 314.404, 196.020 312.076 C 193.246 301.772, 198.716 293.255, 222.082 271.500 C 226.673 267.226, 229.441 263.580, 231.707 258.823 C 234.171 253.650, 236.082 251.254, 240.194 248.185 C 247.418 242.790, 251.617 238.086, 252.408 234.500 C 253.741 228.451, 255.142 226.426, 259.812 223.801 C 262.435 222.326, 265.370 220.249, 266.334 219.184 C 268.311 216.998, 269.801 210, 268.288 210 C 266.090 210, 252.001 220.886, 245 227.994 C 239.713 233.362, 236.196 238.101, 233.080 244.054 C 224.326 260.781, 222.270 263.170, 199.736 282.808 C 187.165 293.764, 182.417 299.161, 174.057 312 C 170.655 317.225, 164.996 324.425, 161.482 328 C 149.826 339.857, 146.723 352.534, 152.358 365.275 C 155.301 371.929, 163.502 381.034, 169.986 384.846 C 173.973 387.190, 175.493 387.487, 183 387.392 C 188.038 387.329, 198.627 385.925, 209 383.945 C 223.030 381.267, 229.078 380.594, 239.500 380.552 C 251.451 380.504, 252.944 380.708, 258 383.083 C 261.025 384.503, 268.376 389.338, 274.336 393.827 C 280.296 398.316, 285.589 402.246, 286.098 402.561 C 288.239 403.884, 309.210 389.222, 310.689 385.368 C 311.007 384.539, 309.518 381.871, 307.212 379.136 C 301.180 371.982, 292.346 358.434, 288.374 350.243 C 282.608 338.356, 282.813 328.536, 288.786 330.432 C 289.822 330.761, 299.086 339.327, 309.374 349.468 C 326.845 366.691, 330.979 369.782, 331.008 365.643 C 331.012 365.014, 322.697 356.343, 312.530 346.374 C 294.522 328.716, 291.337 324.663, 292.526 320.919 C 294.112 315.920, 301.730 318.675, 320.475 331.030 C 333.875 339.861, 338.127 342, 342.286 342 C 346.483 342, 350.003 338.546, 349.993 334.436 C 349.980 328.518, 344.733 323.461, 329 314.204 C 317.384 307.370, 314 304.199, 314 300.148 C 314 292.978, 319.386 291.604, 341.500 293.133 C 361.997 294.551, 367.760 293.476, 374.205 287.030 C 381.104 280.132, 379.087 275.428, 364.965 265.476 C 355.827 259.035, 353 255.834, 353 251.922 C 353 243.063, 366.207 244.275, 392.394 255.537 L 401.289 259.361 403.169 257.040 C 405.030 254.741, 413.301 240.019, 414.503 236.864 C 415.018 235.512, 413.772 234.937, 407.313 233.545 C 396.248 231.161, 378.471 226.131, 373.346 223.934 C 369.549 222.306, 369 221.678, 369 218.961 L 369 215.852 374.250 216.130 C 379.456 216.407, 379.500 216.385, 379.500 213.468 C 379.500 211.305, 378.839 210.223, 377 209.376 C 373.519 207.772, 366.098 207.038, 362.413 207.932 M 292.247 213.356 C 291.275 215.490, 291.507 215.871, 294.711 217.399 C 296.656 218.327, 298.480 218.854, 298.763 218.570 C 299.214 218.119, 294.367 211, 293.610 211 C 293.451 211, 292.838 212.060, 292.247 213.356 M 270.706 226.554 C 268.438 228.095, 267.218 229.582, 267.630 230.304 C 269.748 234.021, 270.253 234.017, 273.100 230.257 C 275.884 226.580, 276.763 224, 275.232 224 C 274.810 224, 272.773 225.149, 270.706 226.554 M 187.218 227.416 C 187.923 228.745, 191.501 233.358, 195.169 237.666 C 198.837 241.975, 202.759 246.625, 203.886 248 C 205.612 250.107, 205.939 250.217, 205.967 248.697 C 206.012 246.267, 202.581 241.385, 194.553 232.450 C 187.835 224.973, 184.826 222.909, 187.218 227.416 M 250.935 246.836 C 247.619 249.779, 246.994 250.784, 248.194 251.244 C 250.008 251.940, 257.748 244.580, 256.206 243.627 C 255.669 243.295, 253.297 244.739, 250.935 246.836 M 59.729 251.577 C 52.696 258.390, 51.096 261.336, 50.863 267.900 C 50.684 272.959, 50.715 273.012, 57.696 279.741 C 63.119 284.967, 65.090 287.658, 66.387 291.606 C 69.573 301.301, 75.216 303.626, 93.320 302.703 C 110.659 301.818, 137.607 293.999, 158.911 283.672 L 167.322 279.595 162.575 275.417 C 151.241 265.444, 143.366 264.118, 121.888 268.565 C 115.074 269.976, 105.883 271.188, 101.462 271.259 C 94.408 271.371, 92.612 271.007, 86.783 268.279 C 76.601 263.515, 67 253.449, 67 247.540 C 67 245.032, 65.796 245.701, 59.729 251.577 M 257.101 253.393 L 254.853 255.786 258.676 258.567 C 260.779 260.097, 264.300 262.695, 266.500 264.342 C 268.700 265.988, 271.161 267.822, 271.969 268.418 C 272.777 269.013, 272.404 267.925, 271.139 266 C 269.875 264.075, 267.189 259.917, 265.170 256.761 C 263.152 253.605, 261.016 251.017, 260.424 251.011 C 259.833 251.005, 258.337 252.077, 257.101 253.393 M 339.571 271.571 C 335.577 275.566, 339.864 283.109, 346.232 283.290 C 350.232 283.403, 354 280.847, 354 278.019 C 354 276.212, 350.816 272.928, 347.316 271.125 C 344.272 269.558, 341.421 269.722, 339.571 271.571 M 128.991 356.828 C 118.675 366.993, 115.539 373.321, 115.516 384.017 L 115.500 391.535 123.165 400.153 C 131.755 409.810, 133.255 412.299, 136.928 422.980 C 139.200 429.587, 139.967 430.722, 143.500 432.706 C 156.710 440.124, 186.581 439.662, 217.980 431.554 C 236.527 426.764, 275 412.140, 275 409.880 C 275 408.582, 259.437 397.255, 253.568 394.281 C 245.624 390.256, 239.518 390.298, 215.500 394.542 C 200.623 397.171, 191.293 398.289, 183.500 398.377 C 173.029 398.494, 172.169 398.343, 165.604 395.234 C 156.962 391.142, 146.777 381.084, 142.569 372.488 C 140.199 367.646, 139.553 364.825, 139.196 357.750 C 138.954 352.938, 138.346 349, 137.846 349 C 137.345 349, 133.361 352.523, 128.991 356.828" stroke="none" fill="black" fill-rule="evenodd"/>
</svg>