<svg xmlns="http://www.w3.org/2000/svg">

  <symbol id="Knight" fill="currentColor" viewBox="0 0 512 512">
    <path
      d="M 238.136 14.336 C 235.887 17.045, 234 24.424, 234 30.503 C 234 34.292, 233.508 37.158, 232.750 37.778 C 232.063 38.341, 227.900 40.001, 223.500 41.466 C 210.218 45.890, 200.133 53.002, 191.254 64.207 C 181.551 76.451, 176.774 87.411, 173.053 105.977 C 171.904 111.707, 170.085 117.886, 169.011 119.706 C 167.936 121.527, 166.316 126.675, 165.410 131.145 C 161.432 150.781, 166.548 168.116, 178.067 174.024 C 180.029 175.031, 182.194 176.529, 182.879 177.354 C 184.770 179.633, 187.576 197.824, 186.241 199.159 C 185.648 199.752, 180.288 201.560, 174.331 203.176 C 163.330 206.160, 159 208.138, 159 210.179 C 159 210.802, 160.142 212.809, 161.538 214.639 C 166.067 220.576, 168.980 228.086, 168.990 233.850 C 168.999 238.607, 168.623 239.577, 165.600 242.600 C 159.961 248.239, 155.920 246.821, 151.500 237.650 C 148.334 231.081, 144.527 231.668, 133 240.504 C 129.975 242.822, 123.708 246.920, 119.074 249.610 C 99.118 261.193, 88.396 277.301, 74.052 317.253 C 70.844 326.189, 67.261 335.694, 66.091 338.376 C 64.497 342.029, 64.242 343.586, 65.073 344.588 C 66.949 346.848, 76.686 349.957, 84.025 350.639 C 88.069 351.015, 90.998 351.752, 90.996 352.394 C 90.993 353.002, 89.658 355.511, 88.027 357.968 C 82.838 365.790, 83.181 371.084, 89.202 376.108 L 92.328 378.716 87.650 397.108 C 85.077 407.224, 82.496 417.233, 81.915 419.351 C 81.262 421.735, 78.620 425.609, 74.981 429.520 C 68.070 436.950, 65.776 443.184, 65.607 454.997 C 65.478 464.034, 67.165 465.006, 70.814 458 C 73.848 452.174, 76.852 449, 79.329 449 C 84.026 449, 91.929 460.671, 97.273 475.500 C 101.488 487.197, 101.805 487.641, 107.874 490.339 C 115.782 493.854, 123.516 496.240, 125.670 495.828 C 127.227 495.530, 127.597 494.103, 128.149 486.268 C 128.859 476.189, 131.993 460.240, 134.955 451.631 C 135.993 448.613, 139.655 439.530, 143.091 431.445 C 150.255 414.593, 150.138 414.623, 154.697 428.482 C 156.899 435.175, 157.359 438.484, 157.480 448.500 C 157.560 455.100, 157.973 462.123, 158.397 464.107 C 158.986 466.858, 158.563 469.456, 156.614 475.060 C 154.188 482.035, 154.146 482.504, 155.779 484.312 C 158.155 486.941, 165.019 490.242, 174.500 493.313 C 199.691 501.474, 223.145 504.686, 250 503.653 C 290.286 502.103, 315.823 497.882, 331 490.264 C 339.641 485.927, 340.303 484.439, 337.433 475.798 C 334.197 466.055, 336.982 447.397, 345.118 424.312 C 348.554 414.566, 351.642 408, 352.790 408 C 354.815 408, 366.085 428.992, 371.826 443.455 C 375.333 452.290, 375.418 452.824, 375.458 466.500 C 375.481 474.200, 375.101 483.728, 374.613 487.674 L 373.727 494.849 378.113 493.892 C 385.477 492.285, 392.401 489.829, 394.378 488.122 C 395.411 487.230, 399.102 482.126, 402.579 476.780 C 409.863 465.582, 416.242 459.055, 423.375 455.501 C 429.557 452.420, 431.175 452.386, 434.525 455.268 C 436.536 456.998, 437.321 458.833, 437.831 463.005 C 438.621 469.459, 440.826 470.721, 443.687 466.355 C 445.080 464.228, 445.500 461.610, 445.500 455.044 C 445.500 446.582, 445.436 446.366, 438.859 432.500 C 431.994 418.026, 429.162 410.266, 426.580 398.853 C 424.064 387.727, 424.218 386.068, 428.402 379.289 C 430.973 375.124, 431.981 372.516, 431.548 371.152 C 431.198 370.047, 428.681 366.354, 425.955 362.944 C 423.230 359.535, 421 356.220, 421 355.579 C 421 354.937, 424.938 353.130, 429.750 351.563 C 442.394 347.446, 447 345.295, 447 343.507 C 447 341.835, 430.131 303.220, 424.290 291.524 C 416.097 275.115, 402.314 258.081, 390.907 250.266 C 380.130 242.883, 360.403 232, 357.797 232 C 355.587 232, 354.012 233.300, 349.926 238.500 C 347.116 242.075, 344.627 245, 344.395 245 C 344.162 245, 341.572 243.088, 338.639 240.750 C 335.706 238.412, 331.887 235.733, 330.153 234.797 C 327.361 233.288, 327.003 232.601, 327.024 228.797 C 327.052 223.698, 330.330 215.288, 334.850 208.717 C 336.642 206.114, 337.803 203.490, 337.430 202.887 C 337.058 202.285, 334.967 200.992, 332.784 200.015 C 329.142 198.384, 328.350 198.360, 323.158 199.717 C 316.263 201.518, 304.622 201.094, 302.634 198.967 C 301.560 197.819, 301.437 195.777, 302.067 189.573 C 303.232 178.096, 303.467 177.544, 308.059 175.473 C 313.471 173.033, 319.458 166.091, 321.688 159.671 C 325.209 149.531, 323.338 132.867, 317.316 120.735 C 316.015 118.114, 313.848 111.303, 312.501 105.600 C 307.616 84.928, 301.660 72.977, 290.170 60.798 C 279.590 49.582, 268.441 42.891, 254.492 39.388 L 248 37.757 248 33.860 C 248 29.845, 243.915 16.807, 241.894 14.372 C 240.464 12.649, 239.543 12.641, 238.136 14.336 M 240.314 26.238 C 239.423 27.420, 240.553 111.817, 241.498 114.686 C 241.750 115.453, 245.482 114.055, 252.033 110.740 C 261.474 105.964, 262.781 105.579, 270.859 105.192 C 278.559 104.824, 280.590 105.129, 288.827 107.889 C 293.935 109.600, 298.530 111, 299.038 111 C 300.351 111, 299.137 102.949, 296.355 93.212 C 292.735 80.542, 287.758 71.566, 280.179 64.038 L 273.597 57.500 272.649 60.128 C 271.971 62.004, 270.104 63.436, 266.128 65.128 C 263.064 66.433, 260.207 67.650, 259.779 67.833 C 259.350 68.017, 259 65.190, 259 61.552 C 259 56.595, 259.376 54.793, 260.500 54.362 C 264.585 52.794, 258.891 49.542, 249.769 48.233 L 244.500 47.476 244.216 37.332 C 244.022 30.394, 243.511 26.839, 242.599 26.082 C 241.614 25.265, 241.017 25.305, 240.314 26.238 M 267.176 109.070 C 252.838 111.892, 242.178 121.591, 241.976 132 C 241.910 135.425, 241.848 135.371, 239.095 129.424 C 233.857 118.112, 223.808 111.029, 212.973 111.010 C 207.866 111.001, 203 112.869, 203 114.839 C 203 115.239, 206.090 115.391, 209.868 115.177 C 215.214 114.875, 217.754 115.240, 221.335 116.824 C 227.744 119.659, 235.494 127.238, 238.515 133.624 C 239.914 136.581, 241.488 139, 242.012 139 C 242.537 139, 244.060 136.842, 245.396 134.204 C 248.700 127.686, 255.373 121.217, 262 118.110 C 272.101 113.374, 284.880 115.465, 298.459 124.076 C 300.995 125.684, 303.504 127, 304.035 127 C 306.140 127, 304.798 123.737, 300.997 119.613 C 296.547 114.785, 288.158 110.547, 279.980 108.996 C 274.063 107.874, 273.229 107.879, 267.176 109.070 M 309.609 131.020 C 308.388 134.070, 308 138.555, 308 149.604 C 308 166.226, 308.436 166.801, 313.928 157.424 C 318.243 150.054, 319.067 142.773, 316.481 134.848 C 313.537 125.829, 312.023 124.985, 309.609 131.020 M 300.866 141.753 C 300.236 153.245, 299.301 155.101, 293.129 157.101 C 291.133 157.748, 286.026 160.013, 281.779 162.135 L 274.058 165.993 269.327 162.993 C 265.546 160.594, 245.316 152, 243.452 152 C 243.204 152, 243.008 154.363, 243.018 157.250 L 243.037 162.500 257.406 170.070 C 271.399 177.441, 271.837 177.595, 274.138 175.964 C 275.437 175.042, 278.613 173.497, 281.196 172.529 C 284.447 171.311, 285.985 170.133, 286.196 168.700 C 286.384 167.419, 288.550 165.428, 291.875 163.479 C 300.730 158.290, 303.758 150.452, 302.104 137 C 301.472 131.858, 301.392 132.168, 300.866 141.753 M 184.087 136.500 C 183.971 141.356, 185.967 152.036, 187.569 155.134 C 188.553 157.037, 191.388 159.178, 196.001 161.500 C 203.426 165.240, 204 165.434, 204 164.210 C 204 163.776, 200.902 161.748, 197.116 159.703 C 193.330 157.658, 189.695 155.338, 189.039 154.547 C 188.383 153.757, 187.183 149.148, 186.373 144.305 C 184.647 133.988, 184.184 132.407, 184.087 136.500 M 176.158 138 C 176.158 139.375, 176.385 139.938, 176.662 139.250 C 176.940 138.563, 176.940 137.438, 176.662 136.750 C 176.385 136.063, 176.158 136.625, 176.158 138 M 312.250 137.667 C 310.526 138.356, 310.678 144.196, 312.481 146.559 C 313.765 148.242, 314.099 148.301, 314.992 147 C 316.257 145.157, 315.877 137.748, 314.500 137.411 C 313.950 137.277, 312.938 137.392, 312.250 137.667 M 177.272 147 C 177.272 149.475, 177.467 150.488, 177.706 149.250 C 177.944 148.012, 177.944 145.988, 177.706 144.750 C 177.467 143.512, 177.272 144.525, 177.272 147 M 176.079 153.583 C 176.127 154.748, 176.364 154.985, 176.683 154.188 C 176.972 153.466, 176.936 152.603, 176.604 152.271 C 176.272 151.939, 176.036 152.529, 176.079 153.583 M 243.193 173.697 C 243.483 178.219, 243.778 178.667, 248.500 181.766 C 251.250 183.572, 257.100 186.862, 261.500 189.078 L 269.500 193.107 277 189.304 L 284.500 185.500 284.805 180.733 L 285.111 175.966 280.113 177.865 C 277.365 178.909, 273.916 180.708, 272.450 181.861 L 269.784 183.958 265.142 181.284 C 262.589 179.814, 258.919 177.635, 256.986 176.442 C 255.053 175.249, 251.090 173.066, 248.179 171.591 L 242.887 168.909 243.193 173.697 M 291 171.326 C 291 172.056, 290.519 177.568, 289.931 183.576 C 288.438 198.830, 287.096 201.267, 276.298 208.319 C 271.513 211.443, 266.985 214, 266.236 214 C 265.486 214, 259.940 211.237, 253.910 207.860 C 247.880 204.483, 242.796 201.896, 242.613 202.110 C 242.430 202.325, 241.996 205.338, 241.649 208.806 C 240.898 216.322, 241.459 217.045, 253.299 223.819 L 260.840 228.134 264.170 226.441 C 273.300 221.801, 288.064 209.710, 290.608 204.791 C 291.408 203.244, 292.718 195.796, 293.520 188.239 C 295.436 170.193, 295.430 170, 293 170 C 291.900 170, 291 170.597, 291 171.326 M 194 174.119 C 194 178.657, 198.154 199.472, 199.664 202.500 C 201.258 205.697, 208 211.897, 208 210.167 C 208 209.600, 206.685 208.200, 205.078 207.055 C 201.362 204.410, 199.581 199.472, 196.940 184.500 C 194.814 172.444, 194 169.570, 194 174.119 M 224.250 184.115 C 220.841 186.298, 219.738 187.764, 222.750 186.108 C 225.044 184.847, 228.639 182.068, 228 182.049 C 227.725 182.040, 226.037 182.970, 224.250 184.115 M 206.083 185.303 C 206.313 185.469, 207.850 186.396, 209.500 187.362 L 212.500 189.119 210.139 187.059 C 208.841 185.927, 207.303 185, 206.723 185 C 206.142 185, 205.854 185.136, 206.083 185.303 M 243 190.345 C 243 194.178, 243.495 196.128, 244.750 197.240 C 247.299 199.498, 265.313 210.300, 266.559 210.318 C 267.947 210.338, 279.003 202.797, 281.238 200.306 C 283.288 198.022, 284.598 192.488, 283.282 191.675 C 282.231 191.025, 272.312 195.408, 269.906 197.585 C 268.490 198.867, 267.356 198.509, 260.089 194.489 C 255.570 191.990, 250.110 188.832, 247.956 187.472 C 245.802 186.113, 243.806 185, 243.520 185 C 243.234 185, 243 187.405, 243 190.345 M 222 203.089 C 219.846 204.851, 219.804 204.986, 221.694 204.062 C 222.901 203.472, 224.165 202.542, 224.503 201.995 C 225.406 200.534, 224.800 200.799, 222 203.089 M 317.453 212.914 C 310.759 216.753, 306.367 221.790, 300.783 232.031 C 298.243 236.689, 295.023 241.572, 293.628 242.882 C 291.841 244.560, 285.680 246.824, 272.795 250.539 C 262.733 253.440, 249.667 257.880, 243.759 260.407 C 237.852 262.933, 232.425 265, 231.701 265 C 230.976 265, 226.809 263.706, 222.441 262.125 C 209.581 257.468, 210 257.532, 210 260.230 C 210 262.345, 211.250 263.040, 221.849 266.823 L 233.698 271.051 245.185 266.560 C 251.503 264.090, 263.767 260.014, 272.439 257.502 C 295.909 250.705, 296.897 250.033, 304.096 236 C 307.294 229.765, 310.698 225.168, 316.871 218.750 C 321.499 213.938, 324.658 210.004, 323.893 210.009 C 323.127 210.015, 320.229 211.322, 317.453 212.914 M 348.862 248.986 C 334.584 264.906, 331.883 271.850, 333.835 287.627 C 335.068 297.595, 339.011 309.930, 343.307 317.260 C 350.085 328.826, 364.523 340.743, 377 345.069 C 384.970 347.832, 404.605 348.836, 416.026 347.064 C 424.776 345.706, 425.749 345.032, 424.420 341.255 L 423.450 338.500 406.975 338.430 C 383.580 338.330, 374.118 335.676, 362.500 325.955 C 349.143 314.780, 341.219 296.981, 342.239 280.445 C 342.786 271.589, 345.778 264.857, 353.327 255.500 C 359.452 247.908, 359.993 246.208, 357.112 243.601 C 355.301 241.963, 354.961 242.185, 348.862 248.986 M 142.696 243.637 C 142.346 243.988, 142.948 245.523, 144.034 247.048 C 145.121 248.574, 147.086 252.145, 148.401 254.984 C 150.921 260.424, 152.133 260.279, 152.297 254.518 C 152.463 248.645, 145.538 240.796, 142.696 243.637 M 324 248.573 C 317.868 252.909, 302.855 260.264, 291.505 264.493 C 284.057 267.268, 280.404 269.139, 280.182 270.294 C 279.957 271.462, 280.512 272, 281.943 272 C 285.343 272, 308.873 263.149, 317.230 258.727 C 325.383 254.412, 331.681 248.910, 330.553 247.086 C 329.545 245.455, 327.872 245.835, 324 248.573 M 369.589 255.143 C 363.757 256.474, 359.101 259.771, 355.879 264.852 C 353.517 268.577, 353.003 270.478, 353.015 275.446 C 353.034 283.205, 354.464 285.912, 360.183 289.012 C 366.988 292.701, 368.387 294.274, 374.211 304.788 C 384.458 323.289, 392.138 328.691, 409.678 329.738 C 418.734 330.278, 419.204 330.208, 418.680 328.404 C 417.451 324.168, 415.905 317.965, 413.545 307.797 C 408.610 286.533, 400.043 270.050, 389.630 261.785 C 381.734 255.518, 376.111 253.655, 369.589 255.143 M 136.250 257.651 C 134.768 258.262, 134.580 261.622, 135.979 262.487 C 137.562 263.465, 141.149 261.014, 140.799 259.194 C 140.464 257.458, 138.408 256.760, 136.250 257.651 M 103.711 271.252 C 97.259 277.704, 91.135 287.287, 86.071 298.855 C 81.509 309.277, 75 327.080, 75 329.136 C 75 332.754, 82.146 330.711, 86.755 325.775 C 88.318 324.101, 89.649 320.313, 91.091 313.430 C 95.141 294.099, 100.921 280.278, 107.812 273.448 C 110.004 271.277, 112.097 268.488, 112.466 267.250 C 113.686 263.147, 110.242 264.721, 103.711 271.252 M 142.508 268.214 C 142.114 269.727, 140.849 271.225, 139.651 271.599 C 136.774 272.496, 136.034 273.818, 136.015 278.090 C 135.978 286.770, 130.006 303.769, 122.983 315.182 L 120.073 319.912 122.691 321.971 C 125.113 323.876, 125.443 323.909, 127.096 322.413 C 129.398 320.330, 136.528 306.627, 139.159 299.232 C 141.688 292.123, 145.018 270.208, 143.981 267.500 C 143.280 265.668, 143.156 265.728, 142.508 268.214 M 298.500 276.632 C 283.288 283.739, 270.475 287.175, 258.500 287.361 C 248.324 287.518, 245.290 286.377, 234.651 278.391 C 231.434 275.976, 228.025 274, 227.075 274 C 226.126 274, 222.104 276.458, 218.138 279.463 C 205.927 288.714, 197.283 289.395, 182.186 282.294 C 179.264 280.919, 176.604 280.063, 176.276 280.391 C 175.115 281.551, 179.183 284.810, 185.303 287.623 C 190.565 290.042, 192.788 290.473, 200.037 290.486 C 208.312 290.500, 208.802 290.367, 216.037 286.149 C 220.142 283.757, 224.434 281.788, 225.577 281.774 C 226.719 281.761, 230.668 283.654, 234.352 285.981 C 245.593 293.080, 249.999 294.420, 262 294.391 C 274.434 294.360, 282.781 291.922, 297.775 283.938 C 307.370 278.829, 310.674 277.988, 311.606 280.415 C 311.904 281.193, 310.698 286.031, 308.925 291.165 C 302.859 308.727, 305.083 324.442, 315.004 334.130 C 319.401 338.424, 322.233 339.878, 329.203 341.417 L 331.906 342.015 330.313 346.257 C 327.508 353.729, 327.240 397.897, 330.030 392.911 C 330.489 392.091, 331.268 382.437, 331.760 371.459 C 332.599 352.746, 332.821 351.177, 335.309 346.321 C 336.768 343.472, 338.421 340.858, 338.981 340.512 C 340.272 339.714, 340.310 338, 339.038 338 C 338.508 338, 335.673 337.101, 332.738 336.003 C 326.200 333.557, 319.556 327.264, 316.373 320.500 C 311.964 311.133, 313.959 295.755, 321.030 284.612 L 324.131 279.724 319.316 275.407 C 316.667 273.032, 313.600 271.075, 312.500 271.058 C 311.400 271.041, 305.100 273.549, 298.500 276.632 M 153 280.438 C 153 281.229, 153.721 284.941, 154.603 288.688 C 157.579 301.333, 155.237 313.114, 147.340 325.230 C 145.919 327.411, 145.812 328.212, 146.808 329.208 C 149.495 331.895, 155.667 324.358, 158.535 314.884 C 160.937 306.951, 160.257 290.404, 157.255 283.750 C 155.188 279.168, 153 277.465, 153 280.438 M 227.522 295.756 C 225.347 301.269, 223.924 411.764, 225.987 415 C 226.755 416.206, 228.916 414.496, 237.012 406.271 C 248.632 394.468, 256.807 388.324, 267.160 383.613 C 278.692 378.366, 282.922 377.586, 300.092 377.541 C 311.786 377.510, 316.098 377.157, 317.342 376.128 C 318.701 375.002, 319 372.786, 319 363.817 L 319 352.880 311.626 345.690 C 298.200 332.599, 293.625 318.034, 297.351 300.250 C 298.072 296.813, 298.455 294, 298.202 294 C 297.950 294, 295.429 295.324, 292.601 296.942 C 285.766 300.853, 270.990 305.706, 263.333 306.555 C 253.872 307.605, 242.464 304.168, 233.500 297.567 C 228.733 294.057, 228.249 293.911, 227.522 295.756 M 405.500 369.015 C 394.966 371.110, 373.462 380.669, 372.253 383.793 C 371.181 386.564, 373.338 386.144, 382.739 381.748 C 393.626 376.659, 403.465 373.405, 410.989 372.407 C 416.267 371.707, 417.735 369.698, 413.750 368.630 C 411.155 367.935, 410.860 367.949, 405.500 369.015 M 116 372.376 C 116 373.696, 128.617 381, 130.896 381 C 133.471 381, 131.583 378.962, 125.442 375.112 C 118.586 370.813, 116 370.064, 116 372.376 M 402 389.861 C 393.823 392.105, 391 393.618, 391 395.755 C 391 398.872, 403.894 423.455, 408.045 428.250 C 411.384 432.109, 412.769 433, 415.423 433 C 417.440 433, 419.395 432.221, 420.534 430.963 C 422.226 429.092, 422.276 428.334, 421.140 421.713 C 420.459 417.746, 418.462 408.650, 416.701 401.500 C 413.009 386.504, 413.324 386.754, 402 389.861 M 274 394.826 C 261.647 398.954, 251.366 405.741, 240.967 416.633 C 236.824 420.973, 231.729 427.331, 229.645 430.762 C 227.560 434.193, 225.689 437, 225.486 437 C 225.283 437, 223.734 434.413, 222.044 431.250 C 211.798 412.079, 191.857 395.184, 178.871 394.672 C 171.975 394.400, 172.844 395.990, 181 398.565 C 185.125 399.867, 190.838 402.411, 193.695 404.216 C 205.597 411.740, 217.044 425.915, 222.550 439.951 C 224.058 443.794, 225.584 446.757, 225.942 446.536 C 226.300 446.315, 228.271 442.827, 230.322 438.786 C 235.216 429.145, 241.456 421.317, 249.615 414.588 C 271.580 396.470, 294.626 393.997, 318.841 407.161 C 322.878 409.356, 326.463 410.871, 326.806 410.528 C 328.812 408.521, 318.329 400.177, 309 396.355 C 300.225 392.760, 282.501 391.985, 274 394.826 M 121.242 395.309 C 120.745 395.964, 119.080 400.100, 117.543 404.500 C 116.005 408.900, 112.779 416.263, 110.374 420.863 C 105.969 429.285, 105.151 432.358, 107.009 433.506 C 109.267 434.901, 111.885 432.644, 114.299 427.222 C 117.379 420.301, 125.804 399.032, 126.209 397.154 C 126.608 395.309, 122.422 393.755, 121.242 395.309 M 288.500 415.551 C 277.522 421.388, 239.249 449.718, 238.247 452.750 C 237.427 455.229, 240.127 453.863, 252.212 445.686 C 258.970 441.114, 271.863 432.919, 280.862 427.476 C 289.861 422.033, 297.464 416.954, 297.758 416.189 C 298.295 414.790, 296.447 413.044, 294.399 413.015 C 293.793 413.007, 291.139 414.148, 288.500 415.551 M 303.927 433.827 C 297.562 438.123, 287.887 444.957, 282.427 449.013 C 267.973 459.751, 246.596 474.877, 238.250 480.273 C 234.262 482.850, 231 485.633, 231 486.455 C 231 487.593, 231.538 487.746, 233.250 487.094 C 240.057 484.504, 319 431.621, 319 429.651 C 319 428.386, 317.063 425.994, 316.050 426.007 C 315.748 426.012, 310.292 429.530, 303.927 433.827 M 424.485 439.107 C 413.840 444.736, 398.013 460, 402.822 460 C 403.273 460, 406.761 457.494, 410.572 454.430 C 422.161 445.114, 429.230 442.472, 434.945 445.322 C 438.978 447.334, 438.971 445.634, 434.927 440.728 C 431.384 436.429, 429.966 436.209, 424.485 439.107 M 313.497 456.601 C 303.587 463.743, 284.280 476.525, 273.549 483.049 C 263.105 489.398, 260.116 492, 263.269 492 C 265.457 492, 285.320 481.999, 296 475.519 C 317.258 462.623, 322.821 457.756, 320.535 454.057 C 319.551 452.465, 318.919 452.693, 313.497 456.601 M 309.750 480.255 C 304.938 483.057, 301 485.714, 301 486.160 C 301 488.465, 319.321 479.288, 319.812 476.737 C 320.284 474.288, 319.573 474.537, 309.750 480.255"
      stroke="none" fill-rule="evenodd" />
  </symbol>

  <symbol id="RedCross" fill="currentColor" viewBox="0 0 146 145">
    <line x1="1.43369" y1="143.12" x2="142.855" y2="1.69868" stroke="#000" stroke-width="3" />
    <line x1="3.06066" y1="1.93934" x2="144.482" y2="143.361" stroke="#000" stroke-width="3" />
  </symbol>

  <symbol id="NikePair" fill="currentColor" viewBox="0 0 512 512">
    <path
      d="M 217.885 149 C 214.953 152.082, 213.325 153.001, 210.790 153.004 C 208.981 153.006, 206.059 153.886, 204.299 154.960 C 198.695 158.376, 197.676 161.733, 197 179 C 196.540 190.756, 195.984 195.273, 194.697 197.700 C 193.764 199.461, 193 202.173, 193 203.728 C 193 207.594, 190.594 210.711, 187 211.500 C 183.736 212.217, 181 215.339, 181 218.346 C 181 220.757, 167.530 233.487, 160.663 237.567 C 157.823 239.254, 154.464 242.167, 153.199 244.041 C 151.675 246.297, 149.281 248.051, 146.112 249.233 C 142.628 250.533, 140.449 252.240, 138.101 255.509 C 135.334 259.362, 134.378 260, 131.372 260 C 126.570 260, 124.344 261.405, 122.062 265.878 C 120.437 269.064, 119.124 270.051, 114.059 271.898 C 108.348 273.981, 108 274.293, 108 277.348 L 108 280.589 90.190 287.840 C 80.394 291.828, 69.782 295.769, 66.608 296.598 C 61.739 297.869, 59.930 299.046, 55.039 304.122 C 48.435 310.977, 43.761 318.864, 43.471 323.642 C 43.362 325.437, 42.494 328.546, 41.543 330.550 C 39.188 335.514, 40.213 340.121, 44.807 345.216 C 50.135 351.126, 54.830 352.952, 64.771 352.978 C 72.032 352.997, 73.534 353.325, 77.062 355.660 C 79.272 357.122, 80.725 358.644, 80.290 359.040 C 79.856 359.436, 72.361 360.977, 63.636 362.465 C 43.357 365.922, 37 368.089, 37 371.545 C 37 376.340, 78.281 378.508, 119.585 375.883 L 137.163 374.765 140.331 377.775 C 144.739 381.961, 150.205 384.481, 159.202 386.473 C 163.438 387.412, 167.426 388.809, 168.065 389.578 C 169.409 391.198, 170.299 390.800, 157.021 394.515 C 140.896 399.027, 131 403.972, 131 407.519 C 131 411.235, 142.423 414.808, 161.500 417.060 C 174.106 418.548, 210.170 418.535, 224 417.037 C 251.067 414.107, 283.008 407.669, 345.439 392.560 C 357.572 389.624, 385.950 383.079, 408.500 378.017 C 465.314 365.262, 470 364.051, 470 362.123 C 470 361.613, 468.569 360.697, 466.821 360.087 L 463.641 358.979 468.250 356.057 C 476.129 351.060, 476.840 347.279, 471.466 338.966 C 469.522 335.960, 467.770 332.600, 467.574 331.500 C 467.377 330.400, 466.679 326.800, 466.023 323.500 C 465.367 320.200, 464.700 311.875, 464.542 305 C 464.328 295.757, 463.569 289.633, 461.627 281.500 C 456.994 262.091, 449.830 237.746, 446.180 229 C 442.938 221.232, 442.575 219.365, 441.970 207.310 C 441.376 195.479, 441.009 193.523, 438.404 188.321 C 433.581 178.689, 432.929 178.500, 404.483 178.500 L 380.465 178.500 375.983 174.868 C 367.649 168.116, 359.371 164.883, 340.452 160.990 C 327.897 158.407, 324.417 158.467, 320.054 161.342 C 316.523 163.668, 316.364 163.679, 295.303 163.044 L 274.106 162.405 268.803 158.758 C 265.886 156.752, 260.953 153.946, 257.840 152.523 C 251.161 149.470, 232.369 145.022, 226.095 145.009 C 222.252 145.001, 221.206 145.510, 217.885 149 M 206.510 160.250 C 204.452 162.029, 203.730 163.860, 203.056 169 C 200.275 190.214, 201.160 195.127, 204.896 179.213 C 206.029 174.390, 207.865 167.798, 208.978 164.565 C 210.090 161.332, 211 158.532, 211 158.343 C 211 157.336, 208.798 158.271, 206.510 160.250 M 247.979 164.244 C 242.628 167.015, 238.317 174.529, 237.339 182.789 C 236.441 190.372, 238.488 189.434, 240.961 181.130 C 245.394 166.244, 250.669 164.040, 273.587 167.494 C 279.039 168.316, 284.625 168.943, 286 168.888 C 289.949 168.729, 267.273 163.355, 259.479 162.602 C 253.301 162.005, 251.920 162.203, 247.979 164.244 M 305.656 172.133 C 302.132 174.181, 301 179.231, 301 192.909 C 301 204.682, 301.753 208.581, 303.657 206.676 C 303.946 206.388, 305.222 201.280, 306.495 195.326 C 307.767 189.372, 309.920 181.463, 311.280 177.750 L 313.752 171 310.626 171.030 C 308.907 171.047, 306.670 171.543, 305.656 172.133 M 357.223 182.589 C 350.888 185.851, 347.613 191.887, 345.418 204.348 C 344.819 207.751, 344.957 208.155, 346.608 207.837 C 347.946 207.579, 348.938 205.766, 350.102 201.452 C 354.415 185.472, 358.927 183.068, 380 185.525 C 399.056 187.746, 402.671 187.360, 390.500 184.403 C 377.028 181.130, 361.681 180.293, 357.223 182.589 M 245.922 186.146 C 244.883 188.088, 244.985 188.237, 246.997 187.711 C 248.547 187.306, 249.955 187.864, 251.646 189.555 C 253.615 191.525, 254.178 191.699, 254.645 190.482 C 254.961 189.658, 254.485 187.863, 253.587 186.492 C 251.528 183.349, 247.516 183.168, 245.922 186.146 M 200.250 200.491 C 195.358 202.617, 195.717 206.586, 201.182 210.786 L 205.364 214 199.932 214.006 C 196.944 214.009, 192.826 214.476, 190.779 215.044 C 184.959 216.661, 181.492 223, 186.429 223 C 187.764 223, 189.627 223.770, 190.569 224.711 C 192.184 226.327, 191.906 226.492, 185.630 227.650 C 175.857 229.454, 168.851 235, 176.345 235 C 178.360 235, 180.373 235.755, 181.408 236.898 C 183.081 238.747, 182.894 238.805, 174.237 239.148 C 166.536 239.453, 164.791 239.869, 161.175 242.264 C 156.093 245.629, 155.887 247, 160.461 247 C 162.761 247, 164.628 247.755, 166.025 249.250 L 168.127 251.500 160.646 252.123 C 149.695 253.036, 146.829 253.745, 143.579 256.347 L 140.657 258.685 143.829 259.790 C 149.609 261.805, 147.439 263, 138 263 C 130.057 263, 128.741 263.259, 126.797 265.203 L 124.595 267.405 133.494 268.690 C 143.655 270.157, 147.911 271.370, 153.301 274.335 C 157.343 276.558, 159.297 276.141, 161.433 272.596 C 162.327 271.114, 161.617 270.029, 157.060 265.913 L 151.619 261 155.560 260.911 C 165.964 260.677, 169.586 261.166, 172.387 263.183 C 174.841 264.951, 175.397 265.042, 176.097 263.791 C 176.550 262.982, 177.793 261.242, 178.860 259.924 C 180.771 257.565, 180.771 257.488, 178.892 254.848 C 177.842 253.374, 176.716 250.832, 176.390 249.200 L 175.796 246.231 179.648 246.967 C 181.767 247.372, 185.436 248.298, 187.803 249.026 C 191.950 250.300, 192.203 250.252, 194.771 247.684 L 197.435 245.019 192.968 240.384 L 188.500 235.749 194.252 236.383 C 197.416 236.732, 201.809 237.740, 204.014 238.622 C 207.223 239.906, 208.319 239.980, 209.511 238.991 C 212.895 236.183, 209.843 231.794, 200.446 225.953 C 196.669 223.605, 196.607 223.485, 199 223.141 C 202.227 222.678, 214.520 224.827, 218.872 226.615 C 223.438 228.490, 224.735 228.364, 226.045 225.917 C 227.404 223.376, 226.018 221.602, 218.046 215.685 C 215.047 213.458, 213.092 211.469, 213.702 211.266 C 215.751 210.583, 227.449 214.128, 232.989 217.111 C 238.094 219.860, 238.566 219.946, 239.739 218.342 C 241.445 216.009, 241.367 215.589, 238.604 212.306 C 235.190 208.249, 228.401 205.161, 215.653 201.867 C 202.840 198.556, 204.384 198.694, 200.250 200.491 M 356.161 206.547 C 354.605 209.961, 354.652 210.073, 357.250 209.156 C 360.605 207.972, 362.925 208.851, 363.606 211.566 C 364.354 214.546, 366 213.772, 366 210.441 C 366 204.761, 358.353 201.735, 356.161 206.547 M 298 218.031 C 298 221, 298.461 222.204, 299.750 222.599 C 300.712 222.894, 303.525 224.090, 306 225.257 L 310.500 227.378 304.051 228.150 C 295.350 229.192, 292.103 230.662, 291.404 233.877 C 291.090 235.319, 290.688 236.988, 290.511 237.585 C 290.334 238.182, 292.298 239.211, 294.875 239.871 C 297.453 240.532, 300.898 241.953, 302.531 243.030 L 305.500 244.987 300.500 245.011 C 297.750 245.024, 292.350 245.693, 288.500 246.498 C 283.027 247.642, 280.900 248.623, 278.750 250.996 C 277.238 252.666, 276.003 254.362, 276.006 254.766 C 276.010 255.170, 278.305 255.548, 281.108 255.606 C 284.284 255.672, 286.533 256.237, 287.076 257.106 C 287.715 258.126, 287.352 258.566, 285.724 258.744 C 275.627 259.853, 269.643 261.429, 266.958 263.689 C 263.671 266.455, 263.874 268, 267.524 268 C 269.450 268, 272.019 270.404, 271.996 272.184 C 271.994 272.358, 268.056 272.500, 263.246 272.500 C 255.824 272.500, 253.932 272.853, 250.750 274.832 C 246.441 277.511, 245.955 279, 249.389 279 C 250.703 279, 252.751 279.788, 253.939 280.750 C 256.039 282.450, 255.859 282.502, 247.668 282.558 C 241.462 282.600, 238.544 283.069, 236.618 284.331 C 235.178 285.274, 234 286.404, 234 286.840 C 234 287.277, 239.863 288.600, 247.029 289.779 C 255.572 291.186, 261.818 292.808, 265.168 294.490 C 267.978 295.902, 270.332 296.931, 270.399 296.778 C 270.466 296.625, 271.353 295.510, 272.369 294.301 C 274.191 292.134, 274.168 292.041, 270.764 287.801 C 264.994 280.615, 264.994 280.609, 270.972 281.402 C 273.872 281.787, 278.418 282.927, 281.072 283.935 C 285.530 285.629, 286.005 285.645, 287.297 284.135 C 290.443 280.457, 290.299 279.866, 284.928 274.427 C 282.007 271.469, 279.874 268.793, 280.188 268.478 C 281.230 267.436, 296.686 269.883, 300.476 271.690 C 304.171 273.452, 304.219 273.447, 306.082 271.147 C 307.757 269.078, 307.810 268.537, 306.564 266.163 C 305.796 264.698, 303.105 261.790, 300.584 259.700 C 298.063 257.610, 296 255.557, 296 255.136 C 296 254.137, 306.931 254.757, 314.283 256.173 C 319.737 257.224, 320.206 257.155, 322.533 254.969 C 323.890 253.694, 325 252.105, 325 251.437 C 325 250.769, 321.358 247.472, 316.907 244.111 L 308.813 238 312.657 238.004 C 317.836 238.009, 333.328 240.579, 339.500 242.457 C 342.250 243.294, 344.597 243.983, 344.715 243.989 C 344.833 243.995, 345.427 243.070, 346.036 241.933 C 348.111 238.056, 341.889 232.380, 331.467 228.641 C 329.285 227.859, 324.350 225.085, 320.500 222.479 C 311.917 216.667, 305.913 214, 301.417 214 C 298.093 214, 298 214.109, 298 218.031 M 436.500 253.709 C 431.550 258.402, 425.270 263.517, 422.545 265.074 C 418.691 267.276, 417.969 268.051, 419.297 268.560 C 420.236 268.921, 422.241 268.935, 423.752 268.593 C 426.397 267.993, 426.425 268.027, 424.505 269.524 C 422.912 270.766, 422.783 271.248, 423.866 271.917 C 424.611 272.378, 426.184 272.546, 427.361 272.291 C 428.834 271.971, 429.103 272.110, 428.226 272.737 C 427.239 273.443, 427.411 274.062, 428.994 275.494 C 430.991 277.302, 431.100 277.279, 434.139 274.421 C 435.846 272.814, 439.928 268.405, 443.209 264.623 C 448.758 258.226, 449.128 257.495, 448.501 254.154 C 448.131 252.179, 447.304 249.351, 446.664 247.869 L 445.500 245.176 436.500 253.709 M 232.678 250.484 C 228.944 252.432, 226.570 255.305, 222.964 262.243 C 219.915 268.108, 216.944 277.795, 217.070 281.460 C 217.140 283.484, 217.147 283.484, 218 281.500 C 218.735 279.790, 218.870 279.754, 218.930 281.250 C 219.037 283.921, 222.625 283.389, 226.809 280.083 C 228.839 278.478, 232.409 276.608, 234.743 275.926 C 237.847 275.020, 238.719 274.367, 237.994 273.493 C 237.449 272.836, 236.791 270.094, 236.532 267.399 C 236.111 263.019, 236.148 262.900, 236.878 266.281 C 238.188 272.343, 240.021 275, 242.891 275 L 245.445 275 243.217 273.439 C 239.591 270.899, 237.932 266.418, 237.299 257.448 C 236.971 252.802, 236.432 249.003, 236.101 249.006 C 235.771 249.010, 234.230 249.675, 232.678 250.484 M 439.250 270.129 C 435.262 274.437, 432 278.397, 432 278.931 C 432 279.465, 428.925 283.050, 425.167 286.899 C 415.573 296.724, 412.770 302.523, 409.167 320 C 404.603 342.138, 406.856 339.638, 411.992 316.865 C 413.560 309.915, 415.749 302.452, 416.857 300.280 C 417.965 298.109, 424.083 290.532, 430.453 283.444 C 441.690 270.940, 447.716 263.314, 446.899 262.631 C 446.679 262.448, 443.238 265.822, 439.250 270.129 M 427.872 266.750 C 426.629 268.336, 426.664 268.371, 428.250 267.128 C 429.916 265.821, 430.445 265, 429.622 265 C 429.415 265, 428.627 265.788, 427.872 266.750 M 409.831 276.292 C 404.945 280.564, 384.694 291.944, 370.741 298.259 C 348.904 308.142, 341.741 304.881, 340.296 284.398 C 339.624 274.877, 338.965 274.335, 333.693 278.965 C 326.522 285.260, 321 299.635, 321 312.002 C 321 318.353, 321.464 320.557, 323.750 325.070 C 331.970 341.296, 348.170 339.048, 381.087 317.114 C 396.914 306.568, 407.906 297.802, 417.407 288.151 L 424.313 281.134 420.984 278.317 C 416.313 274.365, 414.578 273.062, 414 273.073 C 413.725 273.079, 411.849 274.527, 409.831 276.292 M 219.079 277.583 C 219.127 278.748, 219.364 278.985, 219.683 278.188 C 219.972 277.466, 219.936 276.603, 219.604 276.271 C 219.272 275.939, 219.036 276.529, 219.079 277.583 M 215.168 286.595 C 213.915 287.473, 213.027 288.837, 213.195 289.628 C 213.375 290.477, 218.651 292.848, 226.073 295.416 C 239.192 299.955, 244.339 302.224, 247.202 304.732 C 248.723 306.064, 249.286 305.987, 252.498 304.001 C 254.475 302.779, 255.932 301.266, 255.735 300.640 C 254.562 296.905, 240.054 290.323, 224.836 286.621 C 216.814 284.670, 217.912 284.673, 215.168 286.595 M 400.872 298.750 C 399.629 300.336, 399.664 300.371, 401.250 299.128 C 402.212 298.373, 403 297.585, 403 297.378 C 403 296.555, 402.179 297.084, 400.872 298.750 M 396.405 302.250 L 394.500 304.500 396.750 302.595 C 398.864 300.805, 399.455 300, 398.655 300 C 398.465 300, 397.453 301.012, 396.405 302.250 M 344.718 304.021 C 346.488 305.878, 348.105 307.196, 348.312 306.949 C 348.519 306.702, 347.071 305.183, 345.094 303.573 L 341.500 300.645 344.718 304.021 M 59 304.025 C 59 307.949, 92.012 314.068, 121 315.517 C 138.070 316.370, 143.452 317.440, 149.192 321.123 C 155.334 325.064, 156.372 324.331, 151.073 319.794 C 145.459 314.989, 141.963 314.117, 121.746 312.480 C 100.001 310.719, 87.255 308.860, 74.154 305.539 C 63.440 302.823, 59 302.380, 59 304.025 M 390 307.122 C 386.515 310.177, 386.514 310.181, 389.720 308.049 C 391.491 306.871, 393.205 305.478, 393.529 304.953 C 394.493 303.393, 393.693 303.884, 390 307.122 M 351.762 307.707 C 353.006 307.946, 354.806 307.937, 355.762 307.687 C 356.718 307.437, 355.700 307.241, 353.500 307.252 C 351.300 307.263, 350.518 307.468, 351.762 307.707 M 382.500 312.588 L 379.500 315.165 382.750 313.015 C 384.538 311.832, 386 310.669, 386 310.432 C 386 309.683, 385.577 309.944, 382.500 312.588 M 370.441 320.555 C 368.577 322.049, 368.589 322.067, 370.750 321.020 C 371.988 320.420, 373 319.720, 373 319.465 C 373 318.700, 372.481 318.921, 370.441 320.555 M 453.500 321.384 C 450.750 322.629, 442.520 325.546, 435.212 327.866 C 427.903 330.187, 418.556 333.620, 414.440 335.496 C 410.325 337.371, 401.005 340.481, 393.729 342.406 C 369.368 348.851, 333.474 361.519, 330.948 364.563 C 329.604 366.182, 330.189 375.736, 331.908 380.259 L 332.878 382.809 346.189 379.415 C 353.510 377.549, 373.225 373.068, 390 369.458 C 440.917 358.500, 464.344 351.661, 467.312 346.890 C 468.043 345.715, 467.687 343.957, 465.995 340.390 C 464.720 337.700, 463.583 335.372, 463.470 335.215 C 463.356 335.058, 460.665 335.902, 457.489 337.090 C 454.313 338.278, 444.106 341.386, 434.808 343.997 C 422.982 347.317, 417.128 349.458, 415.327 351.122 L 412.752 353.500 413.484 351 C 415.430 344.357, 416.227 343.651, 424.500 341.234 C 445.134 335.207, 457.954 330.858, 460.021 329.184 C 462.014 327.570, 462.174 326.897, 461.372 323.503 C 460.871 321.386, 460.020 319.534, 459.481 319.388 C 458.941 319.242, 456.250 320.140, 453.500 321.384 M 153.439 328.192 C 152.518 331.095, 156.191 334.037, 165.693 338.006 C 180.674 344.263, 195.466 346.541, 230.500 347.986 C 245.833 348.618, 253.826 349.364, 256.876 350.446 C 263.047 352.637, 265.156 352.392, 261.149 349.950 C 255.522 346.519, 247.428 345.199, 225 344.056 C 202.060 342.886, 193.317 341.905, 183.084 339.351 C 174.020 337.089, 163.141 332.432, 158.809 328.959 C 154.392 325.419, 154.322 325.409, 153.439 328.192 M 311.133 333.948 C 317.871 338.180, 322.685 343.554, 326.044 350.591 C 327.670 353.998, 329 357.258, 329 357.834 C 329 358.410, 329.498 359.190, 330.107 359.566 C 333.379 361.588, 327.064 345.564, 322.429 340.082 C 318.916 335.927, 311.363 330.993, 308.554 331.019 C 307.059 331.033, 307.760 331.829, 311.133 333.948 M 344.813 332.683 C 345.534 332.972, 346.397 332.936, 346.729 332.604 C 347.061 332.272, 346.471 332.036, 345.417 332.079 C 344.252 332.127, 344.015 332.364, 344.813 332.683 M 74 344.958 C 74 348.494, 94.013 352.510, 117.886 353.765 C 133.300 354.575, 134.773 354.255, 135.231 350 C 135.495 347.547, 135.358 347.496, 128 347.296 C 115.256 346.949, 78.625 344.918, 76.250 344.427 C 75.013 344.171, 74 344.410, 74 344.958 M 389.990 347.946 C 389.160 348.432, 378.976 351.982, 367.360 355.834 C 344.234 363.502, 338 366.219, 338 368.627 C 338 369.758, 338.503 369.998, 339.750 369.463 C 343.197 367.983, 379.644 355.960, 386.750 353.958 C 393.229 352.132, 394 351.654, 394 349.458 C 394 346.923, 392.622 346.403, 389.990 347.946 M 309.716 372.575 C 294.760 376.796, 277.508 379.638, 258.813 380.961 C 231.141 382.919, 193.976 381.852, 176.936 378.612 C 172.846 377.834, 169.315 377.376, 169.089 377.593 C 168.145 378.502, 172.484 381.962, 177.011 383.909 C 184.002 386.917, 202.712 391.552, 215.460 393.435 C 236.171 396.494, 254.642 397.211, 269.154 395.519 C 283.143 393.889, 299.135 390.965, 310.500 387.960 C 314.350 386.942, 319.637 385.808, 322.250 385.441 C 326.644 384.823, 327 384.560, 327 381.936 C 327 380.375, 326.513 376.826, 325.917 374.049 C 325.121 370.338, 324.393 369.033, 323.167 369.124 C 322.250 369.193, 316.197 370.745, 309.716 372.575 M 297.500 394 C 297.840 394.550, 298.316 395, 298.559 395 C 298.802 395, 299 394.550, 299 394 C 299 393.450, 298.523 393, 297.941 393 C 297.359 393, 297.160 393.450, 297.500 394 M 229.404 399.389 C 228.752 401.088, 229.629 403, 231.059 403 C 232.320 403, 232.266 399.282, 230.993 398.496 C 230.439 398.153, 229.724 398.555, 229.404 399.389 M 253 400.941 C 253 401.459, 253.450 402.160, 254 402.500 C 254.550 402.840, 255 402.416, 255 401.559 C 255 400.702, 254.550 400, 254 400 C 253.450 400, 253 400.423, 253 400.941"
      stroke="none" fill-rule="evenodd" />
  </symbol>

  <symbol id="ShoesPair" fill="currentColor" viewBox="0 0 512 512">
    <path
      d="M 288.001 81.066 C 284.232 82.655, 281.179 85.820, 276.489 93 C 270.712 101.844, 266.929 105.176, 257.250 109.945 C 252.713 112.181, 249 114.360, 249 114.788 C 249 115.216, 250.621 118.618, 252.601 122.348 C 256.703 130.073, 256.526 132.308, 252.314 125.976 C 242.183 110.749, 227.325 101.758, 217.596 104.968 C 215.581 105.633, 212.724 107.823, 210.952 110.061 C 208.385 113.302, 207.519 113.813, 205.987 112.993 C 203.122 111.460, 199.820 111.813, 196.161 114.043 C 194.172 115.256, 192.030 115.827, 190.862 115.456 C 189.749 115.103, 187.818 115.544, 186.392 116.479 C 184.111 117.973, 183.909 118.665, 184.177 124.061 C 184.463 129.835, 184.357 130.113, 180.366 134.105 C 177.238 137.233, 175.100 138.424, 171.381 139.112 C 165.696 140.163, 164 141.985, 164 147.036 C 164 151.256, 162.679 152.680, 155.375 156.340 C 149.512 159.277, 148.624 160.720, 150.478 164.296 C 151.667 166.587, 151.563 167.062, 149.434 169.062 C 148.133 170.284, 144.691 172.076, 141.784 173.043 C 137.518 174.463, 136.075 175.550, 134.293 178.686 C 133.080 180.823, 127.610 186.712, 122.139 191.773 C 111.585 201.535, 108 206.978, 108 213.239 C 108 221.137, 115.526 225.801, 137.398 231.456 C 152.243 235.294, 157 235.819, 157 233.622 C 157 231.668, 156.069 231.052, 141 223.027 C 121.619 212.706, 119.133 210.592, 120.407 205.516 C 121.143 202.580, 126.685 196, 128.420 196 C 130.061 196, 142.615 204.748, 154.962 214.495 C 166.656 223.725, 167.999 224.389, 170.885 222.368 C 175.343 219.246, 173.812 216.441, 160.942 204.160 C 154.311 197.832, 148.421 191.787, 147.854 190.728 C 146.904 188.953, 147.085 188.859, 150.162 189.533 C 156.437 190.905, 171.493 197.095, 178.175 201.050 C 185.711 205.509, 187.006 205.756, 189.345 203.171 C 192.138 200.085, 191.377 196.364, 186.977 191.591 C 182.902 187.170, 173.753 173.914, 174.358 173.308 C 175.042 172.625, 183.861 176.218, 193.803 181.230 C 205.151 186.951, 207.235 186.949, 207.808 181.217 C 208.314 176.167, 202.705 171.002, 189.406 164.269 C 183.138 161.096, 178.155 158.050, 178.333 157.500 C 178.512 156.950, 181.044 156.362, 183.962 156.193 C 191.483 155.758, 202.102 159.173, 210.205 164.633 C 218.370 170.135, 221.362 170.230, 221.780 165 C 222.022 161.984, 221.089 160.267, 215.030 152.578 C 211.164 147.671, 208 143.556, 208 143.433 C 208 142.434, 216.125 145.513, 223.586 149.340 C 228.583 151.903, 233.396 154, 234.280 154 C 235.165 154, 237.142 152.922, 238.674 151.604 C 241.115 149.504, 241.338 148.856, 240.480 146.354 C 239.817 144.424, 238.121 142.860, 235.242 141.523 C 232.901 140.435, 231.123 139.085, 231.292 138.523 C 231.936 136.384, 240.452 133, 245.192 133 C 252.024 133, 258 135.583, 258 138.536 C 258 140.741, 257.737 140.828, 252.655 140.304 C 248.245 139.849, 247.196 140.046, 246.665 141.432 C 245.922 143.367, 248.299 145.937, 255.222 150.682 C 262.016 155.337, 263.520 158.068, 262.406 163.716 C 261.048 170.596, 259.334 171.080, 252.464 166.520 C 246.739 162.720, 238.342 159, 235.489 159 C 234.670 159, 233.049 159.951, 231.887 161.113 C 229.152 163.848, 229.806 168.434, 233.844 174.836 C 237.972 181.380, 238.476 183.624, 236.498 186.643 C 234.207 190.139, 224.738 194.312, 219.066 194.325 C 216.555 194.330, 211.327 193.977, 207.450 193.539 C 201.452 192.862, 200.146 192.997, 198.700 194.443 C 195.621 197.522, 196.619 200.603, 202.500 206.177 C 205.525 209.044, 208 211.969, 208 212.676 C 208 214.925, 203.476 215.210, 194.493 213.527 C 184.950 211.739, 180.518 212.164, 178.992 215.016 C 177.509 217.786, 177.795 228.780, 179.526 235.540 C 180.366 238.818, 183.112 245.821, 185.628 251.102 C 188.145 256.383, 190.040 261.552, 189.841 262.589 C 189.477 264.475, 178.030 270.915, 175 270.938 C 174.175 270.944, 170.800 268.692, 167.500 265.934 C 164.200 263.175, 158.624 259.493, 155.108 257.752 C 146.651 253.563, 140.520 253.672, 119.179 258.391 C 110.203 260.376, 101.179 262, 99.125 262 C 93.845 262, 85.981 257.756, 80.600 252.003 C 73.388 244.293, 73.693 243.166, 87.500 226.522 C 93.825 218.897, 99 212.312, 99 211.888 C 99 211.465, 98.524 210.824, 97.942 210.464 C 96.364 209.489, 89.799 214.207, 78.552 224.401 C 73.023 229.411, 64.360 236.827, 59.299 240.881 C 46.884 250.825, 43.357 256.259, 41.595 268.155 C 41.176 270.983, 39.943 273.848, 38.453 275.456 C 35.386 278.766, 35.190 284.491, 37.958 289.918 C 41.057 295.992, 51.401 304.617, 61.500 309.549 C 73.314 315.318, 82.745 317.169, 100.036 317.111 C 115.744 317.059, 128.448 315.347, 149.795 310.404 C 158.207 308.457, 165.530 307.010, 166.069 307.190 C 168.060 307.853, 149.575 327.153, 137.729 336.779 C 112.294 357.447, 105.045 368.285, 105.012 385.697 C 105.003 390.436, 104.393 393.024, 102.419 396.697 C 99.188 402.710, 99.411 410.071, 103.047 417.500 C 106.169 423.877, 121.576 439.362, 129.331 443.917 C 138.069 449.050, 151.316 453.665, 164.607 456.207 C 175.182 458.229, 179.549 458.481, 204 458.482 C 234.786 458.483, 246.117 457.090, 269 450.491 C 283.512 446.306, 304.010 437.682, 306.993 434.508 C 309.275 432.079, 309.318 430.967, 307.394 424.200 L 306.741 421.900 311.286 424.108 L 315.832 426.317 321.194 423.694 C 332.849 417.991, 356.188 400.978, 356.814 397.728 C 356.993 396.797, 355.992 394.970, 354.588 393.669 L 352.036 391.304 354.516 390.174 C 357.935 388.617, 365.563 381.443, 368.009 377.485 C 370.470 373.503, 369.748 370.940, 364.537 365.172 L 360.984 361.240 363.428 359.639 C 366.865 357.387, 374.270 346.711, 380.646 334.817 C 387.365 322.284, 390.385 318.437, 399.849 310.362 C 407.073 304.198, 407.390 304.043, 409.265 305.739 C 410.332 306.705, 411.845 308.734, 412.628 310.248 C 413.411 311.761, 414.656 313, 415.395 313 C 416.133 313, 425.909 306.357, 437.119 298.238 C 456.856 283.942, 457.510 283.357, 457.810 279.738 C 458.057 276.770, 458.533 276, 460.120 276 C 462.725 276, 472.753 269.036, 473.562 266.665 C 473.957 265.510, 473.413 264.004, 472.094 262.600 C 469.516 259.855, 469.492 259.366, 471.908 258.734 C 476.188 257.615, 483.696 241.447, 482.489 235.949 C 482.150 234.407, 480.690 231.963, 479.244 230.517 C 476.744 228.017, 476.674 227.669, 477.808 223.430 C 479.480 217.177, 479.291 209.473, 477.372 205.700 C 476.477 203.940, 473.390 200.012, 470.512 196.971 C 467.635 193.930, 464.547 190.024, 463.650 188.291 C 462.754 186.557, 459.055 175.096, 455.430 162.820 C 451.805 150.544, 447.958 139.068, 446.880 137.318 C 440.132 126.359, 410.647 118.674, 399.223 124.897 C 395.659 126.839, 390.973 132.774, 386.510 141 C 380.238 152.562, 374.641 157.248, 360.428 162.836 L 355.357 164.830 351.054 159.835 C 347.198 155.359, 346.868 154.585, 347.876 152.373 C 350.842 145.863, 348.295 138.941, 340.620 132.652 C 338.227 130.691, 335.549 127.569, 334.669 125.714 C 332.961 122.116, 326.690 101.828, 325.484 96 C 324.134 89.482, 322.288 87.267, 315.361 83.857 C 309.553 80.998, 307.542 80.543, 299.602 80.296 C 294.596 80.139, 289.375 80.486, 288.001 81.066 M 313.701 111 C 313.379 112.375, 312.827 115.279, 312.474 117.453 C 310.306 130.825, 299.721 137.826, 280.250 138.767 C 274.613 139.039, 270 139.599, 270 140.010 C 270 141.925, 277.078 143.497, 285.500 143.452 C 296.492 143.394, 302.990 140.904, 308.910 134.482 C 314.666 128.237, 317.258 118.315, 315.044 111 L 314.287 108.500 313.701 111 M 328.080 134.280 C 325.986 140.555, 317.980 153.984, 310.662 163.500 C 308.970 165.700, 308.466 166.791, 309.543 165.924 C 319.365 158.014, 322.629 154.810, 325.981 149.790 C 330.300 143.323, 332.477 135.230, 331.171 130.500 C 330.373 127.608, 330.262 127.744, 328.080 134.280 M 183.500 139 C 181.919 140.650, 181.190 142, 181.879 142 C 183.956 142, 186.889 140.076, 188.012 137.977 C 189.688 134.846, 186.867 135.485, 183.500 139 M 152.133 174.359 L 149.916 176.718 155.031 178.918 C 157.844 180.128, 160.548 180.979, 161.039 180.809 C 162.196 180.409, 156.842 172.017, 155.424 172.007 C 154.833 172.003, 153.351 173.062, 152.133 174.359 M 435.558 180.380 C 433.455 197.216, 420.855 206.734, 398 208.750 C 389.800 209.474, 389.500 209.588, 389.500 212 C 389.500 214.400, 389.781 214.512, 396.500 214.805 C 410.380 215.410, 425.866 210.513, 431.593 203.707 C 436.854 197.454, 438.467 193.006, 438.456 184.773 C 438.443 175.162, 436.566 172.316, 435.558 180.380 M 217.050 178.440 C 215.153 180.726, 216.234 185.104, 219.250 187.346 L 222 189.391 224.750 187.345 C 228.499 184.556, 228.730 181.719, 225.420 179.115 C 222.303 176.664, 218.761 176.378, 217.050 178.440 M 302.500 178.945 C 301.400 179.396, 299.638 180.722, 298.586 181.892 C 296.693 183.996, 296.698 184.050, 299.010 186.510 C 301.813 189.494, 304 189.730, 304 187.048 C 304 185.975, 305.644 183.500, 307.653 181.548 L 311.307 178 307.903 178.063 C 306.032 178.098, 303.600 178.495, 302.500 178.945 M 327.963 182.461 C 324.274 184.467, 313.812 199.621, 315.321 200.773 C 317.342 202.315, 344.978 215.362, 345.288 214.919 C 349.248 209.254, 352.045 206.293, 355.516 204.092 L 359.770 201.394 357.135 198.314 C 353.064 193.554, 343.100 185.956, 337.529 183.361 C 331.711 180.652, 331.349 180.618, 327.963 182.461 M 456.296 197.414 C 455.664 202.051, 453.843 208.935, 452.241 212.748 C 446.576 226.232, 433.744 245.630, 419.471 262.289 L 411.674 271.389 418.039 266.444 C 428.594 258.245, 451.296 235.072, 455.287 228.422 C 459.298 221.741, 462 212.874, 462 206.395 C 462 202.973, 458.531 189, 457.681 189 C 457.550 189, 456.927 192.786, 456.296 197.414 M 282.114 199.801 C 279.301 202.441, 277 205.372, 277 206.314 C 277 207.353, 278.773 208.887, 281.510 210.217 C 285.749 212.277, 286.122 212.306, 287.715 210.714 C 289.184 209.245, 289.242 208.558, 288.152 205.543 C 287.247 203.041, 287.190 201.514, 287.947 200.099 C 289.231 197.700, 289.319 195, 288.114 195 C 287.626 195, 284.926 197.160, 282.114 199.801 M 362.413 207.932 C 358.855 208.795, 357.713 209.419, 353.250 212.938 C 351.463 214.347, 350 216.001, 350 216.614 C 350 217.227, 351.999 218.492, 354.442 219.425 C 360.972 221.919, 364 224.635, 364 228 C 364 231.498, 359.958 235, 355.920 235 C 354.374 235, 347.623 232.300, 340.918 229 C 334.213 225.700, 327.849 223, 326.777 223 C 325.024 223, 325.139 223.424, 327.911 227.194 C 329.607 229.500, 333.921 234.702, 337.497 238.755 C 342.355 244.258, 344 246.866, 344 249.061 C 344 251.943, 341.038 256, 338.935 256 C 338.350 256, 334.147 253.724, 329.595 250.943 C 320.425 245.340, 289.204 231.075, 284.500 230.340 C 281.975 229.945, 281.051 230.444, 278.664 233.490 C 277.104 235.480, 276.054 237.698, 276.330 238.419 C 276.607 239.139, 280.808 241.864, 285.666 244.474 C 303.271 253.932, 321.248 264.570, 324.970 267.731 C 327.062 269.508, 329.050 272.064, 329.388 273.412 C 330.290 277.003, 328.470 280.844, 325.516 281.585 C 322.900 282.242, 318.655 280.072, 295.622 266.306 C 290.739 263.388, 286.606 261, 286.438 261 C 286.269 261, 288.731 265.163, 291.910 270.250 C 299.392 282.228, 304.615 291.856, 305.341 295.014 C 306.073 298.195, 304.151 302.053, 301.320 303.088 C 299.691 303.682, 298.174 303.186, 295.320 301.127 C 293.219 299.610, 282.050 291.944, 270.500 284.090 C 258.950 276.237, 247.553 268.279, 245.172 266.406 C 242.792 264.533, 240.430 263, 239.922 263 C 239.415 263, 239 264.974, 239 267.387 C 239 273.604, 243.146 279.243, 257 291.868 C 285.537 317.874, 285 317.322, 285 320.610 C 285 324.020, 282.395 327.002, 279.421 326.996 C 275.995 326.990, 267.542 320.805, 234.740 294.308 C 227.722 288.638, 221.398 284, 220.686 284 C 219.237 284, 214.437 288.864, 211.159 293.654 C 205.538 301.867, 210.120 307.964, 243.262 336.377 C 255.408 346.790, 259 350.450, 259 352.413 C 259 352.712, 255.738 351.785, 251.750 350.351 C 234.566 344.176, 209.172 329.250, 201.278 320.685 C 198.923 318.131, 196.647 314.404, 196.020 312.076 C 193.246 301.772, 198.716 293.255, 222.082 271.500 C 226.673 267.226, 229.441 263.580, 231.707 258.823 C 234.171 253.650, 236.082 251.254, 240.194 248.185 C 247.418 242.790, 251.617 238.086, 252.408 234.500 C 253.741 228.451, 255.142 226.426, 259.812 223.801 C 262.435 222.326, 265.370 220.249, 266.334 219.184 C 268.311 216.998, 269.801 210, 268.288 210 C 266.090 210, 252.001 220.886, 245 227.994 C 239.713 233.362, 236.196 238.101, 233.080 244.054 C 224.326 260.781, 222.270 263.170, 199.736 282.808 C 187.165 293.764, 182.417 299.161, 174.057 312 C 170.655 317.225, 164.996 324.425, 161.482 328 C 149.826 339.857, 146.723 352.534, 152.358 365.275 C 155.301 371.929, 163.502 381.034, 169.986 384.846 C 173.973 387.190, 175.493 387.487, 183 387.392 C 188.038 387.329, 198.627 385.925, 209 383.945 C 223.030 381.267, 229.078 380.594, 239.500 380.552 C 251.451 380.504, 252.944 380.708, 258 383.083 C 261.025 384.503, 268.376 389.338, 274.336 393.827 C 280.296 398.316, 285.589 402.246, 286.098 402.561 C 288.239 403.884, 309.210 389.222, 310.689 385.368 C 311.007 384.539, 309.518 381.871, 307.212 379.136 C 301.180 371.982, 292.346 358.434, 288.374 350.243 C 282.608 338.356, 282.813 328.536, 288.786 330.432 C 289.822 330.761, 299.086 339.327, 309.374 349.468 C 326.845 366.691, 330.979 369.782, 331.008 365.643 C 331.012 365.014, 322.697 356.343, 312.530 346.374 C 294.522 328.716, 291.337 324.663, 292.526 320.919 C 294.112 315.920, 301.730 318.675, 320.475 331.030 C 333.875 339.861, 338.127 342, 342.286 342 C 346.483 342, 350.003 338.546, 349.993 334.436 C 349.980 328.518, 344.733 323.461, 329 314.204 C 317.384 307.370, 314 304.199, 314 300.148 C 314 292.978, 319.386 291.604, 341.500 293.133 C 361.997 294.551, 367.760 293.476, 374.205 287.030 C 381.104 280.132, 379.087 275.428, 364.965 265.476 C 355.827 259.035, 353 255.834, 353 251.922 C 353 243.063, 366.207 244.275, 392.394 255.537 L 401.289 259.361 403.169 257.040 C 405.030 254.741, 413.301 240.019, 414.503 236.864 C 415.018 235.512, 413.772 234.937, 407.313 233.545 C 396.248 231.161, 378.471 226.131, 373.346 223.934 C 369.549 222.306, 369 221.678, 369 218.961 L 369 215.852 374.250 216.130 C 379.456 216.407, 379.500 216.385, 379.500 213.468 C 379.500 211.305, 378.839 210.223, 377 209.376 C 373.519 207.772, 366.098 207.038, 362.413 207.932 M 292.247 213.356 C 291.275 215.490, 291.507 215.871, 294.711 217.399 C 296.656 218.327, 298.480 218.854, 298.763 218.570 C 299.214 218.119, 294.367 211, 293.610 211 C 293.451 211, 292.838 212.060, 292.247 213.356 M 270.706 226.554 C 268.438 228.095, 267.218 229.582, 267.630 230.304 C 269.748 234.021, 270.253 234.017, 273.100 230.257 C 275.884 226.580, 276.763 224, 275.232 224 C 274.810 224, 272.773 225.149, 270.706 226.554 M 187.218 227.416 C 187.923 228.745, 191.501 233.358, 195.169 237.666 C 198.837 241.975, 202.759 246.625, 203.886 248 C 205.612 250.107, 205.939 250.217, 205.967 248.697 C 206.012 246.267, 202.581 241.385, 194.553 232.450 C 187.835 224.973, 184.826 222.909, 187.218 227.416 M 250.935 246.836 C 247.619 249.779, 246.994 250.784, 248.194 251.244 C 250.008 251.940, 257.748 244.580, 256.206 243.627 C 255.669 243.295, 253.297 244.739, 250.935 246.836 M 59.729 251.577 C 52.696 258.390, 51.096 261.336, 50.863 267.900 C 50.684 272.959, 50.715 273.012, 57.696 279.741 C 63.119 284.967, 65.090 287.658, 66.387 291.606 C 69.573 301.301, 75.216 303.626, 93.320 302.703 C 110.659 301.818, 137.607 293.999, 158.911 283.672 L 167.322 279.595 162.575 275.417 C 151.241 265.444, 143.366 264.118, 121.888 268.565 C 115.074 269.976, 105.883 271.188, 101.462 271.259 C 94.408 271.371, 92.612 271.007, 86.783 268.279 C 76.601 263.515, 67 253.449, 67 247.540 C 67 245.032, 65.796 245.701, 59.729 251.577 M 257.101 253.393 L 254.853 255.786 258.676 258.567 C 260.779 260.097, 264.300 262.695, 266.500 264.342 C 268.700 265.988, 271.161 267.822, 271.969 268.418 C 272.777 269.013, 272.404 267.925, 271.139 266 C 269.875 264.075, 267.189 259.917, 265.170 256.761 C 263.152 253.605, 261.016 251.017, 260.424 251.011 C 259.833 251.005, 258.337 252.077, 257.101 253.393 M 339.571 271.571 C 335.577 275.566, 339.864 283.109, 346.232 283.290 C 350.232 283.403, 354 280.847, 354 278.019 C 354 276.212, 350.816 272.928, 347.316 271.125 C 344.272 269.558, 341.421 269.722, 339.571 271.571 M 128.991 356.828 C 118.675 366.993, 115.539 373.321, 115.516 384.017 L 115.500 391.535 123.165 400.153 C 131.755 409.810, 133.255 412.299, 136.928 422.980 C 139.200 429.587, 139.967 430.722, 143.500 432.706 C 156.710 440.124, 186.581 439.662, 217.980 431.554 C 236.527 426.764, 275 412.140, 275 409.880 C 275 408.582, 259.437 397.255, 253.568 394.281 C 245.624 390.256, 239.518 390.298, 215.500 394.542 C 200.623 397.171, 191.293 398.289, 183.500 398.377 C 173.029 398.494, 172.169 398.343, 165.604 395.234 C 156.962 391.142, 146.777 381.084, 142.569 372.488 C 140.199 367.646, 139.553 364.825, 139.196 357.750 C 138.954 352.938, 138.346 349, 137.846 349 C 137.345 349, 133.361 352.523, 128.991 356.828"
      stroke="none" fill-rule="evenodd" />
  </symbol>

  <symbol id="CheckCircle" fill="currentColor" viewBox="0 0 24 24">
    <path fill-rule="evenodd"
      d="M14.72,8.79l-4.29,4.3L8.78,11.44a1,1,0,1,0-1.41,1.41l2.35,2.36a1,1,0,0,0,.71.29,1,1,0,0,0,.7-.29l5-5a1,1,0,0,0,0-1.42A1,1,0,0,0,14.72,8.79ZM12,2A10,10,0,1,0,22,12,10,10,0,0,0,12,2Zm0,18a8,8,0,1,1,8-8A8,8,0,0,1,12,20Z"
      clip-rule="evenodd"></path>
  </symbol>

  <symbol id="Star" fill="currentColor" viewBox="0 0 512 512">
    <path
      d="M 252.121 7.639 C 251.552 8.662, 242.481 26.600, 231.964 47.500 C 214.505 82.195, 207.980 95.840, 188.208 139 C 184.555 146.975, 180.971 154.459, 180.245 155.632 C 178.931 157.754, 178.770 157.761, 146.712 157.266 C 124.703 156.926, 104.206 157.272, 82 158.360 C 64.125 159.236, 42.750 160.203, 34.500 160.508 C 13.872 161.272, 5 162.021, 5 163 C 5 163.456, 14.955 175.006, 27.122 188.665 C 39.289 202.324, 57.380 222.725, 67.325 234 C 77.270 245.275, 96.052 265.300, 109.062 278.500 C 122.072 291.700, 133.219 303.460, 133.832 304.634 C 134.725 306.344, 133.766 312.438, 129.004 335.313 C 122.179 368.101, 120.245 379.355, 112.555 431 C 109.484 451.625, 106.574 470.975, 106.087 474 C 105.600 477.025, 105.347 479.653, 105.524 479.840 C 105.701 480.026, 108.468 478.409, 111.673 476.246 C 114.878 474.082, 123.125 469.003, 130 464.958 C 136.875 460.913, 147.299 454.555, 153.165 450.829 C 159.031 447.103, 174.407 437.983, 187.334 430.564 C 200.261 423.144, 215.261 414.221, 220.669 410.733 C 237.691 399.755, 252.722 391, 254.548 391 C 256.640 391, 262.637 394.305, 290.270 410.685 C 301.693 417.457, 314.743 424.854, 319.270 427.124 C 323.796 429.394, 336.275 436.536, 347 442.996 C 357.725 449.456, 375.169 459.519, 385.764 465.357 C 396.360 471.196, 406.147 476.706, 407.514 477.601 C 410.718 479.701, 410.721 479.255, 407.579 465.839 C 406.248 460.152, 401.041 435.025, 396.009 410 C 390.976 384.975, 385.111 356.850, 382.974 347.500 C 375.380 314.270, 373.866 306.118, 374.925 304.140 C 375.474 303.114, 384.774 293.776, 395.593 283.388 C 406.411 272.999, 421.387 257.525, 428.873 249 C 450.615 224.239, 460.934 213.054, 485.862 187.228 C 498.748 173.879, 509.078 162.745, 508.819 162.486 C 508.560 162.226, 497.582 161.562, 484.424 161.010 C 471.266 160.457, 446.775 159.287, 430 158.409 C 406.790 157.194, 390.736 156.976, 362.830 157.494 L 326.161 158.175 324.679 155.837 C 323.864 154.552, 317.493 139.775, 310.523 123 C 301.313 100.837, 292.094 81.157, 276.795 51 C 265.215 28.175, 255.159 8.662, 254.448 7.639 C 253.188 5.824, 253.130 5.824, 252.121 7.639 M 252.105 40.224 C 250.569 44.264, 238.397 73.112, 231.499 89.060 C 223.794 106.873, 207.453 141.780, 198.290 160 L 191.500 173.500 113 173.724 C 69.825 173.847, 33.924 173.959, 33.221 173.974 C 32.517 173.988, 37.917 179.733, 45.221 186.740 C 63.823 204.588, 76.289 217.169, 100.486 242.516 C 112.029 254.607, 129.097 272.258, 138.416 281.741 L 155.359 298.982 147.604 338.241 C 140.136 376.045, 128.426 432.788, 125.534 445.186 C 123.811 452.569, 123.371 452.685, 138.208 441.846 C 153.701 430.528, 180.128 413.312, 200.500 401.264 C 209.850 395.735, 225.570 386.214, 235.432 380.106 C 245.295 373.997, 253.960 369, 254.688 369 C 255.416 369, 269.622 376.925, 286.256 386.612 C 302.890 396.298, 321.225 406.966, 327 410.317 C 340.555 418.182, 355.914 428.021, 373.838 440.320 C 381.723 445.731, 388.340 449.993, 388.542 449.791 C 388.744 449.589, 386.498 440.399, 383.550 429.370 C 377.132 405.356, 364.549 352.307, 359.505 328 C 357.508 318.375, 355.224 307.949, 354.430 304.831 L 352.987 299.162 411.744 240.759 C 444.060 208.638, 472.525 180.488, 475 178.203 L 479.500 174.050 396.709 174.025 L 313.917 174 307.365 160.250 C 298.425 141.491, 282.172 104.435, 267.379 69.085 C 260.609 52.907, 254.621 39.221, 254.072 38.672 C 253.408 38.008, 252.750 38.528, 252.105 40.224 M 325.594 51.317 C 317.073 63.257, 314.488 72.276, 314.647 89.500 C 314.812 107.255, 318.140 120.693, 327.127 139.888 L 331.991 150.276 337.746 149.595 C 340.911 149.221, 347.775 148.493, 353 147.978 C 358.225 147.463, 367.225 146.109, 373 144.970 C 397.467 140.141, 417.652 140.472, 434 145.969 C 438.675 147.542, 442.833 148.511, 443.241 148.123 C 445.925 145.570, 430.982 135.344, 417.925 130.798 C 408.669 127.575, 408.195 127.517, 391.500 127.568 C 371.551 127.630, 363.378 129.026, 338.870 136.558 C 337.515 136.974, 337.125 135.913, 336.566 130.279 C 336.195 126.551, 334.468 115.850, 332.727 106.500 C 328.883 85.859, 328.335 66.370, 331.257 54.303 C 333.370 45.576, 333.388 45, 331.551 45 C 330.753 45, 328.073 47.842, 325.594 51.317 M 193.462 53.351 C 183.070 64.213, 177.592 78.318, 173.015 106 C 170.674 120.154, 167.972 134.188, 167.403 135.137 C 167.194 135.487, 163.304 134.679, 158.761 133.342 C 132.809 125.702, 111.578 122.394, 95.500 123.484 C 71.132 125.137, 64.508 129.545, 82.935 131.845 C 88.363 132.523, 103.761 135.945, 117.152 139.450 C 146.545 147.144, 150.999 148, 161.637 148 C 171.384 148, 174.088 146.977, 177.344 142.057 C 184.707 130.931, 188.355 119.880, 190.497 102.218 C 193.446 77.899, 194.190 73.501, 196.704 65.524 C 198.095 61.111, 200.286 55.417, 201.572 52.872 C 202.858 50.326, 203.630 47.964, 203.288 47.622 C 201.658 45.992, 199.044 47.516, 193.462 53.351 M 253.159 152.500 C 250.392 177.261, 240.082 237.075, 237.861 241.250 C 237.349 242.213, 236.188 243, 235.282 243 C 233.239 243, 192.024 232.385, 158.013 223.099 C 143.995 219.272, 132.362 216.305, 132.162 216.505 C 131.961 216.705, 134.552 218.259, 137.917 219.958 C 143.913 222.985, 180.085 242.798, 184.342 245.387 C 201.317 255.712, 226.947 272.419, 227.326 273.407 C 227.895 274.889, 216.853 301.063, 205.563 325 C 201.282 334.075, 195.758 346, 193.287 351.500 C 190.816 357, 188.582 361.950, 188.323 362.500 C 188.064 363.050, 188.898 362.156, 190.176 360.513 C 208.684 336.722, 250.732 291.996, 254.587 291.999 C 257.795 292.001, 270.675 303.868, 290.579 325.160 C 314.494 350.743, 327.577 365.774, 332.461 373.281 C 333.457 374.811, 334.455 375.878, 334.681 375.652 C 335.116 375.217, 333.473 372.346, 322.252 353.944 C 310.641 334.901, 282.500 276.837, 283.177 273.320 C 283.364 272.347, 287.845 269.171, 293.504 266.001 C 343.598 237.940, 364.135 227.064, 385.225 217.429 C 392.223 214.232, 397.783 211.450, 397.581 211.247 C 397.378 211.045, 390.302 213.129, 381.856 215.879 C 351.015 225.922, 328.044 231.971, 294.098 238.989 C 270.489 243.870, 269.353 243.926, 268.582 240.250 C 266.671 231.148, 260.757 191.970, 258.554 173.833 C 257.130 162.100, 255.635 149.800, 255.232 146.500 L 254.500 140.500 253.159 152.500 M 494.225 201.456 C 492.424 202.976, 484.501 211.939, 476.620 221.374 C 461.816 239.094, 442.711 258.654, 430.500 268.593 C 426.650 271.727, 416.182 279.905, 407.238 286.768 C 395.877 295.485, 390.759 300.037, 390.254 301.872 C 389.856 303.318, 389.556 309.900, 389.588 316.500 C 389.633 325.917, 390.205 330.760, 392.243 339 C 395.405 351.782, 402.560 370.584, 408.550 381.853 C 414.691 393.408, 426.084 409.316, 427.328 408.072 C 428.663 406.737, 422.340 379.663, 415.833 358.855 C 409.641 339.050, 403.081 314.464, 403.034 310.885 C 403.005 308.659, 404.182 307.583, 410.937 303.658 C 428.810 293.274, 454.782 271.837, 466.697 257.637 C 474.598 248.220, 486.479 230.924, 490.490 223 C 494.039 215.989, 498.207 203.488, 497.836 200.970 L 497.500 198.692 494.225 201.456 M 21 236.595 C 21 237.413, 50.055 268.062, 57.692 275.301 C 70.578 287.514, 90.893 302.042, 100 305.554 C 108.015 308.646, 108.070 306.411, 99.149 340.128 C 90.472 372.924, 89.398 378.034, 88.459 391 C 87.258 407.585, 92.914 437.419, 96.567 433.766 C 96.969 433.364, 97.687 428.190, 98.162 422.268 C 99.428 406.487, 102.146 393.394, 110.466 362.991 C 114.557 348.042, 118.903 330.023, 120.123 322.947 C 122.294 310.352, 122.303 309.997, 120.509 306.020 C 118.110 300.699, 113.764 296.823, 94.500 282.826 C 85.700 276.431, 72.425 266.130, 65 259.933 C 49.425 246.936, 40.869 241.161, 32.712 238.142 C 27.240 236.117, 21 235.293, 21 236.595 M 247.625 406.509 C 245.494 407.319, 236.944 413.100, 228.625 419.355 C 208.773 434.283, 200.498 439.533, 176.500 452.431 C 153.850 464.605, 142.500 471.805, 142.500 474 C 142.500 476.088, 146.626 475.560, 163 471.381 C 193.561 463.580, 222.919 447.597, 246.015 426.186 L 254.529 418.293 261.015 424.189 C 268.672 431.152, 280.135 439.125, 296 448.523 C 322.800 464.399, 331.405 471.809, 340.023 486.426 C 342.478 490.592, 344.828 494, 345.244 494 C 346.713 494, 345.975 484.128, 344.036 477.855 C 338.814 460.952, 327.894 449.411, 300.955 432.322 C 294.055 427.945, 284.155 421.308, 278.955 417.573 C 262.880 406.028, 255.627 403.467, 247.625 406.509"
      stroke="none" fill-rule="evenodd" />
  </symbol>

  <symbol id="GradientArrowVertical" fill="" viewBox="0 0 114 200">
    <path
      d="M113.956 107.956C113.911 107.911 106.6 107.844 97.6667 107.778L81.4444 107.667L81.3778 53.8444L81.3333 0L32.4444 0V107.778H16.5556C2.97778 107.778 0.644441 107.822 0.533329 108.089C0.422218 108.356 2.17778 111.422 4.44444 114.978C4.62222 115.267 5.53333 116.733 6.44444 118.222C7.35555 119.711 8.26666 121.178 8.44444 121.467C8.62222 121.756 9.46666 123.111 10.3111 124.489C11.1556 125.867 12.2667 127.644 12.7778 128.444C13.5333 129.644 15.2667 132.444 17.6667 136.356C18.4 137.556 21.2 142.089 23.7778 146.222C25.0889 148.356 27.2 151.756 28.4444 153.778C29.6889 155.8 31.4889 158.689 32.4444 160.222C33.4222 161.756 34.2889 163.156 34.3778 163.333C34.4667 163.511 34.7778 164.022 35.0667 164.444C35.3556 164.867 35.6889 165.422 35.8 165.667C35.9111 165.911 36.6444 167.111 37.4222 168.333C38.2222 169.556 39.5333 171.667 40.3556 173C41.1778 174.356 43.0889 177.444 44.6 179.889C46.1333 182.333 47.4889 184.533 47.6222 184.778C47.7778 185.022 48.5556 186.267 49.3556 187.556C50.1556 188.844 51.1111 190.378 51.4667 190.956C51.8222 191.556 52.2667 192.267 52.4444 192.578C52.6222 192.867 53.6 194.444 54.6222 196.089C55.6222 197.733 56.5556 199.156 56.6889 199.222C57.0222 199.444 57.4222 199 58.4889 197.289C59.0222 196.422 59.6222 195.467 59.8222 195.133C60.0444 194.822 60.2889 194.4 60.3778 194.222C60.4667 194.044 60.8 193.489 61.1111 193C61.7778 191.933 62.0222 191.533 62.8222 190.222C63.1556 189.667 63.9333 188.422 64.5778 187.444C65.2 186.467 65.9556 185.244 66.2444 184.733C66.5333 184.244 67.5111 182.644 68.4222 181.178C69.3111 179.733 70.6222 177.667 71.2889 176.556C71.9778 175.467 72.8889 173.978 73.3111 173.289C75.2889 170.156 77.9111 165.889 78.2222 165.356C78.5333 164.844 79.1778 163.778 79.9333 162.556C80.6889 161.333 82.3333 158.689 82.7778 158C83.0667 157.578 84.2667 155.622 85.4444 153.667C86.6444 151.733 87.7778 149.867 88 149.556C88.3778 149 91.3333 144.222 92 143.089C92.1778 142.778 93.0444 141.4 93.8889 140.022C95.6667 137.2 95.4444 137.533 98.1111 133.222C99.2222 131.444 100.289 129.711 100.489 129.378C100.689 129.044 101 128.556 101.156 128.289C101.444 127.778 104.467 122.889 105.111 121.889C105.444 121.356 107.889 117.422 111.356 111.778C112.444 110 113.489 108.533 113.667 108.489C113.956 108.422 114.111 108.111 113.956 107.956ZM90.8 123.111C89.9333 124.511 89.1333 125.844 89 126.044C88.7778 126.422 87.2 128.956 83.4222 135.067C82.3333 136.8 81.3333 138.4 81.2222 138.622C81.0222 138.978 78.1111 143.667 76.5778 146.111C76.2 146.733 75.7778 147.422 75.6222 147.667C75.4667 147.911 74.8 149.022 74.1111 150.111C73.4222 151.222 72.7333 152.311 72.6 152.556C72.4444 152.8 71.8222 153.8 71.2 154.778C70.6 155.756 69.8444 156.956 69.5556 157.444C69.2667 157.933 68.6222 158.978 68.1111 159.778C67.6 160.578 67.1111 161.378 67.0444 161.556C66.9556 161.733 66.0889 163.133 65.1333 164.667C64.1556 166.2 62.4889 168.867 61.4 170.622C60.3333 172.356 59.2889 174.022 59.1111 174.311C58.9333 174.6 58.4889 175.356 58.1111 175.978C57.4222 177.156 56.7333 177.6 56.4222 177.089C56.3111 176.911 55.9111 176.244 55.5111 175.622C55.1111 174.978 53.8889 173 52.7778 171.222C51.6889 169.422 50.6222 167.733 50.4444 167.444C50.2667 167.178 49.2222 165.467 48.1111 163.667C47.0222 161.867 45.9556 160.178 45.7778 159.889C45.6 159.6 44.6889 158.156 43.7778 156.667C42.8667 155.178 41.9556 153.733 41.7778 153.444C41.6 153.156 40.5556 151.444 39.4444 149.667C38.3556 147.889 37.2889 146.178 37.1111 145.889C36.9333 145.6 35.7333 143.667 34.4667 141.622C33.2 139.578 31.4 136.644 30.4444 135.111C29.4889 133.578 27.6889 130.689 26.4444 128.667C25.2222 126.644 23.5111 123.867 22.6444 122.489C21.8 121.111 21.1111 119.844 21.1111 119.667C21.1111 119.378 22.7556 119.333 32.5111 119.289L43.8889 119.222L44 65.3778C44.0889 17.8444 44.1556 11.5111 44.4444 11.3333C44.8889 11.0444 68.4444 11.0444 69.2 11.3333L69.7778 11.5556V65.3111C69.7778 114.111 69.8 119.067 70.1333 119.2C70.3333 119.267 75.4667 119.333 81.5333 119.333C87.6222 119.333 92.6667 119.4 92.7333 119.467C92.9111 119.644 92.7111 120.022 90.8 123.111Z" />
  </symbol>

  <symbol id="GradientArrow" fill="" viewBox="0 0 200 114">
    <path
      d="M107.956.044c-.045.045-.112 7.356-.178 16.29l-.111 16.222-53.823.066L0 32.667v48.888h107.778v15.89c0 13.577.044 15.911.311 16.022s3.333-1.645 6.889-3.911c.289-.178 1.755-1.089 3.244-2 1.489-.912 2.956-1.823 3.245-2s1.644-1.023 3.022-1.867a318 318 0 0 0 3.955-2.467c1.2-.755 4-2.489 7.912-4.889 1.2-.733 5.733-3.533 9.866-6.11 2.134-1.312 5.534-3.423 7.556-4.668a1448 1448 0 0 0 6.444-4c1.534-.977 2.934-1.844 3.111-1.933s.689-.4 1.111-.689.978-.622 1.223-.733c.244-.111 1.444-.844 2.666-1.622 1.223-.8 3.334-2.111 4.667-2.934 1.356-.822 4.444-2.733 6.889-4.244 2.444-1.533 4.644-2.889 4.889-3.022a507 507 0 0 1 2.778-1.734c1.288-.8 2.822-1.755 3.4-2.11.6-.356 1.311-.8 1.622-.978.289-.178 1.866-1.156 3.511-2.178 1.644-1 3.067-1.934 3.133-2.067.222-.333-.222-.733-1.933-1.8-.867-.533-1.822-1.133-2.156-1.333a8 8 0 0 0-.911-.556A21 21 0 0 1 193 52.89a244 244 0 0 0-2.778-1.711 96 96 0 0 1-2.778-1.756c-.977-.622-2.2-1.378-2.711-1.666a273 273 0 0 1-3.555-2.178c-1.445-.89-3.511-2.2-4.622-2.867-1.089-.689-2.578-1.6-3.267-2.022-3.133-1.978-7.4-4.6-7.933-4.911-.512-.311-1.578-.956-2.8-1.711-1.223-.756-3.867-2.4-4.556-2.845-.422-.289-2.378-1.489-4.333-2.667-1.934-1.2-3.8-2.333-4.111-2.555-.556-.378-5.334-3.333-6.467-4-.311-.178-1.689-1.044-3.067-1.889-2.822-1.778-2.489-1.556-6.8-4.222a427 427 0 0 0-3.844-2.378c-.334-.2-.822-.511-1.089-.667-.511-.288-5.4-3.31-6.4-3.955-.533-.333-4.467-2.778-10.111-6.245C110 1.556 108.533.511 108.489.334c-.067-.29-.378-.445-.533-.29M123.111 23.2c1.4.867 2.733 1.667 2.933 1.8.378.222 2.912 1.8 9.023 5.578 1.733 1.089 3.333 2.089 3.555 2.2.356.2 5.045 3.11 7.489 4.644.622.378 1.311.8 1.556.956.244.155 1.355.822 2.444 1.51 1.111.69 2.2 1.379 2.445 1.512.244.156 1.244.778 2.222 1.4.978.6 2.178 1.356 2.666 1.644.489.29 1.534.934 2.334 1.445s1.6 1 1.778 1.066c.177.09 1.577.956 3.111 1.912a715 715 0 0 0 5.955 3.733c1.734 1.067 3.4 2.111 3.689 2.289s1.045.622 1.667 1c1.178.689 1.622 1.378 1.111 1.689-.178.11-.845.51-1.467.91-.644.4-2.622 1.623-4.4 2.734-1.8 1.09-3.489 2.156-3.778 2.334-.266.177-1.977 1.222-3.777 2.333-1.8 1.089-3.489 2.155-3.778 2.333s-1.733 1.09-3.222 2c-1.489.911-2.934 1.822-3.223 2s-2 1.222-3.777 2.334c-1.778 1.088-3.489 2.155-3.778 2.333l-4.267 2.644c-2.044 1.267-4.978 3.067-6.511 4.022s-4.422 2.756-6.444 4a499 499 0 0 0-6.178 3.8c-1.378.845-2.645 1.534-2.822 1.534-.289 0-.334-1.645-.378-11.4l-.067-11.378L65.378 70c-47.534-.089-53.867-.156-54.045-.445-.289-.444-.289-24 0-24.755l.223-.578H65.31c48.8 0 53.756-.022 53.889-.355.067-.2.133-5.334.133-11.4 0-6.09.067-11.134.134-11.2.177-.178.555.022 3.644 1.933" />
  </symbol>

  <symbol id="PreviousStepArrow" fill="currentColor" viewBox="0 0 24 24">
    <g mask="">
      <path d="M0 0h24v24H0z"></path>
    </g>
  </symbol>

  <symbol id="CheckCircle" fill="currentColor" viewBox="0 0 24 24">
    <path fill-rule="evenodd"
      d="M14.72,8.79l-4.29,4.3L8.78,11.44a1,1,0,1,0-1.41,1.41l2.35,2.36a1,1,0,0,0,.71.29,1,1,0,0,0,.7-.29l5-5a1,1,0,0,0,0-1.42A1,1,0,0,0,14.72,8.79ZM12,2A10,10,0,1,0,22,12,10,10,0,0,0,12,2Zm0,18a8,8,0,1,1,8-8A8,8,0,0,1,12,20Z"
      clip-rule="evenodd"></path>
  </symbol>

  <symbol id="Home" fill="currentColor" viewBox="0 0 24 24">
    <path fill-rule="evenodd" clip-rule="evenodd"
      d="M20,8h0L14,2.74a3,3,0,0,0-4,0L4,8a3,3,0,0,0-1,2.26V19a3,3,0,0,0,3,3H18a3,3,0,0,0,3-3V10.25A3,3,0,0,0,20,8ZM14,20H10V15a1,1,0,0,1,1-1h2a1,1,0,0,1,1,1Zm5-1a1,1,0,0,1-1,1H16V15a3,3,0,0,0-3-3H11a3,3,0,0,0-3,3v5H6a1,1,0,0,1-1-1V10.25a1,1,0,0,1,.34-.75l6-5.25a1,1,0,0,1,1.32,0l6,5.25a1,1,0,0,1,.34.75Z">
    </path>
  </symbol>

  <symbol id="CircledUser" fill="currentColor" viewBox="0 0 24 24">
    <path fill-rule="evenodd" clip-rule="evenodd"
      d="M12,2A10,10,0,0,0,4.65,18.76h0a10,10,0,0,0,14.7,0h0A10,10,0,0,0,12,2Zm0,18a8,8,0,0,1-5.55-2.25,6,6,0,0,1,11.1,0A8,8,0,0,1,12,20ZM10,10a2,2,0,1,1,2,2A2,2,0,0,1,10,10Zm8.91,6A8,8,0,0,0,15,12.62a4,4,0,1,0-6,0A8,8,0,0,0,5.09,16,7.92,7.92,0,0,1,4,12a8,8,0,0,1,16,0A7.92,7.92,0,0,1,18.91,16Z">
    </path>
  </symbol>

  <symbol id="TwoCards" fill="currentColor" viewBox="0 0 24 24">
    <path fill-rule="evenodd" clip-rule="evenodd"
      d="M20 2H10a3 3 0 0 0-3 3v7a3 3 0 0 0 3 3h10a3 3 0 0 0 3-3V5a3 3 0 0 0-3-3Zm1 10a1 1 0 0 1-1 1H10a1 1 0 0 1-1-1V5a1 1 0 0 1 1-1h10a1 1 0 0 1 1 1Zm-3.5-4a1.49 1.49 0 0 0-1 .39 1.5 1.5 0 1 0 0 2.22 1.5 1.5 0 1 0 1-2.61ZM16 17a1 1 0 0 0-1 1v1a1 1 0 0 1-1 1H4a1 1 0 0 1-1-1v-4h1a1 1 0 0 0 0-2H3v-1a1 1 0 0 1 1-1 1 1 0 0 0 0-2 3 3 0 0 0-3 3v7a3 3 0 0 0 3 3h10a3 3 0 0 0 3-3v-1a1 1 0 0 0-1-1ZM6 18h1a1 1 0 0 0 0-2H6a1 1 0 0 0 0 2Z">
    </path>
  </symbol>

  <symbol id="Link" fill="currentColor" viewBox="0 0 24 24">
    <path fill-rule="evenodd" clip-rule="evenodd"
      d="M10,17.55,8.23,19.27a2.47,2.47,0,0,1-3.5-3.5l4.54-4.55a2.46,2.46,0,0,1,3.39-.09l.12.1a1,1,0,0,0,1.4-1.43A2.75,2.75,0,0,0,14,9.59a4.46,4.46,0,0,0-6.09.22L3.31,14.36a4.48,4.48,0,0,0,6.33,6.33L11.37,19A1,1,0,0,0,10,17.55ZM20.69,3.31a4.49,4.49,0,0,0-6.33,0L12.63,5A1,1,0,0,0,14,6.45l1.73-1.72a2.47,2.47,0,0,1,3.5,3.5l-4.54,4.55a2.46,2.46,0,0,1-3.39.09l-.12-.1a1,1,0,0,0-1.4,1.43,2.75,2.75,0,0,0,.23.21,4.47,4.47,0,0,0,6.09-.22l4.55-4.55A4.49,4.49,0,0,0,20.69,3.31Z">
    </path>
  </symbol>

  <symbol id="Gear" fill="currentColor" viewBox="0 0 24 24">
    <path fill-rule="evenodd" clip-rule="evenodd"
      d="M19.9 12.66a1 1 0 0 1 0-1.32l1.28-1.44a1 1 0 0 0 .12-1.17l-2-3.46a1 1 0 0 0-1.07-.48l-1.88.38a1 1 0 0 1-1.15-.66l-.61-1.83a1 1 0 0 0-.95-.68h-4a1 1 0 0 0-1 .68l-.56 1.83a1 1 0 0 1-1.15.66L5 4.79a1 1 0 0 0-1 .48L2 8.73a1 1 0 0 0 .1 1.17l1.27 1.44a1 1 0 0 1 0 1.32L2.1 14.1a1 1 0 0 0-.1 1.17l2 3.46a1 1 0 0 0 1.07.48l1.88-.38a1 1 0 0 1 1.15.66l.61 1.83a1 1 0 0 0 1 .68h4a1 1 0 0 0 .95-.68l.61-1.83a1 1 0 0 1 1.15-.66l1.88.38a1 1 0 0 0 1.07-.48l2-3.46a1 1 0 0 0-.12-1.17ZM18.41 14l.8.9-1.28 2.22-1.18-.24a3 3 0 0 0-3.45 2L12.92 20h-2.56L10 18.86a3 3 0 0 0-3.45-2l-1.18.24-1.3-2.21.8-.9a3 3 0 0 0 0-4l-.8-.9 1.28-2.2 1.18.24a3 3 0 0 0 3.45-2L10.36 4h2.56l.38 1.14a3 3 0 0 0 3.45 2l1.18-.24 1.28 2.22-.8.9a3 3 0 0 0 0 3.98Zm-6.77-6a4 4 0 1 0 4 4 4 4 0 0 0-4-4Zm0 6a2 2 0 1 1 2-2 2 2 0 0 1-2 2Z">
    </path>
  </symbol>

  <symbol id="Exit" fill="currentColor" viewBox="0 0 24 24">
    <path fill-rule="evenodd" clip-rule="evenodd"
      d="M4,12a1,1,0,0,0,1,1h7.59l-2.3,2.29a1,1,0,0,0,0,1.42,1,1,0,0,0,1.42,0l4-4a1,1,0,0,0,.21-.33,1,1,0,0,0,0-.76,1,1,0,0,0-.21-.33l-4-4a1,1,0,1,0-1.42,1.42L12.59,11H5A1,1,0,0,0,4,12ZM17,2H7A3,3,0,0,0,4,5V8A1,1,0,0,0,6,8V5A1,1,0,0,1,7,4H17a1,1,0,0,1,1,1V19a1,1,0,0,1-1,1H7a1,1,0,0,1-1-1V16a1,1,0,0,0-2,0v3a3,3,0,0,0,3,3H17a3,3,0,0,0,3-3V5A3,3,0,0,0,17,2Z">
    </path>
  </symbol>

  <symbol id="Tab" fill="currentColor" viewBox="0 0 24 24">
    <path fill-rule="evenodd" clip-rule="evenodd"
      d="M10,5a1,1,0,1,0,1,1A1,1,0,0,0,10,5ZM6,5A1,1,0,1,0,7,6,1,1,0,0,0,6,5Zm8,0a1,1,0,1,0,1,1A1,1,0,0,0,14,5Zm6-4H4A3,3,0,0,0,1,4V20a3,3,0,0,0,3,3H20a3,3,0,0,0,3-3V4A3,3,0,0,0,20,1Zm1,19a1,1,0,0,1-1,1H4a1,1,0,0,1-1-1V11H21ZM21,9H3V4A1,1,0,0,1,4,3H20a1,1,0,0,1,1,1Z">
    </path>
  </symbol>

  <symbol id="CircledQuestionMark" fill="currentColor" viewBox="0 0 24 24">
    <path fill-rule="evenodd" clip-rule="evenodd"
      d="M11.29,15.29a1.58,1.58,0,0,0-.12.15.76.76,0,0,0-.09.18.64.64,0,0,0-.06.18,1.36,1.36,0,0,0,0,.2.84.84,0,0,0,.08.38.9.9,0,0,0,.54.54.94.94,0,0,0,.76,0,.9.9,0,0,0,.54-.54A1,1,0,0,0,13,16a1,1,0,0,0-.29-.71A1,1,0,0,0,11.29,15.29ZM12,2A10,10,0,1,0,22,12,10,10,0,0,0,12,2Zm0,18a8,8,0,1,1,8-8A8,8,0,0,1,12,20ZM12,7A3,3,0,0,0,9.4,8.5a1,1,0,1,0,1.73,1A1,1,0,0,1,12,9a1,1,0,0,1,0,2,1,1,0,0,0-1,1v1a1,1,0,0,0,2,0v-.18A3,3,0,0,0,12,7Z">
    </path>
  </symbol>

  <symbol id="FavoriteDocument" fill="currentColor" viewBox="0 0 24 24">
    <path fill-rule="evenodd" clip-rule="evenodd"
      d="M7.5,10h1a1,1,0,0,0,0-2h-1a1,1,0,0,0,0,2Zm4,6h-4a1,1,0,0,0,0,2h4a1,1,0,0,0,0-2Zm0-4h-4a1,1,0,0,0,0,2h4a1,1,0,0,0,0-2Zm6.92-2.62a1,1,0,0,0-.21-1.09l-6-6h0a1.07,1.07,0,0,0-.28-.19.32.32,0,0,0-.09,0L11.56,2H5.5a3,3,0,0,0-3,3V19a3,3,0,0,0,3,3h6a1,1,0,0,0,0-2h-6a1,1,0,0,1-1-1V5a1,1,0,0,1,1-1h5V7a3,3,0,0,0,3,3h4A1,1,0,0,0,18.42,9.38ZM13.5,8a1,1,0,0,1-1-1V5.41L15.09,8Zm7,4h-5a1,1,0,0,0-1,1v8a1,1,0,0,0,.53.88,1,1,0,0,0,1-.05L18,20.53,20,21.83A1,1,0,0,0,21.5,21V13A1,1,0,0,0,20.5,12Zm-1,7.12-.94-.63a1,1,0,0,0-1.12,0l-.94.63V14h3Z">
    </path>
  </symbol>

  <symbol id="Eye" fill="currentColor" viewBox="0 0 24 24">
    <path fill-rule="evenodd"
      d="M21.92,11.6C19.9,6.91,16.1,4,12,4S4.1,6.91,2.08,11.6a1,1,0,0,0,0,.8C4.1,17.09,7.9,20,12,20s7.9-2.91,9.92-7.6A1,1,0,0,0,21.92,11.6ZM12,18c-3.17,0-6.17-2.29-7.9-6C5.83,8.29,8.83,6,12,6s6.17,2.29,7.9,6C18.17,15.71,15.17,18,12,18ZM12,8a4,4,0,1,0,4,4A4,4,0,0,0,12,8Zm0,6a2,2,0,1,1,2-2A2,2,0,0,1,12,14Z">
    </path>
  </symbol>

  <symbol id="ClosedEye" fill="currentColor" viewBox="0 0 24 24">
    <path fill-rule="evenodd"
      d="M10.94,6.08A6.93,6.93,0,0,1,12,6c3.18,0,6.17,2.29,7.91,6a15.23,15.23,0,0,1-.9,1.64,1,1,0,0,0-.16.55,1,1,0,0,0,1.86.5,15.77,15.77,0,0,0,1.21-2.3,1,1,0,0,0,0-.79C19.9,6.91,16.1,4,12,4a7.77,7.77,0,0,0-1.4.12,1,1,0,1,0,.34,2ZM3.71,2.29A1,1,0,0,0,2.29,3.71L5.39,6.8a14.62,14.62,0,0,0-3.31,4.8,1,1,0,0,0,0,.8C4.1,17.09,7.9,20,12,20a9.26,9.26,0,0,0,5.05-1.54l3.24,3.25a1,1,0,0,0,1.42,0,1,1,0,0,0,0-1.42Zm6.36,9.19,2.45,2.45A1.81,1.81,0,0,1,12,14a2,2,0,0,1-2-2A1.81,1.81,0,0,1,10.07,11.48ZM12,18c-3.18,0-6.17-2.29-7.9-6A12.09,12.09,0,0,1,6.8,8.21L8.57,10A4,4,0,0,0,14,15.43L15.59,17A7.24,7.24,0,0,1,12,18Z">
    </path>
  </symbol>

  <symbol id="Cross" fill="currentColor" viewBox="0 0 12 12">
    <path fill-rule="evenodd"
      d="M1.707.293A1 1 0 0 0 .293 1.707L4.586 6 .293 10.293a1 1 0 1 0 1.414 1.414L6 7.414l4.293 4.293a1 1 0 0 0 1.414-1.414L7.414 6l4.293-4.293A1 1 0 0 0 10.293.293L6 4.586 1.707.293Z"
      clip-rule="evenodd">
    </path>
  </symbol>

  <symbol id="NextArrow" fill="currentColor" viewBox="0 0 24 24">
    <path fill-rule="evenodd"
      d="M10.707 6.293a1 1 0 0 0-1.414 1.414L13.586 12l-4.293 4.293a1 1 0 1 0 1.414 1.414L15 13.414a2 2 0 0 0 0-2.828l-4.293-4.293Z"
      clip-rule="evenodd"></path>
  </symbol>

  <symbol id="Sun" fill="currentColor" viewBox="0 0 24 24">
    <path fill-rule="evenodd"
      d="M5,12a1,1,0,0,0-1-1H3a1,1,0,0,0,0,2H4A1,1,0,0,0,5,12ZM5.64,17l-.71.71a1,1,0,0,0,0,1.41,1,1,0,0,0,1.41,0l.71-.71A1,1,0,0,0,5.64,17ZM12,5a1,1,0,0,0,1-1V3a1,1,0,0,0-2,0V4A1,1,0,0,0,12,5Zm5.66,2.34a1,1,0,0,0,.7-.29l.71-.71a1,1,0,1,0-1.41-1.41L17,5.64a1,1,0,0,0,0,1.41A1,1,0,0,0,17.66,7.34Zm-12-.29a1,1,0,0,0,.7.29,1,1,0,0,0,.71-.29,1,1,0,0,0,0-1.41l-.71-.71A1,1,0,0,0,4.93,6.34ZM21,11H20a1,1,0,0,0,0,2h1a1,1,0,0,0,0-2ZM18.36,17A1,1,0,0,0,17,18.36l.71.71a1,1,0,0,0,1.41,0,1,1,0,0,0,0-1.41ZM12,6.5A5.5,5.5,0,1,0,17.5,12,5.51,5.51,0,0,0,12,6.5Zm0,9A3.5,3.5,0,1,1,15.5,12,3.5,3.5,0,0,1,12,15.5ZM12,19a1,1,0,0,0-1,1v1a1,1,0,0,0,2,0V20A1,1,0,0,0,12,19Z"
      clip-rule="evenodd">
    </path>
  </symbol>

  <symbol id="Moon" fill="currentColor" viewBox="0 0 24 24">
    <path fill-rule="evenodd"
      d="M21.64,13a1,1,0,0,0-1.05-.14,8.05,8.05,0,0,1-3.37.73A8.15,8.15,0,0,1,9.08,5.49a8.59,8.59,0,0,1,.25-2A1,1,0,0,0,8,2.36,10.14,10.14,0,1,0,22,14.05,1,1,0,0,0,21.64,13Zm-9.5,6.69A8.14,8.14,0,0,1,7.08,5.22v.27A10.15,10.15,0,0,0,17.22,15.63a9.79,9.79,0,0,0,2.1-.22A8.11,8.11,0,0,1,12.14,19.73Z"
      clip-rule="evenodd">
    </path>
  </symbol>
</svg>