<svg xmlns="http://www.w3.org/2000/svg" width="512" height="512" viewBox="0 0 512 512" version="1.1">
	<path d="M 252.121 7.639 C 251.552 8.662, 242.481 26.600, 231.964 47.500 C 214.505 82.195, 207.980 95.840, 188.208 139 C 184.555 146.975, 180.971 154.459, 180.245 155.632 C 178.931 157.754, 178.770 157.761, 146.712 157.266 C 124.703 156.926, 104.206 157.272, 82 158.360 C 64.125 159.236, 42.750 160.203, 34.500 160.508 C 13.872 161.272, 5 162.021, 5 163 C 5 163.456, 14.955 175.006, 27.122 188.665 C 39.289 202.324, 57.380 222.725, 67.325 234 C 77.270 245.275, 96.052 265.300, 109.062 278.500 C 122.072 291.700, 133.219 303.460, 133.832 304.634 C 134.725 306.344, 133.766 312.438, 129.004 335.313 C 122.179 368.101, 120.245 379.355, 112.555 431 C 109.484 451.625, 106.574 470.975, 106.087 474 C 105.600 477.025, 105.347 479.653, 105.524 479.840 C 105.701 480.026, 108.468 478.409, 111.673 476.246 C 114.878 474.082, 123.125 469.003, 130 464.958 C 136.875 460.913, 147.299 454.555, 153.165 450.829 C 159.031 447.103, 174.407 437.983, 187.334 430.564 C 200.261 423.144, 215.261 414.221, 220.669 410.733 C 237.691 399.755, 252.722 391, 254.548 391 C 256.640 391, 262.637 394.305, 290.270 410.685 C 301.693 417.457, 314.743 424.854, 319.270 427.124 C 323.796 429.394, 336.275 436.536, 347 442.996 C 357.725 449.456, 375.169 459.519, 385.764 465.357 C 396.360 471.196, 406.147 476.706, 407.514 477.601 C 410.718 479.701, 410.721 479.255, 407.579 465.839 C 406.248 460.152, 401.041 435.025, 396.009 410 C 390.976 384.975, 385.111 356.850, 382.974 347.500 C 375.380 314.270, 373.866 306.118, 374.925 304.140 C 375.474 303.114, 384.774 293.776, 395.593 283.388 C 406.411 272.999, 421.387 257.525, 428.873 249 C 450.615 224.239, 460.934 213.054, 485.862 187.228 C 498.748 173.879, 509.078 162.745, 508.819 162.486 C 508.560 162.226, 497.582 161.562, 484.424 161.010 C 471.266 160.457, 446.775 159.287, 430 158.409 C 406.790 157.194, 390.736 156.976, 362.830 157.494 L 326.161 158.175 324.679 155.837 C 323.864 154.552, 317.493 139.775, 310.523 123 C 301.313 100.837, 292.094 81.157, 276.795 51 C 265.215 28.175, 255.159 8.662, 254.448 7.639 C 253.188 5.824, 253.130 5.824, 252.121 7.639 M 252.105 40.224 C 250.569 44.264, 238.397 73.112, 231.499 89.060 C 223.794 106.873, 207.453 141.780, 198.290 160 L 191.500 173.500 113 173.724 C 69.825 173.847, 33.924 173.959, 33.221 173.974 C 32.517 173.988, 37.917 179.733, 45.221 186.740 C 63.823 204.588, 76.289 217.169, 100.486 242.516 C 112.029 254.607, 129.097 272.258, 138.416 281.741 L 155.359 298.982 147.604 338.241 C 140.136 376.045, 128.426 432.788, 125.534 445.186 C 123.811 452.569, 123.371 452.685, 138.208 441.846 C 153.701 430.528, 180.128 413.312, 200.500 401.264 C 209.850 395.735, 225.570 386.214, 235.432 380.106 C 245.295 373.997, 253.960 369, 254.688 369 C 255.416 369, 269.622 376.925, 286.256 386.612 C 302.890 396.298, 321.225 406.966, 327 410.317 C 340.555 418.182, 355.914 428.021, 373.838 440.320 C 381.723 445.731, 388.340 449.993, 388.542 449.791 C 388.744 449.589, 386.498 440.399, 383.550 429.370 C 377.132 405.356, 364.549 352.307, 359.505 328 C 357.508 318.375, 355.224 307.949, 354.430 304.831 L 352.987 299.162 411.744 240.759 C 444.060 208.638, 472.525 180.488, 475 178.203 L 479.500 174.050 396.709 174.025 L 313.917 174 307.365 160.250 C 298.425 141.491, 282.172 104.435, 267.379 69.085 C 260.609 52.907, 254.621 39.221, 254.072 38.672 C 253.408 38.008, 252.750 38.528, 252.105 40.224 M 325.594 51.317 C 317.073 63.257, 314.488 72.276, 314.647 89.500 C 314.812 107.255, 318.140 120.693, 327.127 139.888 L 331.991 150.276 337.746 149.595 C 340.911 149.221, 347.775 148.493, 353 147.978 C 358.225 147.463, 367.225 146.109, 373 144.970 C 397.467 140.141, 417.652 140.472, 434 145.969 C 438.675 147.542, 442.833 148.511, 443.241 148.123 C 445.925 145.570, 430.982 135.344, 417.925 130.798 C 408.669 127.575, 408.195 127.517, 391.500 127.568 C 371.551 127.630, 363.378 129.026, 338.870 136.558 C 337.515 136.974, 337.125 135.913, 336.566 130.279 C 336.195 126.551, 334.468 115.850, 332.727 106.500 C 328.883 85.859, 328.335 66.370, 331.257 54.303 C 333.370 45.576, 333.388 45, 331.551 45 C 330.753 45, 328.073 47.842, 325.594 51.317 M 193.462 53.351 C 183.070 64.213, 177.592 78.318, 173.015 106 C 170.674 120.154, 167.972 134.188, 167.403 135.137 C 167.194 135.487, 163.304 134.679, 158.761 133.342 C 132.809 125.702, 111.578 122.394, 95.500 123.484 C 71.132 125.137, 64.508 129.545, 82.935 131.845 C 88.363 132.523, 103.761 135.945, 117.152 139.450 C 146.545 147.144, 150.999 148, 161.637 148 C 171.384 148, 174.088 146.977, 177.344 142.057 C 184.707 130.931, 188.355 119.880, 190.497 102.218 C 193.446 77.899, 194.190 73.501, 196.704 65.524 C 198.095 61.111, 200.286 55.417, 201.572 52.872 C 202.858 50.326, 203.630 47.964, 203.288 47.622 C 201.658 45.992, 199.044 47.516, 193.462 53.351 M 253.159 152.500 C 250.392 177.261, 240.082 237.075, 237.861 241.250 C 237.349 242.213, 236.188 243, 235.282 243 C 233.239 243, 192.024 232.385, 158.013 223.099 C 143.995 219.272, 132.362 216.305, 132.162 216.505 C 131.961 216.705, 134.552 218.259, 137.917 219.958 C 143.913 222.985, 180.085 242.798, 184.342 245.387 C 201.317 255.712, 226.947 272.419, 227.326 273.407 C 227.895 274.889, 216.853 301.063, 205.563 325 C 201.282 334.075, 195.758 346, 193.287 351.500 C 190.816 357, 188.582 361.950, 188.323 362.500 C 188.064 363.050, 188.898 362.156, 190.176 360.513 C 208.684 336.722, 250.732 291.996, 254.587 291.999 C 257.795 292.001, 270.675 303.868, 290.579 325.160 C 314.494 350.743, 327.577 365.774, 332.461 373.281 C 333.457 374.811, 334.455 375.878, 334.681 375.652 C 335.116 375.217, 333.473 372.346, 322.252 353.944 C 310.641 334.901, 282.500 276.837, 283.177 273.320 C 283.364 272.347, 287.845 269.171, 293.504 266.001 C 343.598 237.940, 364.135 227.064, 385.225 217.429 C 392.223 214.232, 397.783 211.450, 397.581 211.247 C 397.378 211.045, 390.302 213.129, 381.856 215.879 C 351.015 225.922, 328.044 231.971, 294.098 238.989 C 270.489 243.870, 269.353 243.926, 268.582 240.250 C 266.671 231.148, 260.757 191.970, 258.554 173.833 C 257.130 162.100, 255.635 149.800, 255.232 146.500 L 254.500 140.500 253.159 152.500 M 494.225 201.456 C 492.424 202.976, 484.501 211.939, 476.620 221.374 C 461.816 239.094, 442.711 258.654, 430.500 268.593 C 426.650 271.727, 416.182 279.905, 407.238 286.768 C 395.877 295.485, 390.759 300.037, 390.254 301.872 C 389.856 303.318, 389.556 309.900, 389.588 316.500 C 389.633 325.917, 390.205 330.760, 392.243 339 C 395.405 351.782, 402.560 370.584, 408.550 381.853 C 414.691 393.408, 426.084 409.316, 427.328 408.072 C 428.663 406.737, 422.340 379.663, 415.833 358.855 C 409.641 339.050, 403.081 314.464, 403.034 310.885 C 403.005 308.659, 404.182 307.583, 410.937 303.658 C 428.810 293.274, 454.782 271.837, 466.697 257.637 C 474.598 248.220, 486.479 230.924, 490.490 223 C 494.039 215.989, 498.207 203.488, 497.836 200.970 L 497.500 198.692 494.225 201.456 M 21 236.595 C 21 237.413, 50.055 268.062, 57.692 275.301 C 70.578 287.514, 90.893 302.042, 100 305.554 C 108.015 308.646, 108.070 306.411, 99.149 340.128 C 90.472 372.924, 89.398 378.034, 88.459 391 C 87.258 407.585, 92.914 437.419, 96.567 433.766 C 96.969 433.364, 97.687 428.190, 98.162 422.268 C 99.428 406.487, 102.146 393.394, 110.466 362.991 C 114.557 348.042, 118.903 330.023, 120.123 322.947 C 122.294 310.352, 122.303 309.997, 120.509 306.020 C 118.110 300.699, 113.764 296.823, 94.500 282.826 C 85.700 276.431, 72.425 266.130, 65 259.933 C 49.425 246.936, 40.869 241.161, 32.712 238.142 C 27.240 236.117, 21 235.293, 21 236.595 M 247.625 406.509 C 245.494 407.319, 236.944 413.100, 228.625 419.355 C 208.773 434.283, 200.498 439.533, 176.500 452.431 C 153.850 464.605, 142.500 471.805, 142.500 474 C 142.500 476.088, 146.626 475.560, 163 471.381 C 193.561 463.580, 222.919 447.597, 246.015 426.186 L 254.529 418.293 261.015 424.189 C 268.672 431.152, 280.135 439.125, 296 448.523 C 322.800 464.399, 331.405 471.809, 340.023 486.426 C 342.478 490.592, 344.828 494, 345.244 494 C 346.713 494, 345.975 484.128, 344.036 477.855 C 338.814 460.952, 327.894 449.411, 300.955 432.322 C 294.055 427.945, 284.155 421.308, 278.955 417.573 C 262.880 406.028, 255.627 403.467, 247.625 406.509" stroke="none" fill="black" fill-rule="evenodd"/>
</svg>