<svg version="1.2" xmlns="http://www.w3.org/2000/svg" viewBox="0 0 104 104" width="104" height="104">
	<title>Ui8s1e01-svg</title>
	<style>
		.s0 { fill: #000000 } 
	</style>
	<g id="Layer">
		<path id="Layer" fill-rule="evenodd" class="s0" d="m94 25.3c7 9.8 9.5 17.8 9.5 29.7-0.1 12.6-2.3 18.2-11.6 28.9-13 15-21.3 19.4-36.4 19.4-15.5 0-28.1-5.8-39.8-18.2-11.3-12-17.1-28.3-14.9-41.8 1.7-10.3 5.1-16.2 15.1-26.6 9.8-10.2 16.1-14 25.3-15.6 19-3.3 40.4 6.5 52.8 24.2zm-62.1-18.5c-1.5 0.6-5.5 3.6-8.9 6.6-3.4 3.1-6.6 5.6-7.1 5.6-1.6 0-4.8 7.8-5.8 14.2-1.3 7.6-0.1 16.4 3.3 24.8 5.9 14.6 18.6 26.6 34.5 32.8 5.4 2.1 8.4 2.5 16.6 2.6 8.8 0.1 10.7-0.2 15.7-2.6 3.1-1.4 6.2-3.7 6.9-5 0.6-1.2 2.9-4.4 5-6.9 6.9-8.3 9.8-19.4 8-30.7-3-18.4-18.4-36.2-36.8-42.4-9.7-3.3-21.8-2.9-31.4 1zm-26.9 33.7c-1.7 6-0.8 17.3 1.9 24.6 7.8 20.7 30.7 36.2 50.8 34.5 4.1-0.3 8.4-1.1 9.6-1.8 2-1.1 1.3-1.3-5.3-2-23.9-2.2-44.2-18.4-51.9-41.3-1.1-3.4-2.1-8.4-2.2-11.3-0.3-7.2-1.4-8.2-2.9-2.7z"/>
		<path id="Layer" fill-rule="evenodd" class="s0" d="m53 9.3c9.3 0.5 14.8 2.4 22.8 7.9 21.3 14.4 26.2 42.8 10.2 58.8-6.2 6.2-11.2 8.3-21 8.8-9.7 0.5-18.2-1.8-25.4-6.8-21.6-14.8-27.6-39.9-14-57.7 3.1-4 5.6-5.8 13.1-8.9 5-2.2 6.9-2.4 14.3-2.1zm-13.7 4.7c-12.8 5.1-20 18.8-17.3 33 5.4 28.8 40.8 45.1 60.4 27.9 7.4-6.5 9.1-10.6 9.1-21.9 0-8.6-0.3-10.1-3.2-16.3-4.1-8.7-12-16.5-20.9-20.8-8.9-4.2-20.3-5-28.1-1.9z"/>
		<path id="Layer" fill-rule="evenodd" class="s0" d="m61 26.1l5 3.1c2.7 1.7 5 3.5 5 4 0 0.6-1.6 3.8-3.6 7.3l-3.5 6.4 7.9 5.3 7.9 5.2-2.6 4.3c-1.4 2.3-2.9 4.3-3.3 4.3-0.5 0-3.9-2.2-7.8-5l-6.9-4.9-3.7 6.7c-2.1 3.7-3.8 6.8-3.9 7-0.2 0.2-7.9-4.6-10.4-6.4-0.2-0.2 1.5-3.4 3.7-7.3l4-7-15.8-10.4 2.2-3.6c1.1-2 2.5-4 2.9-4.4 0.4-0.5 4.1 1.4 8.3 4.2 6.8 4.6 7.7 5 8.4 3.4 0.4-1 2-4.1 3.5-7zm-1 8.9c-1.3 3.2-5.4 7-7.4 7-0.6 0-3.6-1.6-6.5-3.5-8.5-5.6-11.4-2.8-3.1 3 2.4 1.7 5.2 4.3 6.3 5.8l2.1 2.7-2.9 6.1c-2.5 5.1-2.7 6.2-1.5 6.9 2.5 1.6 3.9 1.1 5.4-1.8 4.2-7.9 7-8.5 15.1-3.1 4.3 2.9 6.5 3.1 6.5 0.6 0-0.7-1.3-2.1-3-3-9.2-5.5-10.6-8.7-7-15.7 2.4-4.7 2.5-6.6 0.4-7.4-2.6-1-3.1-0.7-4.4 2.4z"/>
	</g>
</svg>