{
  "accessors": [
    {
      "bufferView": 2,
      "componentType": 5126,
      "count": 538,
      "max": [
        0.25010448694229126,
        0.20449435710906982,
        0.4293253421783447
      ],
      "min": [
        -0.24989549815654755,
        -0.15009666979312897,
        -0.4286781847476959
      ],
      "type": "VEC3"
    },
    {
      "bufferView": 2,
      "byteOffset": 6456,
      "componentType": 5126,
      "count": 538,
      "max": [
        1.0,
        0.9999778270721436,
        0.9999954104423523
      ],
      "min": [
        -1.0,
        -1.0,
        -0.9999998211860657
      ],
      "type": "VEC3"
    },
    {
      "bufferView": 3,
      "componentType": 5126,
      "count": 538,
      "max": [
        1.0,
        1.0,
        0.9174212217330933,
        1.0
      ],
      "min": [
        -0.9274488687515259,
        -0.9999999403953552,
        -0.9169828295707703,
        1.0
      ],
      "type": "VEC4"
    },
    {
      "bufferView": 1,
      "componentType": 5126,
      "count": 538,
      "max": [
        0.9157284498214722,
        0.997960090637207
      ],
      "min": [
        0.0020399093627929688,
        0.0020399093627929688
      ],
      "type": "VEC2"
    },
    {
      "bufferView": 1,
      "byteOffset": 4304,
      "componentType": 5126,
      "count": 538,
      "max": [
        0.9157284498214722,
        0.997960090637207
      ],
      "min": [
        0.0020399093627929688,
        0.0020399093627929688
      ],
      "type": "VEC2"
    },
    {
      "bufferView": 1,
      "byteOffset": 8608,
      "componentType": 5126,
      "count": 538,
      "max": [
        0.9157284498214722,
        0.997960090637207
      ],
      "min": [
        0.0020399093627929688,
        0.0020399093627929688
      ],
      "type": "VEC2"
    },
    {
      "bufferView": 1,
      "byteOffset": 12912,
      "componentType": 5126,
      "count": 538,
      "max": [
        0.9157284498214722,
        0.997960090637207
      ],
      "min": [
        0.0020399093627929688,
        0.0020399093627929688
      ],
      "type": "VEC2"
    },
    {
      "bufferView": 0,
      "componentType": 5125,
      "count": 2484,
      "type": "SCALAR"
    },
    {
      "bufferView": 2,
      "byteOffset": 12912,
      "componentType": 5126,
      "count": 136,
      "max": [
        1.0,
        1.69887113571167,
        8.596412658691406
      ],
      "min": [
        -1.0,
        -1.69887113571167,
        -8.595776557922363
      ],
      "type": "VEC3"
    },
    {
      "bufferView": 2,
      "byteOffset": 14544,
      "componentType": 5126,
      "count": 136,
      "max": [
        1.0,
        1.0,
        0.9998776316642761
      ],
      "min": [
        -1.0,
        -0.9998828768730164,
        -0.9998828768730164
      ],
      "type": "VEC3"
    },
    {
      "bufferView": 3,
      "byteOffset": 8608,
      "componentType": 5126,
      "count": 136,
      "max": [
        1.0,
        1.0,
        0.9998828768730164,
        1.0
      ],
      "min": [
        -1.0,
        -0.9297763109207153,
        -0.9958305358886719,
        1.0
      ],
      "type": "VEC4"
    },
    {
      "bufferView": 1,
      "byteOffset": 17216,
      "componentType": 5126,
      "count": 136,
      "max": [
        0.6369868516921997,
        0.9984235763549805
      ],
      "min": [
        0.0015767812728881836,
        0.0015764236450195313
      ],
      "type": "VEC2"
    },
    {
      "bufferView": 1,
      "byteOffset": 18304,
      "componentType": 5126,
      "count": 136,
      "max": [
        0.6369868516921997,
        0.9984235763549805
      ],
      "min": [
        0.0015767812728881836,
        0.0015764236450195313
      ],
      "type": "VEC2"
    },
    {
      "bufferView": 1,
      "byteOffset": 19392,
      "componentType": 5126,
      "count": 136,
      "max": [
        0.6369868516921997,
        0.9984235763549805
      ],
      "min": [
        0.0015767812728881836,
        0.0015764236450195313
      ],
      "type": "VEC2"
    },
    {
      "bufferView": 1,
      "byteOffset": 20480,
      "componentType": 5126,
      "count": 136,
      "max": [
        0.6369868516921997,
        0.9984235763549805
      ],
      "min": [
        0.0015767812728881836,
        0.0015764236450195313
      ],
      "type": "VEC2"
    },
    {
      "bufferView": 0,
      "byteOffset": 9936,
      "componentType": 5125,
      "count": 408,
      "type": "SCALAR"
    }
  ],
  "asset": {
    "extras": {
      "author": "hopefuldesign (https://sketchfab.com/hopefuldesign)",
      "license": "CC-BY-4.0 (http://creativecommons.org/licenses/by/4.0/)",
      "source": "https://sketchfab.com/3d-models/box-package-0335892364814f5d9006542e03e58741",
      "title": "Box package"
    },
    "generator": "Sketchfab-12.87.0",
    "version": "2.0"
  },
  "bufferViews": [
    {
      "buffer": 0,
      "byteLength": 11568,
      "name": "floatBufferViews",
      "target": 34963
    },
    {
      "buffer": 0,
      "byteLength": 21568,
      "byteOffset": 11568,
      "byteStride": 8,
      "name": "floatBufferViews",
      "target": 34962
    },
    {
      "buffer": 0,
      "byteLength": 16176,
      "byteOffset": 33136,
      "byteStride": 12,
      "name": "floatBufferViews",
      "target": 34962
    },
    {
      "buffer": 0,
      "byteLength": 10784,
      "byteOffset": 49312,
      "byteStride": 16,
      "name": "floatBufferViews",
      "target": 34962
    }
  ],
  "buffers": [
    {
      "byteLength": 60096,
      "uri": "scene.bin"
    }
  ],
  "images": [
    {
      "uri": "textures/material_baseColor.png"
    },
    {
      "uri": "textures/material_metallicRoughness.png"
    },
    {
      "uri": "textures/material_normal.png"
    },
    {
      "uri": "textures/tape_baseColor.png"
    },
    {
      "uri": "textures/tape_metallicRoughness.png"
    },
    {
      "uri": "textures/tape_normal.png"
    }
  ],
  "materials": [
    {
      "doubleSided": true,
      "name": "material",
      "normalTexture": {
        "index": 2
      },
      "pbrMetallicRoughness": {
        "baseColorTexture": {
          "index": 0
        },
        "metallicRoughnessTexture": {
          "index": 1
        }
      }
    },
    {
      "doubleSided": true,
      "name": "tape",
      "normalTexture": {
        "index": 5,
        "texCoord": 2
      },
      "pbrMetallicRoughness": {
        "baseColorTexture": {
          "index": 3
        },
        "metallicRoughnessTexture": {
          "index": 4,
          "texCoord": 1
        }
      }
    }
  ],
  "meshes": [
    {
      "name": "Object_0",
      "primitives": [
        {
          "attributes": {
            "NORMAL": 1,
            "POSITION": 0,
            "TANGENT": 2,
            "TEXCOORD_0": 3,
            "TEXCOORD_1": 4,
            "TEXCOORD_2": 5,
            "TEXCOORD_3": 6
          },
          "indices": 7,
          "material": 0,
          "mode": 4
        }
      ]
    },
    {
      "name": "Object_1",
      "primitives": [
        {
          "attributes": {
            "NORMAL": 9,
            "POSITION": 8,
            "TANGENT": 10,
            "TEXCOORD_0": 11,
            "TEXCOORD_1": 12,
            "TEXCOORD_2": 13,
            "TEXCOORD_3": 14
          },
          "indices": 15,
          "material": 1,
          "mode": 4
        }
      ]
    }
  ],
  "nodes": [
    {
      "children": [
        1
      ],
      "matrix": [
        0.6666666865348816,
        0.0,
        0.0,
        0.0,
        0.0,
        1.4802974102831747e-16,
        -0.6666666865348816,
        0.0,
        0.0,
        0.6666666865348816,
        1.4802974102831747e-16,
        0.0,
        0.0,
        0.0,
        0.0,
        1.0
      ],
      "name": "Sketchfab_model"
    },
    {
      "children": [
        2
      ],
      "name": "root"
    },
    {
      "children": [
        3,
        5
      ],
      "matrix": [
        1.0,
        0.0,
        0.0,
        0.0,
        0.0,
        2.220446049250313e-16,
        1.0,
        0.0,
        0.0,
        -1.0,
        2.220446049250313e-16,
        0.0,
        0.0,
        0.0,
        0.0,
        1.0
      ],
      "name": "GLTF_SceneRootNode"
    },
    {
      "children": [
        4
      ],
      "matrix": [
        1.0,
        0.0,
        0.0,
        0.0,
        0.0,
        1.0,
        0.0,
        0.0,
        0.0,
        0.0,
        1.0,
        0.0,
        -0.00010449641558807343,
        -0.024893494322896004,
        0.0014179133577272296,
        1.0
      ],
      "name": "box_0"
    },
    {
      "mesh": 0,
      "name": "Object_4"
    },
    {
      "children": [
        6
      ],
      "matrix": [
        0.05000000074505806,
        0.0,
        0.0,
        0.0,
        0.0,
        0.05288134515285492,
        0.0,
        0.0,
        0.0,
        0.0,
        0.05000000074505806,
        0.0,
        0.0,
        0.09033079445362091,
        0.0015423775184899569,
        1.0
      ],
      "name": "tape_1"
    },
    {
      "mesh": 1,
      "name": "Object_6"
    }
  ],
  "samplers": [
    {
      "magFilter": 9729,
      "minFilter": 9987,
      "wrapS": 10497,
      "wrapT": 10497
    }
  ],
  "scene": 0,
  "scenes": [
    {
      "name": "Sketchfab_Scene",
      "nodes": [
        0
      ]
    }
  ],
  "textures": [
    {
      "sampler": 0,
      "source": 0
    },
    {
      "sampler": 0,
      "source": 1
    },
    {
      "sampler": 0,
      "source": 2
    },
    {
      "sampler": 0,
      "source": 3
    },
    {
      "sampler": 0,
      "source": 4
    },
    {
      "sampler": 0,
      "source": 5
    }
  ]
}
