<svg xmlns="http://www.w3.org/2000/svg" width="512" height="512" viewBox="0 0 512 512">
	<path d="M 238.136 14.336 C 235.887 17.045, 234 24.424, 234 30.503 C 234 34.292, 233.508 37.158, 232.750 37.778 C 232.063 38.341, 227.900 40.001, 223.500 41.466 C 210.218 45.890, 200.133 53.002, 191.254 64.207 C 181.551 76.451, 176.774 87.411, 173.053 105.977 C 171.904 111.707, 170.085 117.886, 169.011 119.706 C 167.936 121.527, 166.316 126.675, 165.410 131.145 C 161.432 150.781, 166.548 168.116, 178.067 174.024 C 180.029 175.031, 182.194 176.529, 182.879 177.354 C 184.770 179.633, 187.576 197.824, 186.241 199.159 C 185.648 199.752, 180.288 201.560, 174.331 203.176 C 163.330 206.160, 159 208.138, 159 210.179 C 159 210.802, 160.142 212.809, 161.538 214.639 C 166.067 220.576, 168.980 228.086, 168.990 233.850 C 168.999 238.607, 168.623 239.577, 165.600 242.600 C 159.961 248.239, 155.920 246.821, 151.500 237.650 C 148.334 231.081, 144.527 231.668, 133 240.504 C 129.975 242.822, 123.708 246.920, 119.074 249.610 C 99.118 261.193, 88.396 277.301, 74.052 317.253 C 70.844 326.189, 67.261 335.694, 66.091 338.376 C 64.497 342.029, 64.242 343.586, 65.073 344.588 C 66.949 346.848, 76.686 349.957, 84.025 350.639 C 88.069 351.015, 90.998 351.752, 90.996 352.394 C 90.993 353.002, 89.658 355.511, 88.027 357.968 C 82.838 365.790, 83.181 371.084, 89.202 376.108 L 92.328 378.716 87.650 397.108 C 85.077 407.224, 82.496 417.233, 81.915 419.351 C 81.262 421.735, 78.620 425.609, 74.981 429.520 C 68.070 436.950, 65.776 443.184, 65.607 454.997 C 65.478 464.034, 67.165 465.006, 70.814 458 C 73.848 452.174, 76.852 449, 79.329 449 C 84.026 449, 91.929 460.671, 97.273 475.500 C 101.488 487.197, 101.805 487.641, 107.874 490.339 C 115.782 493.854, 123.516 496.240, 125.670 495.828 C 127.227 495.530, 127.597 494.103, 128.149 486.268 C 128.859 476.189, 131.993 460.240, 134.955 451.631 C 135.993 448.613, 139.655 439.530, 143.091 431.445 C 150.255 414.593, 150.138 414.623, 154.697 428.482 C 156.899 435.175, 157.359 438.484, 157.480 448.500 C 157.560 455.100, 157.973 462.123, 158.397 464.107 C 158.986 466.858, 158.563 469.456, 156.614 475.060 C 154.188 482.035, 154.146 482.504, 155.779 484.312 C 158.155 486.941, 165.019 490.242, 174.500 493.313 C 199.691 501.474, 223.145 504.686, 250 503.653 C 290.286 502.103, 315.823 497.882, 331 490.264 C 339.641 485.927, 340.303 484.439, 337.433 475.798 C 334.197 466.055, 336.982 447.397, 345.118 424.312 C 348.554 414.566, 351.642 408, 352.790 408 C 354.815 408, 366.085 428.992, 371.826 443.455 C 375.333 452.290, 375.418 452.824, 375.458 466.500 C 375.481 474.200, 375.101 483.728, 374.613 487.674 L 373.727 494.849 378.113 493.892 C 385.477 492.285, 392.401 489.829, 394.378 488.122 C 395.411 487.230, 399.102 482.126, 402.579 476.780 C 409.863 465.582, 416.242 459.055, 423.375 455.501 C 429.557 452.420, 431.175 452.386, 434.525 455.268 C 436.536 456.998, 437.321 458.833, 437.831 463.005 C 438.621 469.459, 440.826 470.721, 443.687 466.355 C 445.080 464.228, 445.500 461.610, 445.500 455.044 C 445.500 446.582, 445.436 446.366, 438.859 432.500 C 431.994 418.026, 429.162 410.266, 426.580 398.853 C 424.064 387.727, 424.218 386.068, 428.402 379.289 C 430.973 375.124, 431.981 372.516, 431.548 371.152 C 431.198 370.047, 428.681 366.354, 425.955 362.944 C 423.230 359.535, 421 356.220, 421 355.579 C 421 354.937, 424.938 353.130, 429.750 351.563 C 442.394 347.446, 447 345.295, 447 343.507 C 447 341.835, 430.131 303.220, 424.290 291.524 C 416.097 275.115, 402.314 258.081, 390.907 250.266 C 380.130 242.883, 360.403 232, 357.797 232 C 355.587 232, 354.012 233.300, 349.926 238.500 C 347.116 242.075, 344.627 245, 344.395 245 C 344.162 245, 341.572 243.088, 338.639 240.750 C 335.706 238.412, 331.887 235.733, 330.153 234.797 C 327.361 233.288, 327.003 232.601, 327.024 228.797 C 327.052 223.698, 330.330 215.288, 334.850 208.717 C 336.642 206.114, 337.803 203.490, 337.430 202.887 C 337.058 202.285, 334.967 200.992, 332.784 200.015 C 329.142 198.384, 328.350 198.360, 323.158 199.717 C 316.263 201.518, 304.622 201.094, 302.634 198.967 C 301.560 197.819, 301.437 195.777, 302.067 189.573 C 303.232 178.096, 303.467 177.544, 308.059 175.473 C 313.471 173.033, 319.458 166.091, 321.688 159.671 C 325.209 149.531, 323.338 132.867, 317.316 120.735 C 316.015 118.114, 313.848 111.303, 312.501 105.600 C 307.616 84.928, 301.660 72.977, 290.170 60.798 C 279.590 49.582, 268.441 42.891, 254.492 39.388 L 248 37.757 248 33.860 C 248 29.845, 243.915 16.807, 241.894 14.372 C 240.464 12.649, 239.543 12.641, 238.136 14.336 M 240.314 26.238 C 239.423 27.420, 240.553 111.817, 241.498 114.686 C 241.750 115.453, 245.482 114.055, 252.033 110.740 C 261.474 105.964, 262.781 105.579, 270.859 105.192 C 278.559 104.824, 280.590 105.129, 288.827 107.889 C 293.935 109.600, 298.530 111, 299.038 111 C 300.351 111, 299.137 102.949, 296.355 93.212 C 292.735 80.542, 287.758 71.566, 280.179 64.038 L 273.597 57.500 272.649 60.128 C 271.971 62.004, 270.104 63.436, 266.128 65.128 C 263.064 66.433, 260.207 67.650, 259.779 67.833 C 259.350 68.017, 259 65.190, 259 61.552 C 259 56.595, 259.376 54.793, 260.500 54.362 C 264.585 52.794, 258.891 49.542, 249.769 48.233 L 244.500 47.476 244.216 37.332 C 244.022 30.394, 243.511 26.839, 242.599 26.082 C 241.614 25.265, 241.017 25.305, 240.314 26.238 M 267.176 109.070 C 252.838 111.892, 242.178 121.591, 241.976 132 C 241.910 135.425, 241.848 135.371, 239.095 129.424 C 233.857 118.112, 223.808 111.029, 212.973 111.010 C 207.866 111.001, 203 112.869, 203 114.839 C 203 115.239, 206.090 115.391, 209.868 115.177 C 215.214 114.875, 217.754 115.240, 221.335 116.824 C 227.744 119.659, 235.494 127.238, 238.515 133.624 C 239.914 136.581, 241.488 139, 242.012 139 C 242.537 139, 244.060 136.842, 245.396 134.204 C 248.700 127.686, 255.373 121.217, 262 118.110 C 272.101 113.374, 284.880 115.465, 298.459 124.076 C 300.995 125.684, 303.504 127, 304.035 127 C 306.140 127, 304.798 123.737, 300.997 119.613 C 296.547 114.785, 288.158 110.547, 279.980 108.996 C 274.063 107.874, 273.229 107.879, 267.176 109.070 M 309.609 131.020 C 308.388 134.070, 308 138.555, 308 149.604 C 308 166.226, 308.436 166.801, 313.928 157.424 C 318.243 150.054, 319.067 142.773, 316.481 134.848 C 313.537 125.829, 312.023 124.985, 309.609 131.020 M 300.866 141.753 C 300.236 153.245, 299.301 155.101, 293.129 157.101 C 291.133 157.748, 286.026 160.013, 281.779 162.135 L 274.058 165.993 269.327 162.993 C 265.546 160.594, 245.316 152, 243.452 152 C 243.204 152, 243.008 154.363, 243.018 157.250 L 243.037 162.500 257.406 170.070 C 271.399 177.441, 271.837 177.595, 274.138 175.964 C 275.437 175.042, 278.613 173.497, 281.196 172.529 C 284.447 171.311, 285.985 170.133, 286.196 168.700 C 286.384 167.419, 288.550 165.428, 291.875 163.479 C 300.730 158.290, 303.758 150.452, 302.104 137 C 301.472 131.858, 301.392 132.168, 300.866 141.753 M 184.087 136.500 C 183.971 141.356, 185.967 152.036, 187.569 155.134 C 188.553 157.037, 191.388 159.178, 196.001 161.500 C 203.426 165.240, 204 165.434, 204 164.210 C 204 163.776, 200.902 161.748, 197.116 159.703 C 193.330 157.658, 189.695 155.338, 189.039 154.547 C 188.383 153.757, 187.183 149.148, 186.373 144.305 C 184.647 133.988, 184.184 132.407, 184.087 136.500 M 176.158 138 C 176.158 139.375, 176.385 139.938, 176.662 139.250 C 176.940 138.563, 176.940 137.438, 176.662 136.750 C 176.385 136.063, 176.158 136.625, 176.158 138 M 312.250 137.667 C 310.526 138.356, 310.678 144.196, 312.481 146.559 C 313.765 148.242, 314.099 148.301, 314.992 147 C 316.257 145.157, 315.877 137.748, 314.500 137.411 C 313.950 137.277, 312.938 137.392, 312.250 137.667 M 177.272 147 C 177.272 149.475, 177.467 150.488, 177.706 149.250 C 177.944 148.012, 177.944 145.988, 177.706 144.750 C 177.467 143.512, 177.272 144.525, 177.272 147 M 176.079 153.583 C 176.127 154.748, 176.364 154.985, 176.683 154.188 C 176.972 153.466, 176.936 152.603, 176.604 152.271 C 176.272 151.939, 176.036 152.529, 176.079 153.583 M 243.193 173.697 C 243.483 178.219, 243.778 178.667, 248.500 181.766 C 251.250 183.572, 257.100 186.862, 261.500 189.078 L 269.500 193.107 277 189.304 L 284.500 185.500 284.805 180.733 L 285.111 175.966 280.113 177.865 C 277.365 178.909, 273.916 180.708, 272.450 181.861 L 269.784 183.958 265.142 181.284 C 262.589 179.814, 258.919 177.635, 256.986 176.442 C 255.053 175.249, 251.090 173.066, 248.179 171.591 L 242.887 168.909 243.193 173.697 M 291 171.326 C 291 172.056, 290.519 177.568, 289.931 183.576 C 288.438 198.830, 287.096 201.267, 276.298 208.319 C 271.513 211.443, 266.985 214, 266.236 214 C 265.486 214, 259.940 211.237, 253.910 207.860 C 247.880 204.483, 242.796 201.896, 242.613 202.110 C 242.430 202.325, 241.996 205.338, 241.649 208.806 C 240.898 216.322, 241.459 217.045, 253.299 223.819 L 260.840 228.134 264.170 226.441 C 273.300 221.801, 288.064 209.710, 290.608 204.791 C 291.408 203.244, 292.718 195.796, 293.520 188.239 C 295.436 170.193, 295.430 170, 293 170 C 291.900 170, 291 170.597, 291 171.326 M 194 174.119 C 194 178.657, 198.154 199.472, 199.664 202.500 C 201.258 205.697, 208 211.897, 208 210.167 C 208 209.600, 206.685 208.200, 205.078 207.055 C 201.362 204.410, 199.581 199.472, 196.940 184.500 C 194.814 172.444, 194 169.570, 194 174.119 M 224.250 184.115 C 220.841 186.298, 219.738 187.764, 222.750 186.108 C 225.044 184.847, 228.639 182.068, 228 182.049 C 227.725 182.040, 226.037 182.970, 224.250 184.115 M 206.083 185.303 C 206.313 185.469, 207.850 186.396, 209.500 187.362 L 212.500 189.119 210.139 187.059 C 208.841 185.927, 207.303 185, 206.723 185 C 206.142 185, 205.854 185.136, 206.083 185.303 M 243 190.345 C 243 194.178, 243.495 196.128, 244.750 197.240 C 247.299 199.498, 265.313 210.300, 266.559 210.318 C 267.947 210.338, 279.003 202.797, 281.238 200.306 C 283.288 198.022, 284.598 192.488, 283.282 191.675 C 282.231 191.025, 272.312 195.408, 269.906 197.585 C 268.490 198.867, 267.356 198.509, 260.089 194.489 C 255.570 191.990, 250.110 188.832, 247.956 187.472 C 245.802 186.113, 243.806 185, 243.520 185 C 243.234 185, 243 187.405, 243 190.345 M 222 203.089 C 219.846 204.851, 219.804 204.986, 221.694 204.062 C 222.901 203.472, 224.165 202.542, 224.503 201.995 C 225.406 200.534, 224.800 200.799, 222 203.089 M 317.453 212.914 C 310.759 216.753, 306.367 221.790, 300.783 232.031 C 298.243 236.689, 295.023 241.572, 293.628 242.882 C 291.841 244.560, 285.680 246.824, 272.795 250.539 C 262.733 253.440, 249.667 257.880, 243.759 260.407 C 237.852 262.933, 232.425 265, 231.701 265 C 230.976 265, 226.809 263.706, 222.441 262.125 C 209.581 257.468, 210 257.532, 210 260.230 C 210 262.345, 211.250 263.040, 221.849 266.823 L 233.698 271.051 245.185 266.560 C 251.503 264.090, 263.767 260.014, 272.439 257.502 C 295.909 250.705, 296.897 250.033, 304.096 236 C 307.294 229.765, 310.698 225.168, 316.871 218.750 C 321.499 213.938, 324.658 210.004, 323.893 210.009 C 323.127 210.015, 320.229 211.322, 317.453 212.914 M 348.862 248.986 C 334.584 264.906, 331.883 271.850, 333.835 287.627 C 335.068 297.595, 339.011 309.930, 343.307 317.260 C 350.085 328.826, 364.523 340.743, 377 345.069 C 384.970 347.832, 404.605 348.836, 416.026 347.064 C 424.776 345.706, 425.749 345.032, 424.420 341.255 L 423.450 338.500 406.975 338.430 C 383.580 338.330, 374.118 335.676, 362.500 325.955 C 349.143 314.780, 341.219 296.981, 342.239 280.445 C 342.786 271.589, 345.778 264.857, 353.327 255.500 C 359.452 247.908, 359.993 246.208, 357.112 243.601 C 355.301 241.963, 354.961 242.185, 348.862 248.986 M 142.696 243.637 C 142.346 243.988, 142.948 245.523, 144.034 247.048 C 145.121 248.574, 147.086 252.145, 148.401 254.984 C 150.921 260.424, 152.133 260.279, 152.297 254.518 C 152.463 248.645, 145.538 240.796, 142.696 243.637 M 324 248.573 C 317.868 252.909, 302.855 260.264, 291.505 264.493 C 284.057 267.268, 280.404 269.139, 280.182 270.294 C 279.957 271.462, 280.512 272, 281.943 272 C 285.343 272, 308.873 263.149, 317.230 258.727 C 325.383 254.412, 331.681 248.910, 330.553 247.086 C 329.545 245.455, 327.872 245.835, 324 248.573 M 369.589 255.143 C 363.757 256.474, 359.101 259.771, 355.879 264.852 C 353.517 268.577, 353.003 270.478, 353.015 275.446 C 353.034 283.205, 354.464 285.912, 360.183 289.012 C 366.988 292.701, 368.387 294.274, 374.211 304.788 C 384.458 323.289, 392.138 328.691, 409.678 329.738 C 418.734 330.278, 419.204 330.208, 418.680 328.404 C 417.451 324.168, 415.905 317.965, 413.545 307.797 C 408.610 286.533, 400.043 270.050, 389.630 261.785 C 381.734 255.518, 376.111 253.655, 369.589 255.143 M 136.250 257.651 C 134.768 258.262, 134.580 261.622, 135.979 262.487 C 137.562 263.465, 141.149 261.014, 140.799 259.194 C 140.464 257.458, 138.408 256.760, 136.250 257.651 M 103.711 271.252 C 97.259 277.704, 91.135 287.287, 86.071 298.855 C 81.509 309.277, 75 327.080, 75 329.136 C 75 332.754, 82.146 330.711, 86.755 325.775 C 88.318 324.101, 89.649 320.313, 91.091 313.430 C 95.141 294.099, 100.921 280.278, 107.812 273.448 C 110.004 271.277, 112.097 268.488, 112.466 267.250 C 113.686 263.147, 110.242 264.721, 103.711 271.252 M 142.508 268.214 C 142.114 269.727, 140.849 271.225, 139.651 271.599 C 136.774 272.496, 136.034 273.818, 136.015 278.090 C 135.978 286.770, 130.006 303.769, 122.983 315.182 L 120.073 319.912 122.691 321.971 C 125.113 323.876, 125.443 323.909, 127.096 322.413 C 129.398 320.330, 136.528 306.627, 139.159 299.232 C 141.688 292.123, 145.018 270.208, 143.981 267.500 C 143.280 265.668, 143.156 265.728, 142.508 268.214 M 298.500 276.632 C 283.288 283.739, 270.475 287.175, 258.500 287.361 C 248.324 287.518, 245.290 286.377, 234.651 278.391 C 231.434 275.976, 228.025 274, 227.075 274 C 226.126 274, 222.104 276.458, 218.138 279.463 C 205.927 288.714, 197.283 289.395, 182.186 282.294 C 179.264 280.919, 176.604 280.063, 176.276 280.391 C 175.115 281.551, 179.183 284.810, 185.303 287.623 C 190.565 290.042, 192.788 290.473, 200.037 290.486 C 208.312 290.500, 208.802 290.367, 216.037 286.149 C 220.142 283.757, 224.434 281.788, 225.577 281.774 C 226.719 281.761, 230.668 283.654, 234.352 285.981 C 245.593 293.080, 249.999 294.420, 262 294.391 C 274.434 294.360, 282.781 291.922, 297.775 283.938 C 307.370 278.829, 310.674 277.988, 311.606 280.415 C 311.904 281.193, 310.698 286.031, 308.925 291.165 C 302.859 308.727, 305.083 324.442, 315.004 334.130 C 319.401 338.424, 322.233 339.878, 329.203 341.417 L 331.906 342.015 330.313 346.257 C 327.508 353.729, 327.240 397.897, 330.030 392.911 C 330.489 392.091, 331.268 382.437, 331.760 371.459 C 332.599 352.746, 332.821 351.177, 335.309 346.321 C 336.768 343.472, 338.421 340.858, 338.981 340.512 C 340.272 339.714, 340.310 338, 339.038 338 C 338.508 338, 335.673 337.101, 332.738 336.003 C 326.200 333.557, 319.556 327.264, 316.373 320.500 C 311.964 311.133, 313.959 295.755, 321.030 284.612 L 324.131 279.724 319.316 275.407 C 316.667 273.032, 313.600 271.075, 312.500 271.058 C 311.400 271.041, 305.100 273.549, 298.500 276.632 M 153 280.438 C 153 281.229, 153.721 284.941, 154.603 288.688 C 157.579 301.333, 155.237 313.114, 147.340 325.230 C 145.919 327.411, 145.812 328.212, 146.808 329.208 C 149.495 331.895, 155.667 324.358, 158.535 314.884 C 160.937 306.951, 160.257 290.404, 157.255 283.750 C 155.188 279.168, 153 277.465, 153 280.438 M 227.522 295.756 C 225.347 301.269, 223.924 411.764, 225.987 415 C 226.755 416.206, 228.916 414.496, 237.012 406.271 C 248.632 394.468, 256.807 388.324, 267.160 383.613 C 278.692 378.366, 282.922 377.586, 300.092 377.541 C 311.786 377.510, 316.098 377.157, 317.342 376.128 C 318.701 375.002, 319 372.786, 319 363.817 L 319 352.880 311.626 345.690 C 298.200 332.599, 293.625 318.034, 297.351 300.250 C 298.072 296.813, 298.455 294, 298.202 294 C 297.950 294, 295.429 295.324, 292.601 296.942 C 285.766 300.853, 270.990 305.706, 263.333 306.555 C 253.872 307.605, 242.464 304.168, 233.500 297.567 C 228.733 294.057, 228.249 293.911, 227.522 295.756 M 405.500 369.015 C 394.966 371.110, 373.462 380.669, 372.253 383.793 C 371.181 386.564, 373.338 386.144, 382.739 381.748 C 393.626 376.659, 403.465 373.405, 410.989 372.407 C 416.267 371.707, 417.735 369.698, 413.750 368.630 C 411.155 367.935, 410.860 367.949, 405.500 369.015 M 116 372.376 C 116 373.696, 128.617 381, 130.896 381 C 133.471 381, 131.583 378.962, 125.442 375.112 C 118.586 370.813, 116 370.064, 116 372.376 M 402 389.861 C 393.823 392.105, 391 393.618, 391 395.755 C 391 398.872, 403.894 423.455, 408.045 428.250 C 411.384 432.109, 412.769 433, 415.423 433 C 417.440 433, 419.395 432.221, 420.534 430.963 C 422.226 429.092, 422.276 428.334, 421.140 421.713 C 420.459 417.746, 418.462 408.650, 416.701 401.500 C 413.009 386.504, 413.324 386.754, 402 389.861 M 274 394.826 C 261.647 398.954, 251.366 405.741, 240.967 416.633 C 236.824 420.973, 231.729 427.331, 229.645 430.762 C 227.560 434.193, 225.689 437, 225.486 437 C 225.283 437, 223.734 434.413, 222.044 431.250 C 211.798 412.079, 191.857 395.184, 178.871 394.672 C 171.975 394.400, 172.844 395.990, 181 398.565 C 185.125 399.867, 190.838 402.411, 193.695 404.216 C 205.597 411.740, 217.044 425.915, 222.550 439.951 C 224.058 443.794, 225.584 446.757, 225.942 446.536 C 226.300 446.315, 228.271 442.827, 230.322 438.786 C 235.216 429.145, 241.456 421.317, 249.615 414.588 C 271.580 396.470, 294.626 393.997, 318.841 407.161 C 322.878 409.356, 326.463 410.871, 326.806 410.528 C 328.812 408.521, 318.329 400.177, 309 396.355 C 300.225 392.760, 282.501 391.985, 274 394.826 M 121.242 395.309 C 120.745 395.964, 119.080 400.100, 117.543 404.500 C 116.005 408.900, 112.779 416.263, 110.374 420.863 C 105.969 429.285, 105.151 432.358, 107.009 433.506 C 109.267 434.901, 111.885 432.644, 114.299 427.222 C 117.379 420.301, 125.804 399.032, 126.209 397.154 C 126.608 395.309, 122.422 393.755, 121.242 395.309 M 288.500 415.551 C 277.522 421.388, 239.249 449.718, 238.247 452.750 C 237.427 455.229, 240.127 453.863, 252.212 445.686 C 258.970 441.114, 271.863 432.919, 280.862 427.476 C 289.861 422.033, 297.464 416.954, 297.758 416.189 C 298.295 414.790, 296.447 413.044, 294.399 413.015 C 293.793 413.007, 291.139 414.148, 288.500 415.551 M 303.927 433.827 C 297.562 438.123, 287.887 444.957, 282.427 449.013 C 267.973 459.751, 246.596 474.877, 238.250 480.273 C 234.262 482.850, 231 485.633, 231 486.455 C 231 487.593, 231.538 487.746, 233.250 487.094 C 240.057 484.504, 319 431.621, 319 429.651 C 319 428.386, 317.063 425.994, 316.050 426.007 C 315.748 426.012, 310.292 429.530, 303.927 433.827 M 424.485 439.107 C 413.840 444.736, 398.013 460, 402.822 460 C 403.273 460, 406.761 457.494, 410.572 454.430 C 422.161 445.114, 429.230 442.472, 434.945 445.322 C 438.978 447.334, 438.971 445.634, 434.927 440.728 C 431.384 436.429, 429.966 436.209, 424.485 439.107 M 313.497 456.601 C 303.587 463.743, 284.280 476.525, 273.549 483.049 C 263.105 489.398, 260.116 492, 263.269 492 C 265.457 492, 285.320 481.999, 296 475.519 C 317.258 462.623, 322.821 457.756, 320.535 454.057 C 319.551 452.465, 318.919 452.693, 313.497 456.601 M 309.750 480.255 C 304.938 483.057, 301 485.714, 301 486.160 C 301 488.465, 319.321 479.288, 319.812 476.737 C 320.284 474.288, 319.573 474.537, 309.750 480.255" stroke="none" fill="rgb(128 128 128 / 10%)" fill-rule="evenodd"/>
</svg>